<svg xmlns="http://www.w3.org/2000/svg" xmlns:xlink="http://www.w3.org/1999/xlink" viewBox="0 0 1435.1 832" style="enable-background:new 0 0 1435.1 832" xml:space="preserve"><style>.st0{fill:none}.st1{fill:#120667}.st2{fill:#5333ed}.st3{display:none}.st26{fill:#ffc398}.st28{fill:#0c022f}.st32{fill:#9e684d}.st33{fill:#724c3b}.st35{fill:#c2d3eb}.st43{fill:#4e2d23}.st45{fill:#b7835f}.st46{fill:#0f0446}.st51{fill:#dfe9f8}.st55{fill:#fff}.st58{opacity:.6}.st100,.st114,.st143{fill-rule:evenodd;clip-rule:evenodd;fill:#fff}.st114,.st143{fill:#c2d3eb}.st143{fill:#120667}.st144{fill:#723925}.st145{fill-rule:evenodd;clip-rule:evenodd;fill:#b7835f}.st198{fill:#996a4a}.st235{fill:#9b31f7}.st336{opacity:.5;fill:#fff}.st344,.st349{opacity:.3;fill:#c2d3eb}.st349{opacity:.5;fill-rule:evenodd;clip-rule:evenodd}.st357,.st363{fill:none;stroke:#5333ed;stroke-width:.5933;stroke-linecap:round;stroke-miterlimit:10}.st363{stroke-width:.9825}.st366{opacity:.4;fill:#0a54c9}.st378{fill:none;stroke:#120667;stroke-width:.2422;stroke-linecap:round;stroke-miterlimit:10}.st392,.st395{opacity:.4;fill:#dfe9f8}.st395{fill:#5333ed}</style><pattern x="462.3" y="-2497.7" width="88" height="88" patternUnits="userSpaceOnUse" id="New_Pattern_Swatch_13" viewBox="0 -88 88 88" style="overflow:visible"><path class="st0" d="M0-88h88V0H0z"/><path class="st1" d="M0-88h88V0H0z"/></pattern><pattern x="462.3" y="-2497.7" width="88" height="88" patternUnits="userSpaceOnUse" id="New_Pattern_Swatch_18" viewBox="0 -88 88 88" style="overflow:visible"><path class="st0" d="M0-88h88V0H0z"/><path class="st2" d="M0-88h88V0H0z"/></pattern><g id="Layer_10"><path class="st35" d="m479.7 832.3-.3-.6 799.1-464.4v-35.5h.6v35.8l-.1.1z"/><path class="st344" d="M733.7 271.6v-36.2l46.3-26.7v36.2z"/><path class="st35" d="M866.1 492.1c-.1 0-.2 0-.3-.1L799 452c-.3-.2-.4-.6-.2-.9.2-.3.6-.4.9-.2l66.5 39.8 316-182.7c.3-.2.7-.1.8.2s.1.7-.2.8L866.4 492c-.1 0-.2.1-.3.1z"/><path class="st35" d="M612.2 755.5c-.3 0-.6-.3-.6-.6V638.3c0-.2.1-.4.3-.5L866 490.9c.3-.2.7-.1.8.2.2.3.1.7-.2.8L612.8 638.7V755c0 .3-.3.5-.6.5z"/><linearGradient id="SVGID_4_" gradientUnits="userSpaceOnUse" x1="718.39" y1="651.681" x2="1401.249" y2="651.681"><stop offset="0" style="stop-color:#c2d3eb;stop-opacity:0"/><stop offset="1" style="stop-color:#c2d3eb"/></linearGradient><path style="fill:url(#SVGID_4_)" d="M719 836.5c-.2 0-.4-.1-.5-.3-.2-.3-.1-.7.2-.9l354.6-218.6c.2-.1.5-.1.7 0l83.5 51.9 241.9-139.9-105.6-60.7c-.3-.2-.4-.6-.2-.8.2-.3.5-.4.8-.2l106.6 61.2c.2.1.3.3.3.5s-.1.4-.3.5l-243.1 140.6c-.2.1-.4.1-.6 0l-83.5-51.9-354.5 218.5c-.1.1-.2.1-.3.1z"/><linearGradient id="SVGID_6_" gradientUnits="userSpaceOnUse" x1="1191.038" y1="468.191" x2="1412.223" y2="468.191"><stop offset="0" style="stop-color:#dfe9f8"/><stop offset="1" style="stop-color:#c2d3eb"/></linearGradient><path style="fill:url(#SVGID_6_)" d="m1191 454.7 134.3 77.5 86.9-50.5-134.2-77.5z"/><path style="opacity:.5;fill-rule:evenodd;clip-rule:evenodd;fill:#fff" d="m1317.3 445 59.7 34.6-49.8 29.5-59.7-34.6z"/><linearGradient id="SVGID_8_" gradientUnits="userSpaceOnUse" x1="1116.54" y1="284.107" x2="1337.726" y2="284.107"><stop offset="0" style="stop-color:#dfe9f8"/><stop offset="1" style="stop-color:#c2d3eb"/></linearGradient><path style="opacity:.3;fill:url(#SVGID_8_)" d="m1116.5 270.6 134.3 77.5 86.9-50.5-134.2-77.5z"/><path class="st349" d="m1283.5 281.6 26.9 16.1-17.5 10.3-26.9-16.1zM1206.2 236.7l66.7 38.3-17.5 10.3-66.7-38.2z"/><path style="opacity:.5;fill:#c2d3eb" d="m1146 270.4 105.9 61.1 33.5-19-105.8-61.1z"/><linearGradient id="SVGID_9_" gradientUnits="userSpaceOnUse" x1="1307.486" y1="395.972" x2="1435.112" y2="395.972"><stop offset="0" style="stop-color:#dfe9f8"/><stop offset="1" style="stop-color:#c2d3eb"/></linearGradient><path style="opacity:.3;fill:url(#SVGID_9_)" d="m1307.5 384.4 127.6 73.7V357.4l-40.7-23.5z"/><linearGradient id="SVGID_10_" gradientUnits="userSpaceOnUse" x1="-28.282" y1="676.626" x2="192.904" y2="676.626" gradientTransform="matrix(-1 0 0 1 1018.829 0)"><stop offset="0" style="stop-color:#dfe9f8"/><stop offset="1" style="stop-color:#c2d3eb"/></linearGradient><path style="opacity:.5;fill:url(#SVGID_10_)" d="m825.9 663.1 134.3 77.5 86.9-50.4-134.3-77.6z"/><path class="st114" d="m904.9 632.7 27 15.6-5.2 3-27-15.6zM943.4 655l27 15.6-5.2 3-27-15.6zM983.7 678.2l26.9 15.6-5.2 3-27-15.6z"/><linearGradient id="SVGID_11_" gradientUnits="userSpaceOnUse" x1="703.501" y1="747.537" x2="924.686" y2="747.537"><stop offset="0" style="stop-color:#dfe9f8"/><stop offset="1" style="stop-color:#c2d3eb"/></linearGradient><path style="opacity:.3;fill:url(#SVGID_11_)" d="m703.5 734 134.3 77.5 86.9-50.4-134.3-77.6z"/><linearGradient id="SVGID_12_" gradientUnits="userSpaceOnUse" x1="630.709" y1="561.019" x2="851.894" y2="561.019"><stop offset="0" style="stop-color:#dfe9f8"/><stop offset="1" style="stop-color:#c2d3eb"/></linearGradient><path style="opacity:.3;fill:url(#SVGID_12_)" d="M630.7 547.5 765 625l86.9-50.4L717.6 497z"/><g style="opacity:.3"><path class="st35" d="m702 526.3 20.5 11.8-19.7 11.5-20.5-11.9zM740.7 548.6l20.6 11.9-19.8 11.4-20.5-11.8zM779.8 571.2l20.5 11.8-19.7 11.5-20.5-11.8z"/></g><linearGradient id="SVGID_13_" gradientUnits="userSpaceOnUse" x1="945.305" y1="607.526" x2="1166.49" y2="607.526"><stop offset="0" style="stop-color:#dfe9f8"/><stop offset="1" style="stop-color:#c2d3eb"/></linearGradient><path style="fill:url(#SVGID_13_)" d="m945.3 594 134.3 77.5 86.9-50.4-134.3-77.6z"/><linearGradient id="SVGID_14_" gradientUnits="userSpaceOnUse" x1="1104.027" y1="429.197" x2="1106.249" y2="328.308"><stop offset="0" style="stop-color:#c2d3eb;stop-opacity:0"/><stop offset="1" style="stop-color:#c2d3eb"/></linearGradient><path style="opacity:.3;fill:url(#SVGID_14_)" d="m994.9 360 134 77.4 86.7-50.4-134-77.3z"/><path class="st51" d="m994.4 341.8 134.2 77.5 87-50.4-134.3-77.6z"/><path class="st46" d="M1004.7 379.2v-1.7c0-.7-.4-1.4-1.1-1.7l-.5-.2c-.8-.4-1.8-.2-2.5.4-1.1 1-2.4 2.4-3.8 4.1-.6.7-1 1.3-1.4 1.7-.5.6-1.2 1.5-.5 1.9 0 0 1.3.8 2.4.2l6.9-3.9c.3-.2.5-.5.5-.8"/><path class="st32" d="m1002.9 373-4.4-.7 1.5 3.3c.4.6.9 1.3 1.7 1.8.9.5 1.9.5 2.2 0 .1-.1.1-.2.1-.4 0-.5-.2-1-.4-1.4l-.7-2.6z"/><path class="st46" d="M1003 378.1c-.2.4-1 .4-1.8 0-.7-.4-1.1-1.1-.9-1.5.2-.4 1-.4 1.8 0 .7.3 1.1 1 .9 1.5"/><path class="st357" d="M999 377.8c.3 0 .7.1 1.1.3.5.3.8.6.9 1M999.7 377.1c.3 0 .7.1 1.1.3.5.3.9.7.9 1.1M998.3 378.7c.3 0 .7.1 1 .3.4.2.7.6.8.9"/><path class="st235" d="M1004.7 379.2s-1.4.9-2.2 1.6c-.2.2-.5.4-.8.6l-4.3 2.5s-.5.3-1.2.2c-.8 0-1.5-.6-1.6-.8v.5s.8.7 1.5.8c.7 0 1.4-.2 2.7-1 1.1-.6 3.5-2 3.5-2v.4l2.3-1.5.1-1.3z"/><path class="st46" d="m1031.2 376.3-1.2-1.2c-.5-.5-1.3-.7-2-.4l-.5.2c-.8.3-1.4 1.1-1.4 2.1 0 1.4.1 3.4.3 5.6.2 2.1-.6 1.9-1 2.9-.3.7.3 1.9 1.1 1.7 0 0 2.1-.2 2.9-1.5l2.3-8.4c0-.4-.3-.8-.5-1"/><path class="st32" d="m1022.1 372.8-.8 4.4 4.3.5c1 0 1.5 0 2.4-.4 1-.4 1.5-1.2 1.3-1.7 0-.1-.1-.2-.2-.3-.4-.3-.8-.5-1.3-.7l-5.7-1.8z"/><path class="st46" d="M1028.5 377.1c.1.5-.4 1-1.2 1.3-.8.2-1.6 0-1.7-.4-.1-.5.4-1 1.2-1.3.8-.3 1.5-.1 1.7.4"/><path class="st357" d="M1026 379.5c.2-.2.6-.4 1-.6.5-.1 1-.1 1.3 0M1025.9 378.5c.2-.2.6-.4 1-.6.6-.2 1.1-.1 1.4.1M1026.2 380.6c.2-.2.5-.4.9-.5.5-.1.9-.1 1.2 0"/><path class="st2" d="M1031.2 376.3s-.3 1.6-.3 2.7c0 .3 0 .7-.1 1l-1.5 5c0 .1-.1.3-.2.4-.2.3-.6.9-1.1 1.2-.7.5-1.8.6-2 .6l.4.4s1 .1 1.8-.3c.6-.3 1.4-1.1 1.8-2.5.3-1.2 1.4-5.1 1.4-5.1l.3.3.5-2.7-1-1z"/><path class="st1" d="M1012.7 354.5s1.3-.4 1.6-2.1c.5-2.8 11.6 2.2 11.6 2.2s1.3.5 1.5 1.7c.4 2.4 2 4.5 2.2 7.4.7 12.1-24 7.6-24 7.6 2.6-.2 8.3.1 13.4 1 2.1.4 4-.1 5.5-.1 2.7-.1 2.7 1.3 3 2.1.5 1.5 0 3.6 0 3.6s-1.2 1.9-4.2.5c-3.4-1.6-5.8 1.1-8.5.8-3.3-.4-4.7-2-7.8-2.5-7.1-1.1-10.6-6.1-5.6-8.5l16.3-4.8s-8.5 6.9-13.9 2.5c-1.8-1.5-3.1-6-5.8-8 0 0 2.4 1.6 2.8 3 .8 2.6.3 1.5.6 3.4.2 1.5 2 1.8 2.6 4.4.4 1.4.2 3.5-.1 5-.2 1.1-1.1 1.9-2.2 1.9h-.7c-.4 0-.8-.1-1.1-.3-.9-.5-2.6-1.5-3.3-2.8-.9-1.5-.4-1.9-1.5-4.1-.3-.6-.8-.5-1.4-1.7-1.1-2.4-.4-3.8-1-6.2-.8-3.3-.8-6.2.7-7.8 1-1.1 3.3-2.3 5.5-1.9 2.6.5 2.9 2.2 4 2.7 1.8.8 3.4 0 5.2.5 3 .8 3.8.3 4.6.2"/><path class="st32" d="m996 365.6-3.9-.3 2.7 2.3s0 .4 1.5.8c0 0 1.7.9 2.8-.2 1.1-1.1-.8-1.6-.8-1.6l-2.3-1z"/><path class="st28" d="M1003.3 367s-3.8.4-4.1 3.2c-.2 2-.1 3.6 1.1 4.5.4.3 1.1.9 1.1.9.4.1 1.4-.3 1.4-.3-1.1-.5-2.3-1.3-2.7-2.1-1-1.8.4-4.5 1-4.8.5-.3 2.5-.9 2.5-.9l-.3-.5zM1005.5 367s10.4-3.4 11.8-5c0 0-1.8 0-2.3.4-1.2 1.1-8.7 3.5-10.1 4.2l.6.4zM1027.1 357c-1.2 2.1-5.1 2.1-8.7-.1-3.6-2.1-5.5-5.5-4.3-7.6 1.2-2.1 5.1-2.1 8.7.1 3.6 2.2 5.6 5.6 4.3 7.6"/><path transform="matrix(.00585 -1 1 .00585 656.33 1372.632)" class="st143" d="M1016.5 355.3h4.1v1.8h-4.1z"/><path transform="matrix(.00585 -1 1 .00585 660.122 1379.102)" class="st143" d="M1021.6 357.1h4.1v.9h-4.1z"/><path transform="matrix(.00585 -1 1 .00585 655.826 1366.843)" class="st143" d="M1013.3 353.1h4.1v.9h-4.1z"/><path class="st45" d="m1010.7 339.1-4.1 3.2c.2 6.4-.9 9.7-2.3 13.5-2 5.4 3.5 4.3 4.4 2.1 5.6-13.5 2-18.8 2-18.8"/><path class="st2" d="M1005.7 339.3s1.1 6.9.4 10.5c0 0 1.3 2.8 5.1 1.3 0 0 .7-3.6 1.1-6.4l-6.6-5.4z"/><path class="st1" d="M1011.4 350s-2.8-3.7-3.4-5.3l-.1-1.6s2.9 5.1 3.6 6.2l-.1.7z"/><path class="st2" d="M1028.6 337.3c-.1-.1-10.7-3-13.8-4-3.1-1-4.9-.3-4.9-.3-3.7.9-5.4 5.3-3.3 8.5 0 0 4.6 7.5 6 9.4 1 1.9 3.4 3.6 6.5 4.5 3 .8 5.8.7 7.6-.3.6-.3 1-.7 1.4-1.1.1-.2.2-.4.4-.6 1.7-3.1 5.2-10.1 5.2-10.1.2-3.2-2.2-5.7-5.1-6"/><path class="st32" d="m1020 335.7-2.8-5.6-5.2 2.6 3.9 7.6c.9 1.7 4.5-2 4.1-4.6"/><path class="st144" d="m1014.4 337.5-1.4-2.7 4.9-3.3.8 1.5c-.1 1.7-.8 3.5-3.3 4.3-.4.1-.7.2-1 .2"/><path class="st45" d="M1018.7 330.1c-.2-.7-.9-1.1-1.6-.9h-.1l-.6-1.4c-.5-1.1-1.2-1.4-2.3-1.6-.9-.2-2.2-.6-3.1-.2-2 1-2.9 3.4-2 5.3l1.5 3.1c1.3 2.8 3 2.5 4.9 1.7 1.8-.8 2.7-2.7 2.5-4.5.6-.2 1-.8.8-1.5"/><path class="st1" d="M1030 350.4s.4-3.6-.6-5.5l-.6 1s.4 4.8 0 6.8l1.2-2.3z"/><path class="st28" d="M1016.8 329.8s0 1.2-.6 1.7l-.9-2.4s-.1-.3-.4-.3c-.5 0-1.5 1.9-4.8 2.2-.3 0-.7 0-1-.2-.5-.3-.7-.9-.8-1.1-.1-.2-.5-2.7 3.1-4.2 0 0 1.4-.4 2.5-.2 0 0 .3-.4.9-.4.5 0 2.7.3 2.8 4.2 0 .1-.8.1-.8.7"/><path class="st45" d="M1032.8 340.4s-3 4-2.6 5.6c1.3 4.2 0 11.3-2.1 14.1-5.1 6.8-8.3 10.7-8.3 10.7s1.4 2.1 1.5 2c3.9-3.1 8.6-6.9 11.2-10.8 7.7-11.4.3-21.6.3-21.6"/><path class="st2" d="M1029.8 353.9s.3-6.7-.5-9.5l2.9-5.2s5.8 4.7 4.7 14.4c0 0-4.8 2.5-6.9.4"/><path class="st145" d="M1004.2 356.7s-6.3 8.8-7 10.6l2.3 1.1s8.1-6.8 9.3-10.5c1.2-3.6-4.6-1.2-4.6-1.2z"/><linearGradient id="SVGID_15_" gradientUnits="userSpaceOnUse" x1="977.583" y1="506.707" x2="986.472" y2="405.374"><stop offset=".151" style="stop-color:#0c022f;stop-opacity:0"/><stop offset="1" style="stop-color:#0c022f;stop-opacity:.8573"/></linearGradient><path style="opacity:.1;fill:url(#SVGID_15_)" d="m864.4 439.2 143.1 82.6 92.6-53.8L957 385.4z"/><linearGradient id="SVGID_16_" gradientUnits="userSpaceOnUse" x1="1041.139" y1="310.003" x2="975.806" y2="439.336"><stop offset="0" style="stop-color:#fff"/><stop offset="1" style="stop-color:#e4ecf7"/></linearGradient><path style="fill:url(#SVGID_16_)" d="m864.4 412.2 143.1 82.6 92.6-53.8L957 358.4z"/><path class="st35" d="m909.8 369.6 145.5 84 44.8-26-145.5-84z"/><g style="opacity:.8"><path class="st35" d="m904.1 378.9 29 16.7-27.8 16.2-29-16.7zM958.8 410.5l29 16.7-27.9 16.2-29-16.7zM1014 442.3l29 16.7-27.9 16.2-29-16.7z"/></g><linearGradient id="SVGID_17_" gradientUnits="userSpaceOnUse" x1="174.562" y1="410.472" x2="395.748" y2="410.472" gradientTransform="matrix(-1 0 0 1 1018.829 0)"><stop offset="0" style="stop-color:#dfe9f8"/><stop offset="1" style="stop-color:#c2d3eb"/></linearGradient><path style="opacity:.3;fill:url(#SVGID_17_)" d="m623.1 396.9 134.2 77.6 87-50.5L710 346.5z"/><path class="st55" d="M761.5 424.6c7.2-4.2 18.9-4.2 26.2 0 7.2 4.2 7.2 10.9 0 15.1-7.2 4.2-18.9 4.2-26.2 0-7.3-4.2-7.3-10.9 0-15.1zM721.7 401.7c7.2-4.2 18.9-4.2 26.2 0 7.2 4.2 7.2 10.9 0 15.1-7.2 4.2-18.9 4.2-26.2 0-7.3-4.2-7.3-10.9 0-15.1zM683 379.3c7.2-4.2 18.9-4.2 26.2 0 7.2 4.2 7.2 10.9 0 15.1-7.2 4.2-18.9 4.2-26.2 0-7.3-4.2-7.3-10.9 0-15.1z"/><linearGradient id="SVGID_18_" gradientUnits="userSpaceOnUse" x1="-49.6" y1="622.251" x2="-87.988" y2="555.763" gradientTransform="translate(1271.9)"><stop offset=".151" style="stop-color:#0c022f;stop-opacity:0"/><stop offset="1" style="stop-color:#0c022f;stop-opacity:.8573"/></linearGradient><path style="opacity:.1;fill:url(#SVGID_18_)" d="m1162.4 584.8 4.8-19.4 21.5 4 62.2 36.2-26.3 15.3z"/><linearGradient id="SVGID_19_" gradientUnits="userSpaceOnUse" x1="-215.339" y1="650.206" x2="-267.639" y2="559.619" gradientTransform="matrix(-1 0 0 1 1018.829 0)"><stop offset="0" style="stop-color:#120667;stop-opacity:.2518"/><stop offset="1" style="stop-color:#120667;stop-opacity:.8573"/></linearGradient><path style="opacity:.1;fill:url(#SVGID_19_)" d="m1141.1 596.4 104.2-60.5 134.3 77.5-104.3 60.6z"/><g><path class="st1" d="m1194.7 577.5 1.9-1.1v-.7l-1.9 1.1z"/><path class="st46" d="M1191.7 573.9v-2.2c0-1 .6-1.9 1.5-2.2l.7-.3c1.1-.5 2.4-.3 3.2.5 1.4 1.3 3.2 3.2 5 5.4.8 1 1.4 1.7 1.8 2.3.7.8 1.5 2 .6 2.5 0 0-1.8 1-3.2.2l-9-5.2c-.4-.2-.6-.6-.6-1"/><path class="st32" d="m1194.1 565.8 5.8-.9-2 4.4c-.5.8-1.2 1.7-2.3 2.3-1.2.7-2.5.7-2.9 0-.1-.1-.1-.3-.1-.5.1-.6.2-1.3.5-1.8l1-3.5z"/><path class="st51" d="M1194.2 572.3c.3.6 1.4.6 2.3 0 1-.6 1.5-1.5 1.2-2-.3-.6-1.4-.6-2.3 0-1 .5-1.5 1.4-1.2 2"/><path class="st363" d="M1199.4 572c-.4 0-.9.1-1.4.4-.6.3-1 .8-1.2 1.3M1198.5 571c-.4 0-.9.1-1.4.4-.7.4-1.1.9-1.2 1.4M1200.3 573.1c-.4 0-.9.1-1.3.4-.6.3-1 .8-1.1 1.2"/><path d="M1191.7 573.9s1.8 1.1 2.8 2.1c.3.3.7.6 1 .8l5.7 3.3s.7.3 1.6.3c1.1 0 1.9-.8 2.1-1v.7s-1.1 1-2 1c-.9 0-1.9-.3-3.5-1.3-1.4-.8-4.6-2.7-4.6-2.7v.5l-3-2v-1.7z" style="fill:#150773"/><path class="st1" d="m1156.3 574.5 2.2.6.5-.5-2.1-.6z"/><path class="st2" d="m1156.9 569.8 1.6-1.6c.7-.7 1.7-.9 2.6-.5l.7.3c1.1.5 1.8 1.5 1.8 2.7 0 1.9-.1 4.5-.5 7.3-.3 2.8.8 2.5 1.2 3.8.3 1-.4 2.5-1.4 2.2 0 0-2.7-.2-3.8-2l-2.9-11.1c0-.2.4-.8.7-1.1"/><path class="st32" d="m1168.9 565.3 1 5.8-5.7.7c-1.3-.1-2 0-3.2-.5-1.3-.6-1.9-1.5-1.7-2.3 0-.2.1-.3.3-.4.5-.4 1.1-.7 1.7-.9l7.6-2.4z"/><path class="st2" d="M1160.4 570.9c-.2.6.5 1.4 1.6 1.7 1.1.3 2.1.1 2.3-.6.2-.6-.5-1.4-1.6-1.7-1.1-.2-2.1 0-2.3.6"/><pattern id="SVGID_20_" xlink:href="#New_Pattern_Swatch_13" patternTransform="translate(-4317.313 -2304.361) scale(.4441)"/><path d="M1156.9 569.8s.4 2.1.4 3.5c0 .4.1.9.2 1.3l2 6.5c.1.2.1.3.2.5.3.4.8 1.2 1.4 1.6.9.6 2.4.9 2.6.8l-.5.5s-1.4.1-2.4-.4c-.8-.4-1.9-1.4-2.3-3.3-.4-1.6-1.7-6.7-1.7-6.7l-.4.3-.7-3.5 1.2-1.1z" style="fill:url(#SVGID_20_)"/><pattern id="SVGID_21_" xlink:href="#New_Pattern_Swatch_13" patternTransform="translate(-4317.313 -2304.361) scale(.4441)"/><path d="M1181.3 541.3s-1.7-.5-2.1-2.8c-.7-3.7-15.2 2.8-15.2 2.8s-1.8.7-2 2.3c-.5 3.2-2.7 5.9-2.9 9.7-1.1 16 31.6 10.1 31.6 10.1-3.4-.3-10.9.1-17.6 1.2-2.8.5-5.3-.2-7.2-.2-3.6-.1-3.6 1.6-3.9 2.8-.6 2 0 4.7 0 4.7s1.5 2.5 5.5.7c4.6-2.1 7.7 1.5 11.2 1.1 4.3-.5 6.2-2.7 10.2-3.2 9.3-1.3 13.9-7.9 7.5-11.1L1175 553s11.2 9.2 18.3 3.4c2.4-2 4.1-7.8 7.7-10.5 0 0-3.2 2-3.8 3.9-1.1 3.4-.4 2-.8 4.5-.3 2-2.6 2.3-3.5 5.7-.5 1.9-.2 4.6 0 6.6.2 1.4 1.4 2.5 2.8 2.6h.9c.5 0 1-.1 1.5-.3 1.2-.6 3.4-1.9 4.4-3.6 1.1-2 .6-2.5 2-5.4.4-.8 1.1-.6 1.8-2.3 1.5-3.2.6-5 1.4-8.1 1.1-4.3 1.2-8.1-.8-10.3-1.3-1.5-4.3-3.1-7.3-2.6-3.4.6-3.8 2.9-5.3 3.5-2.4 1-4.5 0-6.9.6-.1-.1-3.9 1.8-6.1.6z" style="fill:url(#SVGID_21_)"/><path class="st366" d="M1193.6 557.8s4.9.6 5.4 4.2c.3 2.6.1 4.7-1.4 5.9-.6.4-1.4 1.1-1.4 1.1-.6.1-1.9-.4-1.9-.4 1.4-.7 3-1.7 3.6-2.7 1.3-2.4-.4-5.9-1.3-6.4-.6-.3-3.3-1.2-3.3-1.2l.3-.5zM1190.7 557.8s-13.6-4.5-15.5-6.7c0 0 2.4 0 3 .6 1.5 1.4 11.4 4.7 13.2 5.6l-.7.5z"/><path class="st35" d="M1162.3 544.6c1.6 2.7 6.7 2.7 11.5 0 4.7-2.7 7.3-7.2 5.7-9.9-1.6-2.7-6.7-2.7-11.5 0-4.7 2.7-7.3 7.1-5.7 9.9"/><pattern id="SVGID_22_" xlink:href="#New_Pattern_Swatch_13" patternTransform="translate(-4317.313 -2304.361) scale(.4441)"/><path style="fill-rule:evenodd;clip-rule:evenodd;fill:url(#SVGID_22_)" d="M1172.5 540.9h2.4v5.4h-2.4z"/><pattern id="SVGID_23_" xlink:href="#New_Pattern_Swatch_13" patternTransform="translate(-4317.313 -2304.361) scale(.4441)"/><path style="fill-rule:evenodd;clip-rule:evenodd;fill:url(#SVGID_23_)" d="M1166.3 542.6h1.2v5.4h-1.2z"/><pattern id="SVGID_24_" xlink:href="#New_Pattern_Swatch_13" patternTransform="translate(-4317.313 -2304.361) scale(.4441)"/><path style="fill-rule:evenodd;clip-rule:evenodd;fill:url(#SVGID_24_)" d="M1177.3 537.4h1.2v5.4h-1.2z"/><path class="st198" d="M1197.2 560.4s.2 2.1.7 2.8c.5.8 3.4 3.3 3.4 3.3s.7-.6.7-.7 0-1.6-.1-1.8c0-.1-4.7-3.6-4.7-3.6z"/><g><path class="st145" d="M1192.6 544.4s7.1 12.3 7.8 14.8l-3.2 1.2s-9.7-10-10.8-15c-1.2-4.9 6.2-1 6.2-1z"/><path class="st45" d="M1198.9 564.3s-.9-1.5-2.1-1.6c-1.2 0-.2.6.7 1.5 1 .9 1.6 1 1.4.1zM1200.3 559.1l.6 1.1s1.3 2.6 1.5 3.4c.1.5.1 2.8.1 2.8l-1.6.9s-.5-1.5.7-1.7l-.2-1.3c-.3-.2-1.1-.3-1.8-.9-.5-.4-.9-.7-1.4-1.4 0 0-.8-1.1-1-1.6-.4-1.4 3.1-1.3 3.1-1.3z"/><path class="st45" d="M1201.3 566.2s-.4-1.7-1.6-2.1-.3.5.3 1.6c.6 1.2 1.2 1.5 1.3.5z"/><path class="st45" d="M1200.2 565.6s-.4-1.7-1.6-2.1-.3.5.3 1.6 1.3 1.5 1.3.5zM1184.1 521.1l5.4 4.3c-.3 8.4 1.1 12.8 2.9 17.9 2.6 7.1-4.6 5.7-5.8 2.8-7.3-18-2.5-25-2.5-25"/><path class="st2" d="M1190.7 521.3s-1.6 9.1-.6 13.9c0 0-1.7 3.7-6.7 1.7 0 0-.9-4.7-1.3-8.4l8.6-7.2z"/><path class="st2" d="m1160.6 518.6.1-.1s14-3.8 18.1-5c4.1-1.2 6.4-.4 6.4-.4 4.9 1.3 7.1 7 4.3 11.2 0 0-6.1 9.8-8 12.3-1.3 2.5-4.4 4.8-8.6 5.9-3.9 1.1-7.6.8-10-.5-.7-.4-1.4-.9-1.8-1.5-.1-.3-.3-.5-.5-.9-2.2-4.1-6.7-13.3-6.7-13.3-.3-4 2.8-7.4 6.7-7.7"/><path class="st32" d="m1171.9 516.5 3.8-7.3 6.8 3.5-5.2 9.9c-1.2 2.3-5.9-2.7-5.4-6.1"/><path class="st144" d="m1179.2 519 1.9-3.6-6.4-4.4-1 1.9c.1 2.2 1 4.6 4.3 5.7.4.2.8.3 1.2.4"/><path class="st45" d="M1173.6 509.2c.2-.9 1.2-1.4 2-1.2l.1.1.9-1.8c.7-1.5 1.6-1.8 3.1-2.1 1.2-.3 2.9-.8 4-.3 2.7 1.3 3.8 4.4 2.6 7.1l-1.9 4c-1.7 3.6-4 3.3-6.4 2.2-2.4-1.1-3.6-3.6-3.3-6-.9-.4-1.3-1.2-1.1-2"/><path class="st198" d="M1176.2 508.8s0 1.6.8 2.2l1.2-3.1s.2-.4.5-.4c.7.1 1.9 2.5 6.2 2.9.3 0 .9 0 1.4-.2.7-.4.9-1.2 1.1-1.5.1-.3.6-3.6-4.1-5.6 0 0-1.9-.6-3.3-.2 0 0-.4-.6-1.2-.5-.7 0-3.6.4-3.7 5.5 0 .1 1 0 1.1.9"/></g></g><g><linearGradient id="SVGID_25_" gradientUnits="userSpaceOnUse" x1="1156.925" y1="589.33" x2="1378.11" y2="589.33"><stop offset="0" style="stop-color:#dfe9f8"/><stop offset="1" style="stop-color:#c2d3eb"/></linearGradient><path style="fill:url(#SVGID_25_)" d="m1156.9 575.8 134.3 77.5 86.9-50.4-134.3-77.6z"/></g><path class="st336" d="M1295.4 602.7c7.2-4.2 18.9-4.2 26.2 0 7.2 4.2 7.2 10.9 0 15.1-7.2 4.2-18.9 4.2-26.2 0-7.3-4.2-7.3-10.9 0-15.1zM1255.6 579.8c7.2-4.2 18.9-4.2 26.2 0s7.2 10.9 0 15.1c-7.2 4.2-18.9 4.2-26.2 0-7.3-4.2-7.3-10.9 0-15.1zM1216.9 557.4c7.2-4.2 18.9-4.2 26.2 0 7.2 4.2 7.2 10.9 0 15.1-7.2 4.2-18.9 4.2-26.2 0-7.4-4.2-7.3-10.9 0-15.1z"/><g><path class="st235" d="M1313.2 637.1s8.1-3.5 13.8-8.6l2.3 6.4s-6.7 5.7-16.3 5.3l.2-3.1z"/><path style="fill:#eba072" d="m1314.1 638.4-2.4-1.7-3.5 2.1 4.7 2.4z"/><path class="st26" d="m1314.2 638.4-.9-.7s-2.1-1.7-2.8-2.1c-.4-.2-1.8-.7-1.8-.7h-1.6s.3.8 1.6 1l.8.6c.1.3.2 1 .6 1.8.3.5.5 1 1 1.6 0 0 .9.9 1.3 1.2 1.2.6 1.8-2.7 1.8-2.7z"/><linearGradient id="SVGID_26_" gradientUnits="userSpaceOnUse" x1="-166.486" y1="712.742" x2="-203.058" y2="649.397" gradientTransform="translate(1543.044)"><stop offset=".151" style="stop-color:#0c022f;stop-opacity:0"/><stop offset="1" style="stop-color:#0c022f;stop-opacity:.8573"/></linearGradient><path style="opacity:.1;fill:url(#SVGID_26_)" d="m1310.7 667.1 22.5-13.8 72.6 41.8-22.4 13.7z"/><pattern id="SVGID_27_" xlink:href="#New_Pattern_Swatch_13" patternTransform="matrix(-.4506 0 0 .4506 -11437.478 -2309.492)"/><path d="M1338.6 674.2s.2.7-.1 1.1c-.3.4-1.5 1.5-4.6.4-3.1-1.1-7.7-3.9-7.7-3.9s-.6-.3-.5-1.1c.1-.8-.2-2.4-.2-2.4s1-2.1 1.5-2.1c0 0 .8-.7 2-.4l3 4.7 6.6 3.7z" style="fill:url(#SVGID_27_)"/><path class="st26" d="m1316.3 665.9 10.5 5.6s-.7-.9-.8-2.6c-.1-1.7 1-2.8 1-2.8l-5.2-2.3-5.4.5v1.6z"/><path class="st35" d="M1338 672.4s-4-1.7-4.8-2.9c-.9-1.2-2-3.4-2-3.4-.2-.3-.8-.6-1.4-.6-.8 0-1.5.4-1.5.8v.9s-.3 1.5 1.9 4.3c2.2 2.9 5.9 3.3 5.9 3.3.3.1.6.1.9.1 1 0 1.8-.5 1.8-1v-.8c-.2-.2-.4-.5-.8-.7"/><pattern id="SVGID_28_" xlink:href="#New_Pattern_Swatch_13" patternTransform="matrix(-.4506 0 0 .4506 -11437.478 -2309.492)"/><path d="M1348.4 668.9s.2.7-.1 1.1c-.3.4-1.5 1.5-4.6.4-3.1-1.1-7.7-3.9-7.7-3.9s-.6-.3-.5-1.1c.1-.8-.2-2.4-.2-2.4s1-2.1 1.5-2.1c0 0 .8-.7 2-.4l3 4.7 6.6 3.7z" style="fill:url(#SVGID_28_)"/><path class="st26" d="m1329.4 662.4 7.1 3.9s-.7-.9-.8-2.6c-.1-1.7 1-2.8 1-2.8l-5.2-2.3-2.1 2.3v1.5z"/><path class="st28" d="M1340 653c-.7-2.1-1.3-5.6-2-7.2-.7-1.7-1-1.6-1-1.6l-15.2 1.3-7.8-2.9c-1.2-.5-4.7 1.6-5.3 3.9-.6 2.5-3.4 2.4-4.6 3.3-2.2 1.5-2.5 4.5-1.8 6 4 8.4-.4 9.6 8.5 13 4.7 1.8 6.2-.1 8.4-2.3 1.5-1.5 1.9-1.6 3.2-1.9 2.2 1.9 7 1.6 11.4-.9 5.2-3 7.3-7.5 6.2-10.7"/><pattern id="SVGID_29_" xlink:href="#New_Pattern_Swatch_18" patternTransform="matrix(-.4506 0 0 .4506 -11437.478 -2309.492)"/><path style="fill:url(#SVGID_29_)" d="M1315.7 650.1s2.9.6 5.3.3c0 0 1.3-.2 1.6-.6 0 0 .1-.6.2-.8 0 0-2.6.9-8.6.8l1.5.3z"/><path class="st1" d="M1336.9 642.2c1.3 2.2-.8 5.8-4.6 8s-8 2.2-9.2 0c-1.3-2.2.8-5.8 4.6-8s7.9-2.2 9.2 0"/><pattern id="SVGID_30_" xlink:href="#New_Pattern_Swatch_18" patternTransform="matrix(-.4506 0 0 .4506 -11437.478 -2309.492)"/><path d="M1322.6 664.5s-2.9-2.2-6.5-3c-3.6-.8-10.5-5.3-10.5-5.3l.1.4s5.4 4.6 10.3 5.7c0 0 2.5.9 3.4 1.5 1 .7 1.4 1.3 1.4 1.3.9-.4 1.8-.6 1.8-.6" style="fill:url(#SVGID_30_)"/><pattern id="SVGID_31_" xlink:href="#New_Pattern_Swatch_13" patternTransform="matrix(-.4506 0 0 .4506 -11437.478 -2309.492)"/><path style="fill:url(#SVGID_31_)" d="m1341.8 665.2-3-4.7c-1.2-.4-2 .4-2 .4s-1.1 1.1-1 2.8c.1 1.7.8 2.6.8 2.6l5.2-1.1z"/><path class="st35" d="M1347.8 667.1s-4-1.7-4.8-2.9c-.9-1.2-2-3.4-2-3.4-.2-.3-.8-.6-1.4-.6-.8 0-1.5.4-1.5.8v.9s-.3 1.5 1.9 4.3c2.2 2.9 5.9 3.3 5.9 3.3.3.1.6.1.9.1 1 0 1.8-.5 1.8-1v-.8c-.2-.2-.4-.5-.8-.7"/><path class="st51" d="M1338.6 673.2s-.3.7-1.7.7-3.2 0-5.7-2.3c-2.4-2.3-3-4.9-3.2-5.3v1.2s-.1.9.9 2.7c1 1.7 2.4 3.5 5.8 4.6 3.4 1 3.8-.5 3.8-.5.2-.3.1-1.1.1-1.1M1348.4 668s-.3.7-1.7.7-3.2 0-5.7-2.3c-2.4-2.3-3-4.9-3.2-5.3v1.2s-.1.9.9 2.7c1 1.7 2.4 3.5 5.8 4.6 3.4 1 3.8-.5 3.8-.5.2-.3.1-1.1.1-1.1"/><path class="st2" d="M1315.5 626.2s12.3-7.9 13-7.9c.5 0 1.2.1 1.8.3.6.2 1.2.5 1.6.9.5.4.8 1 .8 1.6 0 0 .9 12 4.2 21.2.8 2.2-1.7 3.5-4.6 6.1-3.5 3.1-9.1 2-9.1 2-2.4-4-3.2-5.6-4.1-7.1-3.2-5.5-4.9-14-4.9-14-.4-.8-.3-2 1.3-3.1"/><path class="st43" d="M1330 611.9c.1 4.6 3.2 9.3 4.6 12.9 1.1 2.8 1.1 6.6.2 9.5-2.4-2.9-8.4-3.5-12.6-7.7-3.8-3.6-4-8.8-4.5-9.9-.7-1.6-2.9-.7-3.3-3.8-.6-4.4 3.2-8.9 7.6-8.9 4.4-.2 8 3.4 8 7.9"/><g><path class="st26" d="M1288.1 643.3s3.5 1.2 3.6 1.3c.2.1 5.4 2.4 5.4 2.4l-.9 2.9s-3 .1-5.8-1.4l-1.9-.4s-.6.4-1.7 0l1.4-.7 2.4.2-2.8-1s-1.6.2-2.4-1l2.2.1 2.3.6-2.2-.9s-1.4.5-2.4-.4l2.5-.5 2.4.7-2.9-1.2s-1.3.1-1.7-.8l2.5.1z"/><path class="st2" d="M1316.8 639.4c3.4-5 4.9-10.6 2.6-12.2-4-2.7-5.5 1-5.5 1-.8 3.8-3 7.7-5.1 10.5 0 0-5.1 6.5-12 7.5 0 0-1.6.9-1.3 2.6 0 0 .3 1.4 1.9 1.6.1.1 11.8.1 19.4-11z"/></g></g><g><g class="st58"><linearGradient id="SVGID_32_" gradientUnits="userSpaceOnUse" x1="898.807" y1="583.417" x2="865.473" y2="542.677"><stop offset=".151" style="stop-color:#0c022f;stop-opacity:0"/><stop offset="1" style="stop-color:#0c022f;stop-opacity:.8573"/></linearGradient><path style="opacity:.15;fill:url(#SVGID_32_)" d="m847.2 554 64.6 39.7 19.4-4.4-71.5-43.6-2.4 2.5z"/></g><path class="st35" d="M872.9 553.2c.4.1.5-.2.8.2.1.2.4.6.4 1.3 0 .9-.2 1.3-.8 2-.7.8-4.3 3.6-6.6 4.2 0 0-.8.2-1.1.5-.3.3-1 .7-1.5 1l-.5-1.1 7.6-4.9 1.7-1.8v-1.4z"/><path class="st35" d="M860.8 562.3c.4.8 1.9.8 3.2 0 1.3-.8 2-2 1.6-2.8-.4-.8-1.9-.8-3.2 0-1.3.8-2 2-1.6 2.8"/><path class="st28" d="M873.5 553.5c-.8-1.2-3.6.7-4.5.8-3.2.5-4.7.8-6.5 1.4-1.1.4-1.9 1.4-2 2.6 0 0-.1.4-.1.7 0 .4.3 1.4.2 2.1 0 .1 0 .3.1.4.3.5 1 .6 1.8.3 1.8-.6 6.3-2.8 7.3-3.5 1.2-.8 2.5-1.8 3-2.5.6-.5 1.2-1.5.7-2.3"/><path class="st33" d="M861 557.9c.4.6 1.5.6 2.6 0s1.6-1.6 1.3-2.2c-.4-.6-1.5-.6-2.6 0s-1.7 1.6-1.3 2.2"/><path class="st378" d="M870.2 553.8s1.1 0 1.8.7M869.3 554.3s1.1 0 1.8.7M868 554.5s1.1 0 1.8.7M866.6 554.7s1.1 0 1.8.7M865.1 555s1.1 0 1.8.7"/><path class="st35" d="M859 545c.4.1.5-.2.8.2.1.2.4.6.4 1.3 0 .9-.2 1.3-.8 2-.7.8-4.3 3.6-6.6 4.2 0 0-.8.2-1.1.5-.3.3-1 .7-1.5 1l-.5-1.1 7.6-4.9 1.7-1.8V545z"/><path class="st35" d="M846.9 554.2c.4.8 1.9.8 3.2 0 1.3-.8 2-2 1.6-2.8-.4-.8-1.9-.8-3.2 0-1.3.8-2 2-1.6 2.8"/><path class="st28" d="M859.5 545.4c-.8-1.2-3.6.7-4.5.8-3.2.5-4.7.8-6.5 1.4-1.1.4-1.9 1.4-2 2.6 0 0-.1.4-.1.7 0 .4.3 1.4.2 2.1 0 .1 0 .3.1.4.3.5 1 .6 1.8.3 1.8-.6 6.3-2.8 7.3-3.5 1.2-.8 2.5-1.8 3-2.5.7-.6 1.2-1.5.7-2.3"/><path class="st33" d="M847 549.7c.4.6 1.5.6 2.6 0s1.6-1.6 1.3-2.2c-.4-.6-1.5-.6-2.6 0s-1.6 1.6-1.3 2.2"/><path class="st378" d="M856.3 545.7s1.1 0 1.8.7M855.4 546.1s1.1 0 1.8.7M854 546.4s1.1 0 1.8.7M852.6 546.6s1.1 0 1.8.7M851.2 546.9s1.1 0 1.8.7"/><path class="st33" d="m847.4 539.8-.5 9.6 4.1-1.6.8-7.4zM861.3 547.9l-.4 9.6 4-1.5.9-7.4z"/><path class="st43" d="M851.7 541.1c-.3-.3-.6-.5-1-.7-.1-.1-.2-.1-.3-.2l-3.1-.4-.2 4.7c.4.4.9.9 1.5 1.2.9.5 1.7.7 2.5.8l.6-5.4zM865.7 549.3c-.2-.3-.5-.6-.8-.9l-3.6-.5-.2 4.7c.2.2.5.3.7.5 1.2.7 2.5.9 3.3.7l.6-4.5z"/><path class="st1" d="M853 543.3V542c0-1-.8-2.2-2.3-3.1-1.8-1-3.7-1-4.3 0-.2.3-.2.7-.1 1v1.3c0 1 .9 2.2 2.3 3 1.8 1 3.7 1 4.3 0 .1-.1.1-.3.2-.5v-.1c-.1-.1 0-.2-.1-.3M866.3 549.4c0-1-.9-2.2-2.3-3.1-1.8-1-3.7-1-4.3 0-.1.2-.2.5-.2.8v1.4c0 1 .8 2.3 2.3 3.1 1.8 1 3.7 1 4.3 0 .1-.2.1-.4.2-.6v-1.6z"/><path class="st2" d="m870.9 478.7-1.2-6.5-19.1-5.1s-2.1 3.6-3.8 12.6c-3 16.3 0 59.2 0 59.2-.5.9.3 2.4 1.9 3.3s3.3.9 3.8 0c.1-.2.1-.4.1-.6-.4-23.6 4.5-49.8 4.5-49.8 0 1.1 2.7 55 2.7 55-.1.9.8 2.1 2.1 2.9 1.6.9 3.4.9 3.9 0 .1-.2.1-.4.1-.6.7-20.8 3.8-48 5.2-59.3.2-1.8.3-3.5.3-5.3.2-2-.1-3.9-.5-5.8"/><linearGradient id="SVGID_33_" gradientUnits="userSpaceOnUse" x1="3272.45" y1="493.206" x2="3272.45" y2="483.468" gradientTransform="translate(-2416.556)"><stop offset="0" style="stop-color:#0c022f"/><stop offset=".243" style="stop-color:#0d0235;stop-opacity:.7567"/><stop offset=".579" style="stop-color:#0f0447;stop-opacity:.4209"/><stop offset=".968" style="stop-color:#120664;stop-opacity:3.253967e-02"/><stop offset="1" style="stop-color:#120667;stop-opacity:0"/></linearGradient><path style="fill:url(#SVGID_33_)" d="M857.3 491.8s-1.9-3.8-2.7-8.3c0 0-.4 4.7 2.5 9.7l.2-1.4z"/><path class="st43" d="M887.4 435.1c-.1 1.1-.7 2.2-1.8 2.7-2.1 1-3.4 1.2-3.4 1.2-.5.1-1.2-.2-1.8-.7-.8-.7-.6-1.5-.1-2 .1-.1.2-.1.3-.2 0 0 3.2-3 3.4-3.1 0 0 2.7-.4 3.2.1 0 0 .2.2.4.6.2.4-.2.9-.2 1.4"/><path class="st33" d="M880 436.5s-.4.3-.5.5l-7.3 7.1-3.1 2.9-17.3-2.4-2.8 7.9 22.4-.3 4.3-4.7 7.7-9c1.1-1.3.8-3.8.8-3.8-.5-1.1.1-2.2.1-2.2.4-.9.4-1.9.2-2.7-.2-.8-.7-.9-.7-.7-.2.2-.7 3.4-1.3 3.8-.7.4-1.6 2.2-1.6 2.2s-.5.5-.9 1.4z"/><path class="st28" d="M870.7 445.6s3.2-.1 3.7 3.2l-2.3 2.8-12.8-6 5.1.6 4.8.7 1.5-1.3z"/><path class="st28" d="M870.5 449.8c-.1 0-16.8-9.7-16.8-9.7-.5-.4-1.4-.5-2.3-.4-.8.1-1.6.4-2.4.9-.8.5-1.5 1.1-2 1.7-.5.7-.8 1.6-.7 2.5l1.1 22.4c-.3 3.2 2.6 7.4 7.4 10.2 5.7 3.3 11.9 3.3 13.8 0 .4-.7.6-1.4.6-2.2l4-21.4c.2-1.2-.9-2.9-2.7-4"/><path d="m881.8 470.7-10.4-18.5c0-.1-.1-.1-.1-.2-.6-1.1-2.6-.9-4.5.2s-2.4 2.9-1.8 4c0 .1-.1.3-.1.4l9 14.4-10.9 8.1c-.7.5-1.1 1.2-.9 1.6 0 .1.1.1.2.2.6.7 3.3 3.5 6.1 4.7l1.9.9s.1 1 1 1.2l-.2-1.7-.9-.7 1.3.5v.7s.6.1.7-.4v-.6s.2 0 .2-.2c-.1-.2-.1-.5-.2-.6-.2-.4-1.1-1-1.1-1l1.2.2s.5 0 .5-.5c.1-.5-.5-.6-.5-.6l-2.2-1.2c.1 0 .7.1.7.1.6 0 .7-.5.7-.5-.1-.1-1.6-.6-3.3-1.3l9.7-4.8c.4-.1.9-.3 1.3-.6 2.1-1 3.1-2.7 2.6-3.8z" style="fill-rule:evenodd;clip-rule:evenodd;fill:#724c3b"/><path d="m873.1 452.9 8.8 17.8h-.1c.5 1.1-.1 3-2 4.1-.4.2-1 .6-1.5.8-3.5 1.5-7.5-1.7-8-2.4s1.1-1 1.1-1-.5-1.1.9-1c0 0-6.3-11.1-7.3-13.7 0-.1-.3-.6-.3-.7-.5-1.2.1-3.6 2-4.7s5.5-1 6.1.1l.3.7z" style="fill-rule:evenodd;clip-rule:evenodd;fill:#0c022f"/><path class="st33" d="m860.8 443.3 3.6-2.1c1-.6 1.6-1.7 1.6-2.8l-1.3-8.1s-5.9.5-5.9.7c0 .2 2 12.3 2 12.3"/><path class="st33" d="m856.2 438.6 6.3-.8v9.2c0 .2 0 .4-.1.5-.5 1-2.3 1-4 0-1.4-.8-2.2-2-2.1-2.9v-6z"/><path class="st2" d="M862.5 426.3z"/><path class="st1" d="M865.2 425.7c-.2-.6-.7-1.1-1.4-1.1s-1.3.5-1.4 1.2h-.2c-.3 0-.5 0-.7.1-1.1-.6-2.4-1-3.8-.9-3.7.1-6.7 3-7 6.6 0 1.2.3 2.4.7 3.6v.2c0 .7.4 1.3.9 1.7v.4c0 1.1.8 2 1.9 2.1.3.7 1 1.2 1.9 1.2h.2c.2.2.8 1.3 1 1.2 1.4-.8 2.6-1.9 3.6-2.9 1.1 0 2-.9 2-2.1 0-.2 0-.4-.1-.5v-.3c1.3-.7 2.1-1.9 2.3-3.4v-.1c.8-.7 1.3-1.7 1.3-2.9 0-.3 0-.7-.1-1 .3-.3.4-.8.4-1.2-.3-.9-.8-1.6-1.5-1.9z"/><path class="st33" d="M861.4 435.8c0-.4.3-.9.8-1.2.7-.4 1.4-.4 1.6 0v.2l.4 1.9-1.6 2.8c.1-.1-1.2-1.1-1.2-3.7z"/><path d="M872.2 451.2s-1.4-1-2.5-1.8-5.4-3.2-5.4-3.2l1.6.2 4.4 2.5s1.8 1.1 2.3 1.9l-.4.4z" style="opacity:.7;fill:#120667"/><path class="st33" d="M886.6 433.4s-1.2.5-1.6 1.9c0 0 1-.3 2.2-.9 1.2-.6.8-1.6-.7-1.7l.1.7z"/><path class="st33" d="M886.8 434.8s-1.3.3-1.9 1.6c0 0 1.1-.1 2.4-.4 1.3-.4 1.2-1.2.3-1.9l-.8.7z"/><path class="st33" d="M886.4 436s-1.2.2-1.7 1.4c0 0 1-.1 2.1-.3 1.2-.3.9-.8.1-1.5l-.5.4z"/><path class="st33" d="M885.9 437.2s-1.2.2-1.7 1.4c0 0 1 0 2.1-.3 1.2-.3.9-.8.1-1.5l-.5.4z"/><path d="m870.5 467.8-3.9-7.1c-.2 1.2 0 2.3.4 3.4l2.9 7 .6-3.3z" style="opacity:.7;fill-rule:evenodd;clip-rule:evenodd;fill:#120667"/></g><g><linearGradient id="SVGID_34_" gradientUnits="userSpaceOnUse" x1="986.004" y1="584.867" x2="950.893" y2="543.83"><stop offset=".151" style="stop-color:#0c022f;stop-opacity:0"/><stop offset="1" style="stop-color:#0c022f;stop-opacity:.8573"/></linearGradient><path style="opacity:.1;fill:url(#SVGID_34_)" d="m1013.5 582.4-15.8 8.6-63.8-32.3 6.9-3.8 2.7-6.6 6.2 1.8z"/><path class="st2" d="M948.7 461.1s.4 2.4 1.3 3.7-.6 1.4-.3 2 0 .3-.4.2c-2.4-.5-7.7 4.6-5.3 4.1 1.3-.3 1.2 5.7 2.4 5.8 3.5.4 8.8-2 11.6-5 .3-.3.7-2.6-.2-3.7-.9-1.1-.8-2.8-1.2-4.3-.5-1.5-1.4-3.5-2-5s-2.4-3.8-3.1-5.1c-.7-1.3-3.9-2.1-4.7 1.4-.7 3.5 1.9 5.9 1.9 5.9z"/><linearGradient id="SVGID_35_" gradientUnits="userSpaceOnUse" x1="1805.872" y1="476.768" x2="1805.872" y2="456.108" gradientTransform="translate(-855.635)"><stop offset="0" style="stop-color:#462ad3"/><stop offset=".386" style="stop-color:#482cd8;stop-opacity:.6137"/><stop offset=".836" style="stop-color:#4f31e6;stop-opacity:.1639"/><stop offset="1" style="stop-color:#5333ed;stop-opacity:0"/></linearGradient><path style="fill:url(#SVGID_35_)" d="m949 476.8 2.5-.7-.1-20-.6 9.2z"/><pattern id="SVGID_36_" xlink:href="#New_Pattern_Swatch_13" patternTransform="matrix(-.5209 0 0 .5209 -11744.284 -2241.702)"/><path d="M955.3 552.6c.2-.4.3-.8.2-1.2l-.1-.6c-.1-1-.8-1.9-1.7-2.2-1.5-.5-3 .3-5.8-.1-.4-.1-1.4-.6-2.2-.9-.9-.4-1.9-.4-2.2.2-.3.5.1 1.4.9 2 0 0 1.4 1.1 2.5 1.6.9.5 1.5.7 2.5.8.6.1 1.4.2 2.3.3v1c0 .5.4 1.2 1.2 1.6.9.5 1.9.5 2.2 0 .1-.1.1-.2.1-.3v-2c.1-.1.1-.2.1-.2z" style="fill:url(#SVGID_36_)"/><path class="st26" d="M951.2 548.5s-2.1.2-2.9 0c-.2 0-.4 0-1.1-.3s-1 .6-.8.9c.2.3 1.1 1.1 4.9.9v-1.5z"/><path class="st26" d="M948 549.5c-.2.3-.8.3-1.3 0s-.8-.8-.7-1.1.8-.3 1.3 0 .9.7.7 1.1"/><pattern id="SVGID_37_" xlink:href="#New_Pattern_Swatch_13" patternTransform="matrix(-.5209 0 0 .5209 -11744.284 -2241.702)"/><path style="fill:url(#SVGID_37_)" d="M942.2 559.4c.2-.4.3-.8.2-1.2l-.1-.6c-.1-1-.8-1.9-1.7-2.2-1.5-.5-3 .3-5.8-.1-.4-.1-1.3-.6-2.2-.9-.9-.4-1.9-.4-2.2.2-.3.5.1 1.4.9 2 0 0 1.4 1.1 2.5 1.6.9.5 1.5.7 2.5.8.6.1 1.4.2 2.3.3v1c0 .5.4 1.2 1.2 1.6.9.5 1.9.5 2.2 0 .1-.1.1-.2.1-.3v-2c.1-.1.1-.1.1-.2z"/><path class="st26" d="M938.1 555.3s-2.1.2-2.9 0c-.2 0-.4 0-1.1-.3s-1 .6-.8.9c.2.3 1.1 1.1 4.9.9v-1.5z"/><path class="st28" d="M948 479.6c0 .1.1.1.1.2l2.2 4.3c.9 1.8 1.6 3.8 2 5.8 2.6 14.6 3.5 57.2 3.5 57.2.2 1-.8 2.4-2.3 3.3-1.8 1-3.7 1-4.3 0-.1-.2-.2-.4-.2-.6.4-21.1-5.1-47.2-5.1-47.2 0 1-.6 50.7-.6 50.7.3 1.1-.7 2.5-2.4 3.5-1.8 1.1-3.8 1.1-4.4 0-.1-.2-.2-.4-.2-.7-.6-18.6-3.8-46.1-5-56.2-.3-2.6-.3-5.2 0-7.9l.7-5.5c.3-2.3 2.4-5 5.6-6.8 2.1-1.2 4.4-1.9 6.2-1.9 2-.1 3.5.5 4.2 1.8z"/><path class="st2" d="m933.4 459.6 12.5-7.2c.4-.3 1-.4 1.7-.3.6.1 1.2.3 1.8.6.6.4 1.1.8 1.5 1.3.4.5.6 1.2.5 1.8l-.8 16.7c.2 2.4-2 5.5-5.5 7.5-4.2 2.4-8.8 2.4-10.2 0-.3-.5-.4-1-.4-1.6l-3-15.9c-.3-.8.5-2.1 1.9-2.9"/><linearGradient id="SVGID_38_" gradientUnits="userSpaceOnUse" x1="1782.066" y1="479.147" x2="1782.066" y2="476.894" gradientTransform="translate(-855.635)"><stop offset="0" style="stop-color:#0c022f"/><stop offset=".25" style="stop-color:#0d0234;stop-opacity:.75"/><stop offset=".542" style="stop-color:#0e0342;stop-opacity:.4583"/><stop offset=".853" style="stop-color:#110559;stop-opacity:.1469"/><stop offset="1" style="stop-color:#120667;stop-opacity:0"/></linearGradient><path d="M926.8 479.1s-.3-1.1 0-2.2l-.6.3s-.3 1.1-.2 1.9h.8z" style="fill:url(#SVGID_38_)"/><path class="st1" d="m944.9 495.4-.9 7.2.3 1.3s1.7-6.8 2-10.4c-.1-.1-.7 1.2-1.4 1.9"/><path class="st26" d="M934.9 556.3c-.2.3-.8.3-1.3 0s-.8-.8-.7-1.1.8-.3 1.3 0 .9.8.7 1.1"/><path class="st1" d="m941.4 556.5.5-46v45.7zM954.4 549.8l-1.9-44.1 2.4 43.6z"/><path class="st26" d="M941.7 455.8c.4.7 1.8.7 3.1 0s2-1.9 1.5-2.7c-.4-.7-1.8-.7-3.1 0-1.2.7-1.9 1.9-1.5 2.7M941.7 451.1c.4.7 1.8.7 3.1 0s2-1.9 1.5-2.7c-.4-.7-1.8-.7-3.1 0-1.2.8-1.9 2-1.5 2.7"/><path class="st26" d="M941.6 450.7v4.6l4.8-1.8v-4.6z"/><path d="M936.1 447.4s.8 2.8 1.1 3.6c.3.8 2.7.3 2.7.3s0-4.6-3.8-3.9" style="fill:#eba87c"/><path class="st1" d="M948.1 443.4c0 3.8-3.1 7-7 7-3.8 0-7-3.1-7-7 0-3.8 3.1-7 7-7 3.8 0 7 3.1 7 7"/><path d="M940.4 452.4c-.3.6-1.4.6-2.4 0s-1.5-1.5-1.2-2c.3-.6 1.4-.6 2.4 0s1.5 1.5 1.2 2z" style="fill:none;stroke:#ffd05a;stroke-width:.6211;stroke-miterlimit:10"/><pattern id="SVGID_39_" xlink:href="#New_Pattern_Swatch_13" patternTransform="matrix(-.5209 0 0 .5209 -11744.284 -2241.702)"/><path d="M936.6 437.4c1-.9 2.2-1.8 5.5-1.6 3.3.2 9.6.3 12 3.7 1.5 2.1.6 5.3.3 6.8-1.8 9-13.6 7.5-14.9 4.8-3-6.1-5.4-4.8-5.2-9.4 0 0 .4-2.5 2.3-4.3" style="fill:url(#SVGID_39_)"/><path class="st26" d="M936.7 485.8c-2.3.8-5.9 2.1-6 2.2 0 0 .1.4.7.4 0 0 .5-.1.7-.1l-2 1.1s-.5.1-.4.5c0 .4.4.4.4.4l1.1-.2s-.8.5-1 .9c-.1.1-.1.3-.2.5 0 .2.2.2.2.2v.5c.1.4.7.3.7.3v-.5l1.2-.4-.8.7-.2 1.5c.8-.2.9-1.1.9-1.1l1.7-.8c2.8-1.2 5.4-4.2 5.4-4.2l-2.4-1.9z"/><path class="st26" d="M936.3 465.8c-1 .5-.2-.4-.2-.4.6-1 .8-2.5-.9-3.5s-3.6-1-4.1 0c0 .1-.1.1-.1.2l-9.3 16.5h.1c-.4 1 .5 2.5 2.1 3.5.4.2.8.4 1.2.5l11.9 5.9 1.6-2.2-9.7-7.4 7.4-13.1z"/><path d="M937.4 487.6c.7.4 1.5.4 1.8 0 .2-.4-.2-1.1-.9-1.5-.7-.4-1.5-.4-1.8 0s.2 1.1.9 1.5z" style="fill-rule:evenodd;clip-rule:evenodd;fill:#ffc398"/><path d="M932.3 486.3s1 .8 1.6.8c.5 0 2.7.7 3.1-2.4 0 0-.1-.2-.9-1s-1.7-2-1.7-1.2c-.1 2.2-.6 2.9-2.1 3.8z" style="fill:#1b0971"/><path class="st2" d="M932.3 486.3s1 .8 1.6.8c.5 0 2.7.7 3.1-2.4 0 0-.1-.2-.9-1s-1.7-2-1.7-1.2c-.1 2.2-.6 2.9-2.1 3.8z"/><linearGradient id="SVGID_40_" gradientUnits="userSpaceOnUse" x1="1789.213" y1="470.565" x2="1792.457" y2="470.565" gradientTransform="translate(-855.635)"><stop offset="0" style="stop-color:#462ad3"/><stop offset=".386" style="stop-color:#482cd8;stop-opacity:.6137"/><stop offset=".836" style="stop-color:#4f31e6;stop-opacity:.1639"/><stop offset="1" style="stop-color:#5333ed;stop-opacity:0"/></linearGradient><path d="m933.6 473.2.3 1.6s1.9-2.8 2.6-5.7c.7-2.9.2-2.7.2-2.7s-1.3 3.8-3.1 6.8z" style="fill:url(#SVGID_40_)"/><path class="st2" d="M932.2 460.5s-1.2.2-2.6 2.6c-1.3 2.4-1.2 3.3-2.2 5.1-1 1.8-2.4 2.8-3.2 4.9-.8 2.1-2.7 4.2-2.7 4.2s-1.5 1.9-.6 2.9c.8 1 3.9 3 5.7 3.8 1.8.8 3.1.8 3.8 1.7.8.9 3.5 1.1 4-1.3.5-2.4.2-2.9-1.2-3.6-1.5-.8-3.8-2.3-3.2-3.4.6-1.1 1.6-1.1 3-3.4s2.6-5 3.1-6.2c.9-1.7 1.7-7-3.9-7.3z"/></g><g><path class="st45" d="M1155 522.6s4 5.4 3.3 7.4c-1.7 5.5-.1 14.9 2.6 18.5 6.6 9.1 10.9 14.2 10.9 14.2s-1.9 2.7-2 2.7c-5.1-4.1-11.3-9.2-14.7-14.3-10-15.1-.1-28.5-.1-28.5"/><path class="st2" d="M1158.8 540.4s-.4-8.8.7-12.5l-3.8-6.8s-7.7 6.2-6.3 18.9c0 0 6.3 3.4 9.1.6"/><path class="st45" d="M1180.9 568.4s-3.3-2.3-3.5-2.4c-.2-.1-5.6-3.2-5.6-3.2l-2 2.7s1.9 2.7 5 4.2l1.6 1.4s.1.8 1.1 1.5l-.3-1.7-1.8-2 2.6 1.8s.9 1.5 2.4 1.4l-1.5-1.9-2-1.7 2.3 1.4s.5 1.6 1.9 1.8l-1.2-2.5-2.2-1.7 2.9 1.8s.7 1.2 1.8 1l-1.5-1.9z"/></g><path style="opacity:.7;fill:none;stroke:#c2d3eb;stroke-width:.6211;stroke-miterlimit:10" d="M861.8 300.4v-65.1l77.2-44.5v65.1z"/><path class="st344" d="M831.1 349v-56.8l55.3-31.8-.1 56.8z"/><path class="st392" d="M887.1 647.1V548l-96.3-55.4v99z"/><linearGradient id="SVGID_41_" gradientUnits="userSpaceOnUse" x1="1260.435" y1="162.058" x2="1355.3" y2="162.058"><stop offset="0" style="stop-color:#dfe9f8"/><stop offset="1" style="stop-color:#c2d3eb"/></linearGradient><path style="opacity:.3;fill:url(#SVGID_41_)" d="M1260.4 89.9v88.4l94.9 55.9v-88.4z"/><path class="st392" d="M1338.4 208.5V240l33.8 19.9v-31.5z"/><path class="st55" d="M1031.3 589.8c13.4-7.8 35.2-7.8 48.7 0 13.4 7.8 13.4 20.3 0 28.1-13.4 7.8-35.2 7.7-48.7 0-13.5-7.8-13.5-20.3 0-28.1z"/><path class="st114" d="m1077.1 308 57.7 33.4-5.2 3-57.8-33.4zM1066.5 314l57.8 33.5-5.3 3-57.7-33.4zM1055.9 320.1l57.8 33.5-5.3 3-57.7-33.4zM1045.4 326.2l57.7 33.4-5.2 3.1-57.8-33.5zM1145.1 348.2l36.2 21-30.2 17.9-36.2-21zM1107.1 370.2l36.2 21-13.8 7.7-36.1-21z"/><g class="st58"><path class="st100" d="m1276.7 420.4 26.9 15.6-5.2 3-27-15.5zM1266.4 427.1l27 15.5-5.3 3.1-26.9-15.6zM1255.3 433.7l27 15.6-5.3 3-27-15.6zM1244.4 440.6l27 15.6-5.3 3-26.9-15.6zM1233.2 447.7l26.9 15.5-5.2 3.1-27-15.6z"/></g><g><linearGradient id="SVGID_42_" gradientUnits="userSpaceOnUse" x1="1181.532" y1="489.041" x2="1146.64" y2="437.866"><stop offset=".151" style="stop-color:#0c022f;stop-opacity:0"/><stop offset="1" style="stop-color:#0c022f;stop-opacity:.8573"/></linearGradient><path style="opacity:.1;fill:url(#SVGID_42_)" d="m1209.5 483.1-14.7 9.6-70.7-41 13-10.5z"/><path class="st28" d="m1142.8 446.7-.4 2.3s-.4 4.4.2 10.6c0 0 .2 1.9 2.1 2.4 2.1.5 3.2-.7 3.4-1.7.2-1 1.3-6.1 1.6-10 0 0 .1-1.8 0-3.1l-6.9-.5z"/><path class="st395" d="M1127.5 334.4s-1.1 5.3-3 7.1c-2.3 2.2-2.1 4.5-.8 5.5s1.7.7 2.3 2c.6 1.2 2.5.8 2.5.8l-1-15.4z"/><path class="st33" d="M1122.9 355.1s-2.4 2.6-3.2 4.1c-.5 1-.6 3.3-.4 4.9.1.7.6 1.3 1.3 1.5 1 .3 2.4-.1 2.3-1.1-.3-2.9 2.7-4 2.7-4s1 .7 1.8-.2l-1.7-.7-2.4.9 2.5-1.8s2-.6 2.6-2.3l-2.8 1.1-2.7 1.4 2.3-1.8s1.9.2 2.8-1.2l-3.2.2-3 2 1.6-2.3s1.7-.3 2-1.4l-2.5.7z"/><path class="st28" d="m1137.9 439.1-.8-.3c-1.3-.5-2.7-.3-3.7.6-1.6 1.5-2.8 3.8-4.9 6.4-.9 1.1-2.4 1.9-2.9 2.5-.6.7-1.3 1.6-1.1 2.3v.8s.6.9 2.3 1.1c2 .2 3.7-.4 4.5-1.2 4-4.3 4.9-4.6 4.9-4.6v1.8l3.5-2.3v-4.5c-.1-1.1-.8-2.1-1.8-2.6"/><path d="M1148.4 371.6c1.8-3.1-1.1-8.2-6.5-11.3s-11.2-3.1-13 0c-1.8 3.1 1.1 8.2 6.5 11.3 5.4 3.2 11.2 3.2 13 0z" style="fill:none;stroke:#0c022f;stroke-width:2.5153;stroke-miterlimit:10"/><path class="st28" d="m1148.7 443.6-.2-.2c-.8-.8-2-1-3-.6l-.8.3c-1.3.5-1.9 3.4-1.9 4.8-.1 2.2-.1 3.9.1 7.2.1 1.6.2 3.1.4 4 .2 1.1 1 2.1 2.2 2.2 1.4.1 2.3-.5 2.6-2.5 0 0 1.2-6.1 1.6-9.5.1-2 .3-4.4-1-5.7"/><path class="st33" d="m1149.3 439.7-5.2-2-.1 7.5c-.2.8.5 1.9 1.8 2.6 1.4.8 2.6.7 3-.1.1-.2.1-.3.1-.5l.4-7.5zM1138.6 433.9l-5-1.9-.1 7.1c-.2.8.5 1.8 1.7 2.5 1.3.8 2.7.8 3.2 0 .1-.2.1-.3.1-.5l.1-7.2z"/><path class="st2" d="M1132.1 330.9c-.7.1-1.4.4-2.1.8-.8.4-1.4 1-1.8 1.5-.5.6-.7 1.4-.6 2.2l1.4 27.6v1c-1 3.2-1.5 12.3-.7 22.7.5 5.5 1.8 11.7 2.1 17.4.2 3-.6 5.4-.4 7.8.9 9.8 3.1 15.7 3.3 18.1-.6.9.2 2.5 1.8 3.5s3.3 1.1 3.9.2c.1-.1.1-.3.2-.4v-.5c0-1.1 1.5-4 1.1-7.6-.7-6.7-.9-14.7-1-18.8-.1-6.2-1.4-16.1-1.7-18 0 0 2.5 11.8 3.3 22.1v.1c0 .6-.2 4.5-.1 5.6.4 8.5 3.4 17.9 2.9 20.9-.3.9.5 2.3 1.9 3.2 1.6 1 3.3 1.1 3.9.2.1-.2.2-.4.2-.7.8-4 1.7-6.6 1.9-10.5.4-6.2-1.6-12.8-1.4-16.5.3-6 1.8-19 1.8-21.4-.1-3.8-2-13.2-2.8-17.3-.3-1.4-.5-2.5-.9-3.5 0-.2.1-.4.1-.7l3.2-26.7c.2-1.1-.7-2.6-2.4-3.6-.1 0-15.1-8.7-15.1-8.7-.4-.2-.8-.4-1.4-.4-.2.3-.4.3-.6.4z"/><path d="M1136.5 341.1c0 2.5 6.5.3 7.7-3v-8.3h-7.7v11.3" style="fill:#5b3427"/><path d="M1136.5 336v-5.1l7.7.2v2.2c-.7 1.9-2.8 4-6.2 3.4-.5-.1-1.2-.3-1.5-.7" style="fill:#351812"/><path class="st33" d="M1145.6 329.9c0-.8-.6-1.5-1.5-1.6h-.1l-.3-1.8c-.4-2.6-2.8-4.4-5.5-4-2.7.4-4.5 2.8-4.1 5.4l.6 4c.5 3.6 2.6 3.9 5 3.6 2.3-.3 4-2.1 4.4-4.3.9 0 1.5-.6 1.5-1.3"/><path class="st28" d="M1144.1 328.3s-4.3.1-7.3-4.1c0 0-1.8 1.1-2.6 3.2 0 0-.5-3.2 3-4.6 3.5-1.4 4.9.1 5.9 1 1 .8 1.7 2.7 1.9 4.7.1.1-.4-.3-.9-.2"/><path d="M1148.9 370.2c-.1.5-.2 1-.5 1.4-1.8 3.1-7.6 3.1-13 0-3.6-2.1-6-5-6.8-7.6l-.3-1.4" style="fill:none;stroke:#0c022f;stroke-width:2.5153;stroke-linecap:round;stroke-miterlimit:10"/><path class="st33" d="M1151.4 342.2s-3.6 6.4-2.6 8.6c3.3 7.2 4.2 10.1 5.3 12.8 4 9.3-12.4 5.8-12.4 5.8s-.9 3.8-.8 3.7c39.3 12.1 10.5-30.9 10.5-30.9"/><path d="m1122.4 348 11.9 6.9s2.6 6.2 0 18.7l-11.9-6.8c1.6-7.2 0-18.8 0-18.8" style="fill:#f3f3f6"/><path class="st395" d="M1150.7 362.4s-1.1-5.1-2.5-9.4c-1.1-3.3-1.1-6.9-.1-10.2l.9-3s5.9 2.3 8.7 12.4c.3 1.2 1.2 2.3 3.4 4.2.5.4.8.9.8 1.4 0 .8-.7 1.5-1.8 2-.6.3-1.1.8-1.1 1.2v.3c.2 1.4-1.5 2.8-3.8 3.1-2.3.2-4.3-.6-4.5-2z"/><path class="st33" d="M1129.7 447.7c1.4.2 3-1.2 3.5-1.8.6-.6 3-2.5 4.8-4l-4.5-3.4s-.5 2.1-3.3 5.6c-1.2 1.6-2.8 3.3-.5 3.6M1143.9 455.5s.3.8 1.6.9c1.4.1 2-.3 2.2-1 .5-1.3.9-4.8 1-7.9l-4.9-1.9c.1-.1-1 7.7.1 9.9M1122.9 355.1s-2.4 2.6-3.2 4.1c-.5.9 2.4 4.2 3.1 4.4.1 0 .2-.5.2-.6.6-1.8 2.5-2.5 2.5-2.5s1 .7 1.8-.2l-1.7-.7-2.4.9 2.5-1.8s2-.6 2.6-2.3l-2.8 1.1-2.7 1.4 2.3-1.8s1.9.2 2.8-1.2l-3.2.2-3 2 1.6-2.3s1.7-.3 2-1.4l-2.4.7z"/><path class="st28" d="M1143.9 320.7c.2-.2.5-.4.8-.5 1-.3 2 .4 2.3 1.3.2.6 0 1.2-.4 1.7 0 .1.1.1.1.2.1.4-.1.8-.5.9.1.9-.4 1.9-1.4 2.1-1 .3-2-.4-2.3-1.3 0-.1-.1-.3-.1-.4-.3-.1-.5-.3-.6-.6v-.4c-.5-.2-.9-.7-1.1-1.3-.3-1 .4-2 1.3-2.3.8 0 1.5.2 1.9.6z"/><path class="st33" d="M1133.3 362.5s3.8 2.6 4 2.8c0 0 .2.2.5.4l-1-1.3s-1.4-.6-1.2-1.5l1.7.9c2 1 5.8 6.2 5.8 6.2l-2 3.2s-3.7-.9-6.5-3.6l-2.2-1.1s-.8.2-2-.5l1.9-.4 2.9 1.1-3-2.1s-2-.3-2.6-2l2.7.8 2.7 1.5-2.4-1.9s-1.9.2-2.8-1.3l3.2.3 2.8 1.6-3.2-2.4s-1.6-.3-1.8-1.5l2.5.8z"/></g><path class="st45" d="m999.3 366.2-1-.3s-2.3-.6-3-.6c-.4 0-2.3.4-2.3.4l-.5 1.5s1.3.1 1.3-.9l1.1-.1c.2.2.5.8 1.1 1.3.4.3.8.6 1.4.9 0 0 1 .4 1.5.5 1.2.2.4-2.7.4-2.7zM1012.3 375.2s2.8-1.9 2.9-2c.2-.1 4.7-2.6 4.7-2.6l1.3 2.2s-1.4 2.2-4 3.3l-1.3 1.2s-.1.6-.9 1.2l.3-1.4 1.5-1.7-2.2 1.5s-.8 1.3-2 1.2l1.3-1.6 1.7-1.4-1.9 1.1s-.4 1.3-1.6 1.5l1-2.1 1.8-1.4-2.4 1.5s-.6 1-1.5.8l1.3-1.3z"/></g></svg>