<svg xmlns="http://www.w3.org/2000/svg" xmlns:xlink="http://www.w3.org/1999/xlink" viewBox="0 0 1435.1 832" style="enable-background:new 0 0 1435.1 832" xml:space="preserve"><style>.st1{fill:#5333ed}.st2{display:none}.st25{fill:#ffc398}.st26{fill:#120667}.st28{fill:#0c022f}.st33{fill:#724c3b}.st35{fill:#c2d3eb}.st43{fill:#4e2d23}.st45{fill:#b7835f}.st46{fill:#0f0446}.st51{fill:#dfe9f8}.st55{fill:#fff}.st96{fill:#c2d3eb}.st96,.st97{opacity:.7}.st114{fill-rule:evenodd;clip-rule:evenodd;fill:#c2d3eb}.st134{fill:#462ad3}.st135{fill:#eba072}.st144{fill:#723925}.st157{fill:#5b3427}.st193{fill:#a67451}.st196,.st197{fill:none;stroke:#120667;stroke-width:1.2887;stroke-linecap:round;stroke-miterlimit:10}.st197{stroke-width:.4079}.st198{fill:#996a4a}.st235{fill:#9b31f7}.st250{opacity:.5;fill:#0c0447}.st253{opacity:.6;fill:#fff}.st258{fill:none;stroke:#120667;stroke-width:.3503;stroke-linecap:round;stroke-miterlimit:10}.st269{stroke:#fff;stroke-width:1.5}.st269,.st271,.st272,.st273,.st276{fill:none;stroke-linecap:round;stroke-miterlimit:10}.st271{stroke:#b5c9e2;stroke-width:2.2564;stroke-linejoin:round}.st272,.st273,.st276{stroke:#120667;stroke-width:.5413}.st273,.st276{stroke-width:.4737}.st276{stroke-width:.8797}</style><pattern x="462.3" y="-559.8" width="88" height="88" patternUnits="userSpaceOnUse" id="New_Pattern_Swatch_18" viewBox="0 -88 88 88" style="overflow:visible"><path style="fill:none" d="M0-88h88V0H0z"/><path class="st1" d="M0-88h88V0H0z"/></pattern><g id="Layer_14"><linearGradient id="SVGID_4_" gradientUnits="userSpaceOnUse" x1="958.741" y1="465.435" x2="983.713" y2="508.688" gradientTransform="translate(-42.688)"><stop offset="0" style="stop-color:#c2d3eb"/><stop offset=".903" style="stop-color:#c2d3eb;stop-opacity:0"/></linearGradient><path style="opacity:.4;fill:url(#SVGID_4_)" d="m906 471.2 49.5 29.1-9.5 1.5-42.6-24.7z"/><linearGradient id="SVGID_6_" gradientUnits="userSpaceOnUse" x1="927.299" y1="465.67" x2="949.451" y2="504.04" gradientTransform="translate(-42.688)"><stop offset="0" style="stop-color:#c2d3eb"/><stop offset=".903" style="stop-color:#c2d3eb;stop-opacity:0"/></linearGradient><path style="opacity:.4;fill:url(#SVGID_6_)" d="m879.5 468.6 44.1 25.7-12.6 7-42.6-24.7z"/><path class="st1" d="m909.7 465.6-1.2-1.8c-.5-.8-1.5-1.2-2.4-1l-.7.1c-1.2.2-2.1 1.1-2.3 2.2-.4 1.8-.8 4.3-1.1 7.1-.1 1.2-.2 2.2-.3 2.9-.1 1 .7 1.9 1.7 1.8h.6c.6 0 1.1-.4 1.3-.9l4.5-9.2c.2-.4.1-.9-.1-1.2"/><path class="st196" d="M902.7 476c.3.3.7.5 1.2.4h.6c.6 0 1-.4 1.3-.9l4.4-8.8"/><path class="st33" d="m903.9 458.4-4.7 1.1 3.5 5.3c.2.7 1.3 1.1 2.5 1 1.4-.1 2.4-.8 2.4-1.6 0-.2-.1-.3-.2-.4l-3.5-5.4z"/><path class="st1" d="M906.6 465.3c0 .6-.8 1.2-1.9 1.3-1.1.1-2-.4-2.1-1 0-.6.8-1.2 1.9-1.3 1.1-.1 2 .3 2.1 1"/><path class="st197" d="M902.6 466.2c.3-.3.9-.4 1.4-.5 1.1-.1 2 .4 2.1 1M902.4 467.9c.3-.2.8-.4 1.4-.5 1.1-.1 1.9.4 2 1M902.2 469.6c.3-.2.8-.4 1.3-.4 1-.1 1.8.3 1.9.9"/><path class="st197" d="M902.5 467c.3-.2.8-.4 1.4-.5 1.1-.1 1.9.4 2 1M902.3 468.8c.3-.2.8-.4 1.3-.4 1-.1 1.8.3 1.9.9"/><path class="st196" d="m902.1 476.6 2.1-.2"/><path class="st1" d="m882.1 471.8.4-2.2c.2-.9-.3-1.9-1.1-2.4l-.6-.4c-1-.6-2.2-.6-3.2 0-1.5 1-3.6 2.6-5.7 4.4-.9.8-1.6 1.5-2.1 1.9-.8.6-.8 1.8 0 2.5l.5.4c.4.4 1 .5 1.5.3l9.6-3.6c.4-.2.7-.5.7-.9"/><path class="st196" d="M869.9 474.5c0 .4.2.9.6 1.2l.5.4c.4.4 1 .4 1.5.3l9.2-3.4"/><path class="st33" d="m882.7 462.5-4.1-2.4-1 6.3c-.3.6.1 1.7 1.1 2.5 1 .9 2.3 1.1 2.8.5.1-.1.2-.3.2-.4l1-6.5z"/><path class="st1" d="M880.1 469.4c-.4.5-1.4.3-2.3-.4-.8-.7-1.2-1.7-.8-2.2.4-.5 1.4-.3 2.3.4.8.7 1.2 1.7.8 2.2"/><path class="st197" d="M876.6 467.3c.4.1.9.3 1.4.7.8.7 1.2 1.7.8 2.2M875.3 468.4c.4.1.9.3 1.3.6.8.7 1.2 1.6.8 2.1M873.9 469.6c.4.1.8.3 1.2.6.8.6 1.1 1.5.7 1.9M876 467.9c.4.1.9.3 1.3.6.8.7 1.2 1.6.8 2.1M874.6 469c.4.1.8.3 1.2.6.8.6 1.1 1.5.7 1.9"/><path class="st196" d="m869.1 474.5 1.6 1.4"/><path class="st35" d="m883.7 462.9.1-1.2c.1-.9-.6-2.1-1.9-2.9-1.5-1-3.2-1.1-3.8-.2-.2.3-.2.6-.2.9l-.1 1.1c0 .9.7 2 1.9 2.8 1.5 1 3.2 1.1 3.8.2.1-.1.1-.3.2-.4V462.9M905.1 458.7c-.4-.8-1.7-1.3-3.2-1.3-1.8 0-3.3.9-3.3 1.9 0 .3.1.5.3.7l.6 1.1c.4.8 1.7 1.4 3.2 1.3 1.8 0 3.3-.9 3.3-1.9 0-.2-.1-.4-.2-.6l-.7-1.2z"/><path class="st1" d="M899.8 423.1c-.1-3.2-.3-15.6-1.2-18.8-2.7-9.1-20.2-11.7-22.8-9.3-1 .9 1.3 31.2 1.8 41.9.3 7.3 1.2 20.9 1.2 21.9-.5.8 0 2 1.4 2.9 1.3.9 2.8.9 3 0 .2-.8 1.7-14.1 2.5-21.4.8-7.5 1.9-23.1 1.8-23.9 0 0 1.3 14.9 3 28.9 3.2 7.1 6 10.7 8.3 13.9.5.7 1.5 1.8 3.3 1.5 1.1-.2 2.2-.6 2.5-1.4.6-1.5-4-10.2-5.9-16 1.4-8.1 1.1-19.3 1.1-20.2"/><path class="st193" d="m901.9 421.1 2.6-17.7H900l-1.5 16.8c-.4 1.9-1.6 6.9-1.7 7.1-.1.2-.8 3.6-.8 3.6l.3 2.2c.9-.6.6-2 .6-2l.7-2.8-.3 3 .9 2.6c.8-1.2.1-2.6.1-2.6l.6-2.8-.3 3 .3 2.5c1.1-1 .7-2.7.7-2.7l.6-3.4v3.2l1 1.5c.2-1.2-.3-1.9-.3-1.9l.3-2.6c1-3.1.7-7 .7-7z"/><path class="st26" d="M903.3 378.3c-.3-.7-.9-1.4-1.8-1.9 0 0-.1 0-.1-.1l-19.1-11c-1.2-.7-3.6-1.6-5.5-1.6-.3 0-.6 0-.9.1-.9.1-2 .4-3.1 1-1.6.9-2.7 2.3-3 3.5-1.2 2.6 5 17.4 5.4 18.2v6.5c-.2 3.3 2.8 7.6 7.7 10.4 5.9 3.4 12.3 3.4 14.3 0 .3-.5.5-1.1.5-1.6.1-.4.1-.9 0-1.3v-7c.1-.6.4-1.2.8-1.9.6 7.2.7 10.8.6 12.6 0 1.3.6 2.5 1.7 3.2 1.6 1 4 1.2 4.3-.8 2.3-11.5 1.7-22.2-1.8-28.3"/><path class="st28" d="m898.6 391.6-.7-6.9-.6.7.5 8z"/><path class="st193" d="M890.5 371.5v-8.1H883v11c0 2.5 6.4.3 7.5-2.9"/><path class="st198" d="M883 369.8v-5.2l7.5-.1v2.1c-1.1 1.9-2.4 3.8-6.1 3.4-.5 0-1.1-.1-1.4-.2"/><path class="st26" d="M870.6 394.5c.8-.7 3.2-1.7 4.6-7.4l3.7-21.5-9.2 3.5s1 14.5-3 19.6c-1.8 2.4 2.2 7.2 3.9 5.8"/><path class="st28" d="m875.2 386.6-3.3-8.5-.3.8s1.9 5.1 3.1 10c0 0 .4-1 .5-1.7v-.6zM879.7 361c0 1.1.9 1.9 1.9 1.9 1.1 0 1.9-.9 1.9-1.9 0-1.1-.9-1.9-1.9-1.9-1.1-.1-1.9.8-1.9 1.9"/><path class="st193" d="M892.3 364.1c.2-.9-.3-1.7-1.2-1.9h-.1l.1-1.9c.1-2.8-2.1-5.1-4.9-5.2-2.8-.1-5.2 2-5.3 4.8l-.2 4.3c-.2 3.8 1.9 4.6 4.4 4.7 2.5.1 4.6-1.4 5.4-3.6.8 0 1.6-.4 1.8-1.2"/><path class="st28" d="M891 362.2s-.3 2.5-1.4 2.7l.1-3.6s0-.5-.3-.6c-.7-.2-3 1.7-7.4.3-.4-.1-.9-.4-1.3-.8-.6-.6-.5-1.5-.5-1.9 0-.4.8-3.8 6.4-3.8 0 0 2.1.2 3.4 1.1 0 0 1.1-.3 1.6.2s2.5 1.9.5 7c0 .1-.3-.5-1.1-.6"/><path class="st28" d="M890.1 362.5c0 .5.4.9.9.9s.9-.4.9-.9-.4-.9-.9-.9-.9.4-.9.9"/><path class="st198" d="m847.4 405-1.5 1.5c.9.2 1.8-.8 1.8-.8l2.4-.9c3.2-.7 6.6-2.8 6.6-2.8.4-.3-1.8-2.9-1.8-2.9s-6.6 1.4-6.8 1.4c-.2.1-3.4 1.2-3.4 1.2l-2.1 1.3c1 .4 2.3-.4 2.3-.4l2.7-.8-2.4 1.2-2 1.9c1.4 0 2.5-1.1 2.5-1.1l2.4-.8-2.3 1.2-2.2 1.4c1.4.4 2.5-.6 2.5-.6l3.3-1.3-2 1.3z"/><linearGradient id="SVGID_8_" gradientUnits="userSpaceOnUse" x1="1526.888" y1="459.22" x2="1510.905" y2="486.192" gradientTransform="matrix(-1 0 0 1 2361.166 0)"><stop offset="0" style="stop-color:#c2d3eb"/><stop offset=".903" style="stop-color:#c2d3eb;stop-opacity:0"/></linearGradient><path style="opacity:.6;fill:url(#SVGID_8_)" d="m856.6 489.3 5.9-3.4-26.6-16.3-2.6.5 2.6 1.5-5.8 1.4z"/><linearGradient id="SVGID_9_" gradientUnits="userSpaceOnUse" x1="1572.476" y1="485.435" x2="1556.493" y2="512.406" gradientTransform="matrix(-1 0 0 1 2361.166 0)"><stop offset="0" style="stop-color:#c2d3eb"/><stop offset=".903" style="stop-color:#c2d3eb;stop-opacity:0"/></linearGradient><path style="opacity:.6;fill:url(#SVGID_9_)" d="m811 515.5 5.9-3.4-26.6-16.2-2.6.4 2.6 1.5-5.8 1.4z"/><linearGradient id="SVGID_10_" gradientUnits="userSpaceOnUse" x1="782.528" y1="494.191" x2="791.36" y2="494.191"><stop offset="0" style="stop-color:#c2d3eb"/><stop offset="1" style="stop-color:#7ab1df"/></linearGradient><path d="M784.5 497.3c0-2.6 1.8-5.7 4-7 1.1-.6 2.1-.7 2.8-.3l-2-1.2c-.7-.4-1.7-.3-2.8.3-2.2 1.3-4 4.4-4 7 0 1.3.4 2.1 1.1 2.6l1.9 1.2c-.6-.5-1-1.4-1-2.6z" style="fill:url(#SVGID_10_)"/><path class="st35" d="M784.5 497.3c0-2.6 1.8-5.7 4-7 2.2-1.3 4-.2 4 2.3 0 2.6-1.8 5.7-4 7-2.2 1.3-4 .2-4-2.3"/><linearGradient id="SVGID_11_" gradientUnits="userSpaceOnUse" x1="787.901" y1="495.014" x2="789.593" y2="495.014"><stop offset="0" style="stop-color:#c2d3eb"/><stop offset="1" style="stop-color:#7ab1df"/></linearGradient><path d="M787.9 495.5c0-.6.4-1.3.8-1.6.5-.3.8-.1.8.5s-.4 1.3-.8 1.6-.8.1-.8-.5" style="fill:url(#SVGID_11_)"/><linearGradient id="SVGID_12_" gradientUnits="userSpaceOnUse" x1="828.116" y1="468.02" x2="836.947" y2="468.02"><stop offset="0" style="stop-color:#c2d3eb"/><stop offset="1" style="stop-color:#7ab1df"/></linearGradient><path d="M830.1 471.1c0-2.6 1.8-5.7 4-7 1.1-.6 2.1-.7 2.8-.3l-2-1.2c-.7-.4-1.7-.3-2.8.3-2.2 1.3-4 4.4-4 7 0 1.3.4 2.1 1.1 2.6l1.9 1.2c-.6-.4-1-1.3-1-2.6z" style="fill:url(#SVGID_12_)"/><path class="st35" d="M830.1 471.1c0-2.6 1.8-5.7 4-7 2.2-1.3 4-.2 4 2.3 0 2.6-1.8 5.7-4 7-2.2 1.3-4 .3-4-2.3"/><linearGradient id="SVGID_13_" gradientUnits="userSpaceOnUse" x1="833.489" y1="468.843" x2="835.18" y2="468.843"><stop offset="0" style="stop-color:#c2d3eb"/><stop offset="1" style="stop-color:#7ab1df"/></linearGradient><path d="M833.5 469.4c0-.6.4-1.3.8-1.6.5-.3.8-.1.8.5s-.4 1.3-.8 1.6-.8 0-.8-.5" style="fill:url(#SVGID_13_)"/><linearGradient id="SVGID_14_" gradientUnits="userSpaceOnUse" x1="1535.068" y1="506.187" x2="1519.085" y2="533.159" gradientTransform="matrix(-1 0 0 1 2361.166 0)"><stop offset="0" style="stop-color:#c2d3eb"/><stop offset=".903" style="stop-color:#c2d3eb;stop-opacity:0"/></linearGradient><path style="opacity:.6;fill:url(#SVGID_14_)" d="m848.5 536.3 5.8-3.4-26.6-16.3-2.6.5 2.6 1.4-5.8 1.5z"/><linearGradient id="SVGID_15_" gradientUnits="userSpaceOnUse" x1="1489.37" y1="480.811" x2="1473.387" y2="507.783" gradientTransform="matrix(-1 0 0 1 2361.166 0)"><stop offset="0" style="stop-color:#c2d3eb"/><stop offset=".903" style="stop-color:#c2d3eb;stop-opacity:0"/></linearGradient><path style="opacity:.6;fill:url(#SVGID_15_)" d="m894.1 510.9 5.9-3.4-26.6-16.3-2.6.5 2.6 1.4-5.8 1.5z"/><linearGradient id="SVGID_16_" gradientUnits="userSpaceOnUse" x1="819.936" y1="514.983" x2="828.767" y2="514.983"><stop offset="0" style="stop-color:#c2d3eb"/><stop offset="1" style="stop-color:#7ab1df"/></linearGradient><path d="M821.9 518c0-2.6 1.8-5.7 4-7 1.1-.6 2.1-.7 2.8-.3l-2-1.2c-.7-.4-1.7-.3-2.8.3-2.2 1.3-4 4.4-4 7 0 1.3.4 2.1 1.1 2.6l1.9 1.2c-.6-.4-1-1.3-1-2.6z" style="fill:url(#SVGID_16_)"/><path class="st35" d="M821.9 518c0-2.6 1.8-5.7 4-7 2.2-1.3 4-.2 4 2.3 0 2.6-1.8 5.7-4 7-2.2 1.4-4 .3-4-2.3"/><linearGradient id="SVGID_17_" gradientUnits="userSpaceOnUse" x1="825.309" y1="515.806" x2="827" y2="515.806"><stop offset="0" style="stop-color:#c2d3eb"/><stop offset="1" style="stop-color:#7ab1df"/></linearGradient><path d="M825.3 516.3c0-.6.4-1.3.8-1.6.5-.3.8-.1.8.5s-.4 1.3-.8 1.6c-.4.3-.8.1-.8-.5" style="fill:url(#SVGID_17_)"/><linearGradient id="SVGID_18_" gradientUnits="userSpaceOnUse" x1="865.58" y1="489.553" x2="874.411" y2="489.553"><stop offset="0" style="stop-color:#c2d3eb"/><stop offset="1" style="stop-color:#7ab1df"/></linearGradient><path d="M867.5 492.6c0-2.6 1.8-5.7 4-7 1.1-.6 2.1-.7 2.8-.3l-2-1.2c-.7-.4-1.7-.3-2.8.3-2.2 1.3-4 4.4-4 7 0 1.3.4 2.1 1.1 2.6l1.9 1.2c-.5-.4-1-1.3-1-2.6z" style="fill:url(#SVGID_18_)"/><path class="st35" d="M867.5 492.6c0-2.6 1.8-5.7 4-7 2.2-1.3 4-.2 4 2.3 0 2.6-1.8 5.7-4 7-2.2 1.3-4 .3-4-2.3"/><linearGradient id="SVGID_19_" gradientUnits="userSpaceOnUse" x1="870.953" y1="490.376" x2="872.644" y2="490.376"><stop offset="0" style="stop-color:#c2d3eb"/><stop offset="1" style="stop-color:#7ab1df"/></linearGradient><path d="M871 490.9c0-.6.4-1.3.8-1.6.5-.3.8-.1.8.5s-.4 1.3-.8 1.6-.8.1-.8-.5" style="fill:url(#SVGID_19_)"/><path class="st51" d="M879.2 429.4c.1-.6-.3-1.3-.9-1.4-.6-.1-1.3.3-1.4.9l-7.7 34.6c-.4 1.7-.1 3.4.8 4.9l3.5 6.1c.6 1.1 1 2.3 1 3.6v.5l-34.3-20.5c.3-.7.4-1.5.4-2.3 0-1.7-.4-3.3-1.3-4.7l-3.5-6.1c-.6-1-.7-2.1-.5-3.2v-.1l4.3-32.6c.1-.7-.4-1.2-1-1.3-.7-.1-1.2.4-1.3 1l-4.3 32.5c-.4 1.7-.1 3.4.8 4.8l3.5 6.1c.6 1.1 1 2.3 1 3.6 0 1.5-.8 2.9-2.1 3.6l-53.4 30.2c-.6.3-.8 1-.4 1.6.2.4.6.6 1 .6.2 0 .4 0 .6-.2l9.8-5.5 34.5 20.6-9.1 5.2c-.6.3-.8 1-.4 1.6.2.4.6.6 1 .6.2 0 .4 0 .6-.2l53.4-30.2c2.1-1.2 3.3-3.4 3.3-5.7 0-1.7-.4-3.3-1.3-4.7l-3.5-6.1c-.6-1-.7-2.1-.5-3.2l7.4-34.6zm-6.9 52.4-41.9 23.7-34.5-20.6 41.3-23.4c.6-.4 1.2-.8 1.7-1.4l34.6 20.7c-.4.4-.8.7-1.2 1z"/><path class="st35" d="M878.5 429.8c-.5 0-1.1-.2-1.4-.7-.6-.8-.4-1.9.4-2.4l4.3-3.2s.1-.1.2-.1c.4-.3.5-.5.5-.6 0-.3-.2-.7-.7-1.1L851 405s-.1 0-.1-.1c-1.2-.8-2.6-.8-3.9-.2l-7.6 4.4c-.8.5-1.9.2-2.4-.6s-.2-1.9.6-2.4l7.7-4.4c2.4-1.2 5.2-1.1 7.4.3l30.7 16.7s.1 0 .1.1c1.5 1 2.4 2.5 2.3 4.1 0 1.4-.8 2.7-2.1 3.5l-4.2 3.1c-.3.2-.6.3-1 .3zM869.6 463.7l-35.8-20.5c-.1-.1-.3-.1-.5 0l-5.6 3.1c-.2 0-.3.1-.4.2l-14.4 7.9c-.2 0-.3.1-.4.2l-16 8.8c-.1 0-.2.1-.3.2l-7.4 4.1c-.1.1-.2.2-.2.4s.1.3.2.4l5.4 3.3v.1c.1.2.2.2.4.2h.1l29.5 19.3c.1 0 .2.1.2.1.1 0 .2 0 .3-.1l44.9-27c.1-.1.2-.2.2-.4.1 0 0-.2-.2-.3zm-25.3-13.4-4.7 2.7-5.4-3.1 4.7-2.7 5.4 3.1zm-33.1 12.6 7.2-4.1 5.3 3.2-7.2 4.1-5.3-3.2zm4.5 3.8-7 4-5.4-3.3 7-4 5.4 3.3zm3.7-8.4 6.5-3.7 5.3 3.2-6.4 3.7-5.4-3.2zm7.4-4.2 6.4-3.7 5.4 3.1-6.5 3.8-5.3-3.2zm6.8-9.9 4.4 2.5-4.7 2.7-4.4-2.6 4.7-2.6zm-5.8 3.1 4.5 2.6-6.4 3.6-4.4-2.7 6.3-3.5zm-7.3 4.1 4.4 2.7-6.5 3.7-4.5-2.8 6.6-3.6zm-7.5 4.1 4.5 2.8-7.2 4.1-4.7-2.8 7.4-4.1zm-8.3 4.6 4.7 2.8-7 4-4.8-2.9 7.1-3.9zm-14.7 8.1 6.6-3.7 4.8 2.9-6.6 3.7-4.8-2.9zm12.3-.2 5.5 3.3-6.6 3.8-5.5-3.3 6.6-3.8zm22.2 22.6-22.4-15 6.6-3.8 23.5 14.2-7.7 4.6zm8.6-5.1c0-.1-.1-.2-.2-.3l-23.3-13.9 7-4 23.3 14.1-6.8 4.1zm7.8-4.7-23.3-14.1 7.1-4.1 23.2 14-7 4.2zm7.7-4.6c0-.1-.1-.3-.2-.3l-22.8-13.8 6.4-3.7 23 13.9-6.4 3.9zm7.3-4.6c0-.1.1.1 0 0L833 457.8l6.6-3.8 23.5 13.5-7.2 4.1zm8.1-4.6-23.5-13.5 4.7-2.7 23.3 13.3-4.5 2.9z"/><linearGradient id="SVGID_20_" gradientUnits="userSpaceOnUse" x1="841.233" y1="414.813" x2="841.233" y2="447.249"><stop offset="0" style="stop-color:#dfe9f8"/><stop offset="1" style="stop-color:#c2d3eb"/></linearGradient><path d="M838.7 447.2s-.1 0 0 0c-.3 0-.5-.3-.5-.6l5.1-31.5c0-.3.3-.4.5-.4.3 0 .4.3.4.5l-5.1 31.5c0 .4-.2.5-.4.5z" style="fill:url(#SVGID_20_)"/><linearGradient id="SVGID_21_" gradientUnits="userSpaceOnUse" x1="847.645" y1="418.379" x2="847.645" y2="450.341"><stop offset="0" style="stop-color:#dfe9f8"/><stop offset="1" style="stop-color:#c2d3eb"/></linearGradient><path d="M845.1 450.3c-.3 0-.5-.3-.5-.6l5.1-31c0-.3.3-.4.5-.4.3 0 .4.3.4.5l-5.1 31c0 .4-.2.5-.4.5z" style="fill:url(#SVGID_21_)"/><g><linearGradient id="SVGID_22_" gradientUnits="userSpaceOnUse" x1="854.037" y1="422.184" x2="854.037" y2="454.594"><stop offset="0" style="stop-color:#dfe9f8"/><stop offset="1" style="stop-color:#c2d3eb"/></linearGradient><path style="fill:url(#SVGID_22_)" d="M851.5 454.6c-.1 0-.1 0 0 0-.3 0-.5-.3-.5-.6l5.1-31.5c0-.3.3-.4.5-.4.3 0 .4.3.4.5l-5.1 31.5c0 .3-.2.5-.4.5z"/></g><g><linearGradient id="SVGID_23_" gradientUnits="userSpaceOnUse" x1="860.707" y1="425.751" x2="860.707" y2="458.423"><stop offset="0" style="stop-color:#dfe9f8"/><stop offset="1" style="stop-color:#c2d3eb"/></linearGradient><path style="fill:url(#SVGID_23_)" d="M858.2 458.4c-.1 0-.1 0 0 0-.3 0-.5-.3-.5-.6l5.1-31.7c0-.3.3-.4.5-.4.3 0 .4.3.4.5l-5.1 31.7c0 .4-.2.5-.4.5z"/></g><g><linearGradient id="SVGID_24_" gradientUnits="userSpaceOnUse" x1="866.853" y1="429.728" x2="866.853" y2="461.368"><stop offset="0" style="stop-color:#dfe9f8"/><stop offset="1" style="stop-color:#c2d3eb"/></linearGradient><path d="M863.8 461.4c-.3-.1-.5-.3-.5-.6l6-30.7c.1-.3.3-.4.6-.4.3.1.4.3.4.6l-6 30.7c0 .2-.2.4-.5.4z" style="fill:url(#SVGID_24_)"/></g><g><linearGradient id="SVGID_25_" gradientUnits="userSpaceOnUse" x1="791.686" y1="439.091" x2="791.686" y2="464.471"><stop offset="0" style="stop-color:#dfe9f8"/><stop offset="1" style="stop-color:#c2d3eb"/></linearGradient><path d="M796.7 464.5c-.2 0-.4-.1-.4-.3l-10-24.4c-.1-.2 0-.5.3-.6.2-.1.5 0 .6.3l10 24.4c.1.2 0 .5-.3.6h-.2z" style="fill:url(#SVGID_25_)"/></g><g><linearGradient id="SVGID_26_" gradientUnits="userSpaceOnUse" x1="801.27" y1="433.633" x2="801.27" y2="459.875"><stop offset="0" style="stop-color:#dfe9f8"/><stop offset="1" style="stop-color:#c2d3eb"/></linearGradient><path d="M804.8 459.9c-.2 0-.4-.1-.5-.3l-7.1-25.3c-.1-.3.1-.5.3-.6.3-.1.5.1.6.3l7.1 25.3c.1.3-.1.5-.3.6h-.1z" style="fill:url(#SVGID_26_)"/></g><g><linearGradient id="SVGID_27_" gradientUnits="userSpaceOnUse" x1="809.78" y1="428.701" x2="809.78" y2="455.492"><stop offset="0" style="stop-color:#dfe9f8"/><stop offset="1" style="stop-color:#c2d3eb"/></linearGradient><path d="M812.8 455.5c-.2 0-.4-.1-.5-.4l-6.1-25.8c-.1-.3.1-.5.4-.6.3-.1.5.1.6.4l6.1 25.8c.1.3-.1.5-.4.6h-.1z" style="fill:url(#SVGID_27_)"/></g><g><linearGradient id="SVGID_28_" gradientUnits="userSpaceOnUse" x1="818.532" y1="422.746" x2="818.532" y2="451.477"><stop offset="0" style="stop-color:#dfe9f8"/><stop offset="1" style="stop-color:#c2d3eb"/></linearGradient><path d="M820.3 451.5c-.2 0-.4-.2-.5-.4l-3.6-27.8c0-.3.2-.5.4-.5.3 0 .5.2.5.4l3.6 27.8c.1.2-.1.4-.4.5.1 0 0 0 0 0z" style="fill:url(#SVGID_28_)"/></g><g><linearGradient id="SVGID_29_" gradientUnits="userSpaceOnUse" x1="828.112" y1="416.478" x2="828.112" y2="447.358"><stop offset="0" style="stop-color:#dfe9f8"/><stop offset="1" style="stop-color:#c2d3eb"/></linearGradient><path style="fill:url(#SVGID_29_)" d="M827.7 447.4c-.3 0-.5-.2-.5-.5l.9-29.9c0-.3.2-.5.5-.5s.5.2.5.5l-.9 29.9c-.1.3-.3.5-.5.5z"/></g><g><path class="st51" d="M822.1 485c-.1 0-.2 0-.3-.1l-36.6-23.5c-.1-.1-.2-.2-.2-.4s.1-.3.2-.4l49.5-27.7c.1-.1.3-.1.5 0l36.7 21.3c.1.1.2.2.2.4s-.1.3-.2.4l-49.6 30c-.1-.1-.2 0-.2 0zm-35.7-24 35.7 22.9 48.7-29.4-35.8-20.7-48.6 27.2z"/></g><g><path class="st51" d="M819.8 477.2c-.1 0-.2 0-.3-.1l-38-23.8c-.1-.1-.2-.2-.2-.4s.1-.3.2-.4l54.6-30.3c.1-.1.3-.1.5 0l38 21.8c.1.1.2.2.2.4s-.1.3-.2.4L820 477.2h-.2zM782.7 453l37 23.2 53.7-31.7-37.1-21.3-53.6 29.8z"/></g><g><linearGradient id="SVGID_30_" gradientUnits="userSpaceOnUse" x1="829.491" y1="461.884" x2="829.491" y2="486.927"><stop offset="0" style="stop-color:#dfe9f8"/><stop offset="1" style="stop-color:#c2d3eb"/></linearGradient><path d="M833.6 486.9c-.2 0-.4-.1-.4-.3l-8.3-24.1c-.1-.2 0-.5.3-.6.3-.1.5 0 .6.3l8.3 24.1c.1.2 0 .5-.3.6h-.2z" style="fill:url(#SVGID_30_)"/><linearGradient id="SVGID_31_" gradientUnits="userSpaceOnUse" x1="838.615" y1="455.822" x2="838.615" y2="482.137"><stop offset="0" style="stop-color:#dfe9f8"/><stop offset="1" style="stop-color:#c2d3eb"/></linearGradient><path style="fill:url(#SVGID_31_)" d="M841.2 482.1c-.2 0-.4-.2-.5-.4l-5.1-25.4c-.1-.3.1-.5.4-.6.3-.1.5.1.6.4l5.1 25.4c0 .3-.2.6-.5.6z"/><linearGradient id="SVGID_32_" gradientUnits="userSpaceOnUse" x1="846.928" y1="450.892" x2="846.928" y2="477.416"><stop offset="0" style="stop-color:#dfe9f8"/><stop offset="1" style="stop-color:#c2d3eb"/></linearGradient><path d="M848.8 477.4c-.2 0-.4-.2-.5-.4l-3.7-25.6c0-.3.1-.5.4-.5.3 0 .5.1.5.4l3.7 25.6c.1.2-.1.5-.4.5z" style="fill:url(#SVGID_32_)"/><g><linearGradient id="SVGID_33_" gradientUnits="userSpaceOnUse" x1="855.523" y1="444.939" x2="855.523" y2="472.802"><stop offset="0" style="stop-color:#dfe9f8"/><stop offset="1" style="stop-color:#c2d3eb"/></linearGradient><path style="fill:url(#SVGID_33_)" d="M855.9 472.8c-.3 0-.5-.2-.5-.5l-.8-26.9c0-.3.2-.5.5-.5s.5.2.5.5l.8 26.9c0 .3-.2.5-.5.5.1 0 .1 0 0 0z"/></g><g><linearGradient id="SVGID_34_" gradientUnits="userSpaceOnUse" x1="865.121" y1="438.774" x2="865.121" y2="467.589"><stop offset="0" style="stop-color:#dfe9f8"/><stop offset="1" style="stop-color:#c2d3eb"/></linearGradient><path d="M864 467.6c-.3 0-.5-.3-.5-.5l2.2-27.9c0-.3.3-.5.5-.4.3 0 .5.2.4.5l-2.2 27.9c.1.2-.1.4-.4.4z" style="fill:url(#SVGID_34_)"/></g></g><g><linearGradient id="SVGID_35_" gradientUnits="userSpaceOnUse" x1="789.404" y1="448.087" x2="789.404" y2="472.262"><stop offset="0" style="stop-color:#dfe9f8"/><stop offset="1" style="stop-color:#c2d3eb"/></linearGradient><path d="M794.7 472.3c-.2 0-.4-.1-.4-.3l-10.6-23.2c-.1-.2 0-.5.2-.6.2-.1.5 0 .6.2l10.6 23.2c.1.2 0 .5-.2.6-.1 0-.1.1-.2.1z" style="fill:url(#SVGID_35_)"/></g><g><linearGradient id="SVGID_36_" gradientUnits="userSpaceOnUse" x1="783.153" y1="444.038" x2="783.153" y2="468.791"><stop offset="0" style="stop-color:#dfe9f8"/><stop offset="1" style="stop-color:#c2d3eb"/></linearGradient><path d="M789 468.8c-.2 0-.3-.1-.4-.3L777 444.7c-.1-.2 0-.5.2-.6.2-.1.5 0 .6.2l11.6 23.8c.1.2 0 .5-.2.6-.1.1-.2.1-.2.1z" style="fill:url(#SVGID_36_)"/></g><g><linearGradient id="SVGID_37_" gradientUnits="userSpaceOnUse" x1="797.088" y1="453.038" x2="797.088" y2="476.682"><stop offset="0" style="stop-color:#dfe9f8"/><stop offset="1" style="stop-color:#c2d3eb"/></linearGradient><path style="fill:url(#SVGID_37_)" d="M801.8 476.7c-.2 0-.4-.1-.4-.3l-9.4-22.7c-.1-.2 0-.5.3-.6.2-.1.5 0 .6.3l9.4 22.7c.1.2 0 .5-.3.6h-.2z"/></g><g><linearGradient id="SVGID_38_" gradientUnits="userSpaceOnUse" x1="804.835" y1="457.905" x2="804.835" y2="481.291"><stop offset="0" style="stop-color:#dfe9f8"/><stop offset="1" style="stop-color:#c2d3eb"/></linearGradient><path d="M809.1 481.3c-.2 0-.4-.1-.4-.3l-8.6-22.4c-.1-.2 0-.5.3-.6.2-.1.5 0 .6.3l8.6 22.4c.1.2 0 .5-.3.6h-.2z" style="fill:url(#SVGID_38_)"/></g><g><linearGradient id="SVGID_39_" gradientUnits="userSpaceOnUse" x1="812.382" y1="462.377" x2="812.382" y2="486.197"><stop offset="0" style="stop-color:#dfe9f8"/><stop offset="1" style="stop-color:#c2d3eb"/></linearGradient><path d="M816.7 486.2c-.2 0-.4-.1-.4-.3l-8.7-22.9c-.1-.2 0-.5.3-.6.2-.1.5 0 .6.3l8.7 22.9c.1.2 0 .5-.3.6h-.2z" style="fill:url(#SVGID_39_)"/></g><g><linearGradient id="SVGID_40_" gradientUnits="userSpaceOnUse" x1="820.195" y1="467.068" x2="820.195" y2="491.179"><stop offset="0" style="stop-color:#dfe9f8"/><stop offset="1" style="stop-color:#c2d3eb"/></linearGradient><path d="M824.5 491.2c-.2 0-.4-.1-.4-.3l-8.6-23.2c-.1-.2 0-.5.3-.6.2-.1.5 0 .6.3l8.6 23.2c.1.2 0 .5-.3.6h-.2z" style="fill:url(#SVGID_40_)"/></g><g><path class="st51" d="M816 468.1c-.1 0-.2 0-.2-.1l-38.9-23.2c-.1-.1-.2-.2-.2-.4s.1-.3.3-.4l60.7-32.5c.1-.1.3-.1.5 0l38.3 21.6c.1.1.2.2.2.4s-.1.3-.2.4l-60.1 34.2h-.4zm-37.9-23.7 37.9 22.7 59.1-33.6-37.3-21-59.7 31.9z"/></g><path class="st193" d="M866.8 389.6c-1.6 1.4-11.7 9.3-11.7 9.3s-2.8.1-3.6.5c-.5.2-2.2 2-2.2 2l-.7 1.4s1.1 0 2-1.3l.7-.4s.9 1.5 2.5 1.7c1.4.1 2.6-.6 2.6-.6l1-.5c.3-.1 7.6-3.7 13.1-7.8 1.3-1-2.3-5.5-3.7-4.3"/><g><linearGradient id="SVGID_41_" gradientUnits="userSpaceOnUse" x1="476.481" y1="259.571" x2="488.7" y2="283.878" gradientTransform="matrix(-1 0 0 1 1759.574 0)"><stop offset="0" style="stop-color:#c2d3eb"/><stop offset="1" style="stop-color:#7ab1df"/></linearGradient><path d="M1272 268.8v-4.3c2.2-1.3 4.3-1.4 5.9-.5.1 0 .1.1.2.1l3 1.7 1.3 9.5c.6 3.8-1.3 4.2-1.3 4.2s-3.6 5-3.9 5.3c-.3.3-2 3.2-2 3.2l-3.1-1.8v-4.3c2.6-1.5 5.1-6.1 5.1-9.3-.1-3.4-2.5-5.3-5.2-3.8z" style="fill:url(#SVGID_41_)"/><path class="st235" d="M1272 281.8v4.4l3.1 1.8v-4.4z"/><path class="st1" d="m1272 264.5 3.1 1.8v4.3l-3.1-1.8z"/><path class="st35" d="M1275.1 270.6v-4.3c4.9-2.8 8.8 0 8.8 6s-3.9 12.9-8.8 15.7v-4.3c2.6-1.5 5.1-6.1 5.1-9.3 0-3.4-2.4-5.3-5.1-3.8z"/><linearGradient id="SVGID_42_" gradientUnits="userSpaceOnUse" x1="708.877" y1="125.34" x2="721.096" y2="149.647" gradientTransform="matrix(-1 0 0 1 1759.574 0)"><stop offset="0" style="stop-color:#c2d3eb"/><stop offset="1" style="stop-color:#7ab1df"/></linearGradient><path d="M1039.6 134.6v-4.3c2.2-1.3 4.3-1.4 5.9-.5.1 0 .1.1.2.1l3 1.7 1.3 9.5c.6 3.8-1.3 4.2-1.3 4.2s-3.6 5-3.9 5.3c-.3.3-2 3.2-2 3.2l-3.1-1.8v-4.3c2.6-1.5 5.1-6.1 5.1-9.3s-2.5-5.3-5.2-3.8z" style="fill:url(#SVGID_42_)"/><path class="st235" d="M1039.6 147.6v4.3l3.1 1.8v-4.3z"/><path class="st1" d="m1039.6 130.3 3.1 1.8v4.3l-3.1-1.8z"/><path class="st35" d="M1042.7 136.4v-4.3c4.9-2.8 8.8 0 8.8 6s-3.9 12.9-8.8 15.7v-4.3c2.6-1.5 5.1-6.1 5.1-9.3 0-3.4-2.4-5.3-5.1-3.8z"/><g><linearGradient id="SVGID_43_" gradientUnits="userSpaceOnUse" x1="807.494" y1="874.504" x2="1173.794" y2="220.702"><stop offset="0" style="stop-color:#f0f5fc;stop-opacity:0"/><stop offset=".293" style="stop-color:#f0f5fc"/><stop offset=".409" style="stop-color:#eef3fb"/><stop offset=".468" style="stop-color:#e6eef8"/><stop offset=".508" style="stop-color:#dbe6f3"/><stop offset=".511" style="stop-color:#dce6f3"/><stop offset=".588" style="stop-color:#e7eff8"/><stop offset=".697" style="stop-color:#eef4fb"/><stop offset="1" style="stop-color:#f0f5fc"/></linearGradient><path d="m1319.2 303.1-342.3-197 .1 298.1c0 40-22.1 76.8-57.5 95.5l-392 222.1 191 110.2h302.7l216.1-122.7c50.4-26.6 81.9-78.8 81.9-135.8V303.1z" style="fill:url(#SVGID_43_)"/><linearGradient id="SVGID_44_" gradientUnits="userSpaceOnUse" x1="1120.647" y1="162.357" x2="1203.313" y2="565.023"><stop offset="0" style="stop-color:#c2d3eb;stop-opacity:.2"/><stop offset="1" style="stop-color:#c2d3eb"/></linearGradient><path style="fill:url(#SVGID_44_)" d="M1288.7 434V316.5l-281.9-161.8v117.4z"/><path class="st96" d="M1288.7 478.3v-28.1l-59.4-33v28.1zM1288.7 519.7v-28.1l-59.4-33v28.1zM1288.7 561.1V533l-59.4-33v28.1zM1288.7 604.4v-28.1l-59.4-33v28.1z"/><linearGradient id="SVGID_45_" gradientUnits="userSpaceOnUse" x1="1101.511" y1="281.752" x2="1116.177" y2="628.418"><stop offset="0" style="stop-color:#c2d3eb;stop-opacity:.2"/><stop offset="1" style="stop-color:#c2d3eb"/></linearGradient><path style="opacity:.5;fill:url(#SVGID_45_)" d="M1211 560.4V406.7l-207-119.1.1 153.7z"/><path class="st114" d="M1048.3 365.7c-.9 0-1.8.2-2.6.7-2.3 1.7-2.7 4.9-2.8 7.5-.3 9.7 4.3 19.3 10.8 26.9 3.6 4.1 8 8 13.2 9 1.8.4 3.9.1 5.1-1.4 2.4-3 2.2-7.3 1.7-11-1.4-10.3-7-20.2-14.9-26.8-3.1-2.6-6.8-4.9-10.5-4.9zm.3-14.4c7.7.1 15 4.3 20.6 9.3 11.2 9.9 18.8 24.6 19.2 39.5.2 7.4-2 15.2-7.7 19.9-4.2 3.6-10.1 4.9-15.7 4-17.9-2.9-30.9-22-35.1-38.7-.8-3.4-1.3-6.9-1.4-10.4v-.2c0-8 2.9-16.5 9.9-20.7 2.9-1.8 6.3-2.6 9.7-2.7h.5z"/><path d="m1069.2 360.6-10.3 10c-3.1-2.6-6.9-5-10.6-4.9-.9 0-2.4.6-2.4.6m0 0-7.4-12.3c2.9-1.8 6.3-2.6 9.7-2.7h.4c7.7.1 15 4.3 20.6 9.3" style="fill-rule:evenodd;clip-rule:evenodd;fill:#fff"/><path d="M1069.2 360.6c11.2 9.9 18.8 24.6 19.2 39.5-5-.9-9.8-1.8-14.6-2.7-1.4-10.3-7-20.2-14.9-26.8l10.3-10z" style="opacity:.8;fill-rule:evenodd;clip-rule:evenodd;fill:#dfe9f8"/><path class="st114" d="m1092.9 461.8 19 10.9v14l-19-11zM1060.9 443.4l19.2 11.1v13.9l-19.2-11zM1029.8 426.1l18.7 10.8v13.9l-18.7-10.7z"/></g><g><linearGradient id="SVGID_46_" gradientUnits="userSpaceOnUse" x1="718.596" y1="130.606" x2="720.341" y2="134.054" gradientTransform="matrix(-1 0 0 1 1759.574 0)"><stop offset="0" style="stop-color:#c2d3eb"/><stop offset="1" style="stop-color:#7ab1df"/></linearGradient><path d="M1036.5 133.8c0-1.7 1.2-3.8 2.7-4.7.7-.4 1.4-.5 1.9-.2h.1l3.1 1.8-2.1 4.1-1.6 2.5-3.3-1.9c-.5-.1-.8-.7-.8-1.6z" style="fill:url(#SVGID_46_)"/><ellipse transform="rotate(-59.966 1042.43 134.154)" class="st35" cx="1042.4" cy="134.1" rx="3.8" ry="2.2"/><linearGradient id="SVGID_47_" gradientUnits="userSpaceOnUse" x1="717.865" y1="143.081" x2="729.706" y2="143.081" gradientTransform="matrix(-1 0 0 1 1759.574 0)"><stop offset="0" style="stop-color:#c2d3eb"/><stop offset="1" style="stop-color:#7ab1df"/></linearGradient><path d="M1029.9 146.5c0-5.1 3.4-11.7 7.3-15l3.2 1.8s-1.2 2-.6 2.4c-.3.5.3-.1 0 .2-.9.9-2.6 3.5-2.6 3.5s-1.1 3.5-1.2 4.4-.8 3-.8 3l.6 1.4c.8.5 1.9.5 3.1-.2l3 1.7-2.2 2.4c-.2 0-.5 0-.8-.1v.3l-1.2.6-1.6 1.7-2.9-1.7c-.2-.1-.3-.2-.5-.3-1.9-1-2.8-3.1-2.8-6.1z" style="fill:url(#SVGID_47_)"/><path class="st35" d="M1040.3 133.3c-.4.8-.6 1.6-.6 2.4 0 1 .4 1.6 1 1.8-2.2 2.6-3.4 6.6-3.4 9.2 0 3 2 4.3 4.4 2.9v4.4c-4.9 2.8-8.8.2-8.8-5.8 0-5.4 3.2-11.7 7.4-14.9z"/></g><g><path class="st35" d="M1039.5 0h1.4v130.1h-1.4z"/></g><g><linearGradient id="SVGID_48_" gradientUnits="userSpaceOnUse" x1="486.199" y1="264.837" x2="487.945" y2="268.284" gradientTransform="matrix(-1 0 0 1 1759.574 0)"><stop offset="0" style="stop-color:#c2d3eb"/><stop offset="1" style="stop-color:#7ab1df"/></linearGradient><path d="M1268.9 268.1c0-1.7 1.2-3.8 2.7-4.7.7-.4 1.4-.5 1.9-.2h.1l3.1 1.8-2.1 4.1-1.6 2.5-3.3-1.9c-.5-.2-.8-.8-.8-1.6z" style="fill:url(#SVGID_48_)"/><ellipse transform="rotate(-59.966 1274.833 268.389)" class="st35" cx="1274.8" cy="268.4" rx="3.8" ry="2.2"/><linearGradient id="SVGID_49_" gradientUnits="userSpaceOnUse" x1="485.468" y1="277.312" x2="497.309" y2="277.312" gradientTransform="matrix(-1 0 0 1 1759.574 0)"><stop offset="0" style="stop-color:#c2d3eb"/><stop offset="1" style="stop-color:#7ab1df"/></linearGradient><path d="M1262.3 280.7c0-5.1 3.4-11.7 7.3-15l3.2 1.8s-1.2 2-.6 2.4c-.3.5.3-.1 0 .2-.9.9-2.6 3.5-2.6 3.5s-1.1 3.5-1.2 4.4c-.1.8-.8 3-.8 3l.6 1.4c.8.5 1.9.5 3.1-.2l3 1.7-2.2 2.4c-.2 0-.5 0-.8-.1v.3l-1.2.6-1.6 1.7-2.9-1.7c-.2-.1-.3-.2-.5-.3-1.9-.9-2.8-3.1-2.8-6.1z" style="fill:url(#SVGID_49_)"/><path class="st35" d="M1272.7 267.6c-.4.8-.6 1.6-.6 2.4 0 1 .4 1.6 1 1.8-2.2 2.6-3.4 6.6-3.4 9.2 0 3 2 4.3 4.4 2.9v4.4c-4.9 2.8-8.8.2-8.8-5.8 0-5.4 3.2-11.7 7.4-14.9z"/></g><g><path class="st35" d="M1271.9 0h1.4v264.3h-1.4z"/></g></g><linearGradient id="SVGID_50_" gradientUnits="userSpaceOnUse" x1="1026.161" y1="640.128" x2="1185.272" y2="515.683"><stop offset="0" style="stop-color:#c2d3eb;stop-opacity:0"/><stop offset="1" style="stop-color:#c2d3eb"/></linearGradient><path d="M1255.7 658.1 973.6 496.7c18.5-13.3 27.5-35.9 27.5-35.9l282.1 161.4c0-.1-11.3 30.5-27.5 35.9z" style="fill:url(#SVGID_50_)"/><g class="st97"><path class="st35" d="m933 533.2 59.8 34.4-57.4 33.4-59.7-34.4zM1032.2 592.3l59.8 34.4-57.4 33.4-59.7-34.4zM1134.5 652.2l59.8 34.4-57.4 33.4-59.7-34.4z"/></g><g><path style="opacity:.2;fill:#c2d3eb" d="m676.9 638.2 161.7 93.4 104.7-60.8-161.7-93.4z"/><path class="st26" d="m741.7 623.2-.1-2.6c-.1-1.1.6-2.2 1.6-2.7l.8-.4c1.3-.6 2.7-.4 3.8.4 1.7 1.4 3.9 3.5 6.1 6 1 1.1 1.7 2 2.3 2.6.8.8.7 2.3-.3 2.9l-.7.4c-.6.4-1.3.4-1.9.1l-10.9-5.6c-.4-.2-.7-.6-.7-1.1"/><path class="st55" d="M756.6 628.5s-1.4.9-2.1 1.1c-.7.1-2.4-.8-2.4-.8l-10.3-5.4.1 1.3L752 630s.7.5 1.6.6c.5.1 1.1.1 1.6-.2l1.6-.8-.2-1.1z"/><path class="st26" d="M731.9 629.4v-2.6c0-1.1.7-2.2 1.7-2.6l.8-.3c1.3-.6 2.8-.3 3.8.6 1.6 1.5 3.7 3.7 5.8 6.3.9 1.1 1.6 2 2.1 2.7.8.9.6 2.3-.5 2.9l-.7.4c-.6.3-1.3.3-1.9 0l-10.6-6.1c-.2-.4-.5-.8-.5-1.3"/><path class="st25" d="m749.6 581.3-2.9 41.3-1.4-.2c-1.2-.2-2.9-1.3-2.9-2.5-.1-7.2-1-30.1-.2-32.4.7-1.6 7.4-6.2 7.4-6.2M736.9 613l.5 15s-4.4.9-4.7-2.4c-.8-7.8-.9-11.9-1.1-14.6"/><path class="st26" d="M734.8 627c.4.7 1.6.7 2.7 0s1.8-1.7 1.4-2.4c-.4-.7-1.6-.7-2.7 0-1.2.7-1.8 1.7-1.4 2.4"/><path class="st26" d="m742.5 628.9-2.3-2.6s-.9-1-1.3-1.7l-4.1 2.4s.3.9 1.1 1.6l3.3 2.7 3.3-2.4zM752.2 622.2l-2.4-2.5s-1-1-1.3-1.6l-4 2.6s.4.9 1.2 1.6l3.4 2.5 3.1-2.6z"/><path class="st26" d="M744.5 620.8c.4.6 1.7.6 2.8-.1s1.7-1.8 1.3-2.5c-.4-.6-1.7-.6-2.8.1-1.2.7-1.8 1.8-1.3 2.5"/><path class="st55" d="M746.5 635.4s-1.4.8-2.2.9c-.7.1-2.4-.9-2.4-.9l-10-5.9v1.3l9.8 5.8s.7.5 1.5.7c.5.1 1.1.1 1.6-.1l1.6-.7v-1.1z"/><path class="st35" d="m741.7 614.6-.1-1.4c-.1-1 .7-2.4 2.2-3.3 1.8-1.2 3.7-1.3 4.4-.2.2.3.2.7.2 1.1h.1l.1 1.3c.1 1-.8 2.3-2.2 3.2-1.8 1.2-3.7 1.3-4.4.2-.1-.1-.2-.3-.2-.5v-.2c-.1 0-.2-.1-.1-.2M731.1 620c-.1-1 .8-2.4 2.2-3.3 1.8-1.2 3.7-1.3 4.4-.2.2.2.2.5.2.9l.1 1.4c.1 1-.7 2.4-2.2 3.3-1.8 1.2-3.7 1.3-4.4.2-.1-.2-.2-.4-.2-.6l-.1-1.7z"/><path class="st28" d="M730.1 594.2c-.3-5.9-.8-20.1-.7-22.4.1-3.7-.9-11.8 0-15.4l.1-1.5c.1-3.3 3-7.5 7.5-10.4 6-3.9 11.9-3.6 14.9-.8 1.8 1.7-.2 22.5-1.2 40.4-.8 14.7-2.7 22.5-2.9 25.5.6.9-.2 2.4-1.7 3.4s-3.2 1.1-3.8.2c-.1-.1-.1-.3-.2-.4v-.5c0-3-.3-19.7-.2-25.9.1-6.1-1.1-17.2-.9-19.1 0 0 0 12.9-.8 23.1v.6c-.9 11.7-3.3 22.7-2.7 25.6.3.9-.5 2.2-1.8 3.1-1.5 1-3.2 1.1-3.8.2-.1-.2-.2-.4-.2-.6-.1-.1-1.3-19.2-1.6-25.1"/><path class="st1" d="M728.8 623.3z"/><path class="st25" d="M758.2 561.7s-3.5-11-2.7-14.5c.8-3.5 12.5-16.5 12.5-16.5l3.6 4.4s-9.4 10.6-10.3 13c-.8 2.3 0 11.5 0 11.5l-3.1 2.1z"/><path class="st1" d="m762 534.4 9.9 2.8s-3.1 5.6-3.4 6.1c-.5 1-2.2 1.6-5.4.7-2.7-.7-3.4-2.7-3.1-3.8l2-5.8z"/><path class="st250" d="M761.4 540.1s2.1-1 3.4-1.1c1.4-.1 1.2-.7.6-.8-.4-.1-2.4.2-3.9.4l-.1 1.5zm2.1 4 1.2.2s1.9-1.5 2.8-2.4c.9-.9.5-2.1 0-1.7-.6.5-4 3.9-4 3.9z"/><path class="st1" d="M749.9 527.3c7-3.2 9.6-2.4 14.1-2.5 1.7 0 4.4.9 4 .9 5.4 1.9 6.9 7.7 3.4 12.2 0 0-8.3 6.7-11.6 8.8-.7.5-4.5 4.1-6 4.7-7.9 3.3-25.4 6.6-23-2.3.4-1.3 2-5.4 2-5.4s2.1-5 5.3-8.4c0 0 4.9-4.9 11.8-8"/><path class="st25" d="m753 534.7 3.4-7.5h8.7l-4.7 10.3c-1 2.1-7.4.1-7.4-2.8"/><path class="st45" d="m762.3 533.5 2.4-5.1-8.6-.1-.9 2c.4 1.8 1.9 4.2 5.6 4.1.5 0 .8-.1 1.3-.2"/><path class="st26" d="M768.7 523.4c.6.1 1.1.4 1.5.6l.3.3c.4.7-.2 1.8-1.4 2.5l-.3.2c-1.4 1.1-3.4 1-5.5-.3 0 .1 5-3.3 5.4-3.3"/><path class="st25" d="M753.2 527.9c-.2-1 .4-1.9 1.4-2.1h.1l.3-2c-.1-3.1 2.1-4.5 5.3-4.6 3.2-.1 5.8 1.1 5.9 4.2l.1 4.8c.1 4.3-2.2 5.2-5.1 5.2-2.8.1-5.1-1.7-6-4.2-.9.1-1.8-.4-2-1.3"/><path d="M763.2 523.2c.1.1.3.1.5 0s.3-.3.2-.4c-.1-.1-.3-.1-.5 0-.1.1-.2.3-.2.4" style="fill:#18a0aa"/><path class="st157" d="M756.2 528c.4.2.7 0 .7-.5v-2c0-.5-.3-1.1-.7-1.3-.4-.2-.7 0-.7.5v2c0 .5.3 1 .7 1.3"/><path class="st26" d="M760.2 517.8c2.4-.1 4.6 1.4 5.5 3.6l4.5 2.6c-.6-.4-1.6-.3-2.6.3-.2.1-.3.2-.5.3l-.1.1-2.5 2.2c-1.4 1-3.4.9-5.4-.3l-3.4-2-1-.5v-.6c-.2-3 2.4-5.6 5.5-5.7"/><path class="st157" d="M754.7 525.8s.6.2.9.9l.5-.3-.1-1.5-1.3-.7v1.6z"/><path class="st25" d="M726.8 556.6c1.1 5.4 6.9 19.1 6.9 19.1l3.5-.5s-6.8-17.7-4.5-21.3l7.9-10.1-6.1-4.5-5.8 9.4c.2 0-2.7 3.2-1.9 7.9z"/><path class="st1" d="M743.8 534.1c1.9 1.1 2.7 6.6 1.2 8.1-1.9 1.9-8.2 11.5-8.2 11.5-5.9.2-7.9-3.4-8.5-5.3-.2-.7-.1-1.4.3-1.9 1.4-2 5.2-7 8.2-10 5.8-5.7 7-2.4 7-2.4"/><path class="st250" d="M734.5 553.6s1.2.2 2.5-.2c0 0 3-4 3.7-4.4.7-.4 1.8.9.8 1.8s-5.1 4.1-5.1 4.1-1.5-.1-2.4-.4l.5-.9z"/><linearGradient id="SVGID_51_" gradientUnits="userSpaceOnUse" x1="676.881" y1="626.601" x2="943.329" y2="626.601"><stop offset="0" style="stop-color:#dfe9f8"/><stop offset="1" style="stop-color:#c2d3eb"/></linearGradient><path style="fill:url(#SVGID_51_)" d="m676.9 610.3 161.7 93.4 104.7-60.8-161.7-93.4z"/><path class="st253" d="m701.3 613.3 9.4 5.2 47.4-27.6-9.4-5.2zM735.3 633.5l8.5 4.8 85.5-49.6-8.6-4.8zM718.5 623.3l9.4 5.2 69.8-41.3-9.4-5.3zM769.9 653.2l9.4 5.2 69.8-41.4-9.4-5.2zM752.2 643.4l9.4 5.2 77.1-46-9.4-5.2zM787.3 663l8.6 4.8 85.5-49.6-8.6-4.8zM821.9 682.9l8.6 4.9 85.5-49.7-8.6-4.8zM804.3 672.9l9.4 5.2 77.1-45.9-9.4-5.3z"/><path class="st25" d="m757.9 560.6.2.6.1.5 1 1.6 2 1.8c.5-.8-.5-1.8-1-2.2-.3-.3-.4-1.1-.4-1.4.7-.1 1.3-.2 1.5-.2h1l1.5 2.5s-.9 1.1-.6 2.1l1.5-1.7v.4l1.5-1.6c0 .3 0 .6.1.9l.9-1.2c0 .2.1.3.3.4l.9-2.3-2.8-2.8-5.1-.1c0-.1-2.7-.4-2.6 2.7zm9.4.2s0 .1-.1.3l-1.7-2 1.8 1.7zm-.8 1.4-1.7-2.3 2 1.9c-.1 0-.2.2-.3.4zm-2.6-1.3 1.5 1.6s-.4.5-.6 1.2l-.9-2.8zM736.7 573.5s.4 1.1 1.3 1.2 2.9 1 2.9 1l2.4 2.2s-.7.3-2-.6c0 0-1-.7-1.6-.6l2 1.8 2.1 2.8 1 1.5s-1 0-2-1.3l-1.6-1.5 1.2 1.6 1.3 2.7s-.6 0-1-.4c0 0-.3.1-.9-.5-.2-.2-.9-1.4-.9-1.4l-1.9-1.5.8 1.5.7 2.9s-1.2-.5-1.5-2.4l-3.1-3.2s-1.8-1.8-2.4-3.9c-.8-2.7 3.2-1.9 3.2-1.9z"/><g><linearGradient id="SVGID_52_" gradientUnits="userSpaceOnUse" x1="1113.985" y1="707.792" x2="1086.094" y2="756.101" gradientTransform="matrix(-1 0 0 1 2036.364 0)"><stop offset="0" style="stop-color:#0f0446"/><stop offset=".894" style="stop-color:#0f0446;stop-opacity:0"/></linearGradient><path style="opacity:.2;fill:url(#SVGID_52_)" d="m897.2 722.4 55.8 32.1 22.4-13-55.7-32.1z"/><path class="st134" d="M924.2 732.2s.2.8-.1 1.3c-.3.5-1.7 1.8-5.3.4-3.6-1.3-9.1-4.6-9.1-4.6s-.7-.3-.5-1.3c.1-1-.3-2.9-.3-2.9s1.2-2.5 1.7-2.5c0 0 .9-.8 2.3-.4l3.5 5.6 7.8 4.4z"/><path class="st135" d="m901.9 724.6 8.4 4.5s-.9-1-1-3.1c-.1-2 1.2-3.3 1.2-3.3l-6.2-2.7-2.5 2.7v1.9z"/><path class="st55" d="M923.5 730.1s-4.7-2-5.7-3.4-2.4-4-2.4-4c-.2-.4-.9-.7-1.7-.7-1 0-1.7.4-1.8 1v1.1s-.4 1.7 2.2 5.1c2.6 3.4 6.9 3.8 6.9 3.8.3.1.7.2 1 .2 1.2 0 2.1-.6 2.1-1.2v-1c.2-.3-.1-.7-.6-.9"/><path class="st134" d="M937.5 724.2s.2.8-.1 1.3c-.3.5-1.7 1.8-5.3.4-3.6-1.3-9.1-4.6-9.1-4.6s-.7-.3-.5-1.3c.1-1-.3-2.9-.3-2.9s1.2-2.5 1.7-2.5c0 0 .9-.8 2.3-.4l3.5 5.6 7.8 4.4z"/><path class="st135" d="m915.2 716.5 8.4 4.5s-.9-1-1-3.1c-.1-2 1.2-3.3 1.2-3.3l-6.2-2.7-2.5 2.7v1.9z"/><path d="M925.9 707.4c-.8-2.5-1.6-6.6-2.4-8.5-.8-2-1.1-1.9-1.1-1.9l-17.9 1.5-9.1-3.4c-1.5-.6-5.7 2.6-4.7 5.2.9 2.1 3.7 3.4 6.3 4.2-4.9-.9-11.9-2.1-13.3-1.1-2.6 1.8-3.1 5.3-2.1 7 1.2 2.2 14.6 12.7 25.1 16.7 0 0-2.5-2.4-1.4-6.4l1.6.9c2.1 1 6.6 1 11.8-2 6-3.3 8.5-8.5 7.2-12.2" style="fill:#150773"/><linearGradient id="SVGID_53_" gradientUnits="userSpaceOnUse" x1="758.97" y1="717.02" x2="778.915" y2="717.02" gradientTransform="translate(126.507)"><stop offset="0" style="stop-color:#0c022f"/><stop offset=".25" style="stop-color:#0d0234;stop-opacity:.75"/><stop offset=".542" style="stop-color:#0e0342;stop-opacity:.4583"/><stop offset=".853" style="stop-color:#110559;stop-opacity:.1469"/><stop offset="1" style="stop-color:#120667;stop-opacity:0"/></linearGradient><path style="opacity:.3;fill:url(#SVGID_53_)" d="M905.4 720.8s-3.4-2.5-7.6-3.5c-4.2-1-12.4-6.2-12.4-6.2l.1.5s6.4 5.4 12.1 6.7c0 0 3 1 4 1.8 1.1.8 3.4 2.8 3.4 2.8.1-1.3.4-2.1.4-2.1"/><path class="st134" d="m929.7 719.8-3.5-5.6c-1.4-.4-2.3.4-2.3.4s-1.3 1.3-1.2 3.3c.1 2 1 3.1 1 3.1l6-1.2z"/><path class="st55" d="M936.8 722.1s-4.7-2-5.7-3.4-2.4-4-2.4-4c-.2-.4-.9-.7-1.7-.7-1 0-1.7.4-1.8 1v1.1s-.4 1.7 2.2 5.1c2.6 3.4 6.9 3.8 6.9 3.8.3.1.7.2 1 .2 1.2 0 2.1-.6 2.1-1.2v-1c.1-.4-.2-.7-.6-.9"/><path class="st35" d="M924.3 731s-.4.9-2 .8c-1.6 0-3.8 0-6.7-2.7-2.9-2.7-3.5-5.8-3.7-6.2v1.4s-.1 1.1 1.1 3.1c1.1 2 2.8 4.1 6.8 5.3 4 1.2 4.4-.6 4.4-.6.2-.1.1-1.1.1-1.1M937.5 723.1s-.4.9-2 .8c-1.6 0-3.8 0-6.7-2.7-2.9-2.7-3.5-5.8-3.7-6.2v1.4s-.1 1.1 1.1 3.1c1.1 2 2.8 4.1 6.8 5.3 4 1.2 4.4-.6 4.4-.6.2-.1.1-1.1.1-1.1"/><linearGradient id="SVGID_54_" gradientUnits="userSpaceOnUse" x1="778.993" y1="704.874" x2="768.828" y2="704.874" gradientTransform="translate(126.507)"><stop offset="0" style="stop-color:#0c022f"/><stop offset=".243" style="stop-color:#0d0235;stop-opacity:.7567"/><stop offset=".579" style="stop-color:#0f0447;stop-opacity:.4209"/><stop offset=".968" style="stop-color:#120664;stop-opacity:3.253967e-02"/><stop offset="1" style="stop-color:#120667;stop-opacity:0"/></linearGradient><path style="opacity:.3;fill:url(#SVGID_54_)" d="M897.1 704.6s3.3 1.1 6.1 1.2c0 0 1.5-.1 2-.4 0 0 .3-.7.3-.9 0 0-3.2.6-10.2-.4l1.8.5z"/><path class="st25" d="M894.2 671.4s17.1 6.6 22-.7l3.7 2.7s-13 11.1-27.6-.9l1.9-1.1z"/><path class="st1" d="M897 676.4c.1 0 16.3-9.4 16.3-9.4.5-.4 1.3-.5 2.2-.3.7.1 1.5.4 2.3.8.8.5 1.5 1.1 2 1.7.5.7.7 1.5.7 2.4l3 23c.3 3.1-2.6 7.2-7.2 9.9-5.5 3.2-11.5 3.2-13.4 0-.4-.6-.5-1.4-.5-2.1l-8-22c-.3-1.3.7-2.9 2.6-4"/><path class="st25" d="m905.5 669.6-4-.1c-1.1 0-2.2-.7-2.7-1.7l-2.6-7.5s5.3-2.3 5.4-2.2c0 .2 3.9 11.5 3.9 11.5"/><path class="st25" d="m907.9 665.5-7.3-.7s3.8 8.6 3.9 8.8c.4 1 2.1 1.2 3.8.5 1.4-.6 2.7-2 2.6-3 0-.2-.3-.8-.3-.8l-2.7-4.8z"/><path class="st26" d="M894.8 659.2c-.1-.7-.4-1.6.3-2.6.3-.4 1.5-1.4 1.9-1.4v-.1c.7-1.1 1.6-2 2.9-2.6 3.2-1.6 7.1-.5 9 2.4.9 1.8 1.3 3.9 1 5.9v.2c-.3 1.2-1 3.2-1.5 4.3-.1.3-1.3 1.6-1.5 1.6-3.4-1.1-5.7-1.4-5.7-1.4l-.4-1.2c-.9 0-1.2 1-1.9.5-.4-.3-1-2-1.3-2.4-.1-.2-2.4-1-2.8-3.2z"/><path class="st28" d="M890.1 652.8z"/><path class="st25" d="M901.6 663.4c-.1-.3-.6-.6-1.3-.6-.8 0-1.4.3-1.4.7v.1l.5 1.8 2.6 1.6c.1.1.8-1.4-.4-3.6zM897.5 686.6s-5.8 3.5-11 5-6.3-1-9.2-3.2c-4.8-3.6-5.7-3.1-5.7-3.1s-3.6-1.8-2.3-2.6c2.9-1.7 11.7 3.7 13.3 3.7s10.9-5.6 10.9-5.6l4 5.8z"/><path class="st1" d="m886.8 682.8 10-6.1 4.9 8.9-8.3 5.4c-1.3 1.1-3.9.1-5.7-2.2-1.8-2.2-2.2-4.9-.9-6"/></g><path class="st25" d="M871.5 687.3s.7-2.2.1-3.6l-2.7-.7-2.6 1.6-.3 2.1c.7-.2.9-1.4.9-1.4l.5-.1s1-.2.2 1.8l-.2.7-.4-.6-.4.3s.4 1.6 1 1.4l.1-.1 1.1.7.5-.6h.1l1-1 .7.2.4-.7zm-3.3 1 1.4-1.3-1.2 1.4-.2-.1zM894.4 674.1s-2 0-3.1-1l3-1.7.7 1.6-.6 1.1z"/><path class="st25" d="m895.5 671.9-1.9-2.1h-2.8s0 .5.7.7l1.6.3s-.4 1.1.4 1.8c1 1.1 2-.7 2-.7z"/></g><g><linearGradient id="SVGID_55_" gradientUnits="userSpaceOnUse" x1="1160.407" y1="635.602" x2="1184.859" y2="677.955" gradientTransform="translate(-107.652)"><stop offset="0" style="stop-color:#0c022f"/><stop offset=".903" style="stop-color:#0c022f;stop-opacity:0"/></linearGradient><path style="opacity:.1;fill:url(#SVGID_55_)" d="m1095 667.2-11.6 6.8-47.6-26.2 11.6-6.8z"/><path class="st35" d="M1059.3 646.8c.3.1.5-.2.7.2.1.1.4.6.3 1.2 0 .8-.2 1.2-.7 1.8-.6.7-4 3.3-6 3.8 0 0-.7.2-1 .5-.3.3-.9.7-1.4.9l-.4-1 7-4.4 1.6-1.7-.1-1.3z"/><path class="st35" d="M1048.3 655.1c.4.7 1.7.7 2.9 0s1.9-1.8 1.5-2.5-1.7-.7-2.9 0c-1.3.7-1.9 1.8-1.5 2.5"/><path class="st46" d="M1059.8 647.1c-.7-1.1-3.3.6-4.1.8-2.9.4-4.3.7-5.9 1.2-1 .3-1.7 1.3-1.8 2.4 0 0-.1.4-.1.6 0 .4.3 1.3.2 1.9 0 .1 0 .2.1.3.3.4.9.5 1.7.3 1.7-.6 5.8-2.6 6.7-3.2 1.1-.7 2.3-1.7 2.8-2.3.3-.4.8-1.2.4-2"/><path class="st157" d="M1048.4 651.1c.3.6 1.4.6 2.3 0 1-.6 1.5-1.5 1.2-2-.3-.6-1.4-.6-2.3 0-1 .5-1.5 1.4-1.2 2"/><path class="st258" d="M1056.8 647.4s1 0 1.7.7M1056 647.8s1 0 1.7.7M1054.8 648s1 0 1.7.7M1053.5 648.2s1 0 1.7.7M1052.2 648.5s1 0 1.7.7"/><path class="st35" d="M1046.5 639.4c.3.1.5-.2.7.2.1.1.4.6.3 1.2 0 .8-.2 1.2-.7 1.8-.6.7-4 3.3-6 3.8 0 0-.7.2-1 .5-.3.3-.9.7-1.4.9l-.4-1 7-4.4 1.6-1.7-.1-1.3z"/><path class="st35" d="M1035.5 647.7c.4.7 1.7.7 2.9 0s1.9-1.8 1.5-2.5-1.7-.7-2.9 0-1.9 1.8-1.5 2.5"/><path class="st46" d="M1047 639.7c-.7-1.1-3.3.6-4.1.8-2.9.4-4.3.7-5.9 1.2-1 .3-1.7 1.3-1.8 2.4 0 0-.1.4-.1.6 0 .4.3 1.3.2 1.9 0 .1 0 .2.1.3.3.4.9.5 1.7.3 1.7-.6 5.8-2.6 6.7-3.2 1.1-.7 2.3-1.7 2.8-2.3.4-.4.9-1.3.4-2"/><path class="st157" d="M1035.6 643.7c.3.6 1.4.6 2.3 0 1-.6 1.5-1.5 1.2-2-.3-.6-1.4-.6-2.3 0-1 .5-1.5 1.4-1.2 2"/><path class="st258" d="M1044.1 640s1 0 1.7.7M1043.3 640.4s1 0 1.7.7M1042.1 640.6s1 0 1.7.7M1040.8 640.8s1 0 1.7.7M1039.4 641s1 0 1.7.7"/><path class="st157" d="m1036 634.6-.4 8.8 3.6-1.5.8-6.7zM1048.7 642l-.4 8.8 3.7-1.4.8-6.8z"/><path class="st43" d="M1039.9 635.8c-.3-.2-.6-.5-.9-.7-.1-.1-.2-.1-.3-.1l-2.8-.4-.2 4.3c.3.4.8.8 1.3 1.1.8.5 1.6.7 2.3.7l.6-4.9zM1052.7 643.3c-.2-.3-.4-.5-.7-.8l-3.2-.5-.2 4.3c.2.2.4.3.7.5 1.1.6 2.3.8 3.1.6l.3-4.1z"/><linearGradient id="SVGID_56_" gradientUnits="userSpaceOnUse" x1="586.132" y1="636.182" x2="592.279" y2="636.182" gradientTransform="translate(448.86)"><stop offset="0" style="stop-color:#150773"/><stop offset="1" style="stop-color:#5333ed"/></linearGradient><path style="fill:url(#SVGID_56_)" d="M1041.1 637.8v-1.2c0-.9-.8-2-2.1-2.8-1.6-.9-3.4-.9-3.9 0-.2.3-.2.6-.1.9v1.2c0 .9.8 2 2.1 2.7 1.6.9 3.4.9 3.9 0 .1-.1.1-.3.1-.4v-.4"/><linearGradient id="SVGID_57_" gradientUnits="userSpaceOnUse" x1="598.189" y1="642.941" x2="604.345" y2="642.941" gradientTransform="translate(448.86)"><stop offset="0" style="stop-color:#150773"/><stop offset="1" style="stop-color:#5333ed"/></linearGradient><path style="fill:url(#SVGID_57_)" d="M1053.2 643.3c0-.9-.8-2-2.1-2.8-1.6-.9-3.4-.9-3.9 0-.1.2-.2.5-.1.8v1.2c0 .9.8 2.1 2.1 2.8 1.6.9 3.4.9 3.9 0 .1-.2.1-.4.1-.6v-1.4z"/><pattern id="SVGID_58_" xlink:href="#New_Pattern_Swatch_18" patternTransform="translate(-3991.75 -3663.812) scale(.5405)"/><path d="m1057.5 578.8-1.1-5.9-17.4-4.6s-1.9 3.3-3.4 11.5c-2.8 14.9 0 54 0 54-.5.8.3 2.2 1.7 3 1.4.8 3 .8 3.5 0 .1-.2.1-.3.1-.5-.4-21.6 4.1-45.4 4.1-45.4 0 1 2.4 50.2 2.4 50.2-.1.8.7 1.9 1.9 2.6 1.5.9 3.1.9 3.6 0 .1-.2.1-.4.1-.6.6-19 3.5-43.8 4.7-54.1.2-1.6.3-3.2.2-4.8.1-1.9-.1-3.7-.4-5.4" style="fill:url(#SVGID_58_)"/><linearGradient id="SVGID_59_" gradientUnits="userSpaceOnUse" x1="1650.306" y1="592.069" x2="1650.306" y2="583.18" gradientTransform="translate(-606.569)"><stop offset="0" style="stop-color:#2a0e80"/><stop offset="1" style="stop-color:#2a0e80;stop-opacity:0"/></linearGradient><path d="M1045 590.8s-1.7-3.5-2.5-7.6c0 0-.3 4.3 2.3 8.9l.2-1.3z" style="fill:url(#SVGID_59_)"/><path class="st157" d="m1065.8 540.3-.5.5-6.7 6.4-2.8 2.7-15.8-2.2-2.6 7.2 20.5-.3 3.9-4.3 7.1-8.2"/><path class="st43" d="M1072.9 538.7c0 1-.4 1.9-1.3 2.3-1.7 1-2.8 1.2-2.8 1.2-.4.1-1 0-1.6-.4-.7-.5-.6-1.2-.3-1.7l.2-.2s1.5-1.9 1.7-2c0 0 1.8-.7 2.8-.5 0 0 1.1.1 1.3.4.3.4 0 .5 0 .9"/><path class="st43" d="m1068.1 538.2 2.5-1 3.3-1.2h.1l2.1-.2s0 .9-1.9 1l-2.5 1.1-1.9 1.7-1.7-1.4z"/><path class="st157" d="M1072.4 538.5s-1 .3-1.4 1.5c0 0 .9-.2 1.9-.5 1-.4.9-1.1.1-1.6l-.6.6z"/><path class="st157" d="M1072.1 539.5s-.9.3-1.3 1.3c0 0 .8-.1 1.7-.4.9-.3.7-.8 0-1.2l-.4.3z"/><path class="st157" d="M1071.8 540.5s-.9.3-1.3 1.3c0 0 .8-.1 1.7-.4.9-.3.7-.7 0-1.2l-.4.3zM1068.3 542.7s2.4-1.5 1.1-4.1c0 0 1.3.6 2.3-.3l-3.1-1c-.2-.1-.4 0-.5.1l-3 3.3 3.2 2z"/><path class="st26" d="M1057.2 548.6s2.9-.1 3.4 2.9l-2.1 2.6-11.7-5.5 4.6.6 4.4.7 1.4-1.3z"/><path class="st26" d="M1057 552.5c-.1 0-15.3-8.8-15.3-8.8-.5-.3-1.2-.5-2.1-.3-.7.1-1.5.4-2.2.8-.8.4-1.4 1-1.8 1.6-.5.6-.7 1.5-.7 2.3l1 20.5c-.3 2.9 2.4 6.8 6.8 9.3 5.2 3 10.8 3 12.6 0 .3-.6.5-1.3.5-2l3.7-19.6c.3-1.3-.8-2.8-2.5-3.8"/><path d="m1067.4 571.5-9.5-16.9c0-.1 0-.1-.1-.2-.6-1-2.4-.8-4.1.2-1.7 1-2.2 2.6-1.6 3.6 0 .1-.1.3 0 .4l8.2 13.1-10 7.4c-.7.4-1 1.1-.8 1.5 0 .1.1.1.1.2.6.6 3 3.2 5.5 4.3l1.8.8s.1.9.9 1.1l-.2-1.6-.8-.7 1.2.4v.7s.6.1.7-.3v-.5s.2 0 .2-.2c-.1-.2-.1-.4-.2-.6-.2-.3-1-.9-1-.9l1.1.2s.4 0 .4-.4c.1-.4-.4-.6-.4-.6l-2-1.1c.1 0 .7.1.7.1.6 0 .7-.4.7-.4-.1-.1-1.4-.6-3-1.1l8.9-4.4c.4-.1.8-.3 1.2-.5 1.6-1 2.6-2.6 2.1-3.6z" style="fill-rule:evenodd;clip-rule:evenodd;fill:#5b3427"/><path d="m1059.5 555.3 8 16.2h-.1c.4 1-.1 2.8-1.8 3.7-.4.2-.9.6-1.3.7-3.2 1.4-6.8-1.5-7.3-2.2s1-.9 1-.9-.4-1 .8-.9c0 0-5.8-10.1-6.7-12.5l-.3-.6c-.5-1.1.1-3.3 1.8-4.3s5-.9 5.6.1l.3.7z" style="fill-rule:evenodd;clip-rule:evenodd;fill:#120667"/><path class="st157" d="m1048.3 546.6 3.3-1.9c.9-.5 1.5-1.5 1.5-2.6l-1.2-7.4s-5.4.5-5.4.6 1.8 11.3 1.8 11.3"/><path class="st157" d="m1044 542.2 5.7-.8v8.4c0 .2 0 .3-.1.5-.5.9-2.1.9-3.6 0-1.2-.7-2-1.8-1.9-2.7v-5.4z"/><path class="st1" d="M1049.7 531z"/><path class="st28" d="M1052.2 530.4c-.1-.6-.7-1-1.3-1-.7 0-1.2.5-1.3 1.1h-.2c-.2 0-.5 0-.7.1-1-.6-2.2-.9-3.5-.8-3.4.1-6.1 2.8-6.4 6 0 1.1.2 2.2.7 3.3v.2c0 .7.3 1.2.8 1.6v.4c0 1 .8 1.8 1.7 1.9.3.7 1 1.1 1.7 1.1h.2c.2.2.7 1.2.9 1.1 1.2-.7 2.4-1.7 3.2-2.7 1 0 1.8-.9 1.8-1.9 0-.2 0-.3-.1-.5v-.3c1.1-.6 1.9-1.8 2.1-3.1v-.1c.7-.7 1.1-1.6 1.1-2.6 0-.3 0-.6-.1-.9.2-.3.4-.7.4-1.1.1-.8-.3-1.5-1-1.8z"/><path class="st157" d="M1048.8 539.7c0-.3.3-.8.8-1.1.6-.4 1.3-.4 1.5 0v.1l.3 1.7-1.4 2.5s-1.3-.9-1.2-3.2z"/><linearGradient id="SVGID_60_" gradientUnits="userSpaceOnUse" x1="1657.978" y1="551.441" x2="1665.537" y2="551.441" gradientTransform="translate(-606.569)"><stop offset="0" style="stop-color:#120667"/><stop offset="1" style="stop-color:#120667;stop-opacity:0"/></linearGradient><path style="opacity:.2;fill:url(#SVGID_60_)" d="M1058.7 553.7s-1.3-.9-2.3-1.6c-1-.7-4.9-2.9-4.9-2.9l1.4.2 4 2.3s1.6 1 2.1 1.7l-.3.3z"/><linearGradient id="SVGID_61_" gradientUnits="userSpaceOnUse" x1="1662.97" y1="563.413" x2="1660.265" y2="570.844" gradientTransform="translate(-606.569)"><stop offset="0" style="stop-color:#120667"/><stop offset="1" style="stop-color:#120667;stop-opacity:0"/></linearGradient><path style="opacity:.2;fill-rule:evenodd;clip-rule:evenodd;fill:url(#SVGID_61_)" d="m1057.1 568.9-3.6-6.5c-.2 1.1 0 2.1.4 3.1l2.6 6.4.6-3z"/></g><g><path class="st25" d="M1033.9 404.8V402c0-.2.2-.2.3-.1.4.4 1.1 1.5 1.3 3.7.1.8.5 5.3.1 4.9-.3-.3-1.7-5.7-1.7-5.7"/><linearGradient id="SVGID_62_" gradientUnits="userSpaceOnUse" x1="1059.732" y1="527.115" x2="1081.884" y2="565.485" gradientTransform="translate(-42.688)"><stop offset="0" style="stop-color:#0c022f"/><stop offset=".903" style="stop-color:#0c022f;stop-opacity:0"/></linearGradient><path style="opacity:.1;fill:url(#SVGID_62_)" d="m1012 530 44.1 25.7-12.7 7.1-42.6-24.8z"/><path class="st28" d="M1011.8 529.4c.3.1.5-.2.7.2.1.1.4.6.3 1.1 0 .8-.2 1.1-.7 1.8-.6.7-3.9 3.2-6 3.8 0 0-.7.2-1 .5-.3.3-.9.7-1.4.9l-.4-1 6.9-4.4 1.6-1.6v-1.3z"/><path class="st28" d="M1000.9 537.7c.4.7 1.7.7 2.9 0s1.8-1.8 1.4-2.5c-.4-.7-1.7-.7-2.9 0s-1.8 1.8-1.4 2.5"/><path class="st1" d="M1012.3 529.8c-.7-1.1-3.2.6-4.1.8-2.9.4-4.2.7-5.8 1.2-1 .3-1.7 1.3-1.8 2.3 0 0-.1.4-.1.6 0 .4.3 1.3.2 1.9 0 .1 0 .2.1.3.2.4.9.5 1.7.3 1.6-.6 5.7-2.5 6.6-3.1 1-.7 2.3-1.6 2.7-2.2.4-.6.9-1.4.5-2.1"/><path class="st25" d="M1001 533.7c.3.6 1.3.6 2.3 0 1-.6 1.5-1.4 1.2-2-.3-.6-1.3-.6-2.3 0-1 .5-1.5 1.4-1.2 2"/><path class="st26" d="M1011 530.9c-.1 0-.1 0-.2-.1-.6-.6-1.5-.6-1.5-.6-.1 0-.2-.1-.2-.2s.1-.2.2-.2 1.1 0 1.8.7c.1.1.1.2 0 .3 0 .1-.1.1-.1.1zM1010.2 531.3c-.1 0-.1 0-.2-.1-.6-.6-1.5-.6-1.5-.6-.1 0-.2-.1-.2-.2s.1-.2.2-.2 1.1 0 1.8.7c.1.1.1.2 0 .3 0 .1-.1.1-.1.1zM1009 531.5c-.1 0-.1 0-.2-.1-.6-.6-1.5-.6-1.5-.6-.1 0-.2-.1-.2-.2s.1-.2.2-.2 1.1 0 1.8.7c.1.1.1.2 0 .3 0 .1-.1.1-.1.1zM1007.7 531.7c-.1 0-.1 0-.2-.1-.6-.6-1.5-.6-1.5-.6-.1 0-.2-.1-.2-.2s.1-.2.2-.2c0 0 1.1 0 1.8.7.1.1.1.2 0 .3 0 .1-.1.1-.1.1zM1006.4 532c-.1 0-.1 0-.2-.1-.6-.6-1.5-.6-1.5-.6-.1 0-.2-.1-.2-.2s.1-.2.2-.2 1.1 0 1.8.7c.1.1.1.2 0 .3 0 .1-.1.1-.1.1z"/><path class="st25" d="m1001.3 524.7-.4 8.7 3.6-1.4.8-6.7z"/><path d="M1005.2 526c-.2-.3-.4-.5-.7-.8l-3.2-.5-.2 4.2c.2.2.4.3.7.4 1.1.6 2.2.8 3 .6l.4-3.9z" style="fill:#e08c5c"/><path class="st26" d="M982 513s9.2-13.1 9.2-14.2c0-1.1 1-30.5 1-30.5-.2-1.9-.2-3.9.2-5.8 1.5-8 2.9-8.6 2.9-8.6l17.2 4.6s1.5 5.8 1.7 12.5c.1 2.7-.5 9-1 14.4-.7 7.5-1.5 16.1-1.5 16.1-.8 8.7-4.1 19.9-5.8 26.7 0 .2 0 .4-.1.6-.5.8-2.1.8-3.5 0-1.2-.7-2-1.8-1.9-2.6 0 0-.2-10.8-.2-21.6l-14 14.1-4.2-5.7z"/><path class="st1" d="m1014.6 435.6-15.1-8.7c-.5-.3-1.2-.5-2.1-.3-.7.1-1.4.4-2.2.8-.8.4-1.4 1-1.8 1.5-.5.6-.7 1.4-.7 2.2l1 20.2c-.3 2.9 2.4 6.7 6.7 9.2 5.1 3 10.7 3 12.4 0 .3-.6.5-1.3.5-2l3.6-19.3c.4-1.1-.6-2.6-2.3-3.6"/><path class="st25" d="M1009.7 401.7s-.5 22.5-4.3 26.3l-4.6-3.9s5.4-12.9 5.4-23.4l3.5 1z"/><path class="st25" d="M1010 397.2s1.1-.8 1.2-1.4c.2-.8-.3-1.2.4-2l.6 1.2s.1 3.3-1.4 6-2.9 2.3-3.7 1.9c-.8-.4-1.2-2.2-.9-5 .3-2.8 0-4.9 0-4.9s.4.3.5.6v-.8l1.4-2.2s.5.7-.6 2.4l.1 2 .6-2.6.9-2.5s.6 1-.1 2.3l-.2 2.6s1.7-3.4 2.2-4.8c0 0 .6.9-.2 2.6l-1.2 3.3.4 1.3zM1006.8 430.1l3.2-1.9c.9-.5 1.5-1.5 1.5-2.6l-1.2-7.3s-5.3.5-5.3.6c0 .3 1.8 11.2 1.8 11.2"/><path class="st25" d="m1002.6 425.8 5.7-.8v8.3c0 .2 0 .3-.1.5-.5.9-2.1.9-3.6 0-1.2-.7-2-1.8-1.9-2.6v-5.4z"/><path class="st28" d="M997.6 419.5c.3-3.2 3-5.8 6.3-6 1.3 0 2.5.3 3.5.9v.1c.4-.1 3.2 5.9 3 6-.1 1.3-.9 2.5-2.1 3.1v.5s-1.9 1.7-3.9 4.4c-.1.2-1.7-.4-1.9-.6-.9-.7-2.3-2.1-3.1-2.9l-.1-.2c-1.1-1.6-1.7-3.4-1.7-5.3"/><path class="st26" d="M1007.4 414.4z"/><path class="st28" d="M1011.5 417.8c0 1.9-1.6 3.5-3.5 3.5s-3.5-1.6-3.5-3.5 1.6-3.5 3.5-3.5 3.5 1.6 3.5 3.5"/><path class="st25" d="M1007.3 423.3c0-.3.3-.8.8-1.1.6-.3 1.3-.3 1.5 0v.1l.3 1.7-1.4 2.5c0 .1-1.2-.8-1.2-3.2zM1011 437.8c-.4 8 8 6.4 19.8-5 1.3-1.3 2.8-3.4 3.1-4.3 1.3-3.9-5.4-4-5.4-4s-2.1 3.9-12.1 9.8c-2.6 1.5-5 1.7-5.4 3.5"/><path class="st1" d="M986 518.6c.9-.7.5-2.5-.7-4s-3-2.1-3.8-1.4c-.9.7-.5 2.5.7 4s2.9 2.2 3.8 1.4"/><path d="m981.6 514.7-2.9 3.1 3 3 4.1-3.3c-.1-1.6-1.5-2.9-2.7-3.3-.7-.2-1.2 0-1.5.5z" style="fill-rule:evenodd;clip-rule:evenodd;fill:#ffc398"/><path d="M981.3 514.9s2.9-.5 3.8 3.1l.7-.5s.1-1.3-1.4-2.6-2.4-.8-2.7-.3-.4.3-.4.3z" style="fill-rule:evenodd;clip-rule:evenodd;fill:#e08c5c"/><g><path class="st1" d="M978.8 530c1.3-.1 1.3-4.1 1.5-4.9.6-3.1 1.4-3.4 1.7-5.1.2-1-.3-2.1-1.1-2.7 0 0-.3-.2-.5-.4-.3-.2-1.6-.4-2-.6-.3-.2-.9-.2-1.1-.2-.5.1 1.5 13.9 1.5 13.9z"/><path class="st28" d="M979 519.3c.3-1.8-.7-3.3-1.7-3.2-.9.1-1.4 1.1-1.4 2.5 0 .5 0 1.2.1 1.7.1.9 0 1.7 0 1.7-.6 2-.1 5.6.2 6.5.3.8 1.4 2.1 2.4 1.8 1.4-.5 1-3.6.8-4.2-1-3.2-.7-5.1-.4-6.8z"/><path class="st26" d="M981.4 522.1h-.1c-.2-.1-.4-.2-.5-.2-.1 0-.2-.1-.2-.3 0-.1.1-.2.3-.2 0 0 .4.1.6.3.1.1.1.2 0 .3l-.1.1zM981 522.7h-.1c-.1-.1-.2-.1-.3-.2-.1 0-.2-.2-.1-.3 0-.1.2-.2.3-.1.1 0 .3.1.5.2.1.1.1.2 0 .3-.1 0-.2.1-.3.1zM980.8 523.3h-.1c-.1-.1-.2-.1-.3-.2-.1 0-.2-.2-.1-.3 0-.1.2-.2.3-.1.1 0 .3.1.5.2.1.1.1.2.1.3-.3.1-.4.1-.4.1z"/></g><path d="M997 415.4c-1.4.6-4.3 2.7-3.6 5.2 1.4 5.1 1.9 4.8 1.6 6.9-.3 2.1-1.8 4.5-1 7.3s.9 3.4.7 5c-.2 1.6-.5 2.3.2 3.4.6 1.1 2.8 1.1 3.3 2.2 0 0 .2-.2.2-1.5 0 0 1.3 1.6 1.3 2.9 0 0 1.5-.9 1.5-2.8s-.5-3.4.1-4.5c.5-1 .9-1.5 1.6-4 .7-2.5.6-2.8.7-4.7.1-1.9-.7-3.3-.2-4.9.5-1.6 1.5-4.5 1.3-6.9-.2-2.3-2.9-2.9-2.9-2.9s-2.4-1.8-4.8-.7z" style="fill-rule:evenodd;clip-rule:evenodd;fill:#0c022f"/><path d="M1000 504.6s-.6-19-1-22.1c-.4-3-.7-6.5-2.2-10.5-.4-.9-.5 3.1.7 12.3 1.8 14.1.9 22 .9 22l1.6-1.7z" style="opacity:.7;fill:#0c022f"/><path class="st25" d="m1034.8 408.3-.5-5.4.8-3.4 1.4-1.4c.1-.1.2 0 .2.1 0 1.4-.8 1.9-.8 1.9l-.2 2.8 1.4-2.8c0-.1.1-.1.2-.2l2.6-1c.1-.1.4 0 .4.1-.1.6-1.3 1.6-2.3 1.8-.1.7-.8 2.5-.8 2.5l.7-2.7 3.1-.6c.2 0 .3.1.2.3-.3.3-.8.9-2.1 1.2-.2.9-.5 3.3-.5 3.3l.9-1.8c.1-.1.2-.1.3-.1l1.9.6c.1 0 .1.2 0 .2-.8.5-1.6.1-1.6.1l-.5 2.3.2 2.8c.1 1.1-.1 1.8-.4 2.9l-4 13.8c-.8 2.7-2.4 5-4.7 6.7l-2.9-6.7 7.6-14.9c-.3-.8-.5-1.4-.6-2.4z"/></g><g class="st97"><g class="st97"><path class="st269" d="m1288.4 344.1-281.7-162.5M1288.3 374.6l-281.6-162.5M1288.3 404.6l-281.7-162.5M1076.5 194.1v118.6M1149.8 236.2v118.6M1221.6 278.3v118.6"/></g></g><path style="fill:none;stroke:#fff;stroke-width:2;stroke-linecap:round;stroke-linejoin:round;stroke-miterlimit:10" d="m1288.3 356.4-43.4 11.6-45-44.6-41.7-4.6-50.1-35.9-19.6.8-24.4-28.4-57.3 1.5"/><g><path class="st271" d="m1168.5 340.8-61.4 261M1192.5 354.7l-61.5 261M1110.9 585.7l23.9 13.7M1114.6 570.3l23.9 13.7M1118.2 554.8l23.9 13.8M1121.8 539.3l23.9 13.8M1125.3 524.4l23.9 13.8M1128.8 509.7l23.9 13.7M1132.3 494.4l23.9 13.8M1136.1 479.1l23.9 13.8"/><g><path class="st271" d="m1139.5 463.6 23.9 13.8M1143.2 448.2l23.9 13.8M1146.9 432.7l23.9 13.8M1150.5 417.2l23.8 13.8M1153.9 402.4l23.9 13.7M1157.4 387.6l23.9 13.8M1160.9 372.3l23.9 13.8M1164.8 357l23.9 13.8"/></g><g><path class="st45" d="M1171.7 388.4c2.5.9 9.8 7 10.6 4.6.7-2.1 4.2-11.3 4.2-11.3-.8-1.5-.5-4.8-.2-6 .4-1.3.5-2.3.7-3.5s.8-1.1 1.1-.3c.3 1.1-.1 1.6-.2 2.3-.1.5-.2 1.3.3.9.5-.3 1.1-1.5 1.2-2 .1-.5-.1-.5-.2-.9l.3-1.2c.3.6.9 1.6 1 2.2.1.6-.1.5-.1 1.1s.1 1-.2 1.8c-.2.8.1.1-.2 1.5-.2 1.4-1 3.3-1.4 6-.4 3-.8 13.7-4 15.5-4.6 2.6-10.6-.9-19.7-6.1 2.6 1.4 4.6-3.1 6.8-4.6z"/></g><g><path class="st26" d="M1151.9 493c.5-.3 1.2-.6 1.5-1 .3-.3 1.1-.5 1.1-.5 2.2-.5 5.7-3.2 6.3-4 .6-.7.7-1.1.7-1.9 0-.6-.3-1.1-.4-1.2-.3-.4-.4-.1-.8-.2v1.3l-1.7 1.7-5.2 3.3c0-.1-.1-.2-.1-.2-.4-.7-1.8-.7-3.1 0s-2 1.9-1.5 2.7c.6.7 1.9.7 3.2 0z"/><path class="st1" d="M1160.9 484.6c-.8-1.2-3.4.7-4.3.8-3.1.5-4.5.7-6.2 1.3-1.1.4-1.8 1.4-1.9 2.5 0 0-.1.4-.1.7 0 .4.3 1.4.2 2 0 .1 0 .3.1.4.3.5 1 .6 1.8.3 1.7-.6 6-2.7 7-3.3 1.1-.7 2.4-1.8 2.9-2.4.5-.6 1-1.5.5-2.3"/><path class="st272" d="M1157.8 484.9s1 0 1.7.7M1157 485.3s1 0 1.7.7M1155.7 485.5s1 0 1.7.7M1154.3 485.7s1 0 1.7.7"/><path class="st26" d="M1138.5 485.2c.5-.3 1.2-.6 1.5-1 .3-.3 1.1-.5 1.1-.5 2.2-.5 5.7-3.2 6.3-4 .6-.7.7-1.1.7-1.9 0-.6-.3-1.1-.4-1.2-.3-.4-.4-.1-.8-.2v1.3l-1.7 1.7-5.2 3.3c0-.1-.1-.2-.1-.2-.4-.7-1.8-.7-3.1 0s-2 1.9-1.5 2.7c.6.7 2 .7 3.2 0z"/><path class="st1" d="M1147.6 476.8c-.8-1.2-3.4.7-4.3.8-3.1.5-4.5.7-6.2 1.3-1.1.4-1.8 1.4-1.9 2.5 0 0-.1.4-.1.7 0 .4.3 1.4.2 2 0 .1 0 .3.1.4.3.5 1 .6 1.8.3 1.7-.6 6-2.7 7-3.3 1.1-.7 2.4-1.8 2.9-2.4.4-.6 1-1.5.5-2.3"/><path class="st45" d="M1135.6 480.9c.3.6 1.4.6 2.5 0 1-.6 1.6-1.5 1.2-2.1-.3-.6-1.4-.6-2.5 0-1 .6-1.5 1.6-1.2 2.1"/><path class="st273" d="M1144.5 477.1s1 0 1.7.7M1143.6 477.5s1 0 1.7.7M1142.3 477.7s1 0 1.7.7M1141 477.9s1 0 1.7.7M1139.6 478.2s1 0 1.7.7"/><path class="st45" d="m1135.9 471.4-.4 9.2 3.9-1.5.8-7.1zM1149.3 479.2l-.4 9.2 3.8-1.5.9-7.1z"/><path class="st144" d="M1140.1 472.7c-.3-.2-.6-.5-1-.7-.1-.1-.2-.1-.3-.2l-2.9-.4-.2 4.5c.4.4.8.8 1.4 1.1.8.5 1.7.7 2.4.7l.6-5zM1153.5 480.5c-.2-.3-.5-.6-.8-.8l-3.4-.5-.2 4.5c.2.2.4.3.7.5 1.2.7 2.4.9 3.2.6l.5-4.3z"/><path class="st45" d="m1155.9 330.4-1 2.4-.7 3.6.3-3.8s.6-1.5.1-2.7l-.8 2.4-.6 3 .2-2.7s.9-1.1.6-2.4l-1.4 2.3-.6 2.7-.1-2.1s.4-.8-.1-1.5l-.6 1.6s-.2 2.6-.2 2.9c0 .2-.1 6.3-.1 6.3s-1.7 15.5-2 17.1c-.1.6-10 15.2-10 15.2s-.7 11.8 4.9 3.6c4.4-6.4 9.2-11.4 10.3-15.6.6-2.2.7-5.5.6-7.9l-.6-11.9s1.4-3 1.2-6.3l.4-3.4c-.1-.1.5-1 .2-2.8"/><path class="st45" d="m1155 338.6-.8 2.1-.2 1.8s1.6-1.6 2.1-2.9l.1-2.1-.7-.4-.5 1.5z"/><path class="st26" d="M1141.4 474.8v-1.3c0-.9-.8-2.1-2.2-2.9-1.7-1-3.5-1-4.1 0-.2.3-.2.6-.1 1v1.2c0 .9.8 2.1 2.2 2.9 1.7 1 3.5 1 4.1 0 .1-.1.1-.3.1-.5v-.4M1154 480.6c0-1-.8-2.1-2.2-2.9-1.7-1-3.5-1-4.1 0-.1.2-.2.5-.2.8v1.3c0 .9.8 2.2 2.2 3 1.7 1 3.5 1 4.1 0 .1-.2.1-.4.1-.6v-1.6z"/><path d="M1160.2 408.4c-.3-2.5-3.3-3.8-6.7-5.8-4.6-2.7-9.6-2.7-11.1 0 0 .1-.1.2-.1.2l-1.1.2-1.3 3.5c-.8 2.3-1.5 5.1-2.1 7.2-5 16.2-2.5 56.5-2.3 56.7-.5.9.3 2.3 1.8 3.2 1.5.9 3.1.9 3.6 0 .1-.2.1-.3.1-.5v-.1c-.4-22.6 5.5-45.6 5.5-45.6 0 1.1 1.3 49.4 1.3 50.7-.1.9.7 2 2 2.8 1.6.9 3.2.9 3.8 0 .1-.2.2-.4.2-.6.6-19.9 4.9-45 6.2-55.8.3-2.8.3-5.1.4-8.7l-.4-6.8v-.6z" style="fill:#11055b"/><linearGradient id="SVGID_63_" gradientUnits="userSpaceOnUse" x1="1424.23" y1="403.318" x2="1427.665" y2="412.756" gradientTransform="matrix(-1 0 0 1 2576.063 0)"><stop offset="0" style="stop-color:#120667"/><stop offset="1" style="stop-color:#120667;stop-opacity:0"/></linearGradient><path style="opacity:.6;fill:url(#SVGID_63_)" d="M1160.2 410s-3.7.4-5.3.7c-1.6.4-7.9 2.2-10.3.6-2.4-1.6-2.6-3.1-4.6-5.1l1-2.8s16.3 0 18.4 3.4c0 0 1 .6.8 3.2z"/><linearGradient id="SVGID_64_" gradientUnits="userSpaceOnUse" x1="1431.092" y1="428.751" x2="1431.092" y2="419.181" gradientTransform="matrix(-1 0 0 1 2576.063 0)"><stop offset="0" style="stop-color:#120667"/><stop offset="1" style="stop-color:#120667;stop-opacity:0"/></linearGradient><path style="fill:url(#SVGID_64_)" d="m1145.6 422.1 1 5.2-.3 1.4s-2.7-5.6-3-9.6c0 .1 1.6 2.4 2.3 3"/><path class="st1" d="M1162.9 395.2c-1.7.4-.6 3.9-.1 7 .3 1.9.9 5.6-4.9 6-5.7.3-6.9 2-11.3 1.2-4.3-.9-4.6-3.5-8.6-6.8-2.1-1.8 1.2-5.2 1.1-9.8-.2-9.9-1.1-15.9-1.1-15.9 0-.8.2-1.7.7-2.3.5-.6 1.1-1.2 1.9-1.6.8-.4 1.5-.7 2.3-.8.9-.1 1.6 0 2.2.3 0 0 6.8 3.9 11.4 6.6 0 0 6.7 2.7 8.5 4.4 1.9 1.7 9.7 4.3 10 5.2s.1 4.5-2.4 6-1.3 2.2-3.5 3.1c-2.1.7-4.7-3-6.2-2.6z"/><path class="st1" d="M1150.6 368.4c0-1.1-1.3-2.3-3-2.8-1.9-.6-3.8-.3-4.3.8l-4.8 8.7.5 3.4 2.8 1 2.8-1.3 5.2-4.7c.7-.6 1.7-1.5 1.9-2.3 0-.1 0-.2.1-.2.2-.7-.4-1.4-.8-1.7-.2-.1-.3-.5-.4-.9z"/><path class="st276" d="M1154.3 379.7c.7-1-.1-2.8-1.8-4-1.7-1.2-3.7-1.4-4.4-.4-.7 1 .1 2.8 1.8 4 1.8 1.2 3.7 1.4 4.4.4z"/><path d="M1154.2 378.8v-8.7l-6 .8v5.7c-.1.9.7 2 2.1 2.8 1.6.9 3.3.9 3.8 0 .1-.2.1-.3.2-.5v-.1h-.1z" style="fill:#9e684d"/><path d="M1154.2 376.4s-3.3 1.1-6-2.1v-1.8l6.1 2.8-.1 1.1z" style="fill-rule:evenodd;clip-rule:evenodd;fill:#7c4e2e"/><path class="st276" d="M1147.8 376.2c.1 1.1.8 2.2 2.1 3.1 1.7 1.2 3.7 1.4 4.4.4 0 0 .3-.4.3-1"/><path class="st26" d="M1160.7 365.8c.6.1 1.1.4 1.4.6l.3.3c.4.7-.2 1.7-1.4 2.4l-.3.2c-1.3 1-3.3.9-5.3-.3 0 0 4.8-3.3 5.3-3.2"/><path class="st45" d="M1145.5 370.1c-.2-.9.4-1.9 1.3-2.1h.1v-2.1c-.1-3 2.4-5.5 5.5-5.6 3.1-.1 5.7 2.3 5.7 5.3l.1 4.7c.1 4.2-2.1 5-4.9 5.1-2.7.1-5-1.6-5.9-4-.9.1-1.7-.4-1.9-1.3"/><path class="st26" d="M1148.4 370.2c.4.2.7 0 .7-.5v-1.9c0-.5-.3-1.1-.7-1.3-.4-.2-.7 0-.7.5v1.9c.1.5.4 1.1.7 1.3"/><path class="st28" d="M1152.4 360.4c2.4-.1 4.5 1.4 5.4 3.5l4.3 2.5c-.5-.4-1.6-.3-2.5.3-.2.1-.3.2-.5.3 0 0-.1 0-.1.1l-2.5 2.1c-1.3 1-3.3.9-5.3-.3l-3.3-1.9-1-.5v-.6c-.1-2.9 2.4-5.5 5.5-5.5"/><path class="st26" d="M1146.9 368s.5.2.8.9l.5-.2-.1-1.5-1.2-.7v1.5z"/><path class="st45" d="M1149 488.7c.3.6 1.4.6 2.5 0 1-.6 1.6-1.5 1.2-2.1-.3-.6-1.4-.6-2.5 0-1 .6-1.6 1.5-1.2 2.1"/><path class="st272" d="M1152.9 486s1 0 1.7.7"/><path class="st26" d="M1149.8 361c.1.1.3.1.5 0s.3-.3.2-.4c-.1-.1-.3-.1-.5 0s-.3.3-.2.4"/></g></g></g></svg>