<svg xmlns="http://www.w3.org/2000/svg" xmlns:xlink="http://www.w3.org/1999/xlink" viewBox="0 0 1435.1 832" style="enable-background:new 0 0 1435.1 832" xml:space="preserve"><style>.st1{fill:#5333ed}.st2{display:none}.st3{display:inline}.st24{fill:#eba87c}.st25{fill:#ffc398}.st26{fill:#120667}.st28{fill:#0c022f}.st32{fill:#9e684d}.st33{fill:#724c3b}.st35{fill:#c2d3eb}.st45{fill:#b7835f}.st46{fill:#0f0446}.st50{fill:#150773}.st51{fill:#dfe9f8}.st52{fill:#43414e}.st54{fill:#6e7075}.st55{fill:#fff}.st56{fill:#e08c5c}.st97{opacity:.7}.st100{fill-rule:evenodd;clip-rule:evenodd;fill:#fff}.st112{fill:#351812}.st114{fill-rule:evenodd;clip-rule:evenodd;fill:#c2d3eb}.st134{fill:#462ad3}.st135{fill:#eba072}.st143{fill-rule:evenodd;clip-rule:evenodd;fill:#120667}.st157{fill:#5b3427}.st166{fill-rule:evenodd;clip-rule:evenodd;fill:#ffc398}.st291,.st299,.st300,.st322{fill:none;stroke:#120667;stroke-width:.2251;stroke-linecap:round;stroke-miterlimit:10}.st299,.st300,.st322{stroke:#dfe9f8;stroke-width:.5773}.st300,.st322{stroke:#fff}.st322{stroke:#f3f3f6;stroke-width:.8287}.st325{fill:#999}.st327{fill:none;stroke:#5333ed;stroke-width:.6439;stroke-linecap:round;stroke-miterlimit:10}.st335{opacity:.7;fill:#dfe9f8}.st340{opacity:.4;fill:#fff}</style><pattern x="462.3" y="-1516.3" width="88" height="88" patternUnits="userSpaceOnUse" id="New_Pattern_Swatch_18" viewBox="0 -88 88 88" style="overflow:visible"><path style="fill:none" d="M0-88h88V0H0z"/><path class="st1" d="M0-88h88V0H0z"/></pattern><g id="Layer_13_1_"><path style="opacity:.5;fill:#dfe9f8" d="M1280 511.6v-51.7l66.7-38.4v51.7z"/><linearGradient id="SVGID_6_" gradientUnits="userSpaceOnUse" x1="681.678" y1="628.556" x2="654.866" y2="823.157"><stop offset="0" style="stop-color:#e2ebf6"/><stop offset=".58" style="stop-color:#f0f5fc"/><stop offset=".618" style="stop-color:#f4f7fd"/><stop offset=".767" style="stop-color:#fcfdfe"/><stop offset="1" style="stop-color:#fff"/></linearGradient><path style="fill:url(#SVGID_6_)" d="M603.1 671.4V832h123.2v-89.4z"/><linearGradient id="SVGID_8_" gradientUnits="userSpaceOnUse" x1="767.775" y1="788.617" x2="808.642" y2="476.734"><stop offset="0" style="stop-color:#dbe6f3"/><stop offset=".032" style="stop-color:#dce7f3"/><stop offset="1" style="stop-color:#f0f5fc"/></linearGradient><path style="fill:url(#SVGID_8_)" d="m972.3 600.2-122.9-71.1-246.1 142.4 123.2 71.1z"/><linearGradient id="SVGID_9_" gradientUnits="userSpaceOnUse" x1="1159.195" y1="400.384" x2="1328.529" y2="529.717"><stop offset="0" style="stop-color:#c2d3eb"/><stop offset="1" style="stop-color:#a0b6e5"/></linearGradient><path style="fill:url(#SVGID_9_)" d="M1130.9 219.4v488.2l125.5-73V145.7z"/><path class="st51" d="M1006.2 146.3v149.6l124.7 72.2V219.4z"/><linearGradient id="SVGID_10_" gradientUnits="userSpaceOnUse" x1="1235.699" y1="284.568" x2="1091.935" y2="93.754"><stop offset="0" style="stop-color:#dbe6f3"/><stop offset=".032" style="stop-color:#dce7f3"/><stop offset="1" style="stop-color:#f0f5fc"/></linearGradient><path style="fill:url(#SVGID_10_)" d="m1130.9 219.4-124.7-73.1 127.5-73.7 122.7 73.1z"/><linearGradient id="SVGID_11_" gradientUnits="userSpaceOnUse" x1="1020.833" y1="416.498" x2="1058.002" y2="785.083"><stop offset="0" style="stop-color:#dbe6f3"/><stop offset=".019" style="stop-color:#dce7f3"/><stop offset=".58" style="stop-color:#f0f5fc"/><stop offset=".618" style="stop-color:#f4f7fd"/><stop offset=".767" style="stop-color:#fcfdfe"/><stop offset="1" style="stop-color:#fff"/></linearGradient><path style="fill:url(#SVGID_11_)" d="m1007.8 580.3.1-144.4-123.2-71.1V832h343.5V707.5z"/><linearGradient id="SVGID_12_" gradientUnits="userSpaceOnUse" x1="854.624" y1="645.055" x2="855.419" y2="811.569"><stop offset="0" style="stop-color:#c6d6ec"/><stop offset=".515" style="stop-color:#e6edf7"/><stop offset=".883" style="stop-color:#fff"/></linearGradient><path style="fill:url(#SVGID_12_)" d="M983.6 594.1 726.3 742.3V832h257.1z"/><linearGradient id="SVGID_13_" gradientUnits="userSpaceOnUse" x1="1008.65" y1="548.027" x2="1003.909" y2="313.36"><stop offset="0" style="stop-color:#c6d6ec"/><stop offset=".883" style="stop-color:#c2d3eb"/></linearGradient><path style="fill:url(#SVGID_13_)" d="M1130.7 364.7 885 507.1v143.7l245.5-141.1z"/><linearGradient id="SVGID_14_" gradientUnits="userSpaceOnUse" x1="1256.05" y1="691.158" x2="1342.042" y2="840.102"><stop offset="0" style="stop-color:#c6d6ec"/><stop offset=".515" style="stop-color:#e6edf7"/><stop offset=".883" style="stop-color:#fff"/></linearGradient><path style="fill:url(#SVGID_14_)" d="M1204 721.6V832h152.1V633.4z"/><linearGradient id="SVGID_15_" gradientUnits="userSpaceOnUse" x1="1174.506" y1="743.439" x2="1162.382" y2="408.009"><stop offset="0" style="stop-color:#dfe9f8"/><stop offset=".723" style="stop-color:#cfddf1"/><stop offset="1" style="stop-color:#c8d8ee"/></linearGradient><path style="fill:url(#SVGID_15_)" d="M1204.1 721.5 983.6 594.1l152.3-88 220.2 127.4z"/><linearGradient id="SVGID_16_" gradientUnits="userSpaceOnUse" x1="1180.696" y1="579.361" x2="1069.288" y2="478.027"><stop offset=".151" style="stop-color:#0c022f;stop-opacity:0"/><stop offset="1" style="stop-color:#0c022f;stop-opacity:.4"/></linearGradient><path style="opacity:.2;fill:url(#SVGID_16_)" d="M1079.6 443.6v95.1l73.2 36.5 29.5-45.7z"/><linearGradient id="SVGID_17_" gradientUnits="userSpaceOnUse" x1="833.271" y1="665.27" x2="815.937" y2="451.937"><stop offset="0" style="stop-color:#dbe6f3"/><stop offset=".032" style="stop-color:#dce7f3"/><stop offset="1" style="stop-color:#f0f5fc"/></linearGradient><path style="fill:url(#SVGID_17_)" d="M761.8 436v143.7L885 650.8V507.1z"/><linearGradient id="SVGID_18_" gradientUnits="userSpaceOnUse" x1="926.213" y1="553.107" x2="967.081" y2="241.225"><stop offset="0" style="stop-color:#dbe6f3"/><stop offset=".032" style="stop-color:#dce7f3"/><stop offset="1" style="stop-color:#f0f5fc"/></linearGradient><path style="fill:url(#SVGID_18_)" d="m1130.7 364.7-122.8-71.1L761.8 436 885 507.1z"/><linearGradient id="SVGID_19_" gradientUnits="userSpaceOnUse" x1="2073.318" y1="501.621" x2="2028.126" y2="423.346" gradientTransform="translate(-1192.582)"><stop offset=".151" style="stop-color:#0c022f;stop-opacity:0"/><stop offset="1" style="stop-color:#0c022f;stop-opacity:.8573"/></linearGradient><path style="opacity:.1;fill:url(#SVGID_19_)" d="m911 484.2-15.5 8.9-90.2-52.3 15.5-8.9z"/><path class="st35" d="M830.4 439.3c.4.1.5-.2.8.2.1.2.4.6.4 1.2 0 .8-.2 1.2-.8 1.9-.7.8-4.2 3.5-6.5 4.1 0 0-.8.2-1.1.5-.3.3-1 .7-1.5 1l-.5-1.1 7.4-4.7 1.7-1.8.1-1.3z"/><path class="st35" d="M818.6 448.2c.4.7 1.8.7 3.1 0s2-2 1.6-2.7c-.4-.7-1.8-.7-3.1 0-1.3.8-2 2-1.6 2.7"/><path class="st46" d="M831 439.7c-.8-1.2-3.5.7-4.4.8-3.1.5-4.6.7-6.3 1.3-1.1.4-1.8 1.4-2 2.5 0 0-.1.4-.1.7 0 .4.3 1.4.2 2 0 .1 0 .3.1.4.3.5 1 .6 1.8.3 1.8-.6 6.2-2.7 7.1-3.4 1.1-.8 2.4-1.8 3-2.4.5-.5 1.1-1.4.6-2.2"/><path class="st25" d="M818.8 443.9c.3.6 1.5.6 2.5 0s1.6-1.6 1.2-2.2c-.3-.6-1.5-.6-2.5 0s-1.6 1.6-1.2 2.2"/><path class="st291" d="M827.8 440s1 0 1.8.7M826.9 440.4s1 0 1.8.7M825.6 440.6s1 0 1.8.7M824.2 440.8s1 0 1.8.7M822.8 441.1s1 0 1.8.7"/><path class="st35" d="M816.8 431.4c.4.1.5-.2.8.2.1.2.4.6.4 1.2 0 .8-.2 1.2-.8 1.9-.7.8-4.2 3.5-6.5 4.1 0 0-.8.2-1.1.5-.3.3-1 .7-1.5 1l-.5-1.1 7.4-4.7 1.7-1.8.1-1.3z"/><path class="st35" d="M805 440.3c.4.7 1.8.7 3.1 0s2-2 1.6-2.7c-.4-.7-1.8-.7-3.1 0s-2 2-1.6 2.7"/><path class="st46" d="M817.4 431.8c-.8-1.2-3.5.7-4.4.8-3.1.5-4.6.7-6.3 1.3-1.1.4-1.8 1.4-2 2.5 0 0-.1.4-.1.7 0 .4.3 1.4.2 2 0 .1 0 .3.1.4.3.5 1 .6 1.8.3 1.8-.6 6.2-2.7 7.1-3.4 1.1-.8 2.4-1.8 3-2.4.5-.5 1.1-1.5.6-2.2"/><path class="st25" d="M805.2 436c.3.6 1.5.6 2.5 0s1.6-1.6 1.2-2.2c-.3-.6-1.5-.6-2.5 0s-1.6 1.6-1.2 2.2"/><path class="st291" d="M814.2 432s1 0 1.8.7M813.3 432.5s1 0 1.8.7M812 432.7s1 0 1.8.7M810.6 432.9s1 0 1.8.7M809.2 433.2s1 0 1.8.7"/><path class="st25" d="m805.5 426.3-.4 9.4 3.9-1.6.9-7.2zM819.1 434.2l-.4 9.4 3.9-1.5.9-7.2z"/><path class="st24" d="M809.8 427.6c-.3-.3-.6-.5-1-.7-.1-.1-.2-.1-.3-.2l-3-.4-.2 4.6c.4.4.8.8 1.4 1.2.8.5 1.7.7 2.4.7l.7-5.2zM823.4 435.6c-.2-.3-.5-.6-.8-.9l-3.5-.5-.2 4.6c.2.2.5.3.7.5 1.2.7 2.4.9 3.3.6l.5-4.3z"/><linearGradient id="SVGID_20_" gradientUnits="userSpaceOnUse" x1="804.481" y1="427.99" x2="811.046" y2="427.99"><stop offset="0" style="stop-color:#150773"/><stop offset="1" style="stop-color:#5333ed"/></linearGradient><path d="M811 429.7v-1.3c0-1-.8-2.2-2.2-3-1.7-1-3.6-1-4.2 0-.2.3-.2.6-.1 1v1.2c0 1 .9 2.1 2.2 2.9 1.7 1 3.6 1 4.2 0 .1-.1.1-.3.1-.5 0-.1.1-.2 0-.3" style="fill:url(#SVGID_20_)"/><linearGradient id="SVGID_21_" gradientUnits="userSpaceOnUse" x1="817.358" y1="435.209" x2="823.933" y2="435.209"><stop offset="0" style="stop-color:#150773"/><stop offset="1" style="stop-color:#5333ed"/></linearGradient><path d="M823.9 435.6c0-1-.8-2.2-2.2-3-1.7-1-3.6-1-4.2 0-.1.2-.2.5-.2.8v1.3c0 1 .8 2.2 2.2 3 1.7 1 3.6 1 4.2 0 .1-.2.1-.4.2-.6v-1.5z" style="fill:url(#SVGID_21_)"/><pattern id="SVGID_22_" xlink:href="#New_Pattern_Swatch_18" patternTransform="translate(-3434.512 -2270.013) scale(.5773)"/><path style="fill:url(#SVGID_22_)" d="m828.5 366.7-1.2-6.3-18.6-4.9s-2.1 3.5-3.7 12.2c-3 15.9 0 57.7 0 57.7-.5.9.3 2.3 1.9 3.2 1.5.9 3.2.9 3.7 0 .1-.2.1-.4.1-.6-.4-23 4.4-48.5 4.4-48.5 0 1.1 2.6 53.6 2.6 53.6-.1.9.7 2 2.1 2.8 1.6.9 3.3.9 3.8 0 .1-.2.1-.4.1-.6.6-20.3 3.7-46.8 5.1-57.8.2-1.7.3-3.4.3-5.1 0-2-.3-3.9-.6-5.7"/><linearGradient id="SVGID_23_" gradientUnits="userSpaceOnUse" x1="1869.25" y1="380.876" x2="1869.25" y2="371.382" gradientTransform="translate(-1055.428)"><stop offset="0" style="stop-color:#2a0e80"/><stop offset="1" style="stop-color:#2a0e80;stop-opacity:0"/></linearGradient><path style="fill:url(#SVGID_23_)" d="M815.2 379.5s-1.8-3.7-2.7-8.1c0 0-.4 4.6 2.4 9.5l.3-1.4z"/><path class="st24" d="M844.5 324.3c-.1 1.1-.7 2.1-1.7 2.6-2.1 1-3.3 1.1-3.3 1.1-.5.1-1.2-.2-1.8-.7-.8-.7-.5-1.5-.1-1.9.1-.1.2-.1.3-.2 0 0 3.1-2.9 3.4-3.1 0 0 2.6-.4 3.1.1 0 0 .2.2.4.6.1.5-.3 1-.3 1.5"/><path class="st25" d="M837.4 325.6s-.4.3-.5.5l-7.1 6.9-3 2.8-16.9-2.3-2.7 7.7 21.9-.3 4.2-4.6 7.5-8.8c1.1-1.3.7-3.7.7-3.7-.5-1.1.1-2.1.1-2.1.4-.9.4-1.9.2-2.7-.2-.8-.6-.9-.7-.7-.2.2-.7 3.4-1.3 3.7-.7.4-1.5 2.1-1.5 2.1s-.6.7-.9 1.5z"/><path class="st26" d="M828.2 334.4s3.1-.1 3.6 3.1l-2.3 2.8-12.5-5.8 4.9.6 4.7.7 1.6-1.4z"/><path class="st26" d="M828 338.6c-.1 0-16.4-9.4-16.4-9.4-.5-.4-1.3-.5-2.2-.4-.7.1-1.5.4-2.3.8-.8.5-1.5 1.1-2 1.7-.5.7-.7 1.5-.7 2.4l1.1 21.9c-.3 3.1 2.6 7.2 7.2 9.9 5.6 3.2 11.6 3.2 13.4 0 .4-.6.5-1.4.5-2.1l3.9-20.9c.4-1.2-.6-2.9-2.5-3.9"/><path class="st166" d="m839.1 358.9-10.1-18c0-.1-.1-.1-.1-.2-.6-1.1-2.5-.9-4.4.2-1.9 1.1-2.4 2.8-1.7 3.9 0 .1-.1.3-.1.4l8.8 14-10.7 7.9c-.7.5-1.1 1.1-.8 1.6 0 .1.1.1.1.2.6.7 3.2 3.4 5.9 4.6l1.9.8s.1.9.9 1.2l-.2-1.7-.8-.7 1.3.5v.7s.6.1.7-.4v-.6s.2 0 .2-.2c-.1-.2-.1-.5-.2-.6-.2-.4-1.1-.9-1.1-.9l1.2.2s.5 0 .5-.5c.1-.5-.5-.6-.5-.6l-2.1-1.2c.1 0 .7.1.7.1.6 0 .7-.5.7-.5-.1-.1-1.5-.6-3.2-1.2l9.5-4.7c.4-.1.8-.3 1.3-.6 1.8-1 2.8-2.6 2.3-3.7z"/><path class="st143" d="m830.6 341.6 8.6 17.3h-.1c.5 1.1-.1 3-1.9 4-.4.2-1 .6-1.4.8-3.4 1.5-7.3-1.6-7.8-2.3s1-1 1-1-.4-1.1.9-1c0 0-6.2-10.8-7.2-13.3 0-.1-.3-.6-.3-.7-.5-1.1.1-3.5 1.9-4.6 1.9-1.1 5.4-1 6 .1l.3.7z"/><path class="st25" d="m818.6 332.3 3.5-2c1-.6 1.6-1.6 1.6-2.8l-1.3-7.9s-5.8.5-5.8.7c.1.1 2 12 2 12"/><path class="st25" d="m814.1 327.6 6.1-.8v9c0 .2 0 .4-.1.5-.5.9-2.3.9-3.9 0-1.3-.8-2.1-1.9-2.1-2.8v-5.9z"/><path class="st1" d="M820.2 315.7v-.1z"/><path class="st46" d="M822.9 315c-.1-.6-.7-1.1-1.3-1.1-.7 0-1.3.5-1.4 1.2h-.2c-.2 0-.5 0-.7.1-1.1-.6-2.4-.9-3.7-.9-3.6.1-6.5 3-6.8 6.5 0 1.2.3 2.4.7 3.5v.2c0 .7.4 1.3.9 1.7v.4c0 1.1.8 1.9 1.9 2 .3.7 1 1.2 1.8 1.2h.2c.2.2.7 1.3.9 1.1 1.3-.7 2.5-1.8 3.5-2.9 1.1 0 2-.9 2-2 0-.2 0-.4-.1-.5v-.3c1.2-.7 2.1-1.9 2.2-3.3v-.1c.7-.7 1.2-1.7 1.2-2.8 0-.3 0-.6-.1-.9.2-.3.4-.8.4-1.2-.3-.9-.7-1.5-1.4-1.9z"/><path class="st25" d="M819.2 324.9c0-.4.3-.9.8-1.2.7-.4 1.4-.4 1.6 0v.1l.4 1.8-1.5 2.7c0 .1-1.3-.8-1.3-3.4z"/><linearGradient id="SVGID_24_" gradientUnits="userSpaceOnUse" x1="1877.444" y1="337.484" x2="1885.517" y2="337.484" gradientTransform="translate(-1055.428)"><stop offset="0" style="stop-color:#120667"/><stop offset="1" style="stop-color:#120667;stop-opacity:0"/></linearGradient><path style="opacity:.2;fill:url(#SVGID_24_)" d="M829.8 339.9s-1.4-.9-2.5-1.7c-1.1-.8-5.3-3.1-5.3-3.1l1.5.2 4.2 2.5s1.7 1.1 2.3 1.8l-.2.3z"/><path class="st25" d="M843.7 322.5s-1.2.5-1.5 1.9c0 0 1-.3 2.2-.8 1.2-.6.8-1.5-.7-1.6v.5z"/><path class="st25" d="M843.9 324s-1.3.3-1.8 1.6c0 0 1.1-.1 2.3-.4 1.3-.3 1.2-1.2.3-1.8l-.8.6z"/><path class="st25" d="M843.5 325.1s-1.1.2-1.7 1.4c0 0 .9-.1 2.1-.3s.8-.8.1-1.5l-.5.4z"/><path class="st25" d="M843 326.2s-1.1.2-1.7 1.4c0 0 .9 0 2.1-.3s.9-.8.1-1.5l-.5.4z"/><linearGradient id="SVGID_25_" gradientUnits="userSpaceOnUse" x1="1882.775" y1="350.27" x2="1879.887" y2="358.207" gradientTransform="translate(-1055.428)"><stop offset="0" style="stop-color:#120667"/><stop offset="1" style="stop-color:#120667;stop-opacity:0"/></linearGradient><path style="opacity:.2;fill-rule:evenodd;clip-rule:evenodd;fill:url(#SVGID_25_)" d="m828.1 356.1-3.8-7c-.2 1.1 0 2.3.4 3.3l2.8 6.8.6-3.1z"/><g><linearGradient id="SVGID_26_" gradientUnits="userSpaceOnUse" x1="-17645.545" y1="20661.229" x2="-17593.465" y2="20571.023" gradientTransform="matrix(-1 0 0 1 -16536.256 -20012.281)"><stop offset=".151" style="stop-color:#0c022f;stop-opacity:0"/><stop offset="1" style="stop-color:#0c022f;stop-opacity:.8573"/></linearGradient><path style="opacity:.1;fill:url(#SVGID_26_)" d="m1043.8 566.4-23.8 15 101.5 60.3 24.7-16z"/><path class="st32" d="M1022.1 528.9c-.6-.1-1.1.3-1.2.9-.1.6.3 1.1.9 1.2.6.1 1.1-.3 1.2-.9.1-.5-.3-1.1-.9-1.2zM1032.5 526c.1-1.2-.3-2.4-1.1-3.3 0-.1.1-.2.1-.3 0-.7-.6-1.3-1.3-1.4-1.2-.6-3.7-.7-4.5-.5-.6.2-.9.8-.9.8s-.9-.3-1.8.2c-1.6 1.1-2.2 2.8-2.2 2.8-.2.3-.2.6-.2.9 0 .4.1.7.3 1-.3.2-.5.4-.6.8-.1.7.3 1.3 1 1.4.7.1 1.3-.3 1.4-1v-.5c.4-.1.8-.3 1.1-.6.3 1.8 1.7 3.3 3.5 3.6.3.1.6.1 1 .1.2.1.4.2.7.2 1.7.3 3.4-.8 3.7-2.5 0-.6 0-1.2-.2-1.7zm-8.7-1.6c0-.1 0-.1 0 0v-.2c.1 0 .1.1 0 .2z"/><path class="st25" d="m1035.9 532.1 6.1 3.6c.4 22.1 21.1 31.6 21.9 31.9.2 0 1.9 2.7 1.9 2.7s-2 1.6-3.8.3c-30.5-10.6-26.1-38.5-26.1-38.5z"/><path class="st1" d="M1035.3 557.7c-3.7-1.4-15.7 2.9-15.7 2.9s-1.8.7-2.1 2.3c-.5 3.3-2.8 6-3 10-.4 5.8 3.5 8.8 8.8 10.3 9.6 2.7 7.5-10.6 7.5-10.6s9.1 9.8 18.1 3.1c2.6-1.9-6.3-12.2-7.6-11.8-3.4.7-4.8-5.7-6-6.2z"/><ellipse transform="rotate(-30 1026.748 558.837)" class="st26" cx="1026.8" cy="558.8" rx="10.2" ry="5.9"/><path class="st26" d="M1042.8 535.8s.8 9.9 3 14.4l-6.3 2s-2.1-3.5-3.4-7l6.7-9.4z"/><path d="M1039.1 551.6s2.2-5.6 2.5-7.9l-.4-2.1s-1.9 7.4-2.6 9.1l.5.9z" style="fill:#2cd4d9"/><path class="st26" d="m1012.1 540.8.1-.1s13-7.4 16.7-9.7c3.8-2.3 6.3-2 6.3-2 5.2 0 8.8 5.1 7.2 10 0 0-3.5 11.3-4.8 14.4-.6 2.8-3.2 5.9-7 8.1-3.6 2.1-7.4 2.8-10.1 2.1-.8-.2-1.6-.5-2.2-1-.2-.2-.4-.5-.7-.7-3.3-3.6-10.1-11.6-10.1-11.6-1.4-4 .9-8.2 4.6-9.5z"/><ellipse transform="rotate(-54.627 1025.721 537.804)" class="st299" cx="1025.7" cy="537.8" rx="3" ry="5.2"/><path class="st24" d="M1021.8 537.3v-8.5h7.9v11.5c-.1 2.6-6.8.4-7.9-3z"/><path class="st56" d="M1029.6 535v-4.4l-7.9-.2v1.7c.7 1.9 3.1 3.9 6.6 3.3.5 0 .9-.1 1.3-.4z"/><path class="st25" d="M1020.2 528.6c0-.9.7-1.6 1.5-1.6h.1l.3-1.8c.4-2.6 3-4.4 5.7-4 2.7.4 4.5 2.9 4.1 5.6l-.7 4.1c-.6 3.6-2.7 4-5.1 3.6-2.4-.4-4.1-2.2-4.4-4.5-.8-.1-1.5-.7-1.5-1.4z"/><path class="st299" d="M1029.9 540.8c-1 1.3-3.6 1.1-5.9-.6-1.7-1.2-2.8-2.9-2.8-4.2"/><ellipse transform="rotate(-14.518 1042.69 551.194)" class="st26" cx="1042.6" cy="551.2" rx="3.3" ry="2"/><path class="st26" d="M1065 588.8v-2.4c0-1.1.6-2 1.6-2.4l.7-.3c1.2-.5 2.6-.3 3.5.6 1.5 1.4 3.4 3.4 5.4 5.8.9 1.1 1.5 1.9 2 2.5.7.8.5 2.1-.4 2.7l-.6.4c-.5.3-1.2.3-1.7 0l-9.8-5.6c-.5-.4-.7-.8-.7-1.3z"/><path class="st300" d="M1077.8 594c-.1.5-.4.9-.8 1.2l-.6.4c-.5.3-1.2.3-1.7 0l-9.4-5.4"/><path class="st25" d="m1057.4 563.4 7.1-2.4 6.4 22.9c.2.7-.5 1.8-1.6 2.5-1.3.7-2.7.7-3.1 0-.1-.1 0-.4-.1-.5-2-7.5-8.7-22.5-8.7-22.5z"/><ellipse transform="rotate(-30 1069.494 585.557)" class="st26" cx="1069.5" cy="585.5" rx="2.2" ry="1.3"/><path class="st26" d="m1074.7 588.4-2.1-2.4s-.9-.9-1.2-1.6l-3.8 2.2s.3.9 1 1.5l3 2.5 3.1-2.2z"/><path class="st300" d="m1078.7 594.2-2.1 1.2"/><path class="st26" d="M1051.2 597.1v-2.4c0-1.1.6-2 1.6-2.4l.7-.3c1.2-.5 2.6-.3 3.5.6 1.5 1.4 3.4 3.4 5.4 5.8.9 1.1 1.5 1.9 2 2.5.7.8.5 2.1-.4 2.7l-.6.4c-.5.3-1.2.3-1.7 0l-9.8-5.6c-.4-.4-.7-.9-.7-1.3z"/><path class="st300" d="M1064 602.3c-.1.5-.4.9-.8 1.2l-.4.2c-.7.4-1.5.4-2.2 0l-9.1-5.3"/><path class="st25" d="m1043.6 571.6 7.1-2.4 6.4 22.9c.2.7-.5 1.8-1.6 2.5-1.3.7-2.7.7-3.1 0-.1-.1 0-.4-.1-.5-1.9-7.4-8.7-22.5-8.7-22.5z"/><ellipse transform="rotate(-30 1055.735 593.822)" class="st26" cx="1055.8" cy="593.8" rx="2.2" ry="1.3"/><path class="st26" d="m1060.9 596.6-2.1-2.4s-.9-.9-1.2-1.6l-3.8 2.2s.3.9 1 1.5l3 2.5 3.1-2.2z"/><path class="st300" d="m1064.9 602.5-2 1.1"/><path class="st26" d="M1023.3 569.8s2.4-.1 3.1-.3c.6-.1 12-6.2 12.3-6.5l.4.3s-11.4 6.8-11.9 6.9c-.4.1-2.5.5-4.4.3l-.7-.1 1.2-.6z"/><path class="st32" d="M1025.3 521.1h1.2V520.8c.2 0 2-.3 3.9.8l1.1 1.3-.2.3c.3.3.5.6.7 1 .2-.1.5-.2.8-.2.6.1 1 .7.9 1.3v.1c.4.3.6.8.5 1.4-.1.5-.4.8-.8 1 .1.1.1.3.1.4 0 .2-.2.4-.5.5 0 .2-.3.4-.5.3-.2 0-.4-.3-.3-.5 0-.1.1-.2.2-.2 0-.1-.1-.2 0-.3 0 0 0-.1.1-.1-.6-.2-1-.9-.9-1.6-.1 0-.3 0-.4-.1-1.5-.3-2.7-1.2-3.5-2.3-.6 2.1-2.7 3.5-5 3.1-.1 0-.3-.1-.4-.1-2-.1-.3-5.9 3-5.8z"/><g><path class="st52" d="m1024.4 566.1 12.8 2.9 9.2-15.3z"/><linearGradient id="SVGID_27_" gradientUnits="userSpaceOnUse" x1="6132.4" y1="3716.138" x2="6136.729" y2="3718.178" gradientTransform="rotate(-29.425 -2423.968 11845.638)"><stop offset="0" style="stop-color:#6e7075"/><stop offset="1" style="stop-color:#43414e"/></linearGradient><path style="fill:url(#SVGID_27_)" d="m1032.8 562.1 4.9 1.1.1-.1.4-4z"/><path class="st54" d="m1035.7 567.9 1.3.2 1.5-.8-1.4-.2zM1034 567.4l1.3.3 1.4-.8-1.2-.3zM1032.5 567l1.3.2 1.4-.7-1.3-.3zM1035.8 566.4l1.3.3 1.4-.8-1.3-.3zM1034.3 566l1.3.2 1.4-.7-1.3-.3zM1036 565l1.3.3 1.4-.8-1.3-.3zM1037.2 569.5l-12.8-3v-.4l12.8 2.9z"/><path class="st24" d="M1030.6 559.6s.4 3.3 1.4 3.5c.6.1 4.6-.3 4.6-.3l2.2-.6s-.5-1.3-2.3-.6l-1.6-1.2-4.3-.8z"/><path class="st25" d="m1038.6 565.1-.3-2.8-1.8-2.8 1.7.8s-.2.8 0 1.2c.5 1 .9 1.1.9 1.1l.1-3-2.7-1.7s-3.1-.3-3.8 0c-4.4 1.8-3.6 5.9-3.6 5.9s1.9 2.7 4.3-1.9l1.4 1.6.3.9c.2.4.7.5.7.5l-.3-1.5-1.3-2.2 2.1 2.4s-.1 1.8.7 2.1l.1-2.5-1.6-2.8 2 2.6c0-.2.2 2.2 1.1 2.1z"/><path class="st54" d="m1037.2 569.5 1.8-19.5 21.5-12.1-1.8 19.5z"/><path class="st55" d="M1048.3 553.6c.1.6.6.7 1 .3.4-.4.7-1.2.6-1.7-.1-.3-.2-.5-.4-.5.5-.1 1 .2 1.1.9.2.9-.2 2.2-1 2.8s-1.4.4-1.6-.6c-.1-.7.1-1.5.4-2.1-.1.3-.2.7-.1.9z"/></g><path class="st1" d="M1025 575.2s14.8 7.1 23.8.5c2.6-1.9 5.1-4 8-9.2 0 0 1.9 4 3.2 4.8 2.1 1.3 7.1-1.5 7.5-3.1.3-1.2-3.2-9.3-3.8-10-1.4-1.5-4-2.9-7-2.3-3.5.7-14.1 7.6-15.4 7.9-3.3.8-16.3 11.4-16.3 11.4z"/><path class="st1" d="m1015.8 569.5.5 9.6s9.1 9.8 18.1 3.1c2.6-1.9 5.1-4 8-9.2 0 0 1.9 4 3.2 4.8 2.1 1.3 7.1-1.5 7.5-3.1.3-1.2-3.2-9.3-3.8-10-1.4-1.5-4.5-3.2-7.5-2.6-3.5.7-13.7 7.9-14.9 8.2-3.4.9-11.1-.8-11.1-.8z"/><path class="st26" d="M1053.1 571.9s-2-9.4-8-10.1l-.8.5s2.8.8 3.7 1.8c1.9 2.1 2.1 2.6 3.2 4.9.4.9 1.3 3.5 1.3 3.5l.6-.6zM1038.6 578.5s3.6-4.5 3.8-5.5c0 0 1.6 3.6 2.6 4.3l.2.2s-.5.2-.9.3c0 0-1.6-1.9-2-3.2l-2.7 3.9h-1z"/><path class="st25" d="m1014.9 560.3 2.1 6.3c.5.8 1.5 1 2.3.6l9.8-5.6 1.7 2.7-9.6 7.6c-2.6 2.2-6.5 1.4-8-1.6l-4.1-7.5 5.8-2.5z"/><path class="st26" d="m1009 543 5 6.3c-.5 4 1.9 12.8 1.9 12.8.3 1.2-1.2 2.8-3.2 3.3s-3.8-.1-4.2-1.2c-5-16.2.5-21.2.5-21.2z"/></g><g><linearGradient id="SVGID_28_" gradientUnits="userSpaceOnUse" x1="810.005" y1="689.686" x2="777.156" y2="632.79"><stop offset=".151" style="stop-color:#0c022f;stop-opacity:0"/><stop offset="1" style="stop-color:#0c022f;stop-opacity:.8573"/></linearGradient><path style="opacity:.1;fill:url(#SVGID_28_)" d="m749.9 648.5 20.5-10.5 66.9 35.9-21 10.6z"/><path class="st54" d="M772.7 638.4c0 .2-.1.3-.2.4-2 1.1-16.7 9.6-19.4 11.2-.3.1-.6.1-.8 0-2.2-1.3-12.6-7.4-12.6-7.4v-16.5c0-.2.1-.3.2-.4 2.2-1.3 19.8-11.4 19.8-11.4l.6.3-.6 15.7 13 7.7v.4z"/><defs><path id="SVGID_205_" d="M772.5 637.7c.1.1.1.1.1.2s-.1.2-.1.2c-2.6 1.5-16.4 9.5-19.3 11.2-.3.2-.7.2-1.1 0l-12-7 20.3-11.7s9.9 5.8 12.1 7.1z"/></defs><use xlink:href="#SVGID_205_" style="overflow:visible;fill:#999"/><clipPath id="SVGID_29_"><use xlink:href="#SVGID_205_" style="overflow:visible"/></clipPath><defs><path id="SVGID_207_" d="M760.1 614.5h.2c.1 0 .1.1.1.2v15.9L740 642.4v-16.1c0-.1.1-.2.2-.3 1.8-1.1 17.3-10 19.9-11.5z"/></defs><use xlink:href="#SVGID_207_" style="overflow:visible;fill:#6e7075"/><clipPath id="SVGID_30_"><use xlink:href="#SVGID_207_" style="overflow:visible"/></clipPath><path class="st51" d="M740.5 641.7v-15.4l19.6-11.2v15.3z"/><path class="st54" d="M765.4 640.4c.1.1.2.2.2.4s-.1.3-.2.4c-1.5.8-4.8 2.8-6.2 3.6-.4.2-.8.2-1.2 0-.8-.5-2.4-1.4-3.3-1.9-.1-.1-.2-.2-.2-.4s.1-.3.2-.4c1.5-.8 4.8-2.8 6.2-3.6.4-.2.8-.2 1.2 0 .8.5 2.4 1.4 3.3 1.9zM760.8 637.7l-7.4 4.4-1.2-.7 7.5-4.3zM760.2 636.8l1-.6 1.2.7-1.1.6zM762.1 634l1.4-.9 1.2.7-1.5.8zM759 632.2l1.5-.8 1.2.6-1.5.9zM744.6 644l2.1-1.2 1.1.7-2.1 1.2zM743.1 643.1l2.7-1.5 1.2.7-2.7 1.5zM741.6 642.3l2.1-1.2 1.1.7-2.1 1.2zM762.9 635.2l1-.6 1.2.7-1 .6zM761.5 636l1.1-.6 1.1.7-1 .6zM755.2 637.9l1-.6 1.2.7-1 .6zM760.7 634.7l1-.6 1.2.7-1 .6zM759.3 635.5l1.1-.6 1.1.7-1 .6zM757.9 636.3l1.1-.6 1.1.7-1 .6zM756.6 637.1l1-.6 1.2.7-1.1.6zM748.4 641.8l1-.6 1.2.7-1.1.6zM747 642.6l1-.6 1.2.7-1 .6zM753.9 638.7l1-.6 1.2.7-1.1.6zM752.5 639.5l1-.6 1.2.7-1 .5zM751.1 640.3l1-.6 1.2.7-1 .5zM749.7 641.1l1.1-.6 1.1.6-1 .6zM754.4 636.6l1-.6 1.2.7-1.1.6zM759.9 633.5l1-.6 1.2.7-1.1.6zM758.5 634.3l1-.6 1.2.7-1 .5zM757.1 635.1l1.1-.6 1.1.7-1 .5zM755.7 635.9l1.1-.6 1.1.6-1 .6zM747.6 640.6l1-.6 1.2.7-1.1.6zM746.2 641.4l1-.6 1.2.7-1 .6zM753 637.4l1.1-.6 1.1.7-1 .6zM751.7 638.2l1-.6 1.2.7-1.1.6zM750.3 639l1-.6 1.2.7-1 .6zM748.9 639.8l1-.6 1.2.7-1 .6zM752.2 636.2l1-.6 1.2.6-1.1.6zM757.7 633l1-.6 1.2.7-1.1.6zM756.3 633.8l1-.6 1.2.7-1 .6zM754.9 634.6l1-.6 1.2.7-1 .6zM753.5 635.4l1.1-.6 1.1.7-1 .6zM745.3 640.1l1.1-.6 1.1.7-1 .6zM744 640.9l1-.6 1.2.7-1 .6zM750.8 637l1.1-.6 1.1.6-1 .6zM749.5 637.8l1-.6 1.2.6-1.1.6zM748.1 638.6l1-.6 1.2.6-1.1.6zM746.7 639.3l1-.5 1.2.6-1 .6zM750.7 642.3l1-.6 1.2.6-1 .6zM749.3 643.1l1.1-.6 1.1.6-1 .6zM747.9 643.9l1.1-.6 1.1.6-1 .6zM746.6 644.6l1-.6 1.2.7-1.1.6z"/><path class="st51" d="m740.5 627.3 19.6-11.3v-.9l-19.6 11.2z"/><path class="st26" d="M810 673.5s.2.9-.1 1.4c-.3.5-1.8 1.9-5.7.5-3.9-1.4-9.7-4.9-9.7-4.9s-.7-.3-.6-1.4c.1-1-.3-3-.3-3s1.2-2.7 1.8-2.6c0 0 1-.9 2.5-.4l3.7 5.9 8.4 4.5z"/><path class="st45" d="m786.3 665.4 8.9 4.8s-.9-1.1-1-3.3 1.3-3.5 1.3-3.5l-6.6-2.9-2.6 2.8v2.1z"/><path class="st55" d="M809.3 671.3s-5-2.1-6.1-3.6c-1.1-1.5-2.5-4.3-2.5-4.3-.3-.4-1-.7-1.8-.7-1 0-1.9.5-1.9 1.1v1.2s-.4 1.8 2.4 5.4c2.7 3.6 7.4 4.1 7.4 4.1.3.1.7.2 1.1.2 1.3 0 2.3-.6 2.3-1.3v-1c-.1-.5-.4-.9-.9-1.1"/><path class="st26" d="M822.3 666.9s.2.9-.1 1.4c-.3.5-1.8 1.9-5.7.5-3.9-1.4-9.7-4.9-9.7-4.9s-.7-.3-.6-1.4c.1-1-.3-3-.3-3s1.2-2.7 1.8-2.6c0 0 1-.9 2.5-.4l3.7 5.9 8.4 4.5z"/><path class="st45" d="m798.6 658.8 8.9 4.8s-.9-1.1-1-3.3c-.1-2.1 1.3-3.5 1.3-3.5l-6.6-2.9-2.6 2.8v2.1z"/><path class="st26" d="M811.9 647.1c-.9-2.6-1.7-7-2.5-9.1-.8-2.1-1.2-2-1.2-2l-19 1.6-9.7-3.6c-1.6-.6-6.1 2.8-5 5.6.9 2.2 3.9 3.6 6.7 4.5-5.2-1-12.6-2.2-14.1-1.1-2.7 1.9-3.3 5.6-2.3 7.5 1.3 2.4 10.6 11.1 21.8 15.3 0 0-.2-3.3 3.4-4.3 2.8 2.4 8.7 2 14.3-1.2 6.3-3.7 8.9-9.2 7.6-13.2"/><path class="st25" d="M762.3 636.9s-1.2.5-1.7.3c-.7-.2-.8-.8-1.8-.7 0 0 .1.2.7 1 0 0 2.6 1.7 5.4 1.8 2.9.1 3.2-1.1 3.3-2 .1-.8-1.1-2-3.5-3.1s-3.9-2.3-3.9-2.3 0 .4.2.7l-.7-.4-2.4.1s.3.7 2.1.7l1.5 1-2.3-.8-2.4-.5s.5.9 1.9 1.1l2.2 1.1s-3.5-.3-4.9-.6c0 0 .4.9 2.1 1.1l3.2.6 1 .9z"/><path class="st25" d="m766.4 638.9 22.1.9 16.8-28.3-5.6-5.1-14.1 27.7-19.1 2z"/><linearGradient id="SVGID_31_" gradientUnits="userSpaceOnUse" x1="4251.177" y1="656.787" x2="4272.416" y2="656.787" gradientTransform="translate(-3482.38)"><stop offset="0" style="stop-color:#0c022f"/><stop offset=".25" style="stop-color:#0d0234;stop-opacity:.75"/><stop offset=".542" style="stop-color:#0e0342;stop-opacity:.4583"/><stop offset=".853" style="stop-color:#110559;stop-opacity:.1469"/><stop offset="1" style="stop-color:#120667;stop-opacity:0"/></linearGradient><path style="fill:url(#SVGID_31_)" d="M790 661.4s-3.6-2.7-8.1-3.7-13.2-6.6-13.2-6.6l.1.5s6.8 5.7 12.9 7.1c0 0 3.2 1.1 4.3 1.9 1.2.9 1.9 1.9 1.9 1.9.9-.8 2.1-1.1 2.1-1.1"/><path class="st26" d="m814 662.3-3.7-5.9c-1.5-.4-2.5.4-2.5.4s-1.4 1.4-1.3 3.5c.1 2.1 1 3.3 1 3.3l6.5-1.3z"/><path class="st55" d="M821.6 664.7s-5-2.1-6.1-3.6c-1.1-1.5-2.5-4.3-2.5-4.3-.3-.4-1-.7-1.8-.7-1 0-1.9.5-1.9 1.1v1.2s-.4 1.8 2.4 5.4c2.7 3.6 7.4 4.1 7.4 4.1.3.1.7.2 1.1.2 1.3 0 2.3-.6 2.3-1.3v-1c-.1-.5-.4-.9-.9-1.1"/><path class="st51" d="M810.1 672.3s-.4.9-2.1.9c-1.7 0-4 0-7.1-2.8-3-2.9-3.8-6.2-3.9-6.6v1.5s-.1 1.2 1.1 3.3c1.2 2.2 3 4.4 7.3 5.7 4.3 1.3 4.7-.6 4.7-.6.1-.4 0-1.4 0-1.4M822.4 665.8s-.4.9-2.1.9c-1.7 0-4 0-7.1-2.8-3-2.9-3.8-6.2-3.9-6.6v1.5s-.1 1.2 1.1 3.3c1.2 2.2 3 4.4 7.3 5.7 4.3 1.3 4.7-.6 4.7-.6.1-.4 0-1.4 0-1.4"/><linearGradient id="SVGID_32_" gradientUnits="userSpaceOnUse" x1="4272.499" y1="644.413" x2="4261.674" y2="644.413" gradientTransform="translate(-3482.38)"><stop offset="0" style="stop-color:#0c022f"/><stop offset=".243" style="stop-color:#0d0235;stop-opacity:.7567"/><stop offset=".579" style="stop-color:#0f0447;stop-opacity:.4209"/><stop offset=".968" style="stop-color:#120664;stop-opacity:3.253967e-02"/><stop offset="1" style="stop-color:#120667;stop-opacity:0"/></linearGradient><path d="M781.2 644.1s3.5 1.2 6.5 1.3c0 0 1.6-.1 2.1-.5 0 0 .3-.7.3-1 0 0-3.4.7-10.8-.4l1.9.6z" style="fill:url(#SVGID_32_)"/><path class="st1" d="M781 614.9c.1 0 18.1-10.4 18.1-10.4.6-.4 1.5-.5 2.5-.4.8.1 1.7.4 2.6.9.9.5 1.6 1.2 2.2 1.8.6.8.8 1.7.8 2.7l3.3 25.5c.3 3.5-2.8 8-8 10.9-6.1 3.5-12.8 3.5-14.8 0-.4-.7-.6-1.5-.6-2.4l-8.8-24.4c-.5-1.2.7-3 2.7-4.2"/><path class="st25" d="m790.5 607.4-4.5-.1c-1.3 0-2.4-.7-3-1.8l-2.9-8.3s5.9-2.5 6-2.4c.1 0 4.4 12.6 4.4 12.6"/><path class="st25" d="m793.1 602.9-8.1-.8s4.2 9.6 4.3 9.7c.4 1.1 2.3 1.4 4.2.6 1.6-.6 3-2.3 2.9-3.3 0-.2-.3-.9-.3-.9l-3-5.3z"/><path class="st28" d="M794.2 591c-2.2-3.2-6.4-4.4-10-2.7-1.4.7-2.4 1.7-3.2 2.9v.1c-.5.1-.9.2-1.4.4-1.6.9-2.4 2.7-2 4.4-.8.6-1 1.7-.5 2.6.1.1.2.3.3.4h-.1c-.3.2-.5.6-.3.9.2.3.6.5.9.3.2-.1.4-.4.4-.6.5.1 1.1.1 1.6-.2.2-.1.4-.3.5-.4.3.1.6.1.9.1.9 1.3 2.4 2.1 3.9 2l.2.5s3 .7 6.6 2.4c.2.1 1.6-1.4 1.7-1.7.5-1.3 1.3-3.5 1.6-4.8v-.3c.3-2-.1-4.3-1.1-6.3zM781 591.2z"/><path class="st25" d="M786.1 600.5c-.2-.4-.7-.7-1.4-.7-.8 0-1.5.3-1.5.8v.2l.6 2 2.9 1.8s.8-1.6-.6-4.1zM759.5 646.4s10.3 3.9 13.5 2c1.3-.8 2.4-1.9 2.4-1.9 1.5-2.3-4.1-5.1-5.1-4.2-3.5 3-10.6.3-10.6.3-2.5-2-5.5-4.8-5.8-4.9-.1 0-.4.4 0 1 0 .1.7.6.7.7-.7 1.5-2.9 4.3-2.9 4.3 3.5 2.1 7.8 2.7 7.8 2.7z"/><path class="st25" d="M754.9 639.4s-2.3 3.9-3.2 4.2l-2.1-1.3s-1 .5-1.8-.1l1.8-.9 1.3.3-1.4-1-.7.5s-.4-.5-.1-1c0 0 .4-.3.6-.4 0 0-.2-.3.1-.4.3-.2.6-.3.8-.3.4 0 1.6.4 1.6.4l-1.1-.9s-.3-.4.1-.8 1 .1 1 .1l3.1 1.6zM775.4 646.4s7.6-9.6 10.1-21-7-1.5-7-1.5-3.1 15.7-9.7 19.3c-4.3 2.4 6.6 3.2 6.6 3.2"/><path class="st1" d="m775.3 630.4 3-12.6 8.2 2.7.5 11.2c-.2 1.9-3 3.1-6.2 2.7-3.2-.4-5.7-2.2-5.5-4"/><linearGradient id="SVGID_33_" gradientUnits="userSpaceOnUse" x1="4268.222" y1="635.533" x2="4268.222" y2="626.23" gradientTransform="translate(-3482.38)"><stop offset="0" style="stop-color:#120667"/><stop offset="1" style="stop-color:#120667;stop-opacity:0"/></linearGradient><path style="opacity:.7;fill:url(#SVGID_33_)" d="M783.5 634.2s3.3-.7 3.4-2.6l-.2-4.3.7-1.1s.7 4.4.7 5.9c0 2-4.1 3.4-4.1 3.4l-.5-1.3z"/><path class="st135" d="M779.8 639.4s1.7-3.2 2.5-5l1.1-.1s-2 4.7-2.3 5.1h-1.3zM774.8 635.2s-.4 1.6-1.7 3.9l-1.1-.1s1.4-2.3 1.6-3.7l1.2-.1z"/><pattern id="SVGID_34_" xlink:href="#New_Pattern_Swatch_18" patternTransform="matrix(-.4843 0 0 .4843 -11941.31 -2784.177)"/><path d="m784.7 598.1-5.3-3.3c-.6-.4-1.1-1-1.4-1.6-.4-.9-.4-1.8-.1-2.7l.1-.3c.3-.8 1.1-1.7 1.9-1.7.7 0 2.3.8 2.8 1l3 1.5-1 7.1z" style="fill:url(#SVGID_34_)"/><path class="st1" d="M795.5 592.9c-.8-2.7-2.4-3.7-3.8-4.5-1.2-.6-4-2-7.7-.1 0 0-1.6.8-2.5 2.1-.1.1-.2.2-.2.4-1.3 2.2.8 5.7 4.6 7.9s7.9 2.2 9.1 0c.2-.3.4-.6.5-1 .2-.5.7-2.5 0-4.8z"/><path class="st28" d="M791.8 589.9c-.1.2-.5.2-.8 0-.3-.2-.5-.5-.4-.7.1-.2.5-.2.8 0 .4.2.5.5.4.7"/></g><g style="opacity:.6"><path class="st35" d="M666.6 655v-38.5l49.7-28.7v38.6z"/><path class="st51" d="M693.3 614.6v-2.1l4.2-2.4v2.1zM699.7 610.9v-2.1l4.1-2.4v2.1zM705.9 607.4v-2l4.2-2.4v2zM672.8 643.3v-19.1l16.5-9.5v19.1zM694.1 631.4v-13.9l16.5-9.5v13.9z"/></g><g style="opacity:.5"><g class="st97"><path class="st35" d="M654.4 563v-14.1l55.8-32.1V527l-.1 36.6-19.2 11.2-27.7 15.9-8.8 5z"/><path class="st51" d="M660.2 584.4V571l10.4-6v13.4zM677.3 575.1v-13.4l10.4-5.9v13.4zM694.1 566.3v-13.4l10.4-5.9v13.4z"/><g><path class="st51" d="M660.2 566.2v-13.4l10.4-6v13.4zM677.3 557v-13.4l10.4-6V551zM694.1 548.2v-13.4l10.4-6v13.4z"/></g></g></g><g><linearGradient id="SVGID_35_" gradientUnits="userSpaceOnUse" x1="1121.91" y1="447.075" x2="1172.674" y2="447.075"><stop offset="0" style="stop-color:#c2d3eb"/><stop offset="1" style="stop-color:#a0b6e5"/></linearGradient><path style="fill:url(#SVGID_35_)" d="M1172.7 423.7v17.4l-50.8 29.3V453z"/><path class="st55" d="m1172.7 441.1 14 8-50.8 29.4-14-8.1z"/><linearGradient id="SVGID_36_" gradientUnits="userSpaceOnUse" x1="1135.954" y1="472.51" x2="1186.717" y2="472.51"><stop offset="0" style="stop-color:#c2d3eb"/><stop offset="1" style="stop-color:#a0b6e5"/></linearGradient><path style="fill:url(#SVGID_36_)" d="M1186.7 449.1v17.5l-50.7 29.3v-17.4z"/><path class="st55" d="m1186.7 466.6 14 8-50.7 29.3-14-8z"/><linearGradient id="SVGID_37_" gradientUnits="userSpaceOnUse" x1="1149.986" y1="497.998" x2="1200.702" y2="497.998"><stop offset="0" style="stop-color:#c2d3eb"/><stop offset="1" style="stop-color:#a0b6e5"/></linearGradient><path style="fill:url(#SVGID_37_)" d="M1200.7 474.6v17.5l-50.7 29.3v-17.5z"/><linearGradient id="SVGID_38_" gradientUnits="userSpaceOnUse" x1="952.247" y1="529.432" x2="952.247" y2="492.045" gradientTransform="matrix(-1 0 0 1 2134.67 0)"><stop offset="0" style="stop-color:#4471e5"/><stop offset="1" style="stop-color:#2cd4d9"/></linearGradient><path style="fill:url(#SVGID_38_)" d="m1200.7 492 14.2 8.1-50.9 29.3-14-8z"/><path class="st55" d="m1214.9 517.4 14.1 8.1-50.9 29.4-14.1-8z"/><linearGradient id="SVGID_39_" gradientUnits="userSpaceOnUse" x1="1178.059" y1="548.926" x2="1229.033" y2="548.926"><stop offset="0" style="stop-color:#c2d3eb"/><stop offset="1" style="stop-color:#a0b6e5"/></linearGradient><path style="fill:url(#SVGID_39_)" d="M1229 525.5v17.4l-50.9 29.5v-17.5z"/><path class="st55" d="m1229 542.9 14.1 8.1-51 29.5-14-8.1z"/><linearGradient id="SVGID_40_" gradientUnits="userSpaceOnUse" x1="1192.098" y1="574.619" x2="1243.145" y2="574.619"><stop offset="0" style="stop-color:#c2d3eb"/><stop offset="1" style="stop-color:#a0b6e5"/></linearGradient><path style="fill:url(#SVGID_40_)" d="M1243.1 551v17.3l-51 30v-17.9z"/><path class="st55" d="m1158.6 415.7 14.1 8-50.8 29.3-14-8.1z"/><path class="st51" d="M1093.6 402.1v17.5l14.1 8V445l.2.2v-.3l14 8.1v17.4l14.1 8.1v17.4l14 8v17.5l14 8v17.5l14.1 8v17.5l14 8v17.9l-39.3-23.1-73.2-131.6v-49.5z"/><linearGradient id="SVGID_41_" gradientUnits="userSpaceOnUse" x1="1093.627" y1="396.212" x2="1144.39" y2="396.212"><stop offset="0" style="stop-color:#c2d3eb"/><stop offset="1" style="stop-color:#a0b6e5"/></linearGradient><path style="fill:url(#SVGID_41_)" d="M1144.4 372.9v17.3l-50.8 29.4v-17.5z"/><path class="st55" d="m1144.4 390.2 14 8.1-50.7 29.3-14.1-8z"/><linearGradient id="SVGID_42_" gradientUnits="userSpaceOnUse" x1="1107.67" y1="421.647" x2="1158.434" y2="421.647"><stop offset="0" style="stop-color:#c2d3eb"/><stop offset="1" style="stop-color:#a0b6e5"/></linearGradient><path style="fill:url(#SVGID_42_)" d="M1158.4 398.3v17.4l-50.7 29.3v-17.4z"/><path class="st55" d="m1200.9 491.9 14.1 8.1-51 29.5-14.1-8.1z"/><linearGradient id="SVGID_43_" gradientUnits="userSpaceOnUse" x1="1163.97" y1="523.653" x2="1215.017" y2="523.653"><stop offset="0" style="stop-color:#c2d3eb"/><stop offset="1" style="stop-color:#a0b6e5"/></linearGradient><path style="fill:url(#SVGID_43_)" d="M1215 500v17.4l-51 29.9v-17.8z"/></g><path class="st55" d="m1130.4 364.7 14 8.1-50.8 29.3-14-8z"/><g><linearGradient id="SVGID_44_" gradientUnits="userSpaceOnUse" x1="1169.752" y1="459.104" x2="1173.03" y2="472.104"><stop offset="0" style="stop-color:#0f0446"/><stop offset=".894" style="stop-color:#0f0446;stop-opacity:0"/></linearGradient><path style="opacity:.2;fill:url(#SVGID_44_)" d="m1157.2 462.6 22.1 12.9 7-3.9-21.6-12.3z"/><linearGradient id="SVGID_45_" gradientUnits="userSpaceOnUse" x1="1182.196" y1="476.668" x2="1185.474" y2="489.668"><stop offset="0" style="stop-color:#0f0446"/><stop offset=".894" style="stop-color:#0f0446;stop-opacity:0"/></linearGradient><path style="opacity:.2;fill:url(#SVGID_45_)" d="m1169.7 480.2 22 12.9 7.1-3.9-21.7-12.3z"/><path class="st32" d="m1186.8 425.4.8 1.9c.6-.8-.1-1.9-.1-1.9l-.2-2.4c.6-3.2-.4-6.9-.4-6.9-.1-.5-.5-1-1.2-1.3-.9-.5-1.5 0-1.7.5 0 .1-.1.2-.1.3 0 0-.8 7.1-.8 7.4 0 .2-.3 3.6-.3 3.6l.4 2.4c.7-.7.5-2.3.5-2.3l.4-2.8.1 2.7 1 2.6c.6-1.3-.1-2.7-.1-2.7l.2-2.6.2 2.6.4 2.5c.9-1.1.4-2.5.4-2.5l.1-3.5.4 2.4z"/><path class="st45" d="m1185.6 382.1 3.2 20.5-.4 3.9-1 10.8c-1 3-3.3 3.2-3.3 3.2l-1.4 1.7c.1 1.4-.6 1.8-.6 1.8l-.1-1.7s.5-2.2.6-2.8c.2-.9 1.4-3.3 1.4-3.3v-13.9l-3.7-16.3 5.3-3.9z"/><path class="st28" d="M1155 457.3c-.3.1-.5-.2-.7.2-.1.1-.4.6-.3 1.2 0 .8.2 1.2.7 1.8.6.7 4 3.3 6 3.8 0 0 .7.2 1 .5.3.3.9.7 1.4.9l.4-1-7-4.5-1.6-1.7.1-1.2z"/><path class="st28" d="M1166 465.7c-.4.7-1.7.7-2.9 0s-1.9-1.8-1.5-2.5c.4-.7 1.7-.7 2.9 0 1.2.6 1.9 1.8 1.5 2.5"/><path class="st51" d="M1154.5 457.6c.7-1.1 3.3.7 4.1.8 2.9.4 4.3.7 5.9 1.3 1 .3 1.7 1.3 1.8 2.4 0 0 .1.4.1.6 0 .4-.3 1.3-.2 1.9 0 .1 0 .2-.1.3-.3.4-.9.5-1.7.3-1.7-.6-5.8-2.6-6.7-3.2-1.1-.7-2.3-1.7-2.8-2.3-.4-.5-.9-1.3-.4-2.1"/><path class="st26" d="M1155.8 458.8c.1 0 .1 0 .2-.1.6-.6 1.5-.6 1.5-.6.1 0 .2-.1.2-.2s-.1-.2-.2-.2-1.1 0-1.8.7c-.1.1-.1.2 0 .3-.1.1 0 .1.1.1zM1156.6 459.2c.1 0 .1 0 .2-.1.6-.6 1.5-.6 1.5-.6.1 0 .2-.1.2-.2s-.1-.2-.2-.2-1.1 0-1.8.7c-.1.1-.1.2 0 .3 0 .1 0 .1.1.1zM1157.8 459.5c.1 0 .1 0 .2-.1.6-.6 1.5-.6 1.5-.6.1 0 .2-.1.2-.2s-.1-.2-.2-.2-1.1 0-1.8.7c-.1.1-.1.2 0 .3 0 0 0 .1.1.1z"/><path class="st26" d="M1159.1 459.6c.1 0 .1 0 .2-.1.6-.6 1.5-.6 1.5-.6.1 0 .2-.1.2-.2s-.1-.2-.2-.2-1.1 0-1.8.7c-.1.1-.1.2 0 .3 0 .1 0 .1.1.1zM1160.4 459.9c.1 0 .1 0 .2-.1.6-.6 1.5-.6 1.5-.6.1 0 .2-.1.2-.2s-.1-.2-.2-.2-1.1 0-1.8.7c-.1.1-.1.2 0 .3 0 .1.1.1.1.1z"/><path class="st24" d="m1162 459.8.5-6.8 4.1.2-1.2 8.5v.2c0 .1-.1.2-.1.3-.4.5-1.4.3-2.3-.4-.8-.6-1.1-1.4-1-2z"/><path class="st56" d="M1162.5 453.7c.3-.2.6-.3 1-.5.1 0 .2-.1.3-.1l2.8.1-.6 4.3c-.2.5-.9 1.2-1.5 1.4-.9.3-1.7.4-2.4.2l.4-5.4z"/><path class="st1" d="m1160.9 457-.1-1.2c-.1-.9.6-2.1 1.8-3 1.5-1.1 3.2-1.2 3.8-.3.2.3.4.7.4 1.1l.2 1.8c.1.9-.5 1.6-1.7 2.5-1.5 1.1-3.5.9-4.1 0-.1-.1-.1-.3-.2-.4v-.1c-.1-.3-.1-.3-.1-.4"/><path d="m1168.7 412.1-12.3 14.8c-1.1 1.1-1.8 3.2-.8 6.1l5.2 21.9v.5c.3.9 1.8 1.6 3.3 1 1.6-.6 2.6-2.2 2.3-3.1 0 0-2.1-15.4-2.6-21.2-.1-1.1 1-2.8 1.5-3.1 11.2-5.4 17-9.9 16.8-17.3" style="fill:#11055b"/><path class="st26" d="M1162.5 424.3c-.2-1.6-.4-3-.4-4.6 0-1.8.3-3.5.6-5.3l1.1-5.9 17.5-4.6s.8 1.7 1.1 7.6c.1 2.8-.1 7.6-6.1 12.3"/><path class="st28" d="M1170.4 477.9c-.3.2-.5 0-.7.4 0 .2-.2.6 0 1.2.3.7.5 1.1 1.2 1.5.8.5 4.8 2 6.9 1.8 0 0 .7-.1 1.1.1.4.2 1.1.4 1.6.5l.1-1.1-8-2.2-2-1.1-.2-1.1z"/><path class="st28" d="M1183.4 482.6c-.2.8-1.4 1.2-2.8.9-1.4-.3-2.3-1.2-2.1-2 .2-.8 1.4-1.2 2.8-.9 1.3.3 2.3 1.2 2.1 2"/><path class="st51" d="M1170 478.4c.4-1.3 3.3-.4 4.2-.5 2.9-.5 4.3-.6 6-.6 1.1 0 2 .7 2.4 1.7 0 0 .2.3.2.6.1.4.1 1.3.4 1.9v.4c-.1.5-.7.8-1.5.8-1.8-.1-6.3-.8-7.3-1.1-1.2-.4-2.7-.9-3.3-1.4-.6-.3-1.3-1-1.1-1.8"/><path class="st24" d="M1182.1 478.8c-.1.6-1.1.9-2.2.7-1.1-.2-1.9-1-1.7-1.6.1-.6 1.1-.9 2.2-.7 1.1.2 1.9.9 1.7 1.6"/><path class="st26" d="M1171.6 479.1c.1 0 .1-.1.1-.1.4-.8 1.2-1 1.2-1 .1 0 .2-.2.2-.3 0-.1-.2-.2-.3-.2-.1 0-1 .3-1.5 1.3-.1.1 0 .3.1.3h.2z"/><path class="st26" d="M1172.5 479.2c.1 0 .1-.1.1-.1.4-.8 1.2-1 1.2-1 .1 0 .2-.2.2-.3 0-.1-.2-.2-.3-.2-.1 0-1 .3-1.5 1.3-.1.1 0 .3.1.3.1.1.2.1.2 0zM1173.8 479.1c.1 0 .1-.1.1-.1.4-.8 1.2-1 1.2-1 .1 0 .2-.2.2-.3 0-.1-.2-.2-.3-.2 0 0-1 .3-1.5 1.3-.1.1 0 .3.1.3h.2z"/><path class="st26" d="M1175 478.9c.1 0 .1-.1.1-.1.4-.8 1.2-1 1.2-1 .1 0 .2-.2.2-.3 0-.1-.2-.2-.3-.2-.1 0-1 .3-1.5 1.3-.1.1 0 .3.1.3h.2zM1176.4 478.8c.1 0 .1-.1.1-.1.4-.8 1.2-1 1.2-1 .1 0 .2-.2.2-.3 0-.1-.2-.2-.3-.2-.1 0-1 .3-1.5 1.3-.1.1 0 .3.1.3h.2z"/><path class="st24" d="m1179.1 470.2 3 8.3-3.9-.3-2.8-6.2z"/><path class="st56" d="M1175.7 472.6c.1-.3.3-.7.5-1l3-1.4 1.4 4c-.1.2-.3.4-.5.6-.9.9-1.9 1.5-2.7 1.5l-1.7-3.7z"/><path class="st1" d="M1175.2 472.8c-.3-.9.1-2.2 1.2-3.3 1.3-1.4 2.9-1.9 3.7-1.2.2.2.3.4.4.7l.4 1.2c.3.9-.1 2.2-1.2 3.3-1.3 1.4-2.9 1.9-3.7 1.2-.1-.1-.2-.3-.3-.5l-.5-1.4z"/><path class="st26" d="M1162.1 421c.8 6.5 3.7 27.4 5.3 31.4.7 1.8 3.8 12.8 7.8 20 .1.2.2.4.3.5.7.7 2.3.2 3.4-1.1 1-1 1.4-2.3 1.1-3.1 0 0-1.5-8.2-4.7-16.8-1-2.5-1.4-5.2-1.1-7.9.8-7.6 2.3-22.6 2.2-23M1164.9 413.9c1.5 2.5 6.2 2.5 10.6 0 4.4-2.5 6.8-6.6 5.3-9.2-1.5-2.5-6.2-2.5-10.6 0-4.4 2.6-6.7 6.7-5.3 9.2"/><path class="st1" d="m1176 377.7 7.2.7 5.1 5.8.3.3c.8 1.3-.5 3.5-2.8 4.9-2.3 1.3-4.9 1.3-5.6 0-.1-.1-.1-.2-.1-.3l-4.1-11.4z"/><path class="st1" d="M1161.6 385.2c.1 0 15.4-8.9 15.4-8.9.5-.3 1.2-.5 2.1-.3.7.1 1.5.4 2.2.8.8.4 1.4 1 1.8 1.6.5.6.7 1.5.7 2.3l-1 20.5c.3 2.9-2.4 6.8-6.8 9.3-5.2 3-10.8 3-12.6 0-.3-.6-.5-1.3-.5-2l-3.7-19.6c-.3-1.1.7-2.7 2.4-3.7"/><path class="st26" d="M1183.8 390.3v-5.7l-.8 1-.1 4.9z"/><path d="M1168 383.9c.7.9 2.6.8 4.2-.4 1.6-1.2 2.4-2.9 1.8-3.8-.7-.9-2.6-.8-4.2.4-1.6 1.1-2.4 2.8-1.8 3.8z" style="fill:none;stroke:#fff;stroke-width:1.3371;stroke-linecap:round;stroke-miterlimit:10"/><path class="st45" d="m1169.5 379.7-3.3-1.9c-.9-.5-1.5-1.5-1.5-2.6l1.2-7.4s5.4.5 5.4.6c0 .2-1.8 11.3-1.8 11.3"/><path class="st45" d="m1173.8 375.3-5.7-.8v8.4c0 .2 0 .3.1.5.5.9 2.1.9 3.6 0 1.2-.7 2-1.8 2-2.7v-5.4z"/><path class="st26" d="M1178.9 368.9c-.3-3.3-3-5.9-6.4-6.1-1.3 0-2.5.3-3.5.9v.1c-.4-.1-2.4-1-3.2.5-1.2 2.4-.1 5.4.1 5.6.1 1.4.9 2.5 2.1 3.1l-.1.5s1.9 1.7 3.9 4.4c.1.2 1.8-.4 2-.6.9-.7 2.3-2.1 3.1-2.9l.1-.2c1.2-1.5 1.8-3.4 1.9-5.3"/><circle class="st143" cx="1179" cy="366" r="2.6"/><path class="st143" d="M1181.6 365.9h-4.8v14.3c0 .6.3 1.1.8 1.3 1.1.5 2.1.6 3.1.1.5-.3.8-.8.8-1.3.1-3 .1-14.4.1-14.4z"/><path class="st1" d="M1168.9 363.7z"/><path class="st45" d="M1169 372.8c0-.3-.3-.8-.8-1.1-.6-.4-1.3-.4-1.5 0v.1l-.3 1.7 1.4 2.5c0 .1 1.2-.8 1.2-3.2z"/><path class="st26" d="M1161.5 402.6s3.4.3 4.1-.6 1.7-5.5 1.7-5.5l-.8-1.5-2.7 5.3-2.3 2.3z"/><g><path d="m1147.8 393.6 11.8 15.7s-.6 1.4-1.1 2.6c-.2.5-.7.9-1.2 1-.5.1-1.1-.1-1.5-.5-2.8-3-5.6-6.3-7.1-10.2-1.2-3-2.3-6.3-2.3-6.3l1.4-2.3z" style="fill-rule:evenodd;clip-rule:evenodd;fill:#b7835f"/><path class="st45" d="m1146 393.3-4.3-.9s-1.3-2.2-3.1-2.8l2 3.4 1.2.3-2.8-2.6.7 3.1 1.6.5-.8-.4-.8-.7.7 2 1.3.8-.7-1 .1.7c.1.4.3.7.7.8l6 1.8 1.6-2.3"/><linearGradient id="SVGID_46_" gradientUnits="userSpaceOnUse" x1="90.234" y1="391.03" x2="100.64" y2="391.03" gradientTransform="translate(1047.666)"><stop offset="0" style="stop-color:#6e7075"/><stop offset=".08" style="stop-color:#696970"/><stop offset=".252" style="stop-color:#64626b"/><stop offset=".658" style="stop-color:#626069"/></linearGradient><path style="fill:url(#SVGID_46_)" d="m1147.2 393.1-4.7-6.4-3.7.6-.7-.6-.2.8 5.3 7.9 4.9-1.4.2-.8z"/><path class="st54" d="m1138.1 386.7 5.2 7.9 5-1.4-5.5-7.6z"/><path style="fill:#f3f3f6" d="m1138.2 386.8 4.5 6.7 4.7-1.2-4.7-6.6z"/><ellipse transform="rotate(-73.201 1145.495 393.392)" class="st52" cx="1145.5" cy="393.4" rx=".4" ry=".6"/><path class="st45" d="m1160 390.6-6.5 17.7 5.1 3.1 7.6-17.5z"/><path class="st1" d="m1156.5 398.2 2.8-10.5 8.6 2.8-2.8 9.4c-.6 1.7-2.1 2.3-4.7 1.6-2.6-.8-4.1-1.8-3.9-3.3"/></g><path class="st45" d="M1149.4 395.7s-.7-1.3-2.3-3l-2.3-2s-.4 1.3 1 2.5l.4 1.4"/></g><g><path class="st56" d="M993.3 268.3c.1.2-3.6-4.5-3.5-4.4.1.2-.3.3 1.1 2.4.2.2 2 3 2.1 3.2.1.1-3-1.9-3-1.9 0 .9 3.8 3.3 3.8 3.3 2.3 2.7 3.5 2.4 4.1 2.3.7-.1 1.4-1.5 1.2-2 0-.1-.2-.4-.2-.4s-3.8-3.7-4-3.9c-.2-.2-2.1-2.5-2.1-2.5l-1.8-1.1c.1.9 1.3 1.6 1.3 1.6l1.5 2.2-1.8-1.9-1.8-2c-.2.8 1.4 2.7 1.4 2.7l1.7 2.4z"/><linearGradient id="SVGID_47_" gradientUnits="userSpaceOnUse" x1="2931.425" y1="349.228" x2="2966.546" y2="410.059" gradientTransform="translate(-1893.807)"><stop offset="0" style="stop-color:#11055b"/><stop offset=".032" style="stop-color:#11055b;stop-opacity:.9595"/><stop offset=".794" style="stop-color:#11055b;stop-opacity:0"/></linearGradient><path style="opacity:.15;fill:url(#SVGID_47_)" d="m1010.3 366.1 67.2 41.2 21.2-16.5-58.2-33.2-19.9 1.5z"/><path class="st134" d="m1021.3 359.8.1-2.3c0-1-.5-1.9-1.4-2.3l-.7-.3c-1.1-.5-2.4-.4-3.3.4-1.5 1.2-3.4 3.1-5.3 5.2-.9.9-1.5 1.7-2 2.2-.7.7-.6 2 .3 2.5l.6.4c.5.3 1.1.3 1.6.1l9.4-4.8c.4-.3.6-.6.7-1.1M1032.9 356.5l-.1-2.3c0-1 .5-1.9 1.4-2.3l.7-.3c1.1-.5 2.4-.4 3.3.4 1.5 1.2 3.4 3.1 5.3 5.2.9.9 1.5 1.7 2 2.2.7.7.6 2-.3 2.5l-.6.4c-.5.3-1.1.3-1.6.1l-9.4-4.8c-.5-.3-.7-.6-.7-1.1"/><path class="st55" d="M1045.7 361.1s-1.2.8-1.8.9c-.6.1-2.1-.7-2.1-.7l-8.9-4.7.1 1.1 8.7 4.6s.6.4 1.4.5c.5.1 1 .1 1.4-.2l1.4-.7-.2-.8z"/><path class="st25" d="m1042.9 325.4-5.6 27.2c-.2.7-3.7 3.2-3.6-.1 0 0 1.6-25.3 1.8-28 .1 0 7.4.9 7.4.9z"/><path class="st50" d="M1021.3 266.3s.3-11.9.5-16.5l11.8-1.2s-.2 7.2 1 10.3l-13.3 7.4z"/><path class="st56" d="m1074.8 285 1.6 1.7s-.5.3-1.3-.3l-.7-.6-1.4-.4 1.6 1.1s1 2 .3 2.1l-1.3.1s-.3 0-.5-.2-.4-.7-.4-.7l-1.2-.7c-.8.7-4.1-1.9-4.1-1.9l1.4-2.3 3.7 1.3.7.3 1.6.5z"/><path class="st25" d="M1068.9 282.7s2.2.4 2.7 1c.3.3 1 1.5 1 1.5l.5 1.7s-1-.1-1.2-1.4l-1.2-.5s-1.8 1.6-3.4.3l1.6-2.6z"/><path class="st25" d="M1038.8 262.2c2.5 8.5 9.4 20.2 28.6 23l1.6-2.5s-20.5-5.3-23.8-21.1c-.3-1.5-2.7-4.6-4.4-4.8-.1-.1-3.8-.9-2 5.4zM1027.4 323l-6.9 33.5s-.3.6-.9.9c-1.3.6-3.4.9-2.9-1.1.4-2.1 3.5-31.1 3.3-33.2 0-.1 7.4-.1 7.4-.1z"/><path class="st1" d="M1018.8 269.7c.6-1.4-.7-2.7-.7-2.7l16.4-9.5c1.1-.6 3.2-1.4 4.8-1.4 1.9 0 3.3 1.1 3.8 2.6.5 1.6.4 2.9.3 4.5l-.8 5.7c-.3 6.7-2 10.8-2.5 19.7-.1 2.3-2.7 1.6-5.6 3.3-3.2 1.8-5.2.6-7.8.5-1.7-.1-2.4-2.1-3.4-3.1 0 0-1.9-4.9-2.8-8.8-.8-3.4-.6-3.3-1.7-7.1-.5-1.7.3-2.5 0-3.7z"/><path class="st25" d="M998.8 271.4s.5.5.7.9c2.2 4.9 10.7 20.9 16.3-1.3 0 0 .9-3.1 2.5-3.7 1.5-.5 2.8.2 3.4 1 1.2 1.8.4 3.2.2 4.2-1.3 8.2-14.2 31.4-26.1.7l3-1.8zM1027.7 260.9c.1-2 0-6.1 0-6.1h4.3v4.6c.4 0 .9-.1 1.2 0 .8.1 1.4.4 1.7 1 .8 1.4-.5 3.7-3 5.2-2.5 1.4-5.2 1.4-6 0-.6-1-.1-2.3 1-3.5.3-.1.8-.8.8-1.2z"/><path class="st56" d="M1032.1 258v-5l-4.3 2.7v4.1c1.4.1 3.2.2 4.3-1.8z"/><path class="st25" d="M1028.6 258.8c-2.3.4-4.3.1-5.1-3.7l-.8-4.3c-.5-2.8 1.1-5.5 3.6-6s5.1 1.4 5.6 4.1l.6 3.3c.8 3.1-1.1 6-3.9 6.6z"/><circle class="st166" cx="1033" cy="252.2" r="1.6"/><path class="st50" d="M1031.7 244.8c-.5-.4-1.1-.7-1.7-.9-.6-.2-1.2-.4-1.8-.4-3.4 0-5.9 2.8-6.3 6.3-.1.7 1 3.6 1 3.6s1.7-3.7 6-5.7c.5 2.3 2.6 2 2.6 4.2 0 .5 1.6.3 2.1-1.3.4-3.2-.1-4.4-1.9-5.8z"/><path class="st25" d="M999 271s-.6-2.4-1.1-3.1c-.3-.4-1.9-1.9-1.9-1.9l-1.7-.9s0 1 1.3 1.6l.7 1.3s-.6.8-.8 2.2c-.1.6-.4 1.6.3 3.1.5 1 3.1 2.6 3.9 1.9.8-.6-.6-4.1-.7-4.2z"/><path class="st1" d="M1065 280.8s-1.8 1-1.9 3.2v.9s-8.3-1.4-11.9-4.3c-3.6-2.9-7.2-5.7-10.5-11.9l.4-12.3s2.9.8 4.4 4.1c1.5 3.3 4.8 11.8 9.9 15.5 5 3.8 9.6 4.8 9.6 4.8zM1022.4 274.4s-4 9.2-8.6 13c-4.2 3.4-9.3 4-14.5-6 0 0 3.5.2 3.8-2.8 0 0 2.7 3.4 5.5 3.3 1.1-.1 3-1.2 7-11.7 0 0 1.5-4.6 5.7-3.8 4.3.9 1.1 8 1.1 8zM1041.6 276.7s-.5 16.4 1.9 36.9c1.3 11.4 2.3 28 2.3 28s-9.8 8.2-20.2 6.1c-8.9-1.8-9.3-6.8-9.3-6.8s1.8-31.1 6.5-53.5l18.8-10.7z"/><path class="st134" d="m1041.9 355.6-2.1-2.1s-.9-.8-1.2-1.4l-3.4 2.2s.3.8 1 1.3l2.9 2.2 2.8-2.2z"/><path class="st134" d="M1035.3 354.4c.4.6 1.4.5 2.4-.1s1.5-1.6 1.1-2.1c-.4-.6-1.4-.5-2.4.1s-1.5 1.6-1.1 2.1"/><path class="st322" d="M1041.2 354.6s-.7-.4-1.8.3c-1.3.8-1.5 1.7-1.5 1.7M1040.3 353.6s-.7-.4-1.8.3c-1.3.8-1.5 1.7-1.5 1.7M1042.3 355.7s-.7-.4-1.8.3c-1.3.8-1.5 1.7-1.5 1.7"/><path class="st134" d="m1012.2 358.9 2.1-2.1s.9-.8 1.2-1.4l3.4 2.2s-.3.8-1 1.3l-2.9 2.2-2.8-2.2z"/><path class="st134" d="M1018.9 357.7c-.4.6-1.4.5-2.4-.1s-1.5-1.6-1.1-2.1c.4-.6 1.4-.5 2.4.1.9.6 1.4 1.6 1.1 2.1"/><path class="st322" d="M1012.9 357.9s.7-.4 1.8.3c1.3.8 1.5 1.7 1.5 1.7M1014 356.7s.7-.4 1.8.3c1.3.8 1.5 1.7 1.5 1.7M1011.8 359s.7-.4 1.8.3c1.3.8 1.5 1.7 1.5 1.7"/><path class="st55" d="M1008.4 364.4s1.2.8 1.8.9c.6.1 2.1-.7 2.1-.7l8.9-4.7-.1 1.1-8.7 4.6s-.6.4-1.4.5c-.5.1-1 .1-1.4-.2l-1.4-.7.2-.8z"/></g><g><linearGradient id="SVGID_48_" gradientUnits="userSpaceOnUse" x1="214.837" y1="436.682" x2="188.081" y2="390.338" gradientTransform="translate(720.1)"><stop offset=".151" style="stop-color:#0c022f;stop-opacity:0"/><stop offset="1" style="stop-color:#0c022f;stop-opacity:.8573"/></linearGradient><path style="opacity:.1;fill:url(#SVGID_48_)" d="m896.4 393.6 68.4 39.8-14.6 8-66.6-38.6z"/><path class="st1" d="m896.5 395 .1-2.5c.1-1.1-.5-2.1-1.5-2.6l-.7-.4c-1.2-.6-2.6-.4-3.6.4-1.6 1.3-3.7 3.4-5.8 5.7-.9 1-1.6 1.9-2.2 2.4-.8.8-.6 2.1.3 2.8l.6.4c.5.3 1.2.4 1.8.1l10.3-5.3c.4-.2.6-.6.7-1"/><path class="st55" d="M882.4 400s1.3.9 2 1c.7.1 2.3-.8 2.3-.8l9.8-5.1-.1 1.2-9.6 5.1s-.7.4-1.5.6c-.5.1-1.1.1-1.5-.2l-1.5-.7.1-1.1z"/><path class="st1" d="M905.7 400.8v-2.5c0-1.1-.6-2.1-1.6-2.5l-.8-.3c-1.2-.5-2.6-.3-3.6.6-1.5 1.4-3.5 3.5-5.5 6-.9 1.1-1.5 1.9-2 2.5-.8.8-.5 2.2.5 2.7l.6.4c.5.3 1.2.3 1.8 0l10-5.8c.4-.2.6-.6.6-1.1"/><path class="st32" d="m889 355.2 2.7 39.2 1.3-.2c1.1-.2 2.7-1.2 2.7-2.4.1-6.8.9-28.5.2-30.7-.5-1.5-6.9-5.9-6.9-5.9M901.1 385.2l-.5 14.2s4.2.8 4.5-2.3c.7-7.4.8-11.3 1-13.9"/><path class="st1" d="M903 398.5c-.4.6-1.5.6-2.6 0s-1.7-1.6-1.3-2.3c.4-.6 1.5-.6 2.6 0 1.1.7 1.7 1.7 1.3 2.3"/><path class="st1" d="m895.7 400.3 2.2-2.4s.9-1 1.2-1.6l3.9 2.3s-.3.9-1 1.5l-3.1 2.5-3.2-2.3zM886.5 394l2.3-2.3s.9-.9 1.3-1.5l3.8 2.5s-.3.9-1.1 1.5l-3.2 2.4-3.1-2.6z"/><path class="st1" d="M893.9 392.6c-.4.6-1.6.6-2.6-.1-1.1-.7-1.6-1.7-1.2-2.3.4-.6 1.6-.6 2.6.1s1.5 1.7 1.2 2.3"/><path class="st55" d="M891.9 406.5s1.4.8 2.1.9c.7.1 2.3-.9 2.3-.9l9.5-5.6v1.2l-9.3 5.5s-.7.5-1.5.7c-.5.1-1.1.1-1.6-.1l-1.5-.7v-1z"/><path class="st1" d="m896.5 386.8.1-1.3c.1-1-.7-2.2-2.1-3.1-1.7-1.1-3.5-1.2-4.2-.2-.2.3-.2.6-.2 1l-.1 1.2c-.1 1 .7 2.2 2.1 3.1 1.7 1.1 3.5 1.2 4.2.2.1-.1.1-.3.2-.5v-.4M906.5 391.9c.1-1-.7-2.2-2.1-3.1-1.7-1.1-3.5-1.2-4.2-.2-.2.2-.2.5-.2.8l-.1 1.3c-.1 1 .7 2.3 2.1 3.2 1.7 1.1 3.5 1.2 4.2.2.1-.2.2-.4.2-.6l.1-1.6z"/><path class="st26" d="M907.5 367.4c.3-5.6.8-19.1.7-21.3-.1-3.5-.6-12-1.4-15.4v-.1c-.1-3.2-2.8-7.1-7.1-9.9-5.7-3.7-11.3-3.5-14.2-.8-1.7 1.6 1.6 20.9 2.6 37.8.8 13.9 2.5 21.4 2.7 24.2-.6.8.2 2.3 1.6 3.2 1.5 1 3.1 1 3.6.2.1-.1.1-.3.2-.4v-.4c0-2.8.2-18.6.1-24.6-.1-5.8-1.3-15-1.5-16.8 0 0 2.3 11 3.1 20.6v.5c.8 11.1 3.1 21.5 2.6 24.3-.3.9.4 2.1 1.8 3 1.5 1 3.1 1 3.6.2.1-.2.2-.4.2-.6 0 .1 1.1-18.1 1.4-23.7"/><path d="M892.8 343.3c-.2-1.7.1-2.2.9-2.1s1.1 2 1.1 2c.2 1.8 1.5 11 1.5 16.8 0 2.1-.1 19.3-.1 22.8 0 0-1-22.1-3.4-39.5z" style="opacity:.2;fill:#2f8dd3"/><g><path class="st1" d="M906.1 329.1c-2 3.5-8.5 3.5-14.5 0s-9.2-9.1-7.2-12.5c2-3.5 8.5-3.5 14.5 0 5.9 3.5 9.2 9.1 7.2 12.5"/><path class="st32" d="m861.5 313.8 2.1-.2-3.9-2.3-1.4.7.8.4.5.3.5-.1.3.4.7.1.2.3zM887.8 288.3s1.2 48.8-24.2 24.8l3.1-3.2s16.6 15.4 13.8-19l7.3-2.6z"/><path class="st1" d="M885.8 305.1c0-.1 1.3-3.7 1.9-7.5l-7.4-8.3s-.1 10-1.3 15.1V304.7c0 1.1 1.5 2.1 3.4 2.2 1.7.1 3.2-.7 3.4-1.8z"/><path class="st325" d="m879.4 314.6-10.1 2.3-7.2-12z"/><path class="st54" d="m872.8 311.5-3.9.8-.4-3.2zM870.5 316l-1 .2-1.2-.7 1.1-.1zM871.8 315.6l-1 .2-1.1-.6 1-.2zM873 315.3l-1 .2-1.1-.6 1-.2zM870.4 314.8l-1 .3-1.1-.7 1-.2zM871.6 314.5l-1 .2-1.1-.6 1-.2zM870.3 313.7l-1.1.2-1.1-.6 1.1-.2z"/><path class="st32" d="M869.2 309.7s4.5-.4 4.8-.4c.3 0 7.3-.2 7.3-.2l.5 3.7s-3.4 1.6-7.2 1.4l-2.4.5s-.5.7-1.9.9l1.2-1.5 2.9-1-3.6.3s-1.7 1-3.2.1l2.6-1.1 2.9-.6-3 .1s-1.3 1.3-2.9.8l2.6-1.8 3.1-.5-3.9.2s-1.4.7-2.3 0l2.5-.9z"/><path class="st54" d="m869.3 317.2 10.1-2.3v-.3l-10.1 2.3z"/><path class="st1" d="M911.6 294.8s-13.5-7.5-17.4-9.9c-3.9-2.4-6.5-2.1-6.5-2.1-5.3 0-9.1 5.3-7.4 10.3 0 0 3.6 11.6 5 14.8.7 2.9 3.3 6.1 7.2 8.3 3.7 2.1 7.6 2.9 10.4 2.2.9-.2 1.6-.5 2.2-1 .2-.2.4-.5.7-.8 3.4-3.7 10.4-11.9 10.4-11.9 1.6-4.1-.4-7.4-4.6-9.9"/><path class="st32" d="m901.7 291.4-1.8-8.2h-8.1l1.9 11.4c0 2.5 6.8.2 8-3.2"/><path class="st33" d="M900.5 286.1c-.8 2.1-2.9 4.3-5.3 4.2-.8 0-1.7-.2-2.3-.4l-.7-4.3 8-1.6.3 2.1"/><path class="st32" d="M901.9 282c0-.9-.8-1.6-1.6-1.5h-.1l-.4-1.8c-.6-2.7-3.3-4.4-6-3.8-2.7.6-4.5 3.3-3.9 6l.9 4.1c.8 3.7 3 3.9 5.4 3.4 2.4-.5 4.1-2.5 4.3-4.8.8-.2 1.4-.8 1.4-1.6"/><path class="st112" d="M893.4 274c-1.1.3-2.8.9-3.4 1.8-.2.2-.2.5-.2.7-.5.6-.8 1.4-.7 2.3.1.5.3 1 .6 1.4-.1-1.1.2-2.1.7-3 .6.4 1.5.6 2.3.5.6-.1 1.2-.4 1.6-.8 0 0 .9-1 1.7-.6 0 0 1.1.4.6 1.7v.4c.1 1.1 1.1 1.9 2.2 1.7h.1c-.1.2-.5 1.3 0 1.7h.7s-.3-.9.7-1.4c0 0 .1-.1.4 0 0 0 .9-3.6-.9-5.6-.3-.3-.7-.4-1.1-.3-.2 0-1.6-1.2-5.3-.5"/><path class="st1" d="M883.7 303.3s-.2 9.6.1 15.5l22.9 8.2s-.7-8.3 3.2-14.6l-26.2-9.1z"/><path class="st32" d="M915.1 301.9s-5.4-.8-6.5 1.4c-3.1 6.3-5.7 11.8-7.5 13.7-4.9-2.6-9.3-6.2-19.3-7.8-4.3-.7.4 3.7.5 3.7 5.2 2.8 13.2 9.3 18.2 11 7.7 1.7 14.6-22 14.6-22"/><path class="st1" d="M911.7 300.1c-1.5.8-2.7 2.1-3.4 3.6-1.9 4.1-5.4 9.6-5.4 9.6-.8 1 0 2.9 1.7 4.2 1.7 1.3 3.7 1.5 4.5.5 0-.1.1-.1.1-.2 5.7-6.3 7.2-11.3 7.3-14.8 0-2.5-2.6-4.1-4.8-2.9"/><path class="st33" d="m883.6 313.5-1.8-.6s-2.5.8-3.6 1l1.2.7 2.4-.6 1.4.6.4-1.1zM879.2 309.1s1.9-.3 4.4.3v-1.2s-2.8.6-4-.2l-.4 1.1z"/></g><path class="st325" d="m869.3 317.2-1.4-15.2-16.9-9.5 1.4 15.2z"/><path class="st55" d="M860.6 304.8c-.1.5-.4.6-.8.3-.3-.3-.6-.9-.5-1.4 0-.2.2-.4.3-.4-.4-.1-.8.1-.9.7-.1.7.2 1.7.8 2.2.6.5 1.1.3 1.3-.4.1-.5 0-1.2-.3-1.7.1.2.1.5.1.7"/><path class="st32" d="M858.2 309.4v2.8c0 .1.3.3.5.1.2-.1.3.2.3.2s.2.3.5.4c.4 0 .5-.4.5-.4s0 .6.3.8c.5.3.7 0 .7 0s0 .4.4.5c.2 0 .4-.2.5-.7l.2-1.8s.5-.4.5-1.5l-1 1-.5 2.2v-2.7s.6-1.4-.2-2.4l-.6 2-.2 2.2-.1-2.1s.9-1.1.3-2.2l-1.1 2.1-.1 2.4-.1-2.9s.4-1.1-.2-1.7l-.6 1.7z"/></g><g><linearGradient id="SVGID_49_" gradientUnits="userSpaceOnUse" x1="978.863" y1="515.993" x2="932.733" y2="436.093"><stop offset=".151" style="stop-color:#0c022f;stop-opacity:0"/><stop offset="1" style="stop-color:#0c022f;stop-opacity:.8573"/></linearGradient><path style="opacity:.1;fill:url(#SVGID_49_)" d="m889.7 460.9 92.6 51.9 39.6-21.6-92.2-51.8-24.8 13.2z"/><path class="st50" d="M916.9 465.5s5.1 5.8 5.5 6.4c.4.5 1.6 2.4 1.7 4 0 1.6-.1 2.3-.9 3-.9.9-2.8.4-3.6-.2-.8-.6-2.3-1.5-3.3-3.2s-2.7-5.1-3.9-8.3l4.5-1.7z"/><path class="st51" d="M916.7 465.6s4.6 5.3 5.8 7.2c1.2 1.9 1.9 4.7.3 5.8-1.7 1.1-5.3-1.5-6.8-4.2-1.5-2.8-3.2-7.3-3.2-7.3l3.9-1.5z"/><path class="st50" d="M923.7 477s-.2.6-.7.6c-.3 0-.9 0-1.5.8-.5.5-1.1.1-1.1.1s.6.8 1.7.6c1.1-.2 1.5-1.1 1.5-1.1l.1-1z"/><path class="st327" d="M920.3 472c-.5-.1-1.1.1-1.7.6-.6.4-1 1-1.1 1.5M919.6 470.8c-.5-.1-1.1.1-1.7.6-.6.4-1 1-1.1 1.5M918.8 469.7c-.5-.1-1.1.1-1.7.6-.6.4-1 1-1.1 1.5M918 468.6c-.5-.1-1.1.1-1.7.6-.6.4-1 1-1.1 1.5M917.3 467.5c-.5-.1-1.1.1-1.7.6-.6.4-1 1-1.1 1.5"/><path class="st50" d="M898.1 457.1s-6-3-6.5-3.2c-.5-.2-2.4-.8-3.7-.3-1.3.5-1.8.8-2.3 1.8-.5 1.2.3 2.8 1 3.4.7.6 1.8 1.7 3.4 2.1 1.6.4 4.8 1 7.7 1.1l.4-4.9z"/><path class="st51" d="M898.1 457.4s-5.4-2.7-7.3-3.2c-1.8-.6-4.3-.4-4.9 1.6-.5 1.9 2.4 4.5 5 5.1 2.6.6 6.8.8 6.8.8l.4-4.3z"/><path class="st327" d="M892 456c.2.4.2 1.1-.1 1.8-.2.7-.6 1.3-1 1.5M893.1 456.2c.2.4.2 1.1-.1 1.8-.2.7-.6 1.3-1 1.5M894.2 456.7c.2.4.2 1.1-.1 1.8-.2.7-.6 1.3-1 1.5M895.3 457.1c.2.4.2 1.1-.1 1.8-.2.7-.6 1.3-1 1.5M896.4 457.5c.2.4.2 1.1-.1 1.8-.2.7-.6 1.3-1 1.5"/><path class="st157" d="M918 408.1s-.5 23.6-15.3 28.3c-1.8.6-2.1 5.1 1.1 5.1 8.4-.1 19.3-12.3 17.8-27.9l-3.6-5.5z"/><path class="st28" d="M888.5 434.6c.9-1.5 3.6-1.5 6.2-.1 3.2 1.8 9.7 5.4 14.6 7.6 3 1.4 6.5-.1 7.7-3.1l2.6-6.7 17.1 8c2.2 3.3 1.4 6.3 4.2 9.9 6.3 8-17.2 3.8-17.2 3.8s-18.4 4.9-31-10.9c-.4-.5-.5-1.5-.5-2.6l-.6-.3c-2.5-1.5-4-4.1-3.1-5.6"/><path class="st28" d="M898.1 456.6c.8-.4 1.7-.7 2.4-.7 0 0 19.2-2.1 35.5-7.1 3.9-1.5 7.6-1 8.7 1.2 1.3 2.5-1.2 6.3-5.6 8.5-1.7.9-3.5 1.3-5 1.4 0 0-20.9 2.8-36.8 2.1h-.4c-.8-.1-1.4-.5-1.7-1-.6-1.3.7-3.3 2.9-4.4"/><path class="st28" d="M887.9 434.4c2.2-1.3 4.5-1.3 5.3 0 .2.3.2.6.2 1l24 29.2.1.1c.5.9-.3 2.5-2 3.4-1.5.9-3 .9-3.7.2l-26.2-29.1-.3-.3c-.8-1.2.4-3.3 2.6-4.5"/><defs><path id="SVGID_228_" d="M900 454h9.1v1.6H900z"/></defs><clipPath id="SVGID_50_"><use xlink:href="#SVGID_228_" style="overflow:visible"/></clipPath><g style="clip-path:url(#SVGID_50_)"><image style="overflow:visible" width="14" height="3" xlink:href="BF38A468.jpg" transform="matrix(.6473 0 0 .5467 900.025 454.049)"/></g><defs><path id="SVGID_230_" d="M906.2 461.8h9.5v1.6h-9.5z"/></defs><clipPath id="SVGID_51_"><use xlink:href="#SVGID_230_" style="overflow:visible"/></clipPath><g style="clip-path:url(#SVGID_51_)"><image style="overflow:visible" width="15" height="3" xlink:href="BF38A46B.jpg" transform="matrix(.6346 0 0 .5399 906.197 461.758)"/></g><path class="st52" d="m924.2 449.1-12.7 2.9-9.2-15.2z"/><defs><path id="SVGID_232_" d="M910.9 446.2h.1l4.9-1.1-5.4-3z"/></defs><clipPath id="SVGID_52_"><use xlink:href="#SVGID_232_" style="overflow:visible"/></clipPath><g style="clip-path:url(#SVGID_52_)"><defs><path id="SVGID_234_" transform="matrix(.07293 -.9973 .9973 .07293 403.626 1322.56)" d="M911 441.4h4.5v5.6H911z"/></defs><clipPath id="SVGID_53_"><use xlink:href="#SVGID_234_" style="overflow:visible"/></clipPath><g style="clip-path:url(#SVGID_53_)"><defs><path id="SVGID_236_" transform="matrix(.07294 -.9973 .9973 .07294 403.615 1322.555)" d="M910.6 441h5.3v6.3h-5.3z"/></defs><clipPath id="SVGID_54_"><use xlink:href="#SVGID_236_" style="overflow:visible"/></clipPath><g style="clip-path:url(#SVGID_54_)"><image style="overflow:visible" width="29" height="25" xlink:href="BF38A467.jpg" transform="matrix(.24 0 0 .24 909.695 441.107)"/></g></g></g><path class="st54" d="m913 450.8-1.3.3-1.5-.8 1.4-.2zM914.6 450.4l-1.2.3-1.4-.8 1.2-.3zM916.2 450l-1.3.2-1.4-.7 1.3-.3zM912.9 449.4l-1.3.3-1.4-.8 1.3-.3zM914.4 449l-1.3.2-1.3-.7 1.2-.3zM912.7 448l-1.3.3-1.4-.8 1.3-.3zM911.5 452.4l12.7-2.9v-.4l-12.7 2.9z"/><path class="st112" d="M918 442.6s-.4 3.3-1.4 3.5c-.6.1-4.6-.3-4.6-.3l-2.2-.6s.5-1.3 2.3-.6l1.6-1.2 4.3-.8z"/><path class="st157" d="m910.2 448.1.3-2.8 1.8-2.8-1.6.8s.2.8 0 1.1c-.5 1-.9 1.1-.9 1.1l-.1-3 2.7-1.7s3.1-.3 3.8 0c4.4 1.8 3.5 5.9 3.5 5.9s-1.8 2.7-4.3-1.9l-1.4 1.6-.3.9c-.2.4-.7.5-.7.5l.2-1.5 1.3-2.2-2.1 2.4s.1 1.7-.7 2.1l-.1-2.5 1.6-2.8-2 2.6s-.2 2.3-1 2.2"/><path class="st54" d="m911.5 452.4-1.8-19.3-21.4-12 1.9 19.3z"/><path class="st55" d="M900.5 436.7c-.1.6-.6.7-1 .3-.4-.4-.7-1.2-.6-1.7.1-.3.2-.5.4-.5-.5-.1-1 .2-1.1.9-.2.9.2 2.2 1 2.8.7.6 1.4.4 1.6-.6.1-.7-.1-1.5-.4-2.1.1.3.2.6.1.9"/><pattern id="SVGID_55_" xlink:href="#New_Pattern_Swatch_18" patternTransform="translate(-3987.691 -2792.106) scale(.4843)"/><path style="fill:url(#SVGID_55_)" d="M917.6 406.7c-.5 1.7-.8 3.7-.9 6.1 0 1.2-.7 2.4-2.3 4.7-.7.9.2 2.7 1.7 3 .6.1 1.2.5 1.3.9v.3c.1 1.3 2 2.3 4.3 2 2.2-.2 3.9-1.5 3.8-2.8 0 0-.1-8.3.7-12.9.1-.8 0-1.6-.4-2.2-.9-1.5-2.4-2.3-3.9-2.3-1.8-.1-3.7 1.1-4.3 3.2z"/><pattern id="SVGID_56_" xlink:href="#New_Pattern_Swatch_18" patternTransform="translate(-3987.691 -2792.106) scale(.4843)"/><path style="fill:url(#SVGID_56_)" d="M925.5 442.2c-3.2-1.9-5.5-4.4-6.4-6.8-.1-.2 0-.6 0-.9.1-.5.1-1.1.1-1.6l-1.3-25.7c0-.8.2-1.5.6-2.1.4-.5 1-1.1 1.7-1.5.7-.4 1.4-.7 2.1-.8.8-.1 1.5 0 2 .3l14.5 8.4c1.6.9 2.6 2.4 2.3 3.5 0 0-3 25.3-3.7 26.5-1.7 3-6.6 3.7-11.9.7"/><path class="st157" d="M925.3 411.6c0 2.3 5.9.3 6.9-2.7v-7.5h-7l.1 10.2"/><path class="st50" d="M933.3 401.5s-.5 1.4-.6 1.8c0 0-.2-.1-.2-.5 0 0-.1.9-.4 1.2l-.1-2.2 1.3-.3z"/><path class="st112" d="M925.3 407v-4.6l7 .2v2c-.6 1.7-2.5 3.6-5.6 3.1-.5-.2-1.1-.4-1.4-.7"/><path class="st157" d="M933.7 401c0-.8-.6-1.6-1.5-1.6h-.1l-.3-1.8c-.4-2.6-2.9-4.4-5.6-4-2.7.4-4.5 2.8-4.1 5.5l.6 4c.5 3.6 2.6 4 5 3.6 2.4-.4 4.1-2.2 4.5-4.3.8-.1 1.4-.6 1.5-1.4"/><path class="st50" d="M932.1 399.4s-4.3.1-7.4-4.1c0 0-1.8 1.8-2.6 3.9 0 0-1.7-4.9 3-5.3 3.5-1.4 6.5-1 7.6-.1 3.3 2.5 1.1 4.9.9 6.7 0 0-.4-1.1-1.5-1.1"/><path class="st157" d="M936.3 415.8c2.5-1.8 5.2 1.2 5.3 1.2 3.2 4.3 6.5 17.4.9 25.2-3.4 4.8-10.9 7.1-15.2 6.8-2.9-.2-6.6-.9-8.7-1.8-.8-.4.3-3.8.3-3.8 3 1.8 9.5 2 14.7-1 3.7-2.2 5-6.2 5.1-11.9 0-5.6-5.6-12.5-2.4-14.7"/><pattern id="SVGID_57_" xlink:href="#New_Pattern_Swatch_18" patternTransform="translate(-3987.691 -2792.106) scale(.4843)"/><path style="fill:url(#SVGID_57_)" d="M933.4 414.6c-.2.7-.2 1.5.1 2.3 1.8 4.3 3.4 12.5 3.4 12.5.2 1.3 2.1 2.2 4.3 1.9 2.2-.3 3.9-1.6 3.7-2.9v-.3c0-.4.5-.9 1.1-1.1 1.4-.6 1.9-2.5 1-3.3-2.1-1.9-3-3-3.3-4.1-.6-2.3-1.4-4.2-2.2-5.8-.9-1.6-2.4-2.4-4-2.4-1.6.1-3.4 1.2-4.1 3.2z"/><path class="st50" d="M922 401.5s-1.3-3.5.2-5.9l.3 2.1s-.2.6-.3 1.5c0 .4.1.9.2 1.5l-.4-.4v1.2zM932 399s.3 1.5-.4 2.7c0 0-.2-1.9-1.2-2.7h1.6z"/><circle class="st50" cx="930.5" cy="391.7" r="2.9"/><circle class="st50" cx="927.8" cy="393.6" r="1.6"/><circle class="st50" cx="933" cy="393.6" r=".9"/><circle class="st50" cx="928.7" cy="392" r="3.1"/><path class="st50" d="M887.1 454.3s-.4.4-.4.8c0 .2.2.8-.3 1.7-.3.6.2 1.1.2 1.1s-.8-.3-.8-1.4c-.1-1.1.6-1.8.6-1.8l.7-.4z"/></g><g><path style="fill:none;stroke:#c2d3eb;stroke-width:.6725;stroke-linejoin:round;stroke-miterlimit:10" d="M726.7 588.3v-43.1l54.6-30.1v43.1z"/><ellipse transform="rotate(-60.566 744.618 557.512)" class="st35" cx="744.6" cy="557.5" rx="18.3" ry="10.5"/><path d="m746.7 557.5-2.2 15c-7.1 4.1-12.8.7-12.8-7.5 0-5 2.1-10.7 5.4-15.3l9.6 7.8z" style="opacity:.8;fill:#fff"/><path class="st51" d="M735.2 573.2c2.3 1.6 5.7 1.5 9.4-.7l2.2-15-11.6 15.7z"/><path class="st35" d="M761.9 539.7v-2.6l15.3-8.6v2.6zM761.9 545.7v-2.6l15.3-8.6v2.6zM761.9 552.2v-2.6l15.3-8.6v2.6zM761.9 558.2v-2.6l15.3-8.6v2.6z"/></g><g class="st97"><path class="st335" d="m1003.2 328.2-.1-61.3-79.1-45.6v61.4z"/><path class="st35" d="m1003.2 271.2-.1-4.3-79.1-45.6v4.4zM960.6 263.8l-.1-3.2-6.6-3.9v3.3zM950.5 258l-.1-3.3-6.6-3.8v3.3zM940.5 252.5v-3.3l-6.7-3.8v3.2zM993.2 309.6v-30.4L967 264.1v30.4zM959.2 290.6v-22.1L933 253.4v22.1z"/></g><g><path style="opacity:.5;fill:#fff" d="M1056.5 350.4v-72.8l106.5-61.7v72.9z"/><path class="st114" d="m1104.1 260.9-35.1 20.2v32l35.1-20.2z"/><path d="M1136 251.7c-3.9 3.3-6.7 8.1-7.4 13.2-.2 1.8-.4 4 .8 5.5.6.7 1.6.9 2.5.7 2.6-.5 4.8-2.4 6.5-4.5 3.2-3.7 5.5-8.5 5.4-13.3 0-1.3-.2-2.9-1.4-3.7-.4-.3-.8-.4-1.3-.4-1.7.1-3.6 1.3-5.1 2.5zm5.2-9.5c1.7 0 3.4.4 4.8 1.3 3.5 2.1 4.9 6.3 4.9 10.2v.1c0 1.7-.3 3.5-.7 5.2-2 8.3-8.5 17.7-17.3 19.1-2.8.5-5.7-.2-7.8-2-2.8-2.4-3.9-6.2-3.8-9.9.2-7.4 3.9-14.6 9.5-19.6 2.8-2.5 6.4-4.5 10.2-4.6.1.2.1.2.2.2z" style="opacity:.8;fill-rule:evenodd;clip-rule:evenodd;fill:#c2d3eb"/><path class="st100" d="M1142.4 249.6s-.7-.3-1.2-.3c-1.8 0-3.7 1.2-5.2 2.4l-5.1-5m0 .1c2.8-2.5 6.4-4.5 10.2-4.6h.2c1.7 0 3.4.4 4.8 1.3l-3.7 6.1"/><path d="M1130.9 246.8c-5.5 4.9-9.3 12.1-9.5 19.6 2.5-.4 4.8-.9 7.2-1.3.7-5.1 3.5-10 7.4-13.2l-5.1-5.1z" style="opacity:.8;fill-rule:evenodd;clip-rule:evenodd;fill:#dfe9f8"/><path class="st114" d="m1128.9 291.8-9.4 5.4v6.9l9.4-5.4z"/><path class="st100" d="m1139.5 285.4-9.5 5.5v6.9l9.5-5.5z"/><path class="st114" d="m1150.8 279.2-9.2 5.3v6.9l9.2-5.3z"/><g><defs><path id="SVGID_241_" d="m1104.1 260.9-35.1 20.2v32l35.1-20.2z"/></defs><clipPath id="SVGID_58_"><use xlink:href="#SVGID_241_" style="overflow:visible"/></clipPath><path style="clip-path:url(#SVGID_58_);fill-rule:evenodd;clip-rule:evenodd;fill:none;stroke:#fff;stroke-width:.6554;stroke-miterlimit:10" d="M1104.9 276.5s-3.2-4.1-8.2-.4c-5.2 3.8-5.4 10.7-10.8 16-5.4 5.3-10.9.3-17.6 4.2"/><path style="clip-path:url(#SVGID_58_);fill-rule:evenodd;clip-rule:evenodd;fill:none;stroke:#fff;stroke-width:.2622;stroke-miterlimit:10" d="M1099.7 296v-34.1M1094.7 299.8v-34.1M1089.8 301.8v-34.1M1084.5 305.1l.1-34.1M1079.3 308.2v-34.1M1074.1 311.4v-34.1"/></g></g><path class="st335" d="M1236.1 453.4v-37.1l48-27.6v37.1z"/><g><path class="st340" d="M1056.5 256.4V228l91.2-52.5v28.4z"/><path style="fill:none;stroke:#fff;stroke-width:.6583;stroke-linecap:round;stroke-linejoin:round;stroke-miterlimit:10" d="m1059.3 241.4 5.3-7.9 3.9.1 9.3-6.3 9.9-11.7 6.5 1.2 14.5-2.8 9.3-13.7 15.4 3 5.5-8.6h3.1l2.5-.6"/><path style="fill:none;stroke:#c2d3eb;stroke-width:.6583;stroke-linecap:round;stroke-linejoin:round;stroke-miterlimit:10" d="m1059.7 248.9 3.9-2.1 8.5-5.1.4-18.1 6.4 15.1 4.1-6.3 6.4-10.3h7.6l.5-7.6 8.5 3.5 6.8-1.9 5.6-6.4 9.7-3.7 1.5-7.9 8.6 2.7 7-.6"/></g><path class="st340" d="M1060.8 528.9v-21.3l27.6-15.9v21.4z"/><path style="opacity:.4;fill:none;stroke:#fff;stroke-miterlimit:10" d="m1073.9 559.4.1-27.8 35.8-20.6v27.8z"/></g></svg>