<?xml version="1.0" encoding="UTF-8"?> <svg xmlns="http://www.w3.org/2000/svg" xmlns:xlink="http://www.w3.org/1999/xlink" viewBox="0 0 280 245"><defs></defs><style>.st3{fill:#c2d3eb}.st7{stroke:#f3f3f6;stroke-width:.7;stroke-linecap:round;stroke-linejoin:round}.st11,.st7,.st8{fill:none;stroke-miterlimit:10}.st8{stroke-linecap:round;opacity:.5;stroke:#f3f3f6;stroke-width:.7;stroke-linejoin:round}.st11{opacity:.8;stroke:#dfe9f8;stroke-width:.2751;stroke-linejoin:bevel}.st14{fill:#462ad3}.st15{fill:#eba072}.st16{fill:#fff}.st18{fill:#0c074c}.st19{fill:#ffc398}.st20{fill:#5333ed}</style><g id="sdw"><linearGradient id="SVGID_1_" gradientUnits="userSpaceOnUse" x1="-238.37" y1="158.769" x2="-278.353" y2="228.022" gradientTransform="matrix(-1 0 0 1 -68.306 0)"><stop offset="0" stop-color="#c2d3eb"></stop><stop offset="1" stop-color="#c2d3eb" stop-opacity="0"></stop></linearGradient><path opacity=".4" fill="url(#SVGID_1_)" d="M122.6 186.4l79.6 44.5 55.4-30.3-79.5-46.5z"></path></g><g id="safe"><path fill="#dfe9f8" d="M179.9 83.9l-54.3-31.3-55.4 32.1v71.4l54.3 31.3 55.4-32.2z"></path><path fill="#acc3e5" d="M124.5 116L70.2 84.7l.1 71.4 54.2 31.3z"></path><path class="st3" d="M179.9 83.9v71.4l-55.4 32.1V116z"></path><path fill="none" stroke="#c2d3eb" stroke-width=".227" stroke-linejoin="round" stroke-miterlimit="10" d="M177.3 89.5v63.6l-49.4 28.7v-63.6z"></path><ellipse transform="rotate(-60.012 157.586 132.9)" cx="157.6" cy="132.9" rx="20.7" ry="12" fill-rule="evenodd" clip-rule="evenodd" fill="#abc1dd"></ellipse><path d="M153.9 97.2c.5-.3.9-.1.9.5s-.4 1.2-.9 1.5c-.5.3-.9.1-.9-.5.1-.5.5-1.2.9-1.5z" opacity=".3" fill="none" stroke="#f3f3f6" stroke-width=".7" stroke-linecap="round" stroke-linejoin="round" stroke-miterlimit="10"></path></g><g id="circle-1"><path class="st7" d="M145 119.4c3.3-4.5 7.3-8.3 11.6-10.8 11.6-6.7 21-1.3 21 12.1s-9.4 29.7-21 36.4c-11.6 6.7-21 1.3-21-12.1 0-6.3 2.1-13.3 5.5-19.6"></path><path class="st7" d="M141.7 123.6c.4-.2.7 0 .7.4 0 .5-.3 1.1-.7 1.3-.4.2-.7 0-.7-.4s.3-1 .7-1.3zM144.4 119.5c.4-.2.7 0 .7.4 0 .5-.3 1.1-.7 1.3-.4.2-.7 0-.7-.4-.1-.4.2-1 .7-1.3z"></path></g><g id="circle-2"><path class="st8" d="M140.6 166.2c.5-.3.9-.1.9.5s-.4 1.2-.9 1.5c-.5.3-.9.1-.9-.5s.4-1.2.9-1.5z"></path><path class="st8" d="M139.8 167c-6.3-2.1-10.4-8.7-10.4-18.7 0-17.4 12.2-38.5 27.2-47.2 15-8.7 27.2-1.6 27.2 15.7s-12.2 38.5-27.2 47.2"></path></g><g id="lock"><path d="M156.8 122.8c2.4-1.4 4.6-1.6 6.1-.6 1.4.9 3 1.9 3 1.9l-11.8 20.5s-1.6-1-3.1-1.9c-1.6-.9-2.5-2.8-2.5-5.5-.1-5.2 3.7-11.7 8.3-14.4z" fill-rule="evenodd" clip-rule="evenodd" fill="#c2d3eb"></path><defs><path id="SVGID_2_" d="M156.8 122.8c2.4-1.4 4.7-1.6 6.2-.6 1.4.9 2.9 1.9 2.9 1.9l-11.8 20.5s-1.6-1-3.1-1.9c-1.6-.9-2.5-2.8-2.5-5.5-.1-5.2 3.7-11.7 8.3-14.4z"></path></defs><clipPath id="SVGID_3_"><use xlink:href="#SVGID_2_" overflow="visible"></use></clipPath><g clip-path="url(#SVGID_3_)"><path class="st11" d="M150 130.7l3.5 1.7M151.2 128.5l3.4 1.9M154.7 124.4l2.9 2.6M148.4 135.7l3.8 1.3M158.9 121.7l2.9 2.6M148.8 140.7l3.9 1.7M152.8 126.3l3.1 2.3M149 133.1l3.6 1.6M156.5 122.6l3.1 2.8M148.4 138.3l3.7 1.2M149.9 145.6l3.9 1.7M150.9 148.6l3.9 1.7M149.7 143.6l3.7 1.2M161.3 121.5l3 2.3"></path></g><path d="M160 124.7c4.6-2.7 8.4-.5 8.4 4.8s-3.8 11.8-8.4 14.5c-4.6 2.7-8.4.5-8.4-4.8s3.8-11.8 8.4-14.5z" fill-rule="evenodd" clip-rule="evenodd" fill="#dfe9f8"></path></g><g id="legs"><linearGradient id="SVGID_4_" gradientUnits="userSpaceOnUse" x1="-270.531" y1="169.259" x2="-298.637" y2="217.94" gradientTransform="matrix(-1 0 0 1 -68.306 0)"><stop offset="0" stop-color="#c2d3eb"></stop><stop offset="1" stop-color="#c2d3eb" stop-opacity="0"></stop></linearGradient><path opacity=".5" fill="url(#SVGID_4_)" d="M177.7 183.4l55.4 32 21.8-11.6-55.5-32z"></path><path class="st14" d="M206.4 195.2s.2.8-.1 1.3c-.3.5-1.7 1.8-5.3.4-3.6-1.3-9-4.6-9-4.6s-.7-.3-.5-1.3c.1-1-.3-2.8-.3-2.8s1.2-2.5 1.7-2.5c0 0 .9-.8 2.3-.4l3.5 5.5 7.7 4.4z"></path><path class="st15" d="M184.3 187.6l8.3 4.5s-.9-1-1-3c-.1-2 1.2-3.3 1.2-3.3l-6.1-2.7-2.5 2.6v1.9z"></path><path class="st16" d="M205.7 193.1s-4.7-2-5.7-3.4-2.4-4-2.4-4c-.2-.4-.9-.7-1.7-.7-1 0-1.7.4-1.8 1v1.1s-.4 1.7 2.2 5.1c2.6 3.3 6.9 3.8 6.9 3.8.3.1.7.2 1 .2 1.2 0 2.1-.5 2.1-1.2v-1c.2-.3-.1-.6-.6-.9"></path><path class="st14" d="M219.6 187.2s.2.8-.1 1.3c-.3.5-1.7 1.8-5.3.4-3.6-1.3-9-4.6-9-4.6s-.7-.3-.5-1.3-.3-2.8-.3-2.8 1.2-2.5 1.7-2.5c0 0 .9-.8 2.3-.4l3.5 5.5 7.7 4.4z"></path><path class="st15" d="M197.5 179.6l8.3 4.5s-.9-1-1-3c-.1-2 1.2-3.3 1.2-3.3l-6.1-2.7-2.5 2.6v1.9z"></path><path d="M208.1 170.5c-.8-2.5-1.6-6.5-2.3-8.5-.8-2-1.1-1.9-1.1-1.9l-17.8 1.5-9.1-3.4c-1.5-.5-5.7 2.6-4.7 5.2.8 2.1 3.7 3.4 6.3 4.2-4.9-.9-11.8-2-13.2-1.1-2.5 1.8-3 5.3-2.1 7 1.2 2.2 14.5 12.7 24.9 16.6 0 0-2.5-2.4-1.3-6.3l1.6.9c2.1 1 6.5 1 11.7-2 5.9-3.2 8.3-8.4 7.1-12.2" fill="#150773"></path><path class="st18" d="M187.7 183.9s-3.3-2.5-7.5-3.5-12.3-6.2-12.3-6.2l.1.5s6.4 5.4 12 6.6c0 0 3 1 4 1.8 1.1.8 3.4 2.8 3.4 2.8 0-1.3.3-2 .3-2"></path><path class="st14" d="M211.9 182.9l-3.5-5.5c-1.4-.4-2.3.4-2.3.4s-1.3 1.3-1.2 3.3c.1 2 1 3 1 3l6-1.2z"></path><path class="st16" d="M218.9 185.1s-4.7-2-5.7-3.4-2.4-4-2.4-4c-.2-.4-.9-.7-1.7-.7-1 0-1.7.4-1.8 1v1.1s-.4 1.7 2.2 5.1c2.6 3.3 6.9 3.8 6.9 3.8.3.1.7.2 1 .2 1.2 0 2.1-.5 2.1-1.2v-1c.2-.3-.1-.6-.6-.9"></path><path class="st3" d="M206.5 194.1s-.4.9-2 .8c-1.6 0-3.8 0-6.6-2.6-2.8-2.7-3.5-5.8-3.7-6.2v1.4s-.1 1.1 1.1 3.1c1.1 2 2.8 4.1 6.8 5.3 4 1.2 4.4-.6 4.4-.6.1-.2 0-1.2 0-1.2M219.7 186.1s-.4.9-2 .8c-1.6 0-3.8 0-6.6-2.6-2.8-2.7-3.5-5.8-3.7-6.2v1.4s-.1 1.1 1.1 3.1c1.1 2 2.8 4.1 6.8 5.3 4 1.2 4.4-.6 4.4-.6v-1.2"></path><path class="st18" d="M179.5 167.7s3.3 1.1 6 1.2c0 0 1.5-.1 2-.4 0 0 .3-.7.3-.9 0 0-3.1.6-10.1-.4l1.8.5z"></path></g><g id="r-arm"><path class="st19" d="M174 129.9s-2.2 1.2-3.8.9l-2 .2s.2.7-.5 2.1l-1.1-3 1.6-1.4s-.6-2-.7-2.6c-.2-.7.5-.4 1 .1s3.8.8 4.9 1.4c1.2.5.6 2.3.6 2.3z"></path><path class="st19" d="M173.6 127.8s12.5 11.9 20.6 6l1.2 6.8s-12.2 5.3-23-10.1l1.2-2.7z"></path></g><g id="l-arm"><path class="st19" d="M179.9 149.9s-5.7 3.8-11 5c-4.2 1-6.5-.1-9.9-3.9-3.4-3.8-4.9-10.1-4.9-10.1s1.1-2.9 2.1-1.7c1.4 1.5 7.2 10.7 8.7 10.7s10.8-5.6 10.8-5.6l4.2 5.6z"></path><path class="st20" d="M169.2 146.1l9.9-6.1 4.9 8.9-8.2 5.4c-1.3 1-3.8.1-5.7-2.2-1.8-2.2-2.2-4.9-.9-6"></path><path class="st19" d="M156.6 139.7s.9 2.6-2 1.7c0 0-3.3-1.8-4.7-3.2l-1.7.4.3.5.1.4s-1.7-1-1.2-1.5l2.4-1-1.8.5.1.8-.3-.1h-.4l-.2-1.6 3-.7-2.2.3.6.8-.6.2-1-1.6 3.9-.8-2.3-.2.5 1.8-.9-.7-.4-1.8 3.9-.1s4 4.8 4.9 5.9"></path></g><path fill="#0c022f" d="M172.5 116.3v-.1z" id="head"></path><g id="u-body"><path class="st20" d="M179.3 139.7c.1 0 16.2-9.4 16.2-9.4.5-.4 1.3-.5 2.2-.3.7.1 1.5.4 2.3.8.8.5 1.5 1.1 1.9 1.7.5.7.7 1.5.7 2.4l2.9 22.9c.3 3.1-2.5 7.2-7.2 9.8-5.5 3.2-11.5 3.2-13.3 0-.4-.6-.5-1.4-.5-2.1l-7.9-21.9c-.2-1.2.9-2.8 2.7-3.9"></path><path class="st19" d="M192.9 133.7l-2.7-4.8-3.9-.4c-1.1-3.2-2.4-6.9-2.4-6.9-.1-.1-5.3 2.2-5.3 2.2l2.6 7.5c.5 1 1.6 1.6 2.7 1.7h1.1c.9 2 1.7 4 1.8 4.1.4 1 2.1 1.2 3.8.5 1.4-.6 2.7-2 2.6-3 0-.3-.3-.9-.3-.9z"></path><path d="M191.1 118.3c-1.9-2.9-5.8-4-9-2.4-1.2.6-2.2 1.5-2.9 2.6v.1c-.4.1-1.6 1.1-1.9 1.4-.7 1-.4 1.9-.3 2.6.5 2.2 2.7 3.1 2.7 3.1.3.4.9 2.1 1.3 2.4.2.1.3.1.4.1l-.3-1.1v-.1c0-.4.6-.8 1.4-.7.6 0 1.1.3 1.3.6.5.8.6 1.6.7 2.2 1 .2 2.6.6 4.5 1.2.2.1 1.4-1.3 1.5-1.6.5-1.1 1.1-3.1 1.4-4.3v-.2c.5-2.1.2-4.1-.8-5.9z" fill="#120667"></path></g></svg> 