<?xml version="1.0" encoding="UTF-8"?> <svg xmlns="http://www.w3.org/2000/svg" viewBox="0 0 1440 800"><defs></defs><linearGradient id="a" gradientUnits="userSpaceOnUse" x1="1054.192" y1="1116.962" x2="394.526" y2="-297.695"><stop offset="0" stop-color="#b6d3ef"></stop><stop offset=".26" stop-color="#d0e1f5"></stop><stop offset=".456" stop-color="#dfe9f8"></stop><stop offset="1" stop-color="#fff"></stop></linearGradient><path fill="url(#a)" d="M0 .6h1440V800H0z"></path><linearGradient id="b" gradientUnits="userSpaceOnUse" x1="5.637" y1="2.668" x2="6.5" y2="3.937"><stop offset=".149" stop-color="#5333ed" stop-opacity="0"></stop><stop offset="1" stop-color="#5333ed" stop-opacity=".3"></stop></linearGradient><path fill="url(#b)" d="M12.6 0h-1.8L7.9 1.7 0 6.3v1.1l8.8-5.2z"></path><linearGradient id="c" gradientUnits="userSpaceOnUse" x1="408.476" y1="-68.016" x2="1051.64" y2="877.936"><stop offset=".149" stop-color="#5333ed" stop-opacity="0"></stop><stop offset="1" stop-color="#5333ed" stop-opacity=".2"></stop></linearGradient><path d="M1400.8 18.8l26.8-15.6 5.5-3.2h-1.9l-4.5 2.6-26.8 15.6L1373 2.6l-4.5-2.6h-1.9l5.4 3.2 26.8 15.6-26.8 15.6-26.7 15.6-26.8-15.6-26.8-15.6 26.8-15.6 5.4-3.1h-1.9l-4.4 2.6-26.8 15.6L1264 2.7l-4.3-2.5h-1.9l5.3 3.1 26.8 15.6-26.8 15.6-26.8 15.6-26.8-15.6-26.8-15.6L1209.3 3l5.2-3h-1.9l-4.3 2.5-26.8 15.6-26.8-15.6-4.2-2.5h-1.9l5.2 3 26.8 15.6-26.8 15.6-26.8 15.6-26.8-15.6-26.8-15.6L1100.2 3l5.1-3h-1.9l-4.2 2.4-26.8 15.6-26.8-15.6-4.1-2.4h-1.9l31.9 18.6-26.8 15.6-26.8 15.6L991 34.1l-26.8-15.6L991 2.9l5-2.9h-1.9l-4 2.3-26.8 15.6-26.8-15.6-4-2.3h-1.9l4.9 2.9 26.8 15.6-26.8 15.6-26.8 15.6-26.8-15.6-26.8-15.6 26.8-15.6 4.9-2.8h-1.9L881 2.4 854.2 18 823.5 0h-1.9l4.8 2.8 26.8 15.6L826.4 34l-26.8 15.6L772.8 34 746 18.4l26.8-15.6 4.7-2.8h-1.9l-3.8 2.2L745 17.8 718.2 2.2 714.5 0h-1.9l4.7 2.7 26.8 15.6-26.8 15.6-26.8 15.6-26.8-15.6-26.8-15.6 26.8-15.6 4.6-2.7h-1.9l-3.7 2.1-26.8 15.6L609 2.1 605.5 0h-1.9l4.5 2.6 26.8 15.6-26.8 15.6-26.8 15.6-26.8-15.6-26.8-15.6 26.8-15.6L559 0h-1.9l-3.5 2.1-26.8 15.6L499.9 2l-3.5-2h-1.9l4.4 2.6 26.8 15.6L499 33.8l-26.8 15.6-26.8-15.6-26.8-15.6 26.8-15.6 4.4-2.5h-1.9l-3.4 2-26.8 15.6-26.9-15.8-3.4-1.9h-1.9l31.1 18.1-26.8 15.6L363 49.3l-26.8-15.6-26.8-15.6 26.8-15.6 4.2-2.5h-1.9l-3.3 1.9-26.8 15.6-26.8-15.6-3.2-1.9h-1.9l4.2 2.4L307.5 18l-26.8 15.6-26.8 15.6-26.8-15.6L200.3 18l26.8-15.6 4.1-2.4h-1.9l-3.2 1.8-26.8 15.6L169.4 0h-1.9l4 2.3L198.4 18l-53.6 31.2L118 33.6 91.1 17.9l26.8-15.6 4-2.3H120l-3 1.8-26.8 15.6L63.4 1.7l-3-1.7h-1.9l3.9 2.3 26.8 15.6-26.8 15.6-26.8 15.6L8.8 33.5 0 28.3v1.1L7.9 34l26.8 15.6L7.9 65.2 0 69.8v1.1l8.8-5.1 26.8-15.6 26.8 15.6 26.8 15.6-26.8 15.7-26.8 15.6L8.8 97 0 91.9V93l7.9 4.6 26.8 15.6-26.8 15.6-7.9 4.6v1.1l8.8-5.1 26.8-15.6 26.8 15.6L89.3 145l-26.8 15.6-26.8 15.6-26.9-15.6-8.8-5.2v1.1l7.9 4.6 26.8 15.6-26.8 15.6-7.9 4.6v1.1l8.9-5.2 26.8-15.6 26.8 15.6 26.8 15.6L62.5 224l-26.8 15.6-26.8-15.5L0 219v1.1l7.9 4.6 26.8 15.6-26.8 15.6-7.9 4.6v1.1l8.9-5.2 26.8-15.6 26.8 15.6L89.3 272l-26.8 15.6-26.8 15.6-26.8-15.5-8.9-5.2v1.1l7.9 4.6 26.8 15.6L8 319.4 0 324v1.1l8.9-5.2 26.8-15.6L62.5 320l26.8 15.6-26.8 15.6-26.8 15.6-26.8-15.6L0 346v1.1l8 4.6 26.8 15.6L8 383l-8 4.6v1.1l8.9-5.2L35.7 368l26.8 15.6 26.8 15.6-26.8 15.6-26.8 15.6-26.8-15.6-8.9-5.2v1.1l8 4.7L34.8 431 8 446.5l-8 4.6v1.1l8.9-5.2 26.8-15.6L62.5 447l26.8 15.6-26.8 15.6L35.8 494 8.9 478.3 0 473.1v1.1l8 4.7 26.8 15.6L8 510.1l-8 4.7v1.1l9-5.2 26.8-15.6 26.8 15.6 26.8 15.6-26.8 15.6-26.8 15.6L9 541.9l-9-5.2v1.1l8 4.7 26.8 15.6L8 573.7l-8 4.7v1.1l9-5.2 26.8-15.6 26.8 15.6 26.8 15.6-26.8 15.6-26.8 15.6L9 605.4l-9-5.2v1.1l8 4.7 26.8 15.6L8 637.2l-8 4.7v1.1l9-5.2 26.8-15.6 26.8 15.6 26.8 15.6L62.6 669l-26.8 15.6L9 669l-9-5.2v1.1l8.1 4.7 26.8 15.6-26.8 15.6-8.1 4.7v1.1l9-5.2 26.8-15.6 26.8 15.6L89.5 717l-26.8 15.6-26.8 15.6L9 732.5l-9-5.3v1.1l8.1 4.7 26.8 15.6-26.8 15.7L0 769v1.1l9-5.3 26.8-15.6 26.8 15.6 26.8 15.6L62.6 796l-6.6 4h1.9l5.7-3.3 26.8-15.6 26.8 15.6 5.6 3.3h1.9l-6.6-3.8-26.8-15.6 26.8-15.6 26.8-15.6 26.8 15.6 26.8 15.6-26.8 15.6-6.5 3.8h1.9l5.6-3.3 26.8-15.6 26.8 15.6 5.5 3.2h1.9l-6.5-3.8-26.8-15.6 26.8-15.6 26.8-15.6 26.8 15.6 26.8 15.6-26.8 15.6-6.4 3.7h1.9l5.5-3.2 26.8-15.6 26.8 15.6 5.4 3.1h1.9l-6.3-3.7-26.8-15.6 26.8-15.6 26.8-15.6 26.8 15.6 26.8 15.6L390 796l-6.3 3.7h1.9l5.3-3.1 26.8-15.6 26.8 15.6 5.3 3.1h1.9l-6.2-3.6-26.8-15.6 26.8-15.6 26.8-15.6 26.8 15.6 26.8 15.6-26.8 15.6-6.1 3.9h1.9l5.2-3 26.8-15.6 32 18.6h1.9l-6.1-3.6-26.8-15.6 26.8-15.6 26.8-15.6 26.8 15.6 26.8 15.6-26.8 15.6-6 3.5h1.9l5.1-3 26.8-15.6 31.8 18.6h1.9l-6-3.5-26.8-15.5 26.8-15.6 26.8-15.6 26.8 15.6 26.8 15.6-26.8 15.6-5.9 3.4h1.9l5-2.9 26.8-15.6L772 797l4.9 2.9h1.9l-5.8-3.4-26.8-15.5 26.8-15.6 26.8-15.6 26.8 15.6 26.8 15.6-26.8 15.6-5.8 3.4h1.9l4.8-2.8 26.8-15.6 26.8 15.6 4.8 2.8h1.9l-5.7-3.3-26.8-15.7 26.8-15.6 26.8-15.6 26.8 15.6 26.8 15.6-26.8 15.6-5.7 3.3h1.9l4.7-2.7 26.8-15.6 26.8 15.6 4.6 2.7h1.9L964.3 781l26.8-15.6 26.8-15.6 26.8 15.6 26.8 15.6-26.8 15.6-5.5 3.2h1.9l4.6-2.7 26.8-15.6 26.8 15.6 4.5 2.6h1.9l-5.5-3.2-26.8-15.6 26.8-15.6 26.8-15.6 26.8 15.6 26.8 15.6-26.8 15.6-5.4 3.1h1.9l4.5-2.6 26.8-15.6L1213 800h1.9l-5.3-3.1-26.8-15.6 53.6-31.2 26.8 15.6 26.8 15.6-26.8 15.6-5.3 3.1h1.9l4.3-2.5 26.8-15.6 26.8 15.6 4.3 2.5h1.9l-5.2-3-26.8-15.6 26.8-15.6 26.8-15.6 26.8 15.6 26.8 15.6-26.8 15.6-5.2 3h1.9l4.2-2.5 26.8-15.6 26.8 15.6 4.1 2.4h1.9l-5.1-3-26.8-15.6 26.8-15.6 12.2-7.1v-1.1l-13.1 7.6-26.8 15.6-26.8-15.6-26.8-15.6 26.8-15.6 26.8-15.6 40 23.3v-1.1l-12.2-7.1-26.8-15.6 26.8-15.6 12.2-7.1V694l-40 23.3-26.8-15.6-26.8-15.6 26.8-15.6 26.8-15.6 26.8 15.6 13.2 7.7v-1.1l-12.2-7.1-26.8-15.6 26.8-15.6 12.2-7.1v-1.1l-13.2 7.7-26.8 15.6-26.8-15.6-26.8-15.6 26.8-15.6 26.8-15.6 26.8 15.6 13.2 7.7v-1.1l-12.2-7.1L1401 591l26.8-15.6 12.3-7.1v-1.1l-13.2 7.7-26.8 15.6-26.8-15.6-26.8-15.6 26.8-15.6 26.8-15.6 40 23.3V550l-12.3-7.1-26.8-15.6 26.8-15.6 12.3-7.1v-1.1l-40 23.3-26.8-15.6-26.8-15.6 26.8-15.6 26.8-15.6 26.8 15.6 13.2 7.7v-1.1l-12.3-7.2-26.8-15.6 26.8-15.6 12.3-7.2v-1.1l-13.2 7.7-26.8 15.6-26.8-15.6-26.8-15.6 26.8-15.6 26.8-15.6 26.8 15.6 13.2 7.7V423l-12.3-7.2-26.8-15.6 26.8-15.6 12.3-7.2v-1.1l-13.3 7.7-26.8 15.6-26.8-15.6-26.8-15.6 26.8-15.6 26.8-15.6 26.8 15.6 13.3 7.7v-1.1l-12.3-7.2-26.8-15.6 26.8-15.6 12.3-7.2v-1.1l-13.3 7.7L1400 336l-26.8-15.6-26.8-15.6 26.8-15.6 26.8-15.6 26.8 15.6 13.3 7.7v-1.1l-12.3-7.2L1401 273l26.8-15.6 12.4-7.2v-1.1l-13.3 7.7-26.8 15.6-26.8-15.6-26.8-15.6 26.8-15.6 26.8-15.6 26.8 15.6 13.3 7.8v-1.1l-12.4-7.2-26.8-15.6 26.8-15.6 12.4-7.2v-1.1l-13.3 7.7-26.8 15.6-26.8-15.6-26.8-15.6L1373 162l26.8-15.6 26.8 15.6 13.3 7.8v-1.1l-12.4-7.2-26.8-15.6 26.8-15.6 12.4-7.2V122l-13.3 7.8-26.8 15.6-26.8-15.6-26.8-15.6 26.8-15.6 26.8-15.6 26.8 15.6 13.3 7.8v-1.1l-12.4-7.2-26.8-15.6 26.8-15.6 12.4-7.2v-1.1l-13.4 7.8-26.8 15.6-26.7-15.8-26.8-15.6L1373 35l26.8-15.6 26.8 15.6 13.4 7.8v-1.1l-12.4-7.2-26.8-15.7zm-136.9 16.1l26.8-15.6 26.8 15.6 26.8 15.6-26.8 15.6-26.8 15.6-26.8-15.6-26.8-15.6 26.8-15.6zM416.8 399.4L390 415l-26.8 15.6-26.9-15.6-26.8-15.6 26.8-15.6 26.8-15.6 53.7 31.2zm-52.7-31.8l26.8-15.6 26.8-15.6 26.8 15.6 26.8 15.6-26.8 15.6-26.8 15.6-26.8-15.6-26.8-15.6zm26.8 48l26.8-15.6 26.8 15.6 26.8 15.6-26.8 15.6-26.8 15.6-26.8-15.6-26.8-15.6 26.8-15.6zm54.6-.5l-26.8-15.6 26.8-15.6 26.8-15.6 26.8 15.6 26.8 15.6-26.8 15.6-26.8 15.6-26.8-15.6zm27.7-47.4l26.8-15.6 26.8-15.6 26.8 15.6 26.8 15.6-26.8 15.6-26.8 15.7-26.8-15.7-26.8-15.6zm53.6 32.4l26.8 15.6 26.8 15.6-26.8 15.6-26.8 15.6-53.6-31.3 53.6-31.1zm27.8 15l-26.8-15.6 26.8-15.6 26.8-15.6 26.8 15.6 26.8 15.6-26.8 15.6-26.8 15.6-26.8-15.6zm27.7-47.3l26.8-15.6 26.8-15.6 26.8 15.6 26.8 15.6-26.8 15.6L636 399l-26.8-15.6-26.9-15.6zm26.9 47.9l26.8-15.6 26.8 15.6 26.8 15.6-26.8 15.7-26.8 15.6-53.6-31.3 26.8-15.6zm54.5-.5l-26.8-15.6 26.8-15.6 26.8-15.6 26.8 15.6 26.8 15.6-26.8 15.6-26.8 15.6-26.8-15.6zm27.8-47.4l26.8-15.6 26.8-15.6 26.8 15.6 26.8 15.6-26.8 15.6-26.8 15.6-26.8-15.6-26.8-15.6zm26.8 48l26.8-15.6 26.8 15.6 26.8 15.6-26.8 15.6-26.8 15.6-26.8-15.6-26.8-15.6 26.8-15.6zm54.6-.5l-26.8-15.6 26.8-15.6 26.8-15.6 26.8 15.6 26.8 15.6-26.8 15.6-26.8 15.6-26.8-15.6zm27.7-47.4l26.8-15.6 26.8-15.6 26.8 15.6 26.8 15.6-26.8 15.6-26.8 15.6-53.6-31.2zm53.7 32.4l26.8 15.6 26.8 15.6-26.8 15.6-26.8 15.6-26.8-15.6-26.8-15.6 53.6-31.2zm27.7 15.1l-26.8-15.6 26.8-15.6 26.8-15.6 26.8 15.6 26.8 15.6-26.8 15.6-26.8 15.6-26.8-15.6zm27.8-47.4l26.8-15.6 26.8-15.6 26.8 15.6L1017 368l-26.8 15.6-26.8 15.6-26.8-15.6-26.8-15.6zm26.8 47.9l26.8-15.6 26.8 15.6 26.8 15.6-26.8 15.6-26.8 15.6-26.8-15.6-26.8-15.6 26.8-15.6zm27.7-16.1l26.8-15.6 26.8-15.6 53.6 31.3-26.8 15.6-26.8 15.6-53.6-31.3zm81.4 16.2l26.8-15.6 26.8 15.6 26.8 15.6-26.8 15.6-26.8 15.6-26.8-15.6-26.8-15.6 26.8-15.6zm26.8-16.7l-26.8-15.6-26.8-15.6 53.6-31.2 26.8 15.6 26.8 15.6-26.8 15.6-26.8 15.6zm-53.6-94.8l26.8-15.6 26.8-15.6 26.8 15.6 26.8 15.6-26.8 15.6-26.8 15.6-53.6-31.2zm25.8 16.2l26.8 15.6-53.6 31.2-26.8-15.6-26.8-15.6 26.8-15.6 26.8-15.6 26.8 15.6zm-54.5-.6l-26.8 15.6-26.8-15.6-26.8-15.6 26.8-15.6 26.8-15.6 26.8 15.6 26.8 15.6-26.8 15.6zm-54.6.5l26.8 15.6-26.8 15.6-26.8 15.6-26.8-15.6-26.8-15.6 26.8-15.6 26.8-15.6 26.8 15.6zM881 320l-26.8 15.6-26.8-15.6-26.8-15.6 26.8-15.6 26.8-15.6 26.8 15.6 26.8 15.6L881 320zm-54.5.5l26.8 15.6-26.8 15.6-26.8 15.6-26.8-15.6-26.9-15.6 26.8-15.6 26.8-15.6 26.9 15.6zm-54.6-.5l-26.8 15.6-26.8-15.6-26.8-15.6 26.8-15.6 26.8-15.6 26.8 15.6 26.8 15.6-26.8 15.6zm-54.6.5l26.8 15.6-26.8 15.6-26.8 15.6-26.8-15.6-26.8-15.7 26.8-15.6 26.8-15.6 26.8 15.7zm-54.5-.6L636 335.5l-26.8-15.6-26.8-15.6 53.6-31.2 26.8 15.6 26.8 15.6-26.8 15.6zm-54.6.5L635 336l-26.8 15.6-26.8 15.6-26.8-15.6-26.8-15.6 26.8-15.6 26.8-15.6 26.8 15.6zm-54.6-.6l-26.8 15.6-26.8-15.6-26.8-15.6 26.8-15.6 26.8-15.6 26.8 15.6 26.8 15.6-26.8 15.6zm-54.5.5l26.8 15.6-26.8 15.6-26.8 15.6-26.8-15.6-26.8-15.6 26.8-15.6 26.8-15.6 26.8 15.6zm-54.6-.6l-26.8 15.6-26.8-15.6-26.8-15.6 26.8-15.6 26.8-15.6 26.8 15.6 26.8 15.6-26.8 15.6zm-54.6.6l26.8 15.6-53.6 31.2-26.8-15.6-26.8-15.6 26.8-15.6 26.8-15.6 26.8 15.6zm-54.5-.6l-26.8 15.6-26.8-15.6-26.9-15.7 26.8-15.6 26.8-15.6 26.8 15.6 26.8 15.6-26.7 15.7zm-26.8 16.7l26.8 15.6 26.8 15.6-26.8 15.6-26.8 15.6-26.8-15.6-26.8-15.6 26.8-15.6 26.8-15.6zm0 63.5l26.8 15.6 26.8 15.6-26.8 15.6-26.8 15.6-26.8-15.6-26.8-15.6 26.8-15.6 26.8-15.6zm0 63.6l26.8 15.6 26.8 15.6-26.8 15.6-26.8 15.6-26.8-15.6-26.8-15.6 26.8-15.6 26.8-15.6zm27.8 15l-26.8-15.6 26.8-15.6 26.8-15.6 26.8 15.6 26.8 15.6-26.8 15.7-26.8 15.6-26.8-15.7zm54.5.6l26.8-15.6 26.8 15.6 26.8 15.6-26.8 15.6-26.8 15.7-26.8-15.6-26.8-15.6 26.8-15.7zm54.6-.5L418.7 463l26.8-15.6 26.8-15.6 26.8 15.6 26.8 15.6-26.8 15.6-26.8 15.6-26.8-15.6zm54.6.6l26.8-15.6 26.8 15.6 26.8 15.6-26.8 15.6-26.8 15.6-26.8-15.6-26.8-15.6 26.8-15.6zm54.5-.5l-26.8-15.6 26.8-15.6 26.8-15.6 26.8 15.6 26.8 15.6-26.8 15.6-26.8 15.6-26.8-15.6zm81.4-15l26.8 15.6 26.8 15.6-26.8 15.6-26.8 15.6-26.8-15.6-26.8-15.6 53.6-31.2zm27.8 15.1L637 463.2l26.8-15.6 26.8-15.6 26.8 15.6 26.8 15.6-26.8 15.6-26.8 15.6-26.8-15.6zm54.5.6l26.8-15.6 26.8 15.6 26.8 15.6-26.7 15.6-26.8 15.6-26.8-15.6-26.8-15.6 26.7-15.6zm27.8-16.2l26.8-15.6 26.8-15.6 26.8 15.6 26.8 15.6-26.8 15.6-26.8 15.6-53.6-31.2zm81.4 16.2l26.8-15.6 26.8 15.6 26.8 15.6-26.8 15.6-26.8 15.6-26.8-15.6-26.8-15.6 26.8-15.6zm54.5-.5l-26.8-15.6 26.8-15.6 26.8-15.6 26.8 15.6 26.8 15.6-26.8 15.6-26.8 15.6-26.8-15.6zm54.6.6l26.8-15.6 26.8 15.6 26.8 15.6-26.8 15.6-26.8 15.6-26.8-15.6-26.8-15.6 26.8-15.6zm54.6-.5l-26.8-15.6 53.6-31.2 26.8 15.6 26.8 15.6-26.8 15.6-26.8 15.6-26.8-15.6zm54.5.6l26.8-15.6 26.8 15.6 26.8 15.6-26.8 15.6-26.8 15.6-26.8-15.6-26.8-15.6 26.8-15.6zm54.6-.5l-26.8-15.6 26.8-15.6 26.8-15.6 26.8 15.6 26.8 15.6-26.8 15.6-26.8 15.6-26.8-15.6zm26.8-48l-26.8-15.6-26.8-15.6 26.8-15.6 26.8-15.6 26.8 15.6 26.8 15.6-26.8 15.6-26.8 15.6zm0-63.5l-26.8-15.6-26.8-15.6 26.8-15.6 26.8-15.6 26.8 15.6 26.8 15.6-26.8 15.6-26.8 15.6zm0-63.6l-26.8-15.6-26.8-15.6 26.8-15.6 26.8-15.6 26.8 15.6 26.8 15.6-26.8 15.6-26.8 15.6zm-27.8-47.4l-26.8 15.6-26.8-15.6-26.8-15.6 26.8-15.6 26.8-15.6 26.8 15.6 26.8 15.6-26.8 15.6zm-54.6.5l26.8 15.6-26.8 15.6-26.8 15.6-26.8-15.6-26.8-15.6 26.8-15.6 26.8-15.6 26.8 15.6zm-54.5-.5l-26.8 15.6-26.8-15.6-26.8-15.6 26.8-15.6 26.8-15.6 26.8 15.6L1017 241l-26.8 15.6zm-54.6.5l26.8 15.6-26.8 15.6-26.8 15.6-26.8-15.6-26.8-15.6L882 257l26.8-15.6 26.8 15.7zm-54.6-.6l-26.8 15.6-26.8-15.6-26.8-15.6 53.6-31.2 26.8 15.6 26.8 15.6-26.8 15.6zm-54.5.5l26.8 15.6-26.8 15.6-26.8 15.6-26.8-15.6-26.9-15.6 26.8-15.6 26.8-15.6 26.9 15.6zm-54.6-.6L745.1 272l-26.8-15.6-26.8-15.6 26.8-15.6 26.8-15.6 26.8 15.6 26.8 15.6-26.8 15.6zm-54.6.5l26.8 15.6-26.8 15.6-26.8 15.6-26.8-15.6-26.8-15.6 26.8-15.6 26.8-15.6 26.8 15.6zm-54.6-.6l-26.8 15.6-53.6-31.3 26.8-15.6 26.8-15.6 26.8 15.6 26.8 15.6-26.8 15.7zm-54.5.5l26.8 15.6-26.8 15.6-26.8 15.6-26.8-15.6-26.8-15.6 26.8-15.6 26.8-15.6 26.8 15.6zm-54.6-.5l-26.8 15.6-26.8-15.7-26.8-15.6L500 225l26.8-15.6 26.8 15.6 26.8 15.6-26.8 15.7zm-54.6.5l26.8 15.6-26.7 15.6-26.8 15.6-26.9-15.6-26.8-15.6 26.8-15.6 26.8-15.6 26.8 15.6zm-54.5-.6l-26.8 15.6-26.8-15.6-26.9-15.7 26.8-15.6 26.8-15.6 26.8 15.6 26.8 15.6-26.7 15.7zm-54.6.5l26.8 15.6-26.8 15.6-26.8 15.6-26.8-15.6-26.8-15.6 26.8-15.6 26.8-15.6 26.8 15.6zm-54.6-.6l-26.8 15.6-26.8-15.6-26.8-15.6 26.8-15.6 26.8-15.6 26.8 15.6 26.8 15.6-26.8 15.6zm-54.5.5l26.8 15.6-26.8 15.6-26.8 15.6-26.8-15.6-26.8-15.6 26.8-15.6L254 241l26.8 15.6zm-26.8 48l26.8 15.6 26.8 15.6-26.8 15.6L254 367l-26.8-15.6-26.8-15.6 26.8-15.6 26.8-15.6zm0 63.5l26.8 15.6 26.8 15.6-26.8 15.7-26.8 15.6-26.8-15.6-26.8-15.6 26.8-15.6 26.8-15.7zm0 63.6l26.8 15.6 26.8 15.6-26.8 15.6-26.8 15.6-26.8-15.6-26.8-15.6 26.8-15.6 26.8-15.6zm0 63.5l26.8 15.6 26.8 15.6-26.8 15.6-26.8 15.6-26.8-15.6-26.8-15.6 26.8-15.6 26.8-15.6zm27.8 47.4l26.8-15.6 26.8 15.6 26.8 15.6-26.8 15.6-26.8 15.6-26.8-15.6-26.8-15.6 26.8-15.6zm54.6-.5l-26.8-15.6 26.8-15.6 26.8-15.6 26.8 15.6 26.8 15.6-26.8 15.6-26.8 15.6-26.8-15.6zm54.5.6l26.8-15.6 26.8 15.6 26.8 15.6-26.8 15.6-26.8 15.6-26.7-15.6-26.8-15.6 26.7-15.6zm54.6-.5l-26.8-15.6 26.8-15.6 26.8-15.6 26.8 15.6 26.8 15.6-26.8 15.6-26.8 15.6-26.8-15.6zm54.6.6l26.8-15.6 26.8 15.6 26.8 15.6-53.6 31.2-26.8-15.6-26.8-15.6 26.8-15.6zm54.5-.6l-26.8-15.6 26.8-15.6 26.8-15.6 26.8 15.6 26.8 15.6-26.8 15.6-26.8 15.6-26.8-15.6zm54.6.6l26.8-15.6 26.8 15.6 26.8 15.6-26.8 15.6-26.8 15.7-26.8-15.6-26.8-15.6 26.8-15.7zm54.6-.5L637 526.7l26.8-15.6 26.8-15.6 26.8 15.6 26.8 15.6-26.8 15.6-26.8 15.6-26.8-15.6zm54.6.6l26.8-15.6 26.8 15.6 26.8 15.6-26.8 15.7-26.8 15.6-26.8-15.6-26.8-15.6 26.8-15.7zm54.5-.5l-26.8-15.6 53.6-31.2 26.8 15.6 26.8 15.6-26.8 15.6-26.8 15.6-26.8-15.6zm54.6.6l26.8-15.6 26.8 15.6 26.8 15.6-26.8 15.6-26.8 15.6-26.8-15.6-26.8-15.6 26.8-15.6zm54.6-.5l-26.8-15.6 26.8-15.6 26.8-15.6 26.8 15.6 26.8 15.6-26.8 15.6-26.8 15.6-26.8-15.6zm54.5.5l26.8-15.6 26.8 15.6 26.8 15.6-26.8 15.6-26.8 15.6-26.8-15.6-26.8-15.6 26.8-15.6zm54.6-.5l-26.8-15.6 26.8-15.6 26.8-15.6 26.8 15.6 26.8 15.6-26.8 15.6-26.8 15.6-26.8-15.6zm54.6.6l26.8-15.6 26.8 15.6 26.8 15.6-26.8 15.6-26.8 15.6-26.8-15.6-26.8-15.6 26.8-15.6zm54.5-.5l-26.8-15.6 26.8-15.6 26.8-15.6 26.8 15.6 26.8 15.6-26.8 15.6-26.8 15.6-26.8-15.6zm54.6.6l26.8-15.6 26.8 15.6 26.8 15.6-53.6 31.2-26.8-15.6-26.8-15.6 26.8-15.6zm26.8-16.7l-26.8-15.6-26.8-15.6 26.8-15.6 26.8-15.6 26.8 15.6 26.8 15.6-26.8 15.6-26.8 15.6zm0-63.6l-26.8-15.6-26.8-15.6 26.8-15.6 26.8-15.6 26.8 15.6 26.8 15.6-26.8 15.6-26.8 15.6zm0-63.5l-26.8-15.6-26.8-15.6 26.8-15.6 26.8-15.6 26.8 15.6 26.8 15.6-26.8 15.6-26.8 15.6zm-.1-63.6l-26.8-15.6-26.8-15.6 26.8-15.6 26.8-15.6 26.8 15.6 26.8 15.6-26.8 15.6-26.8 15.6zm0-63.5l-26.8-15.6L1128 241l26.8-15.6 26.8-15.6 26.8 15.6 26.8 15.6-26.8 15.6-26.8 15.7zm0-63.6l-26.8-15.6-26.8-15.6 26.8-15.6 26.8-15.6 26.8 15.6 26.8 15.6-26.8 15.6-26.8 15.6zm-27.8-15l26.8 15.6-26.8 15.6-26.8 15.6-26.8-15.6-26.8-15.6 26.8-15.6L1127 178l26.8 15.7zm-54.5-.6l-26.8 15.6-26.8-15.6-26.8-15.6 53.6-31.2 26.8 15.6 26.8 15.6-26.8 15.6zm-27.8 16.1l-26.8 15.6-26.8 15.6-26.8-15.6-26.8-15.6 26.8-15.6 26.8-15.6 53.6 31.2zM990.1 193l-26.8 15.6-26.8-15.6-26.8-15.6 26.8-15.6 26.8-15.6 26.8 15.6 26.8 15.6-26.8 15.6zm-54.5.5l26.8 15.6-26.8 15.6-26.8 15.6-26.8-15.6-26.8-15.6 26.8-15.6 26.8-15.6 26.8 15.6zm-54.6-.6l-26.8 15.6-53.6-31.3 26.8-15.6 26.8-15.6 26.8 15.6 26.8 15.6-26.8 15.7zm-54.6.5l26.8 15.6-26.8 15.6-26.8 15.6-26.8-15.6L746 209l26.8-15.6 26.8-15.6 26.8 15.6zm-54.5-.5l-26.8 15.6-26.8-15.6-26.8-15.6 26.8-15.6L745 146l26.8 15.6 26.8 15.6-26.7 15.7zm-54.6.5l26.8 15.6-26.8 15.6-26.8 15.6-26.8-15.6-26.8-15.6 26.8-15.6 26.8-15.6 26.8 15.6zm-54.6-.6l-26.8 15.6-26.8-15.6-26.8-15.6 26.8-15.6 26.8-15.6 26.8 15.6 26.8 15.6-26.8 15.6zm-54.5.5l26.8 15.6-26.8 15.6-26.8 15.6-26.8-15.6-26.8-15.6 26.8-15.6 26.8-15.6 26.8 15.6zm-54.6-.6l-26.8 15.6-26.8-15.6-26.8-15.7 26.8-15.6 26.8-15.6 26.8 15.6 26.8 15.6-26.8 15.7zm-27.8 16.2L472.2 240l-26.8-15.6-26.8-15.6 26.8-15.6 26.8-15.6 53.6 31.3zm-81.3-16.3l-26.8 15.6-26.8-15.6L364 177l26.8-15.6 26.8-15.6 26.8 15.6 26.8 15.6-26.7 15.6zm-27.8 16.2l-26.8 15.6-26.8 15.6-26.8-15.6-26.8-15.6 26.8-15.6 26.8-15.6 53.6 31.2zm-81.4-16.2l-26.8 15.6-26.8-15.6-26.8-15.6 26.8-15.6 26.8-15.6 26.8 15.6 26.8 15.6-26.8 15.6zm-54.5.5l26.8 15.6-26.8 15.6-26.8 15.6-26.8-15.6-26.8-15.6 26.8-15.6 26.8-15.6 26.8 15.6zm-54.6-.6l-26.8 15.6-26.8-15.6-26.8-15.6 26.8-15.6 26.8-15.6 26.8 15.6 26.8 15.6-26.8 15.6zm-26.8 16.7l26.8 15.6 26.8 15.6-26.8 15.6-26.8 15.6-26.8-15.6-26.8-15.6 26.8-15.6 26.8-15.6zm0 63.5l26.8 15.6L253 304l-26.8 15.6-26.8 15.6-26.8-15.6-26.8-15.6 26.8-15.6 26.8-15.7zm0 63.6l26.8 15.6 26.8 15.6-26.8 15.6-26.8 15.6-26.8-15.6-26.8-15.6 26.8-15.6 26.8-15.6zm0 63.5l26.8 15.6L253 431l-26.8 15.6-26.8 15.6-26.8-15.6-26.8-15.6 26.8-15.6 26.8-15.6zm.1 63.6l26.8 15.6 26.8 15.6-26.8 15.6-26.8 15.6-26.8-15.6-26.8-15.6 26.8-15.6 26.8-15.6zm0 63.5l26.8 15.6 26.8 15.6-26.8 15.6-26.8 15.6-26.8-15.6-26.8-15.6 26.8-15.6 26.8-15.6zm0 63.6l26.8 15.6 26.8 15.6-26.8 15.6-26.8 15.6-26.8-15.6-26.8-15.6 26.8-15.6 26.8-15.6zm27.8 15.1L200.5 590l26.8-15.6 26.8-15.6 26.8 15.6 26.8 15.6-26.8 15.6-26.8 15.6-26.8-15.6zm54.5.6l26.8-15.6 26.8 15.6 26.8 15.6-53.5 31.2-26.8-15.6-26.9-15.6 26.8-15.6zm54.6-.6L309.6 590l26.8-15.6 26.8-15.6 26.8 15.6 26.8 15.6-26.8 15.7-26.8 15.6-26.8-15.7zm54.6.6l26.8-15.6 26.8 15.6 26.8 15.6-26.8 15.6-26.8 15.6-26.8-15.5-26.8-15.6 26.8-15.7zm54.5-.5l-26.8-15.6 26.8-15.6 26.8-15.6 26.8 15.6 26.8 15.6-26.8 15.6-26.8 15.6-26.8-15.6zm54.6.6l26.8-15.6 53.6 31.3-26.8 15.6-26.8 15.6-26.8-15.6-26.8-15.6 26.8-15.7zm54.6-.5l-26.8-15.6 26.8-15.6 26.8-15.6 26.8 15.6 26.8 15.6-26.8 15.6-26.8 15.6-26.8-15.6zm54.5.6l26.8-15.6 26.8 15.6 26.8 15.6-26.8 15.6-26.8 15.6-26.8-15.6-26.8-15.6 26.8-15.6zm54.6-.5L637 590.2l26.8-15.6 26.8-15.6 26.8 15.6 26.8 15.6-26.8 15.6-26.8 15.6-26.8-15.5zm54.6.6l26.8-15.6 26.8 15.6 26.8 15.6-26.8 15.6-26.8 15.6-26.8-15.6-26.8-15.7 26.8-15.5zm54.5-.6l-26.8-15.6 26.8-15.6 26.8-15.6 26.8 15.6 26.8 15.6-26.7 15.7-26.8 15.6-26.9-15.7zm54.6.6l26.8-15.6 26.8 15.6 26.8 15.6-26.8 15.6-26.8 15.6-26.8-15.6-26.8-15.6 26.8-15.6zm54.6-.5l-26.8-15.6 26.8-15.6 26.8-15.6 26.8 15.6 26.8 15.6-26.8 15.6-26.8 15.6-26.8-15.6zm54.5.6l26.8-15.6 26.8 15.6 26.8 15.6-26.8 15.6-26.8 15.6-26.8-15.6-26.8-15.6 26.8-15.6zm27.8-16.1l26.8-15.6 26.8-15.6 26.8 15.6 26.8 15.6-26.8 15.6-26.8 15.6-53.6-31.2zm81.4 16.2l26.8-15.6 26.8 15.6 26.8 15.6-26.8 15.6-26.8 15.6-26.8-15.6-26.8-15.6 26.8-15.6zm54.5-.5l-26.8-15.6 26.8-15.6 26.8-15.6L1154 575l26.8 15.6-26.8 15.6-26.8 15.6-26.9-15.6zm54.6.5l26.8-15.6 53.6 31.3-26.8 15.6-26.8 15.6-26.8-15.6-26.8-15.6 26.8-15.7zm54.6-.5l-26.8-15.6 53.6-31.2 26.8 15.6 26.8 15.6-26.8 15.6-26.8 15.6-26.8-15.6zm-26.9-79.1l26.8-15.6 26.8-15.6 26.8 15.6 26.8 15.6-26.8 15.6-26.8 15.6-53.6-31.2zm53.7-32.3l-26.8-15.6-26.8-15.6 26.8-15.6 26.8-15.6 26.8 15.6 26.8 15.6-26.8 15.6-26.8 15.6zm-.1-63.6l-26.8-15.6-26.8-15.6 26.8-15.6 26.8-15.6 26.8 15.6 26.8 15.6-26.8 15.6-26.8 15.6zm0-63.5l-26.8-15.6-26.8-15.6 26.8-15.6 26.8-15.6 53.6 31.3-26.8 15.6-26.8 15.5zm-26.8-79.2l-26.8-15.6 26.8-15.6 26.8-15.6 26.8 15.6 26.8 15.6-53.6 31.2-26.8-15.6zm26.8-47.9l-26.8-15.6-26.8-15.6 26.8-15.6 26.8-15.6 26.8 15.6 26.8 15.6L1263 225l-26.8 15.6zm0-63.6l-26.8-15.6-26.8-15.6 26.8-15.6 26.8-15.6 53.6 31.3-26.8 15.6-26.8 15.5zm-27.8-47.4l-26.8 15.6-26.8-15.6L1128 114l26.8-15.6 26.8-15.6 26.8 15.6 26.8 15.6-26.8 15.6zm-54.6.5l26.8 15.6-26.8 15.6-26.8 15.6-26.8-15.6-26.8-15.6 26.8-15.6 26.8-15.6 26.8 15.6zm-54.5-.6l-26.8 15.6-53.6-31.3 26.8-15.6 26.8-15.6 26.8 15.6 26.8 15.6-26.8 15.7zm-54.6.5l26.8 15.6-53.6 31.2-26.8-15.6-26.8-15.6 26.8-15.6 26.8-15.6 26.8 15.6zm-54.6-.5L963.3 145l-26.8-15.6-26.8-15.6 26.8-15.6 26.8-15.6 26.8 15.6 26.8 15.6-26.8 15.7zm-54.6.5l26.8 15.6-26.8 15.6-26.8 15.6-26.8-15.6-26.8-15.6 26.8-15.6 26.8-15.6 26.8 15.6zm-54.5-.6L854.2 145l-26.8-15.6-26.8-15.6 26.8-15.6 26.8-15.6L881 98.2l26.8 15.6-26.8 15.6zm-54.6.5l26.8 15.6-26.8 15.6-26.8 15.6-26.8-15.6-26.8-15.7 26.8-15.6 26.8-15.6 26.8 15.7zm-54.6-.6L745 144.9l-26.8-15.6-26.8-15.6L718.2 98 745 82.4 771.8 98l26.8 15.6-26.8 15.7zm-54.5.5l26.8 15.6-26.8 15.6-26.8 15.6-26.8-15.6-26.8-15.6 26.8-15.6 26.8-15.6 26.8 15.6zm-54.6-.6l-26.8 15.6-26.8-15.6-26.8-15.6 53.6-31.2L662.7 98l26.8 15.6-26.8 15.6zM635 145.4L608.1 161l-26.8 15.6-26.8-15.6-26.8-15.6 26.8-15.6 26.8-15.6 53.7 31.2zm-81.4-16.2l-26.8 15.6-26.8-15.6-26.8-15.6L500 98l26.8-15.6L553.6 98l26.8 15.6-26.8 15.6zm-54.6.5l26.8 15.6-26.8 15.6-26.8 15.6-26.8-15.6-26.8-15.6 26.8-15.6 26.8-15.6 26.8 15.6zm-54.6-.6l-26.8 15.6-26.8-15.7-26.8-15.6 26.8-15.6 26.8-15.6 26.8 15.6 26.8 15.6-26.8 15.7zm-54.5.5l26.8 15.6-53.6 31.2-26.8-15.6-26.8-15.6 26.8-15.6 26.8-15.6 26.8 15.6zm-54.6-.6l-26.8 15.6-26.8-15.6-26.8-15.6 26.8-15.6 26.8-15.6 26.8 15.6 26.8 15.6-26.8 15.6zm-54.6.5l26.8 15.6-26.8 15.6-26.8 15.6-26.8-15.6-26.8-15.6 26.8-15.6 26.8-15.6 26.8 15.6zm-54.5-.6l-26.8 15.6-26.8-15.6-26.8-15.6 26.8-15.6 26.8-15.6 26.8 15.6 26.8 15.6-26.8 15.6zm-54.6.6l26.8 15.6-26.8 15.6-26.8 15.6-26.8-15.7L91.2 145l26.8-15.6 26.8-15.6 26.8 15.7zm-26.8 47.9l26.8 15.6 26.8 15.6-53.6 31.2-26.8-15.6-26.8-15.6L118 193l26.8-15.6zm53.7 94.8l-26.8 15.6-26.8 15.6-26.9-15.7-26.8-15.6 26.8-15.6 26.8-15.6 53.7 31.3zm-53.7 32.3l26.8 15.6 26.8 15.6-26.8 15.6-26.8 15.6-26.8-15.6-26.8-15.6 26.8-15.6 26.8-15.6zm.1 63.5l26.8 15.6 26.8 15.6-53.6 31.2-26.8-15.6-26.8-15.6 26.8-15.6 26.8-15.6zm53.6 94.8l-26.8 15.6-26.8 15.6-53.6-31.3 26.8-15.6 26.8-15.6 53.6 31.3zm-26.8 48l26.8 15.6-26.8 15.6-26.8 15.6-26.8-15.6-26.8-15.6 53.6-31.2 26.8 15.6zm-26.8 47.9l26.8 15.6 26.8 15.6-26.8 15.6-26.8 15.6-26.8-15.6-26.8-15.6 26.8-15.6 26.8-15.6zm0 63.5l26.8 15.6 26.8 15.6-26.8 15.6-26.7 15.7-53.6-31.3 26.8-15.6 26.7-15.6zm27.8 47.4l26.8-15.6 26.8 15.6 26.8 15.6-26.8 15.6-26.8 15.6-26.8-15.6-26.8-15.6 26.8-15.6zm54.6-.5l-26.8-15.6 26.8-15.6 26.8-15.6 26.8 15.6 26.8 15.6-26.8 15.6-26.8 15.6-26.8-15.6zm54.5.6l26.8-15.6 53.6 31.3-26.7 15.6-26.8 15.6-26.8-15.6-26.9-15.7 26.8-15.6zm54.6-.5l-26.8-15.6 26.8-15.6 26.8-15.6L390 638l26.8 15.6-26.8 15.6-26.8 15.6-26.8-15.6zm54.6.6l26.8-15.6 26.8 15.6 26.8 15.6-26.8 15.6-26.8 15.6L391 701l-26.8-15.6 26.8-15.6zm54.6-.5l-26.8-15.6 26.8-15.6 26.8-15.6 26.8 15.6 26.8 15.6-26.8 15.6-26.8 15.6-26.8-15.6zm54.5.6l26.8-15.6 26.8 15.6 26.8 15.6-26.8 15.6-26.8 15.6-26.8-15.6-26.8-15.6 26.8-15.6zm54.6-.6l-26.8-15.6 26.8-15.6 26.8-15.6 26.8 15.6 26.8 15.6-26.8 15.6-26.8 15.7-26.8-15.7zm54.6.6l26.8-15.6 26.8 15.6 26.8 15.6-26.8 15.6-26.8 15.6-26.8-15.6-26.8-15.6 26.8-15.6zm27.7-16.1l53.6-31.2 26.8 15.6 26.8 15.6-26.8 15.6-26.8 15.6-53.6-31.2zm81.4 16.2l26.8-15.6L772 670l26.8 15.6-26.8 15.7-26.8 15.6-26.8-15.6-26.8-15.6 26.8-15.7zm27.7-16.1l26.8-15.6 26.8-15.6 26.8 15.6 26.8 15.6-26.8 15.6-26.8 15.6-53.6-31.2zm81.4 16.2l26.8-15.6 26.8 15.6 26.8 15.6-26.8 15.6-26.8 15.6-26.8-15.6-26.8-15.6 26.8-15.6zm54.6-.5L855.3 654l26.8-15.6 26.8-15.6 26.8 15.6 26.8 15.6-26.8 15.6-26.8 15.6-26.8-15.6zm54.6.6l26.8-15.6 26.8 15.6 26.8 15.6-26.8 15.6-26.8 15.6-26.8-15.6-26.8-15.6 26.8-15.6zm54.5-.6L964.4 654l53.6-31.2 26.8 15.6 26.8 15.6-26.8 15.6-26.8 15.6-26.8-15.6zm54.6.6l26.8-15.6 26.8 15.6 26.8 15.6-26.8 15.6-26.8 15.6-26.8-15.6-26.8-15.6 26.8-15.6zm54.6-.5l-26.8-15.6 26.8-15.6 26.8-15.6 26.8 15.6 26.8 15.6-26.8 15.6-26.8 15.6-26.8-15.6zm54.5.6l26.8-15.6 26.8 15.6 26.8 15.6-26.8 15.6-26.8 15.6-26.8-15.6-26.8-15.6 26.8-15.6zm54.6-.5l-26.8-15.6 26.8-15.6 26.8-15.6 26.8 15.6 26.8 15.6-26.8 15.6-26.8 15.6-26.8-15.6zm54.6.6l26.8-15.6 26.8 15.6 26.8 15.6-26.8 15.6-26.8 15.6-26.8-15.6-26.8-15.6 26.8-15.6zm26.8-16.7l-26.8-15.6-26.8-15.6 26.8-15.6 26.8-15.6 26.8 15.6 26.8 15.6-26.8 15.6-26.8 15.6zm0-63.6l-26.8-15.6-26.8-15.6 26.8-15.6 26.8-15.6 26.8 15.6 26.8 15.6-26.8 15.6-26.8 15.6zm-.1-63.5L1264 511l-26.8-15.6 26.8-15.6 26.8-15.6 26.8 15.6 26.8 15.6-26.8 15.6-26.8 15.6zm0-63.6l-26.8-15.6-26.8-15.6 26.8-15.6 26.8-15.6 26.8 15.6 26.8 15.6-26.8 15.6-26.8 15.6zm0-63.5l-26.8-15.6-26.8-15.6 26.8-15.6 26.8-15.6 26.8 15.6 26.8 15.6-26.8 15.6-26.8 15.6zm0-63.6l-26.8-15.6-26.8-15.6 26.8-15.6 26.8-15.6 26.8 15.6 26.8 15.6-26.8 15.6-26.8 15.6zm0-63.5l-26.8-15.6-26.8-15.6 26.8-15.6 26.8-15.6 26.8 15.6 26.8 15.6-26.8 15.6-26.8 15.6zm-.1-63.6l-26.8-15.6-26.8-15.6 26.8-15.6 26.8-15.6 26.8 15.6 26.8 15.6-26.8 15.6-26.8 15.6zm0-63.5l-26.8-15.6-26.8-15.6 26.8-15.6 26.8-15.6 26.8 15.6 26.8 15.6-26.8 15.6-26.8 15.6zM1236.1 51l26.8 15.6 26.8 15.6-53.6 31.2-26.8-15.6-26.8-15.6 26.8-15.6 26.8-15.6zm-81.4-16.2l26.8-15.6 26.8 15.6 26.8 15.6-26.7 15.6-26.8 15.6-26.9-15.6-26.8-15.6 26.8-15.6zM1127 50.9l26.8 15.6 26.8 15.6-26.8 15.6-26.8 15.6-26.8-15.6-26.8-15.6 26.8-15.6 26.8-15.6zm-81.4-16.2l26.8-15.6 26.8 15.6 26.8 15.6-26.8 15.7-26.8 15.6-26.8-15.6-26.8-15.6 26.8-15.7zm-27.8 16.2l26.8 15.6 26.8 15.6-26.8 15.6-26.8 15.6L991 97.7 964.2 82 991 66.4l26.8-15.5zm-81.3-16.3L963.3 19l26.8 15.6 26.8 15.6-26.8 15.6-26.8 15.6-26.8-15.6-26.8-15.6 26.8-15.6zm-27.8 16.2l26.8 15.6L962.3 82l-26.8 15.6-26.8 15.6-26.8-15.6L855.1 82l26.8-15.6 26.8-15.6zM854.1 19L881 34.6l26.8 15.6L881 65.8l-26.8 15.6-26.8-15.6-26.8-15.6L854.1 19zm-54.5 31.7l26.8 15.6L853.2 82l-26.8 15.6-26.8 15.6-26.8-15.6L746 81.9l26.8-15.6 26.8-15.6zm-81.4-16.2L745 18.9l26.8 15.6 26.8 15.6-26.8 15.6L745 81.3l-26.8-15.6-26.8-15.6 26.8-15.6zm-27.8 16.1l26.8 15.6L744 81.8l-26.8 15.6-26.8 15.6-26.8-15.6-26.8-15.6 26.8-15.6 26.8-15.6zm-81.3-16.2l26.8-15.6 26.8 15.6L689.5 50l-26.8 15.6-26.8 15.6L582.2 50l26.9-15.6zm-27.8 16.2l26.8 15.6 26.8 15.6-53.6 31.2-26.8-15.6-26.8-15.6 26.8-15.6 26.8-15.6zm-81.4-16.3l26.8-15.6 26.8 15.6L580.4 50l-26.8 15.6-26.8 15.6L500 65.6 473.2 50l26.7-15.7zm-27.7 16.2L499 66.1l26.8 15.6L499 97.3l-26.8 15.6-26.8-15.6-26.8-15.6 26.8-15.6 26.8-15.6zm-81.4-16.2l26.8-15.6 26.8 15.6 26.8 15.6-26.8 15.6-26.8 15.6-26.8-15.6L364 49.9l26.8-15.6zM363 50.4L389.8 66l26.8 15.6-26.8 15.6-26.8 15.6-26.8-15.6-26.8-15.6L336.2 66 363 50.4zm-81.4-16.2l26.8-15.6 26.8 15.6L362 49.8l-26.8 15.6L308.4 81l-26.8-15.6-26.8-15.6 26.8-15.6zm-27.7 16.1L280.7 66l26.8 15.6-26.8 15.6-26.8 15.6-26.8-15.6-26.8-15.6L227.1 66l26.8-15.7zm-54.6-31.8l26.8 15.6 26.8 15.6-26.8 15.6L199.3 81l-26.8-15.6-26.8-15.6 53.6-31.3zm-.9 63l-26.8 15.6-26.8 15.6L118 97.1 91.1 81.5 118 65.9l26.8-15.6 53.6 31.2zm-135-16.2L36.6 49.6 63.4 34l26.8-15.6L117 34.1l26.8 15.6L117 65.3 90.2 80.9 63.4 65.3zm0 63.5l-26.8-15.6 26.8-15.6L90.2 82 117 97.6l26.8 15.6-26.8 15.7-26.8 15.6-26.8-15.7zm0 63.6l-26.8-15.6 26.8-15.6 26.8-15.6 26.8 15.6 26.8 15.6-26.8 15.6L90.2 208l-26.8-15.6zm0 63.5l-26.8-15.6 26.8-15.6 26.8-15.6 26.8 15.6 26.8 15.6-26.7 15.7-26.8 15.6-26.9-15.7zm.1 63.6l-26.8-15.6 26.8-15.6 26.8-15.6 26.8 15.6 26.8 15.6-26.8 15.6-26.8 15.6-26.8-15.6zm0 63.5l-26.8-15.6 26.8-15.6 26.8-15.6 26.8 15.6 26.8 15.6-26.8 15.6-26.8 15.6L63.5 383zm0 63.6L36.7 431l26.8-15.6 26.8-15.6 26.8 15.6 26.8 15.6-26.8 15.6-26.8 15.6-26.8-15.6zm0 63.5l-26.8-15.6 26.8-15.6 26.8-15.6 26.8 15.6 26.8 15.6-53.6 31.2-26.8-15.6zm0 63.6l-26.8-15.6 26.8-15.6 26.8-15.6 53.6 31.3-26.8 15.6-26.8 15.6-26.8-15.7zm.1 63.5l-26.8-15.6L63.6 606l26.8-15.6 26.8 15.6 26.8 15.6-26.8 15.6-26.8 15.6-26.8-15.6zm0 63.6l-26.8-15.6 26.8-15.6L90.4 654l26.8 15.6 26.8 15.6-53.6 31.2-26.8-15.6zm53.6 63.6L90.4 780l-26.8-15.6-26.8-15.6 26.8-15.6 26.8-15.6 53.6 31.3-26.8 15.5zm27.8-16.2l-26.8-15.6L91.3 717l53.6-31.2 26.8 15.6 26.8 15.6-26.8 15.6-26.7 15.6zm81.4 16.3L199.6 780l-26.8-15.6-26.8-15.6 26.8-15.6 26.8-15.6 26.8 15.6 26.8 15.6-26.8 15.7zm27.7-16.2l-26.8-15.6-26.8-15.7 26.8-15.6 26.8-15.6 26.8 15.6 26.8 15.6-26.8 15.6-26.8 15.7zm81.4 16.2l-26.8 15.6-26.8-15.6-26.8-15.6 26.8-15.6 26.8-15.6 26.8 15.6 26.8 15.6-26.8 15.6zm27.7-16.1l-26.8-15.6-26.8-15.6 26.8-15.6 26.8-15.6 26.8 15.6 26.8 15.6-26.8 15.6-26.8 15.6zm81.4 16.2l-26.8 15.6-26.8-15.6-26.8-15.6 26.8-15.6 26.8-15.6 26.8 15.6 26.8 15.6-26.8 15.6zm27.8-16.1l-26.8-15.6-26.8-15.6 26.8-15.6 26.8-15.6 26.8 15.6 26.8 15.6-26.8 15.6-26.8 15.6zm54.6 31.8l-26.8-15.6-26.9-15.7 26.8-15.6 26.8-15.6 26.8 15.6 26.8 15.6-53.5 31.3zm54.5-31.8l-26.8-15.6-26.8-15.6 26.8-15.6 26.8-15.6 26.8 15.6 26.8 15.6-26.8 15.6-26.8 15.6zm81.4 16.2l-26.8 15.6-26.8-15.6-26.8-15.6 26.8-15.6 26.8-15.6 26.8 15.6 26.8 15.6-26.8 15.6zm27.8-16.1L663.8 733 637 717.3l26.8-15.6 26.8-15.6 26.8 15.6 26.8 15.6-26.7 15.7-26.8 15.6zm81.3 16.2l-26.8 15.6-26.8-15.6-26.8-15.6 26.8-15.6 26.8-15.6 26.8 15.6 26.8 15.6-26.8 15.6zm27.8-16.1L773 733l-26.8-15.6 53.6-31.2 26.8 15.6 26.8 15.6-26.8 15.6-26.8 15.7zm81.4 16.2l-26.8 15.6-26.8-15.6-26.8-15.6 26.8-15.6 26.8-15.6 26.8 15.6 26.8 15.6-26.8 15.6zm27.7-16.2l-26.8-15.6-26.8-15.6 26.8-15.6 26.8-15.6 26.8 15.6 26.8 15.6-26.8 15.6-26.8 15.6zm81.4 16.3l-26.8 15.6-26.8-15.6-26.8-15.6 26.8-15.6 26.8-15.6 26.8 15.6 26.8 15.6-26.8 15.6zm27.8-16.2l-26.8-15.6-26.8-15.6 26.8-15.6 26.8-15.6 26.8 15.6 26.8 15.6-26.8 15.6-26.8 15.6zm81.4 16.2l-26.8 15.6-26.8-15.6-26.8-15.6 26.8-15.6 26.8-15.6 26.8 15.6 26.8 15.6-26.8 15.6zm27.7-16.1l-26.8-15.6-26.8-15.6 26.8-15.6 26.8-15.6 26.8 15.6 26.8 15.6-26.8 15.6-26.8 15.6zm54.6 31.8l-26.8-15.6-26.8-15.6 26.8-15.6 26.8-15.6 26.8 15.6 26.8 15.6-53.6 31.2zm.9-63l26.8-15.6 26.8-15.6 26.8 15.6 26.8 15.6-26.8 15.6-26.8 15.6-53.6-31.2zm135 47.5l-26.8 15.6-26.8-15.6-26.8-15.6 26.8-15.6 26.8-15.6 26.8 15.6 26.8 15.6-26.8 15.6zm54.6-63l26.8 15.6-26.8 15.6-26.8 15.6-26.8-15.6-26.8-15.6 26.8-15.6 26.8-15.6 26.8 15.6zm0-63.5l26.8 15.6-26.8 15.6-26.8 15.6-26.8-15.6-26.8-15.6 26.8-15.6 26.8-15.6 26.8 15.6zm-.1-63.6l26.8 15.6-26.8 15.6-26.8 15.6-26.8-15.6-26.8-15.6 26.8-15.6 26.8-15.6 26.8 15.6zm0-63.5l26.8 15.6-26.8 15.6-26.8 15.6-26.8-15.6-26.8-15.6 26.8-15.6 26.8-15.6 26.8 15.6zm0-63.6l26.8 15.6-26.8 15.6-26.8 15.6-26.8-15.6-26.8-15.6 26.8-15.6 26.8-15.6 26.8 15.6zm0-63.5l26.8 15.6-26.8 15.6-26.8 15.6-26.8-15.6-26.8-15.6 26.8-15.6 26.8-15.6 26.8 15.6zm0-63.6l26.8 15.6-26.8 15.6-26.8 15.6-26.8-15.6-26.8-15.6 26.8-15.6 26.8-15.6 26.8 15.6zm-.1-63.5L1399 273l-26.8 15.6-26.8 15.6-26.8-15.6-26.8-15.6 26.8-15.6 26.8-15.6 26.7 15.6zm0-63.6l26.8 15.6-26.8 15.6-26.8 15.6-26.8-15.6-26.8-15.6 26.8-15.6 26.8-15.6 26.8 15.6zm0-63.5l26.8 15.6-26.8 15.6-26.8 15.6-26.8-15.6-26.8-15.6 26.8-15.6 26.8-15.6 26.8 15.6zm0-63.6l26.8 15.6-26.8 15.6-26.8 15.6-26.8-15.6-26.8-15.6 26.8-15.6 26.8-15.6 26.8 15.6z" fill="url(#c)"></path></svg> 