<?xml version="1.0" encoding="UTF-8"?>
<svg width="1440px" height="900px" viewBox="0 0 1440 900" version="1.1" xmlns="http://www.w3.org/2000/svg" xmlns:xlink="http://www.w3.org/1999/xlink">
    <!-- Generator: sketchtool 58 (101010) - https://sketch.com -->
    <title>5760F72B-976E-4E62-98DB-7CE95487D9B6</title>
    <desc>Created with sketchtool.</desc>
    <defs>
        <rect id="path-1" x="0" y="0" width="1440" height="900"></rect>
    </defs>
    <g id="Home-Page-Web" stroke="none" stroke-width="1" fill="none" fill-rule="evenodd" opacity="0.4">
        <g id="Home-Page-v2.1" transform="translate(0.000000, -889.000000)">
            <g id="bkgd" transform="translate(0.000000, 839.000000)">
                <g id="Network-Background" transform="translate(0.000000, 50.000000)">
                    <g id="Background-Pattern--2-+-Background-Pattern---1-Mask">
                        <mask id="mask-2" fill="white">
                            <use xlink:href="#path-1"></use>
                        </mask>
                        <use id="Mask" fill="#D8D8D8" xlink:href="#path-1"></use>
                        <g id="Background-Pattern--2" mask="url(#mask-2)" fill="#FFFFFF" stroke-width="0.5">
                            <g transform="translate(-106.000000, 0.000000)" id="Page-1">
                                <path d="M172.733484,400.980944 L287.075894,400.980944 L229.904689,300.8716 L172.733484,400.980944 Z" stroke="#000000"></path>
                                <path d="M228.832076,300.715851 L343.174486,300.715851 L286.003281,200.606507 L228.832076,300.715851 Z" stroke="#000000"></path>
                                <path d="M172.733484,498.765908 L287.075894,498.765908 L229.904689,398.656564 L172.733484,498.765908 Z" stroke="#FBB315" transform="translate(229.904689, 448.584177) scale(1, -1) translate(-229.904689, -448.584177) "></path>
                                <path d="M228.832076,597.277853 L343.174486,597.277853 L286.003281,497.168509 L228.832076,597.277853 Z" stroke="#86C55B" transform="translate(286.003281, 547.096122) scale(1, -1) translate(-286.003281, -547.096122) "></path>
                                <path d="M286.934189,202.203906 L401.276599,202.203906 L344.105394,102.094562 L286.934189,202.203906 Z" stroke="#000000"></path>
                                <path d="M344.034541,100.613462 L458.376951,100.613462 L401.205746,0.504117922 L344.034541,100.613462 Z" stroke="#000000"></path>
                                <path d="M570.432428,100.613462 L684.774838,100.613462 L627.603633,0.504117922 L570.432428,100.613462 Z" stroke="#000000"></path>
                                <path d="M115.633132,498.765908 L229.975542,498.765908 L172.804337,398.656564 L115.633132,498.765908 Z" stroke="#000000"></path>
                                <path d="M566.425386,697.842131 L680.767796,697.842131 L623.596591,597.732787 L566.425386,697.842131 Z" stroke="#000000"></path>
                                <path d="M683.631372,100.613462 L797.973782,100.613462 L740.802577,0.504117922 L683.631372,100.613462 Z" stroke="#000000"></path>
                                <path d="M453.226442,697.842131 L567.568852,697.842131 L510.397647,597.732787 L453.226442,697.842131 Z" stroke="#000000"></path>
                                <polygon stroke="#000000" points="339.596831 502.821388 454.799296 298.614334 570.001761 502.821388"></polygon>
                                <path d="M172.733484,597.277853 L287.075894,597.277853 L229.904689,497.168509 L172.733484,597.277853 Z" stroke="#000000"></path>
                                <path d="M682.629611,697.842131 L796.972021,697.842131 L739.800816,597.732787 L682.629611,697.842131 Z" stroke="#000000"></path>
                                <path d="M739.729963,597.277853 L854.072373,597.277853 L796.901168,497.168509 L739.729963,597.277853 Z" stroke="#000000"></path>
                                <path d="M286.934189,200.352389 L344.105394,300.461733 L401.276599,200.352389 L286.934189,200.352389 Z" stroke="#2D8E4A"></path>
                                <path d="M344.034541,399.227797 L458.376951,399.227797 L401.205746,299.118452 L344.034541,399.227797 Z" stroke="#000000" transform="translate(401.205746, 349.046066) scale(1, -1) translate(-401.205746, -349.046066) "></path>
                                <path d="M340.027498,597.277853 L454.369908,597.277853 L397.198703,497.168509 L340.027498,597.277853 Z" stroke="#A23D96" transform="translate(397.198703, 547.096122) scale(1, -1) translate(-397.198703, -547.096122) "></path>
                                <path d="M397.12785,697.842131 L511.470261,697.842131 L454.299056,597.732787 L397.12785,697.842131 Z" stroke="#000000" transform="translate(454.299056, 647.660400) scale(1, -1) translate(-454.299056, -647.660400) "></path>
                                <path d="M455.229963,300.715851 L569.572373,300.715851 L512.401168,200.606507 L455.229963,300.715851 Z" stroke="#000000"></path>
                                <path d="M514.333836,202.203906 L628.676246,202.203906 L571.505041,102.094562 L514.333836,202.203906 Z" stroke="#86C55B"></path>
                                <path d="M455.229963,399.227797 L569.572373,399.227797 L512.401168,299.118452 L455.229963,399.227797 Z" stroke="#86C55B" transform="translate(512.401168, 349.046066) scale(1, -1) translate(-512.401168, -349.046066) "></path>
                                <path d="M511.328555,498.765908 L625.670965,498.765908 L568.49976,398.656564 L511.328555,498.765908 Z" stroke="#000000" transform="translate(568.499760, 448.584177) scale(1, -1) translate(-568.499760, -448.584177) "></path>
                                <path d="M570.432428,200.151574 L684.774838,200.151574 L627.603633,100.042229 L570.432428,200.151574 Z" stroke="#000000" transform="translate(627.603633, 149.969843) scale(1, -1) translate(-627.603633, -149.969843) "></path>
                                <path d="M626.53102,200.352389 L683.702225,300.461733 L740.87343,200.352389 L626.53102,200.352389 Z" stroke="#000000"></path>
                                <path d="M626.53102,399.227797 L740.87343,399.227797 L683.702225,299.118452 L626.53102,399.227797 Z" stroke="#FBB315"></path>
                                <path d="M682.629611,300.715851 L796.972021,300.715851 L739.800816,200.606507 L682.629611,300.715851 Z" stroke="#000000"></path>
                                <path d="M626.53102,498.765908 L740.87343,498.765908 L683.702225,398.656564 L626.53102,498.765908 Z" stroke="#000000" transform="translate(683.702225, 448.584177) scale(1, -1) translate(-683.702225, -448.584177) "></path>
                                <path d="M682.629611,597.277853 L796.972021,597.277853 L739.800816,497.168509 L682.629611,597.277853 Z" stroke="#000000" transform="translate(739.800816, 547.096122) scale(1, -1) translate(-739.800816, -547.096122) "></path>
                                <path d="M797.832076,100.613462 L912.174486,100.613462 L855.003281,0.504117922 L797.832076,100.613462 Z" stroke="#000000"></path>
                                <path d="M740.722489,300.715851 L850.074566,300.715851 L795.398527,200.623879 L740.722489,300.715851 Z" stroke="#000000" transform="translate(795.398527, 250.534120) scale(1, -1) translate(-795.398527, -250.534120) "></path>
                                <path d="M850.925386,498.765908 L965.267796,498.765908 L908.096591,398.656564 L850.925386,498.765908 Z" stroke="#000000" transform="translate(908.096591, 448.584177) scale(1, -1) translate(-908.096591, -448.584177) "></path>
                                <path d="M908.025738,498.765908 L1022.36815,498.765908 L965.196943,398.656564 L908.025738,498.765908 Z" stroke="#86C55B"></path>
                                <path d="M850.925386,599.330186 L965.267796,599.330186 L908.096591,499.220841 L850.925386,599.330186 Z" stroke="#FBB315"></path>
                                <path d="M907.023977,597.277853 L1021.36639,597.277853 L964.195182,497.168509 L907.023977,597.277853 Z" stroke="#000000" transform="translate(964.195182, 547.096122) scale(1, -1) translate(-964.195182, -547.096122) "></path>
                                <path d="M966.12785,300.715851 L1080.47026,300.715851 L1023.29906,200.606507 L966.12785,300.715851 Z" stroke="#FBB315" transform="translate(1023.299056, 250.534120) scale(1, -1) translate(-1023.299056, -250.534120) "></path>
                                <path d="M1022.22644,300.715851 L1136.56885,300.715851 L1079.39765,200.606507 L1022.22644,300.715851 Z" stroke="#000000"></path>
                                <path d="M966.12785,399.227797 L1080.47026,399.227797 L1023.29906,299.118452 L966.12785,399.227797 Z" stroke="#000000"></path>
                                <path d="M1022.22644,399.227797 L1136.56885,399.227797 L1079.39765,299.118452 L1022.22644,399.227797 Z" stroke="#000000" transform="translate(1079.397647, 349.046066) scale(1, -1) translate(-1079.397647, -349.046066) "></path>
                                <path d="M568.428907,597.277853 L682.771317,597.277853 L625.600112,497.168509 L568.428907,597.277853 Z" stroke="#000000" transform="translate(625.600112, 547.096122) scale(1, -1) translate(-625.600112, -547.096122) "></path>
                                <path d="M624.527498,597.277853 L738.869908,597.277853 L681.698703,497.168509 L624.527498,597.277853 Z" stroke="#86C55B"></path>
                                <path d="M911.03102,100.613462 L1025.37343,100.613462 L968.202225,0.504117922 L911.03102,100.613462 Z" stroke="#FBB315"></path>
                                <path d="M967.129611,100.613462 L1081.47202,100.613462 L1024.30082,0.504117922 L967.129611,100.613462 Z" stroke="#000000" transform="translate(1024.300816, 50.431731) scale(1, -1) translate(-1024.300816, -50.431731) "></path>
                                <path d="M1136.42715,697.842131 L1250.76956,697.842131 L1193.59835,597.732787 L1136.42715,697.842131 Z" stroke="#000000"></path>
                                <path d="M1192.52574,597.277853 L1306.86815,597.277853 L1249.69694,497.168509 L1192.52574,597.277853 Z" stroke="#000000"></path>
                                <path d="M1022.22644,200.151574 L1136.56885,200.151574 L1079.39765,100.042229 L1022.22644,200.151574 Z" stroke="#000000" transform="translate(1079.397647, 149.969843) scale(1, -1) translate(-1079.397647, -149.969843) "></path>
                                <path d="M1078.32503,300.715851 L1192.66744,300.715851 L1135.49624,200.606507 L1078.32503,300.715851 Z" stroke="#A23D96" transform="translate(1135.496239, 250.534120) scale(1, -1) translate(-1135.496239, -250.534120) "></path>
                                <path d="M1079.32679,399.227797 L1193.6692,399.227797 L1136.498,299.118452 L1079.32679,399.227797 Z" stroke="#000000"></path>
                                <path d="M1136.42715,300.715851 L1250.76956,300.715851 L1193.59835,200.606507 L1136.42715,300.715851 Z" stroke="#000000"></path>
                                <path d="M1194.52926,300.715851 L1308.87167,300.715851 L1251.70046,200.606507 L1194.52926,300.715851 Z" stroke="#000000" transform="translate(1251.700464, 250.534120) scale(1, -1) translate(-1251.700464, -250.534120) "></path>
                                <path d="M1250.62785,399.227797 L1364.97026,399.227797 L1307.79906,299.118452 L1250.62785,399.227797 Z" stroke="#000000" transform="translate(1307.799056, 349.046066) scale(1, -1) translate(-1307.799056, -349.046066) "></path>
                                <path d="M1247.62257,498.765908 L1361.96498,498.765908 L1304.79377,398.656564 L1247.62257,498.765908 Z" stroke="#000000"></path>
                                <path d="M1303.72116,399.227797 L1418.06357,399.227797 L1360.89237,299.118452 L1303.72116,399.227797 Z" stroke="#A23D96"></path>
                                <path d="M1247.62257,597.277853 L1361.96498,597.277853 L1304.79377,497.168509 L1247.62257,597.277853 Z" stroke="#A23D96" transform="translate(1304.793774, 547.096122) scale(1, -1) translate(-1304.793774, -547.096122) "></path>
                                <path d="M1303.72116,697.842131 L1418.06357,697.842131 L1360.89237,597.732787 L1303.72116,697.842131 Z" stroke="#A23D96" transform="translate(1360.892365, 647.660400) scale(1, -1) translate(-1360.892365, -647.660400) "></path>
                                <path d="M1362.82503,300.715851 L1477.16744,300.715851 L1419.99624,200.606507 L1362.82503,300.715851 Z" stroke="#000000"></path>
                                <path d="M1415.91834,202.203906 L1530.26075,202.203906 L1473.08955,102.094562 L1415.91834,202.203906 Z" stroke="#000000"></path>
                                <path d="M965.12609,597.277853 L1079.4685,597.277853 L1022.29729,497.168509 L965.12609,597.277853 Z" stroke="#000000"></path>
                                <path d="M1021.22468,498.765908 L1135.56709,498.765908 L1078.39589,398.656564 L1021.22468,498.765908 Z" stroke="#000000"></path>
                                <path d="M1303.72116,100.613462 L1418.06357,100.613462 L1360.89237,0.504117922 L1303.72116,100.613462 Z" stroke="#000000" transform="translate(1360.892365, 50.431731) scale(1, -1) translate(-1360.892365, -50.431731) "></path>
                                <path d="M1360.82151,200.151574 L1475.16392,200.151574 L1417.99272,100.042229 L1360.82151,200.151574 Z" stroke="#000000" transform="translate(1417.992717, 149.969843) scale(1, -1) translate(-1417.992717, -149.969843) "></path>
                                <polygon stroke="#A23D96" points="56.0985915 204.207053 171.301056 0 286.503521 204.207053"></polygon>
                                <path d="M0.430667394,602.408684 L114.773077,602.408684 L57.6018724,502.29934 L0.430667394,602.408684 Z" stroke="#000000" transform="translate(57.601872, 552.226953) scale(1, -1) translate(-57.601872, -552.226953) "></path>
                                <path d="M1525.11024,100.613462 L1639.45265,100.613462 L1582.28145,0.504117922 L1525.11024,100.613462 Z" stroke="#000000" transform="translate(1582.281450, 50.431731) scale(1, -1) translate(-1582.281450, -50.431731) "></path>
                                <polygon stroke="#000000" points="114.200704 902 229.403169 697.792947 344.605634 902"></polygon>
                                <path d="M57.5310195,498.765908 L171.87343,498.765908 L114.702225,398.656564 L57.5310195,498.765908 Z" stroke="#A23D96" transform="translate(114.702225, 448.584177) scale(1, -1) translate(-114.702225, -448.584177) "></path>
                                <path d="M0.430667394,407.437125 L114.773077,407.437125 L57.6018724,307.327781 L0.430667394,407.437125 Z" stroke="#000000" transform="translate(57.601872, 357.255394) scale(1, -1) translate(-57.601872, -357.255394) "></path>
                                <polygon stroke="#000000" points="1.00176056 702.923777 116.204225 498.716724 231.40669 702.923777"></polygon>
                                <path d="M1191.52398,100.613462 L1305.86639,100.613462 L1248.69518,0.504117922 L1191.52398,100.613462 Z" stroke="#000000" transform="translate(1248.695182, 50.431731) scale(1, -1) translate(-1248.695182, -50.431731) "></path>
                                <path d="M1082.33208,100.613462 L1196.67449,100.613462 L1139.50328,0.504117922 L1082.33208,100.613462 Z" stroke="#000000" transform="translate(1139.503281, 50.431731) scale(1, -1) translate(-1139.503281, -50.431731) "></path>
                                <polygon stroke="#000000" points="1476.59507 504.87372 1591.79754 300.666667 1707 504.87372"></polygon>
                                <path d="M963.122569,697.842131 L1077.46498,697.842131 L1020.29377,597.732787 L963.122569,697.842131 Z" stroke="#000000" transform="translate(1020.293774, 647.660400) scale(1, -1) translate(-1020.293774, -647.660400) "></path>
                                <path d="M1079.32679,697.842131 L1193.6692,697.842131 L1136.498,597.732787 L1079.32679,697.842131 Z" stroke="#86C55B" transform="translate(1136.497999, 647.660400) scale(1, -1) translate(-1136.497999, -647.660400) "></path>
                                <polygon stroke="#FBB315" points="1361.39261 700.871445 1476.59507 496.664391 1591.79754 700.871445"></polygon>
                                <polygon stroke="#000000" transform="translate(910.600352, 201.641638) scale(1, -1) translate(-910.600352, -201.641638) " points="795.397887 303.745165 910.600352 99.5381115 1025.80282 303.745165"></polygon>
                                <polygon stroke="#000000" transform="translate(512.901408, 102.103527) scale(1, -1) translate(-512.901408, -102.103527) " points="397.698944 204.207053 512.901408 0 628.103873 204.207053"></polygon>
                                <polygon stroke="#000000" transform="translate(287.505282, 102.103527) scale(1, -1) translate(-287.505282, -102.103527) " points="172.302817 204.207053 287.505282 0 402.707746 204.207053"></polygon>
                                <polygon stroke="#000000" points="339.596831 902 454.799296 697.792947 570.001761 902"></polygon>
                                <polygon stroke="#000000" points="569 902 684.202465 697.792947 799.40493 902"></polygon>
                                <polygon stroke="#000000" points="794.396127 902 909.598592 697.792947 1024.80106 902"></polygon>
                                <polygon stroke="#000000" points="1022.79754 902 1138 697.792947 1253.20246 902"></polygon>
                                <polygon stroke="#000000" points="1249.19542 902 1364.39789 697.792947 1479.60035 902"></polygon>
                                <polygon stroke="#000000" points="1476.59507 902 1591.79754 697.792947 1707 902"></polygon>
                            </g>
                        </g>
                        <g id="Background-Pattern---1" mask="url(#mask-2)" fill="#FFFFFF" stroke-width="0.5">
                            <g transform="translate(-165.000000, 0.000000)" id="Page-1">
                                <path d="M287.919304,398.20163 L402.255074,398.20163 L345.087189,298.092308 L287.919304,398.20163 Z" stroke="#000000" transform="translate(345.087189, 348.019899) scale(1, -1) translate(-345.087189, -348.019899) "></path>
                                <path d="M346.018056,400.980944 L460.353826,400.980944 L403.185941,300.871622 L346.018056,400.980944 Z" stroke="#FBB315"></path>
                                <path d="M287.919304,498.765908 L402.255074,498.765908 L345.087189,398.656586 L287.919304,498.765908 Z" stroke="#000000"></path>
                                <path d="M344.01465,498.765908 L458.350421,498.765908 L401.182536,398.656586 L344.01465,498.765908 Z" stroke="#000000" transform="translate(401.182536, 448.584177) scale(1, -1) translate(-401.182536, -448.584177) "></path>
                                <path d="M403.115105,200.151574 L517.450875,200.151574 L460.28299,100.042251 L403.115105,200.151574 Z" stroke="#FBB315" transform="translate(460.282990, 149.969843) scale(1, -1) translate(-460.282990, -149.969843) "></path>
                                <path d="M459.210451,202.203906 L573.546221,202.203906 L516.378336,102.094584 L459.210451,202.203906 Z" stroke="#000000"></path>
                                <path d="M683.591836,697.842131 L797.927606,697.842131 L740.759721,597.732809 L683.591836,697.842131 Z" stroke="#000000" transform="translate(740.759721, 647.660400) scale(1, -1) translate(-740.759721, -647.660400) "></path>
                                <path d="M686.596943,100.613462 L800.932713,100.613462 L743.764828,0.504139915 L686.596943,100.613462 Z" stroke="#000000" transform="translate(743.764828, 50.431731) scale(1, -1) translate(-743.764828, -50.431731) "></path>
                                <path d="M799.789338,100.613462 L914.125108,100.613462 L856.957223,0.504139915 L799.789338,100.613462 Z" stroke="#000000" transform="translate(856.957223, 50.431731) scale(1, -1) translate(-856.957223, -50.431731) "></path>
                                <path d="M568.396035,697.842131 L682.731805,697.842131 L625.56392,597.732809 L568.396035,697.842131 Z" stroke="#000000" transform="translate(625.563920, 647.660400) scale(1, -1) translate(-625.563920, -647.660400) "></path>
                                <path d="M231.823958,697.842131 L346.159728,697.842131 L288.991843,597.732809 L231.823958,697.842131 Z" stroke="#000000" transform="translate(288.991843, 647.660400) scale(1, -1) translate(-288.991843, -647.660400) "></path>
                                <path d="M174.726909,597.277853 L289.062679,597.277853 L231.894794,497.168531 L174.726909,597.277853 Z" stroke="#FBB315" transform="translate(231.894794, 547.096122) scale(1, -1) translate(-231.894794, -547.096122) "></path>
                                <path d="M966.071972,697.842131 L1080.40774,697.842131 L1023.23986,597.732809 L966.071972,697.842131 Z" stroke="#000000"></path>
                                <path d="M798.787636,697.842131 L913.123406,697.842131 L855.955521,597.732809 L798.787636,697.842131 Z" stroke="#000000" transform="translate(855.955521, 647.660400) scale(1, -1) translate(-855.955521, -647.660400) "></path>
                                <path d="M854.882982,697.842131 L969.218752,697.842131 L912.050867,597.732809 L854.882982,697.842131 Z" stroke="#000000"></path>
                                <path d="M403.115105,300.715851 L517.450875,300.715851 L460.28299,200.606529 L403.115105,300.715851 Z" stroke="#000000"></path>
                                <path d="M459.210451,200.352389 L516.378336,300.461711 L573.546221,200.352389 L459.210451,200.352389 Z" stroke="#000000"></path>
                                <path d="M456.205343,597.277853 L570.541113,597.277853 L513.373228,497.168531 L456.205343,597.277853 Z" stroke="#000000"></path>
                                <path d="M512.300689,597.277853 L626.636459,597.277853 L569.468574,497.168531 L512.300689,597.277853 Z" stroke="#FBB315" transform="translate(569.468574, 547.096122) scale(1, -1) translate(-569.468574, -547.096122) "></path>
                                <path d="M570.399441,200.352389 L627.567326,300.461711 L684.735211,200.352389 L570.399441,200.352389 Z" stroke="#2D8E4A"></path>
                                <path d="M627.496489,300.715851 L741.832259,300.715851 L684.664374,200.606529 L627.496489,300.715851 Z" stroke="#000000"></path>
                                <path d="M570.399441,399.227797 L684.735211,399.227797 L627.567326,299.118474 L570.399441,399.227797 Z" stroke="#000000"></path>
                                <path d="M627.496489,399.227797 L741.832259,399.227797 L684.664374,299.118474 L627.496489,399.227797 Z" stroke="#000000" transform="translate(684.664374, 349.046066) scale(1, -1) translate(-684.664374, -349.046066) "></path>
                                <path d="M685.595241,202.203906 L799.931011,202.203906 L742.763126,102.094584 L685.595241,202.203906 Z" stroke="#86C55B"></path>
                                <path d="M741.690587,200.151574 L856.026357,200.151574 L798.858472,100.042251 L741.690587,200.151574 Z" stroke="#000000" transform="translate(798.858472, 149.969843) scale(1, -1) translate(-798.858472, -149.969843) "></path>
                                <path d="M741.690587,399.227797 L856.026357,399.227797 L798.858472,299.118474 L741.690587,399.227797 Z" stroke="#000000" transform="translate(798.858472, 349.046066) scale(1, -1) translate(-798.858472, -349.046066) "></path>
                                <path d="M798.787636,399.227797 L913.123406,399.227797 L855.955521,299.118474 L798.787636,399.227797 Z" stroke="#000000"></path>
                                <path d="M741.690587,498.765908 L856.026357,498.765908 L798.858472,398.656586 L741.690587,498.765908 Z" stroke="#000000"></path>
                                <path d="M798.787636,498.765908 L913.123406,498.765908 L855.955521,398.656586 L798.787636,498.765908 Z" stroke="#000000" transform="translate(855.955521, 448.584177) scale(1, -1) translate(-855.955521, -448.584177) "></path>
                                <path d="M797.785933,202.203906 L912.121703,202.203906 L854.953818,102.094584 L797.785933,202.203906 Z" stroke="#000000"></path>
                                <path d="M852.879577,300.715851 L967.215347,300.715851 L910.047462,200.606529 L852.879577,300.715851 Z" stroke="#000000"></path>
                                <path d="M856.886387,399.227797 L971.222157,399.227797 L914.054272,299.118474 L856.886387,399.227797 Z" stroke="#000000" transform="translate(914.054272, 349.046066) scale(1, -1) translate(-914.054272, -349.046066) "></path>
                                <path d="M853.881279,498.765908 L968.217049,498.765908 L911.049164,398.656586 L853.881279,498.765908 Z" stroke="#000000"></path>
                                <path d="M909.976626,399.227797 L1024.3124,399.227797 L967.144511,299.118474 L909.976626,399.227797 Z" stroke="#000000"></path>
                                <path d="M853.881279,597.277853 L968.217049,597.277853 L911.049164,497.168531 L853.881279,597.277853 Z" stroke="#000000" transform="translate(911.049164, 547.096122) scale(1, -1) translate(-911.049164, -547.096122) "></path>
                                <path d="M909.976626,697.842131 L1024.3124,697.842131 L967.144511,597.732809 L909.976626,697.842131 Z" stroke="#000000" transform="translate(967.144511, 647.660400) scale(1, -1) translate(-967.144511, -647.660400) "></path>
                                <path d="M968.075377,300.715851 L1082.41115,300.715851 L1025.24326,200.606529 L968.075377,300.715851 Z" stroke="#000000"></path>
                                <path d="M1025.17243,202.203906 L1139.5082,202.203906 L1082.34031,102.094584 L1025.17243,202.203906 Z" stroke="#000000"></path>
                                <path d="M968.075377,399.227797 L1082.41115,399.227797 L1025.24326,299.118474 L968.075377,399.227797 Z" stroke="#000000" transform="translate(1025.243262, 349.046066) scale(1, -1) translate(-1025.243262, -349.046066) "></path>
                                <path d="M1025.17243,498.765908 L1139.5082,498.765908 L1082.34031,398.656586 L1025.17243,498.765908 Z" stroke="#000000" transform="translate(1082.340311, 448.584177) scale(1, -1) translate(-1082.340311, -448.584177) "></path>
                                <path d="M570.399441,597.277853 L684.735211,597.277853 L627.567326,497.168531 L570.399441,597.277853 Z" stroke="#2D8E4A"></path>
                                <path d="M627.496489,498.765908 L741.832259,498.765908 L684.664374,398.656586 L627.496489,498.765908 Z" stroke="#A23D96"></path>
                                <path d="M912.981733,100.613462 L1027.3175,100.613462 L970.149618,0.504139915 L912.981733,100.613462 Z" stroke="#000000" transform="translate(970.149618, 50.431731) scale(1, -1) translate(-970.149618, -50.431731) "></path>
                                <path d="M1251.55722,697.842131 L1365.89299,697.842131 L1308.7251,597.732809 L1251.55722,697.842131 Z" stroke="#86C55B" transform="translate(1308.725101, 647.660400) scale(1, -1) translate(-1308.725101, -647.660400) "></path>
                                <path d="M1307.65256,697.842131 L1421.98833,697.842131 L1364.82045,597.732809 L1307.65256,697.842131 Z" stroke="#000000"></path>
                                <path d="M1137.36312,202.203906 L1251.69889,202.203906 L1194.531,102.094584 L1137.36312,202.203906 Z" stroke="#000000"></path>
                                <path d="M1193.45846,200.151574 L1307.79423,200.151574 L1250.62635,100.042251 L1193.45846,200.151574 Z" stroke="#000000" transform="translate(1250.626349, 149.969843) scale(1, -1) translate(-1250.626349, -149.969843) "></path>
                                <path d="M1195.46187,399.227797 L1309.79764,399.227797 L1252.62975,299.118474 L1195.46187,399.227797 Z" stroke="#000000" transform="translate(1252.629755, 349.046066) scale(1, -1) translate(-1252.629755, -349.046066) "></path>
                                <path d="M1251.55722,399.227797 L1365.89299,399.227797 L1308.7251,299.118474 L1251.55722,399.227797 Z" stroke="#000000"></path>
                                <path d="M1306.65086,304.521331 L1420.98663,304.521331 L1363.81874,204.412009 L1306.65086,304.521331 Z" stroke="#000000"></path>
                                <path d="M1362.74621,300.715851 L1477.08198,300.715851 L1419.91409,200.606529 L1362.74621,300.715851 Z" stroke="#FBB315" transform="translate(1419.914091, 250.534120) scale(1, -1) translate(-1419.914091, -250.534120) "></path>
                                <path d="M1362.74621,498.765908 L1477.08198,498.765908 L1419.91409,398.656586 L1362.74621,498.765908 Z" stroke="#000000" transform="translate(1419.914091, 448.584177) scale(1, -1) translate(-1419.914091, -448.584177) "></path>
                                <path d="M1418.84155,498.765908 L1533.17732,498.765908 L1476.00944,398.656586 L1418.84155,498.765908 Z" stroke="#000000"></path>
                                <path d="M1362.74621,597.277853 L1477.08198,597.277853 L1419.91409,497.168531 L1362.74621,597.277853 Z" stroke="#000000"></path>
                                <path d="M1418.84155,597.277853 L1533.17732,597.277853 L1476.00944,497.168531 L1418.84155,597.277853 Z" stroke="#2D8E4A" transform="translate(1476.009437, 547.096122) scale(1, -1) translate(-1476.009437, -547.096122) "></path>
                                <path d="M1474.9369,300.715851 L1589.27267,300.715851 L1532.10478,200.606529 L1474.9369,300.715851 Z" stroke="#86C55B" transform="translate(1532.104783, 250.534120) scale(1, -1) translate(-1532.104783, -250.534120) "></path>
                                <path d="M1531.03224,300.715851 L1645.36801,300.715851 L1588.20013,200.606529 L1531.03224,300.715851 Z" stroke="#000000"></path>
                                <path d="M1080.26607,597.277853 L1194.60184,597.277853 L1137.43395,497.168531 L1080.26607,597.277853 Z" stroke="#000000" transform="translate(1137.433954, 547.096122) scale(1, -1) translate(-1137.433954, -547.096122) "></path>
                                <path d="M1136.36142,597.277853 L1250.69719,597.277853 L1193.5293,497.168531 L1136.36142,597.277853 Z" stroke="#2D8E4A"></path>
                                <path d="M1419.84325,100.613462 L1534.17902,100.613462 L1477.01114,0.504139915 L1419.84325,100.613462 Z" stroke="#000000"></path>
                                <path d="M1476.9403,100.613462 L1591.27607,100.613462 L1534.10819,0.504139915 L1476.9403,100.613462 Z" stroke="#000000" transform="translate(1534.108188, 50.431731) scale(1, -1) translate(-1534.108188, -50.431731) "></path>
                                <polygon stroke="#2D8E4A" transform="translate(1535.610102, 400.717861) scale(1, -1) translate(-1535.610102, -400.717861) " points="1420.4143 502.821388 1535.6101 298.614334 1650.8059 502.821388"></polygon>
                                <polygon stroke="#000000" points="1248.12145 204.207053 1363.31725 0 1478.51305 204.207053"></polygon>
                                <path d="M1527.02543,100.613462 L1641.3612,100.613462 L1584.19332,0.504139915 L1527.02543,100.613462 Z" stroke="#000000"></path>
                                <polygon stroke="#000000" transform="translate(174.296254, 799.896473) scale(1, -1) translate(-174.296254, -799.896473) " points="59.100454 902 174.296254 697.792947 289.492054 902"></polygon>
                                <path d="M59.5311091,500.519056 L173.866879,500.519056 L116.698994,400.409734 L59.5311091,500.519056 Z" stroke="#000000"></path>
                                <path d="M59.5311091,306.573663 L173.866879,306.573663 L116.698994,206.464341 L59.5311091,306.573663 Z" stroke="#000000"></path>
                                <polygon stroke="#000000" transform="translate(115.195800, 102.103527) scale(1, -1) translate(-115.195800, -102.103527) " points="0 204.207053 115.1958 0 230.3916 204.207053"></polygon>
                                <path d="M117.62986,403.033276 L231.965631,403.033276 L174.797746,302.923954 L117.62986,403.033276 Z" stroke="#000000"></path>
                                <path d="M1197.46527,100.613462 L1311.80104,100.613462 L1254.63316,0.504139915 L1197.46527,100.613462 Z" stroke="#FBB315"></path>
                                <polygon stroke="#000000" transform="translate(1645.797389, 201.641638) scale(1, -1) translate(-1645.797389, -201.641638) " points="1530.60159 303.745165 1645.79739 99.5381115 1760.99319 303.745165"></polygon>
                                <path d="M1080.26607,697.842131 L1194.60184,697.842131 L1137.43395,597.732809 L1080.26607,697.842131 Z" stroke="#000000"></path>
                                <path d="M1084.27288,100.613462 L1198.60865,100.613462 L1141.44076,0.504139915 L1084.27288,100.613462 Z" stroke="#000000"></path>
                                <polygon stroke="#000000" transform="translate(1649.804200, 598.767918) scale(1, -1) translate(-1649.804200, -598.767918) " points="1534.6084 700.871445 1649.8042 496.664391 1765 700.871445"></polygon>
                                <polygon stroke="#000000" transform="translate(230.391600, 305.284414) scale(1, -1) translate(-230.391600, -305.284414) " points="115.1958 407.387941 230.3916 203.180887 345.587401 407.387941"></polygon>
                                <polygon stroke="#000000" transform="translate(1253.129966, 500.255973) scale(1, -1) translate(-1253.129966, -500.255973) " points="1137.93417 602.359499 1253.12997 398.152446 1368.32577 602.359499"></polygon>
                                <polygon stroke="#000000" points="286.486947 700.871445 401.682747 496.664391 516.878547 700.871445"></polygon>
                                <polygon stroke="#2D8E4A" transform="translate(401.682747, 799.896473) scale(1, -1) translate(-401.682747, -799.896473) " points="286.486947 902 401.682747 697.792947 516.878547 902"></polygon>
                                <polygon stroke="#A23D96" transform="translate(630.070942, 799.896473) scale(1, -1) translate(-630.070942, -799.896473) " points="514.875142 902 630.070942 697.792947 745.266742 902"></polygon>
                                <polygon stroke="#000000" transform="translate(854.452327, 799.896473) scale(1, -1) translate(-854.452327, -799.896473) " points="739.256527 902 854.452327 697.792947 969.648127 902"></polygon>
                                <polygon stroke="#000000" transform="translate(1081.838820, 799.896473) scale(1, -1) translate(-1081.838820, -799.896473) " points="966.643019 902 1081.83882 697.792947 1197.03462 902"></polygon>
                                <polygon stroke="#000000" transform="translate(1311.228717, 799.896473) scale(1, -1) translate(-1311.228717, -799.896473) " points="1196.03292 902 1311.22872 697.792947 1426.42452 902"></polygon>
                                <polygon stroke="#000000" transform="translate(1536.611805, 799.896473) scale(1, -1) translate(-1536.611805, -799.896473) " points="1421.416 902 1536.6118 697.792947 1651.8076 902"></polygon>
                            </g>
                        </g>
                    </g>
                    <g id="Dots" transform="translate(55.000000, 79.000000)" fill="#9B9B9B">
                        <path d="M1190.73197,18.8023248 C1190.73197,26.9148208 1197.16333,33.48584 1205.1159,33.48584 C1213.03942,33.48584 1219.47078,26.9148208 1219.47078,18.8023248 C1219.47078,10.6734192 1213.03942,4.1024 1205.1159,4.1024 C1197.16333,4.1024 1190.73197,10.6734192 1190.73197,18.8023248" id="Fill-349"></path>
                        <path d="M735.069192,217.801544 C735.069192,225.882246 741.532593,232.486085 749.452112,232.486085 C757.375637,232.486085 763.806992,225.882246 763.806992,217.801544 C763.806992,209.624435 757.375637,203.0688 749.452112,203.0688 C741.532593,203.0688 735.069192,209.624435 735.069192,217.801544" id="Fill-351"></path>
                        <path d="M1186.72615,420.86419 C1186.72615,427.291626 1191.82657,432.481162 1198.13174,432.481162 C1204.40586,432.481162 1209.50728,427.291626 1209.50728,420.86419 C1209.50728,414.408038 1204.40586,409.2144 1198.13174,409.2144 C1191.82657,409.2144 1186.72615,414.408038 1186.72615,420.86419" id="Fill-353"></path>
                        <path d="M1077.56737,18.8771936 C1077.56737,25.3343712 1082.70084,30.5105744 1088.97697,30.5105744 C1095.24809,30.5105744 1100.38055,25.3343712 1100.38055,18.8771936 C1100.38055,12.3871968 1095.24809,7.1792 1088.97697,7.1792 C1082.70084,7.1792 1077.56737,12.3871968 1077.56737,18.8771936" id="Fill-355"></path>
                        <path d="M1309.90532,21.322224 C1309.90532,24.6482448 1312.5041,27.3086512 1315.7358,27.3086512 C1318.9675,27.3086512 1321.56728,24.6482448 1321.56728,21.322224 C1321.56728,18.045432 1318.9675,15.384 1315.7358,15.384 C1312.5041,15.384 1309.90532,18.045432 1309.90532,21.322224" id="Fill-357"></path>
                        <path d="M1367.9898,121.367453 C1367.9898,123.265838 1369.47897,124.790906 1371.34869,124.790906 C1373.21741,124.790906 1374.70657,123.265838 1374.70657,121.367453 C1374.70657,119.469067 1373.21741,117.944 1371.34869,117.944 C1369.47897,117.944 1367.9898,119.469067 1367.9898,121.367453" id="Fill-359"></path>
                        <path d="M965.404224,218.457928 C965.404224,222.984926 968.986435,226.69965 973.453933,226.69965 C977.858339,226.69965 981.468591,222.984926 981.468591,218.457928 C981.468591,213.91452 977.858339,210.248 973.453933,210.248 C968.986435,210.248 965.404224,213.91452 965.404224,218.457928" id="Fill-361"></path>
                        <path d="M856.245448,17.440328 C856.245448,21.9673264 859.827658,25.6830752 864.26311,25.6830752 C868.730608,25.6830752 872.280772,21.9673264 872.280772,17.440328 C872.280772,12.89692 868.730608,9.2304 864.26311,9.2304 C859.827658,9.2304 856.245448,12.89692 856.245448,17.440328" id="Fill-363"></path>
                        <path d="M176.256373,19.491528 C176.256373,24.0185264 179.838583,27.7342752 184.274035,27.7342752 C188.741533,27.7342752 192.291697,24.0185264 192.291697,19.491528 C192.291697,14.94812 188.741533,11.2816 184.274035,11.2816 C179.838583,11.2816 176.256373,14.94812 176.256373,19.491528" id="Fill-363"></path>
                        <path d="M1194.7378,221.614725 C1194.7378,226.110955 1198.35206,229.77645 1202.75546,229.77645 C1207.19091,229.77645 1210.77312,226.110955 1210.77312,221.614725 C1210.77312,217.039523 1207.19091,213.3248 1202.75546,213.3248 C1198.35206,213.3248 1194.7378,217.039523 1194.7378,221.614725" id="Fill-365"></path>
                        <path d="M225.327749,118.31219 C225.327749,124.769368 230.42917,129.9948 236.735342,129.9948 C243.009468,129.9948 248.110889,124.769368 248.110889,118.31219 C248.110889,111.870397 243.009468,106.6624 236.735342,106.6624 C230.42917,106.6624 225.327749,111.870397 225.327749,118.31219" id="Fill-367"></path>
                        <path d="M904.315368,319.33697 C904.315368,327.481259 910.778769,334.03792 918.698288,334.03792 C926.621814,334.03792 933.086216,327.481259 933.086216,319.33697 C933.086216,311.225499 926.621814,304.6032 918.698288,304.6032 C910.778769,304.6032 904.315368,311.225499 904.315368,319.33697" id="Fill-369"></path>
                        <path d="M1023.48871,518.433621 C1023.48871,523.852891 1027.76794,528.199384 1033.02759,528.199384 C1038.28724,528.199384 1042.56446,523.852891 1042.56446,518.433621 C1042.56446,513.04717 1038.28724,508.6976 1033.02759,508.6976 C1027.76794,508.6976 1023.48871,513.04717 1023.48871,518.433621" id="Fill-371"></path>
                        <path d="M511.744355,620.990544 C511.744355,626.409814 516.024581,630.793229 521.251184,630.793229 C526.572924,630.793229 530.85315,626.409814 530.85315,620.990544 C530.85315,615.636912 526.572924,611.2576 521.251184,611.2576 C516.024581,611.2576 511.744355,615.636912 511.744355,620.990544" id="Fill-373"></path>
                        <path d="M287.418063,620.031608 C287.418063,625.388317 291.695284,629.767629 296.987983,629.767629 C302.215586,629.767629 306.493809,625.388317 306.493809,620.031608 C306.493809,614.615414 302.215586,610.232 296.987983,610.232 C291.695284,610.232 287.418063,614.615414 287.418063,620.031608" id="Fill-375"></path>
                        <path d="M341.496723,321.55124 C341.496723,326.938717 345.742899,331.317003 351.002549,331.317003 C356.294246,331.317003 360.540422,326.938717 360.540422,321.55124 C360.540422,316.13197 356.294246,311.7824 351.002549,311.7824 C345.742899,311.7824 341.496723,316.13197 341.496723,321.55124" id="Fill-377"></path>
                        <path d="M57.0830299,417.988408 C57.0830299,423.377936 61.3602513,427.724429 66.5888565,427.724429 C71.8805535,427.724429 76.1587764,423.377936 76.1587764,417.988408 C76.1587764,412.539395 71.8805535,408.1888 66.5888565,408.1888 C61.3602513,408.1888 57.0830299,412.539395 57.0830299,417.988408" id="Fill-379"></path>
                        <path d="M287.418063,22.0421952 C287.418063,27.4768496 291.696286,31.8418032 296.923889,31.8418032 C302.215586,31.8418032 306.493809,27.4768496 306.493809,22.0421952 C306.493809,16.671128 302.215586,12.3072 296.923889,12.3072 C291.696286,12.3072 287.418063,16.671128 287.418063,22.0421952" id="Fill-381"></path>
                        <path d="M115.167516,316.437598 C115.167516,321.82405 119.444738,326.191054 124.70539,326.191054 C129.96504,326.191054 134.243263,321.82405 134.243263,316.437598 C134.243263,311.018328 129.96504,306.6544 124.70539,306.6544 C119.444738,306.6544 115.167516,311.018328 115.167516,316.437598" id="Fill-383"></path>
                        <path d="M513.747269,22.091424 C513.747269,27.4460816 518.02449,31.8920576 523.254097,31.8920576 C528.544792,31.8920576 532.823015,27.4460816 532.823015,22.091424 C532.823015,16.6721536 528.544792,12.3072 523.254097,12.3072 C518.02449,12.3072 513.747269,16.6721536 513.747269,22.091424" id="Fill-385"></path>
                        <path d="M458.638611,122.800113 C458.638611,128.170155 462.915832,132.535109 468.144437,132.535109 C473.436134,132.535109 477.714357,128.170155 477.714357,122.800113 C477.714357,117.380843 473.436134,112.99948 468.144437,112.99948 C462.915832,112.99948 458.638611,117.380843 458.638611,122.800113" id="Fill-387"></path>
                        <path d="M571.831755,121.604366 C571.831755,124.736549 574.366442,127.315933 577.439913,127.315933 C580.54543,127.315933 582.984978,124.736549 582.984978,121.604366 C582.984978,118.423981 580.54543,115.8928 577.439913,115.8928 C574.366442,115.8928 571.831755,118.423981 571.831755,121.604366" id="Fill-389"></path>
                        <path d="M515.750182,220.045557 C515.750182,223.242352 518.252822,225.805326 521.358339,225.805326 C524.43181,225.805326 526.935452,223.242352 526.935452,220.045557 C526.935452,216.9144 524.43181,214.3504 521.358339,214.3504 C518.252822,214.3504 515.750182,216.9144 515.750182,220.045557" id="Fill-391"></path>
                        <path d="M175.254916,220.047608 C175.254916,225.466878 179.501092,229.833883 184.760743,229.833883 C190.05244,229.833883 194.298616,225.466878 194.298616,220.047608 C194.298616,214.628338 190.05244,210.248 184.760743,210.248 C179.501092,210.248 175.254916,214.628338 175.254916,220.047608" id="Fill-393"></path>
                        <path d="M398.19319,619.524978 C398.19319,626.260165 403.582947,631.7696 410.17155,631.7696 C416.839655,631.7696 422.22815,626.260165 422.22815,619.524978 C422.22815,612.665925 416.839655,607.1552 410.17155,607.1552 C403.582947,607.1552 398.19319,612.665925 398.19319,619.524978" id="Fill-395"></path>
                        <path d="M966.405681,18.9961632 C966.405681,24.4164592 970.682902,28.7998736 975.941551,28.7998736 C981.23425,28.7998736 985.481428,24.4164592 985.481428,18.9961632 C985.481428,13.609712 981.23425,9.2304 975.941551,9.2304 C970.682902,9.2304 966.405681,13.609712 966.405681,18.9961632" id="Fill-397"></path>
                        <path d="M1306.90095,420.009866 C1306.90095,425.429136 1311.14812,429.775629 1316.47387,429.775629 C1321.73352,429.775629 1325.97769,425.429136 1325.97769,420.009866 C1325.97769,414.623414 1321.73352,410.24 1316.47387,410.24 C1311.14812,410.24 1306.90095,414.623414 1306.90095,420.009866" id="Fill-399"></path>
                        <path d="M567.825929,518.433621 C567.825929,523.852891 572.070102,528.233229 577.329752,528.233229 C582.621449,528.233229 586.898671,523.852891 586.898671,518.433621 C586.898671,513.076912 582.621449,508.6976 577.329752,508.6976 C572.070102,508.6976 567.825929,513.076912 567.825929,518.433621" id="Fill-401"></path>
                        <path d="M682.993445,521.510421 C682.993445,526.929691 687.269665,531.342848 692.529315,531.342848 C697.79197,531.342848 702.069192,526.929691 702.069192,521.510421 C702.069192,516.153712 697.79197,511.7744 692.529315,511.7744 C687.269665,511.7744 682.993445,516.153712 682.993445,521.510421" id="Fill-403"></path>
                        <path d="M1017.47997,318.199579 C1017.47997,328.56737 1025.68591,336.987546 1035.79661,336.987546 C1045.90432,336.987546 1054.11025,328.56737 1054.11025,318.199579 C1054.11025,307.831789 1045.90432,299.4752 1035.79661,299.4752 C1025.68591,299.4752 1017.47997,307.831789 1017.47997,318.199579" id="Fill-405"></path>
                        <path d="M844.968545,618.730122 C844.968545,629.081502 853.175483,637.455526 863.283185,637.455526 C873.390887,637.455526 881.566779,629.081502 881.566779,618.730122 C881.566779,608.378741 873.390887,599.976 863.283185,599.976 C853.175483,599.976 844.968545,608.378741 844.968545,618.730122" id="Fill-407"></path>
                        <path d="M900.309541,120.306982 C900.309541,130.674773 908.50346,139.095974 918.61016,139.095974 C928.749909,139.095974 936.923798,130.674773 936.923798,120.306982 C936.923798,109.939192 928.749909,101.5344 918.61016,101.5344 C908.50346,101.5344 900.309541,109.939192 900.309541,120.306982" id="Fill-409"></path>
                        <path d="M48.4296431,621.4375 C48.4296431,631.788881 56.6365805,640.225467 66.7442826,640.225467 C76.8519847,640.225467 85.0589221,631.788881 85.0589221,621.4375 C85.0589221,611.083043 76.8519847,602.679276 66.7442826,602.679276 C56.6365805,602.679276 48.4296431,611.083043 48.4296431,621.4375" id="Fill-411"></path>
                        <path d="M614.909414,18.7910432 C614.909414,8.420176 623.116351,0 633.224053,0 C643.331755,0 651.507647,8.420176 651.507647,18.7910432 C651.507647,29.142424 643.331755,37.5123456 633.224053,37.5123456 C623.116351,37.5123456 614.909414,29.142424 614.909414,18.7910432" id="Fill-197"></path>
                        <path d="M1185.72469,618.842938 C1185.72469,610.698648 1192.15605,604.0784 1200.10861,604.0784 C1208.03214,604.0784 1214.46349,610.698648 1214.46349,618.842938 C1214.46349,626.924666 1208.03214,633.477224 1200.10861,633.477224 C1192.15605,633.477224 1185.72469,626.924666 1185.72469,618.842938" id="Fill-139"></path>
                        <path d="M620.903132,619.803925 C620.903132,611.660661 627.366533,605.104 635.286052,605.104 C643.209578,605.104 649.640932,611.660661 649.640932,619.803925 C649.640932,627.915395 643.209578,634.534618 635.286052,634.534618 C627.366533,634.534618 620.903132,627.915395 620.903132,619.803925" id="Fill-141"></path>
                        <path d="M1076.56591,420.914445 C1076.56591,414.45419 1081.66633,409.2144 1087.9715,409.2144 C1094.24563,409.2144 1099.34705,414.45419 1099.34705,420.914445 C1099.34705,427.370597 1094.24563,432.595003 1087.9715,432.595003 C1081.66633,432.595003 1076.56591,427.370597 1076.56591,420.914445" id="Fill-143"></path>
                        <path d="M1081.5732,616.787635 C1081.5732,610.328406 1086.70666,605.104 1092.98279,605.104 C1099.25391,605.104 1104.38638,610.328406 1104.38638,616.787635 C1104.38638,623.211994 1099.25391,628.437426 1092.98279,628.437426 C1086.70666,628.437426 1081.5732,623.211994 1081.5732,616.787635" id="Fill-145"></path>
                        <path d="M909.322651,517.871743 C909.322651,513.917712 912.44699,510.7488 916.332246,510.7488 C920.217502,510.7488 923.343044,513.917712 923.343044,517.871743 C923.343044,521.938288 920.217502,525.1072 916.332246,525.1072 C912.44699,525.1072 909.322651,521.938288 909.322651,517.871743" id="Fill-147"></path>
                        <path d="M799.162418,518.4408 C799.162418,515.913035 801.16938,513.8256 803.689218,513.8256 C806.207706,513.8256 808.175528,515.913035 808.175528,518.4408 C808.175528,520.964436 806.207706,523.056 803.689218,523.056 C801.16938,523.056 799.162418,520.964436 799.162418,518.4408" id="Fill-149"></path>
                        <path d="M967.407138,618.410134 C967.407138,613.867752 970.989348,610.232 975.456846,610.232 C979.861253,610.232 983.471504,613.867752 983.471504,618.410134 C983.471504,622.953542 979.861253,626.65083 975.456846,626.65083 C970.989348,626.65083 967.407138,622.953542 967.407138,618.410134" id="Fill-151"></path>
                        <path d="M739.075018,621.552573 C739.075018,617.01019 742.657229,613.3088 747.09268,613.3088 C751.560178,613.3088 755.110342,617.01019 755.110342,621.552573 C755.110342,626.062136 751.560178,629.793269 747.09268,629.793269 C742.657229,629.793269 739.075018,626.062136 739.075018,621.552573" id="Fill-153"></path>
                        <path d="M853.241078,418.451979 C853.241078,413.905494 856.855335,410.24 861.25874,410.24 C865.694192,410.24 869.276402,413.905494 869.276402,418.451979 C869.276402,422.994362 865.694192,426.65883 861.25874,426.65883 C856.855335,426.65883 853.241078,422.994362 853.241078,418.451979" id="Fill-155"></path>
                        <path d="M0,517.27059 C0,510.878026 5.10142025,505.6208 11.4075929,505.6208 C17.6817189,505.6208 22.7831391,510.878026 22.7831391,517.27059 C22.7831391,523.727768 17.6817189,528.983968 11.4075929,528.983968 C5.10142025,528.983968 0,523.727768 0,517.27059" id="Fill-157"></path>
                        <path d="M1127.6402,319.287741 C1127.6402,311.159861 1134.10361,304.6032 1142.02312,304.6032 C1149.94665,304.6032 1156.41105,311.159861 1156.41105,319.287741 C1156.41105,327.415621 1149.94665,333.971256 1142.02312,333.971256 C1134.10361,333.971256 1127.6402,327.415621 1127.6402,319.287741" id="Fill-159"></path>
                        <path d="M1137.33531,120.499795 C1137.33531,115.129754 1141.61453,110.7648 1146.87418,110.7648 C1152.13383,110.7648 1156.41105,115.129754 1156.41105,120.499795 C1156.41105,125.919066 1152.13383,130.299403 1146.87418,130.299403 C1141.61453,130.299403 1137.33531,125.919066 1137.33531,120.499795" id="Fill-161"></path>
                        <path d="M676.984705,121.541805 C676.984705,116.187147 681.264931,111.7904 686.491533,111.7904 C691.813274,111.7904 696.0935,116.187147 696.0935,121.541805 C696.0935,126.961075 691.813274,131.326029 686.491533,131.326029 C681.264931,131.326029 676.984705,126.961075 676.984705,121.541805" id="Fill-163"></path>
                        <path d="M402.585579,21.0822336 C402.585579,15.6629632 406.8628,11.2816 412.155499,11.2816 C417.383103,11.2816 421.661326,15.6629632 421.661326,21.0822336 C421.661326,26.4522752 417.383103,30.8172288 412.155499,30.8172288 C406.8628,30.8172288 402.585579,26.4522752 402.585579,21.0822336" id="Fill-165"></path>
                        <path d="M287.418063,422.091834 C287.418063,416.672563 291.695284,412.2912 296.987983,412.2912 C302.215586,412.2912 306.493809,416.672563 306.493809,422.091834 C306.493809,427.461875 302.215586,431.826829 296.987983,431.826829 C291.695284,431.826829 287.418063,427.461875 287.418063,422.091834" id="Fill-165"></path>
                        <path d="M229.035142,518.498234 C229.035142,513.078963 233.312363,508.6976 238.605062,508.6976 C243.832666,508.6976 248.110889,513.078963 248.110889,518.498234 C248.110889,523.868275 243.832666,528.233229 238.605062,528.233229 C233.312363,528.233229 229.035142,523.868275 229.035142,518.498234" id="Fill-165"></path>
                        <path d="M344.501092,121.574624 C344.501092,116.155354 348.747269,111.7904 354.006919,111.7904 C359.298616,111.7904 363.544792,116.155354 363.544792,121.574624 C363.544792,126.961075 359.298616,131.326029 354.006919,131.326029 C348.747269,131.326029 344.501092,126.961075 344.501092,121.574624" id="Fill-167"></path>
                        <path d="M1.00145666,321.548163 C1.00145666,316.178122 5.27867808,311.7824 10.5072833,311.7824 C15.7989803,311.7824 20.0772032,316.178122 20.0772032,321.548163 C20.0772032,326.951024 15.7989803,331.334438 10.5072833,331.334438 C5.27867808,331.334438 1.00145666,326.951024 1.00145666,321.548163" id="Fill-169"></path>
                        <path d="M114.16606,518.463363 C114.16606,513.076912 118.444283,508.6976 123.671886,508.6976 C128.963583,508.6976 133.241806,513.076912 133.241806,518.463363 C133.241806,523.849814 128.963583,528.266048 123.671886,528.266048 C118.444283,528.266048 114.16606,523.849814 114.16606,518.463363" id="Fill-171"></path>
                        <path d="M287.418063,220.01684 C287.418063,214.59757 291.695284,210.248 296.955936,210.248 C302.215586,210.248 306.493809,214.59757 306.493809,220.01684 C306.493809,225.403291 302.215586,229.816448 296.955936,229.816448 C291.695284,229.816448 287.418063,225.403291 287.418063,220.01684" id="Fill-173"></path>
                        <path d="M453.659869,518.467466 C453.659869,513.04717 457.93709,508.6976 463.166697,508.6976 C468.457393,508.6976 472.735615,513.04717 472.735615,518.467466 C472.735615,523.853917 468.457393,528.233229 463.166697,528.233229 C457.93709,528.233229 453.659869,523.853917 453.659869,518.467466" id="Fill-175"></path>
                        <path d="M342.498179,520.581227 C342.498179,515.129138 346.775401,510.7488 352.004006,510.7488 C357.295703,510.7488 361.573926,515.129138 361.573926,520.581227 C361.573926,525.934859 357.295703,530.314171 352.004006,530.314171 C346.775401,530.314171 342.498179,525.934859 342.498179,520.581227" id="Fill-177"></path>
                        <path d="M401.584122,418.002766 C401.584122,414.822381 404.118809,412.2912 407.19228,412.2912 C410.297797,412.2912 412.737345,414.822381 412.737345,418.002766 C412.737345,421.149307 410.297797,423.681514 407.19228,423.681514 C404.118809,423.681514 401.584122,421.149307 401.584122,418.002766" id="Fill-179"></path>
                        <path d="M178.192589,417.969947 C178.192589,414.885968 180.695229,412.2912 183.800747,412.2912 C186.874217,412.2912 189.377859,414.885968 189.377859,417.969947 C189.377859,421.150333 186.874217,423.745101 183.800747,423.745101 C180.695229,423.745101 178.192589,421.150333 178.192589,417.969947" id="Fill-181"></path>
                        <path d="M66.0152221,221.711234 C66.0152221,216.324783 70.2613984,211.975213 75.5210488,211.975213 C80.8127458,211.975213 85.0589221,216.324783 85.0589221,221.711234 C85.0589221,227.13153 80.8127458,231.476997 75.5210488,231.476997 C70.2613984,231.476997 66.0152221,227.13153 66.0152221,221.711234" id="Fill-183"></path>
                        <path d="M796.158048,123.593005 C796.158048,118.222963 800.435269,113.8416 805.663875,113.8416 C810.955572,113.8416 815.231792,118.222963 815.231792,123.593005 C815.231792,129.012275 810.955572,133.377229 805.663875,133.377229 C800.435269,133.377229 796.158048,129.012275 796.158048,123.593005" id="Fill-185"></path>
                        <path d="M1021.4858,119.539834 C1021.4858,114.120563 1025.76302,109.7392 1031.02167,109.7392 C1036.31437,109.7392 1040.56154,114.120563 1040.56154,119.539834 C1040.56154,124.909875 1036.31437,129.274829 1031.02167,129.274829 C1025.76302,129.274829 1021.4858,124.909875 1021.4858,119.539834" id="Fill-187"></path>
                        <path d="M1306.90095,220.047608 C1306.90095,214.628338 1311.14812,210.248 1316.47387,210.248 C1321.73352,210.248 1325.97769,214.628338 1325.97769,220.047608 C1325.97769,225.466878 1321.73352,229.830806 1316.47387,229.830806 C1311.14812,229.830806 1306.90095,225.466878 1306.90095,220.047608" id="Fill-189"></path>
                        <path d="M1252.82229,122.550995 C1252.82229,117.180954 1257.06646,112.816 1262.32611,112.816 C1267.61781,112.816 1271.89503,117.180954 1271.89503,122.550995 C1271.89503,127.970266 1267.61781,132.351629 1262.32611,132.351629 C1257.06646,132.351629 1252.82229,127.970266 1252.82229,122.550995" id="Fill-191"></path>
                        <path d="M740.076475,16.963424 C740.076475,11.5605632 744.353696,7.1792 749.612345,7.1792 C754.875,7.1792 759.152221,11.5605632 759.152221,16.963424 C759.152221,22.3498752 754.875,26.7312384 749.612345,26.7312384 C744.353696,26.7312384 740.076475,22.3498752 740.076475,16.963424" id="Fill-193"></path>
                        <path d="M1237.80044,518.255166 C1237.80044,507.903786 1246.00637,499.4672 1256.11708,499.4672 C1266.22478,499.4672 1274.43072,507.903786 1274.43072,518.255166 C1274.43072,528.639366 1266.22478,537.043133 1256.11708,537.043133 C1246.00637,537.043133 1237.80044,528.639366 1237.80044,518.255166" id="Fill-195"></path>
                        <path d="M105.180089,120.306982 C105.180089,109.955602 113.387027,101.5344 123.494729,101.5344 C133.602431,101.5344 141.809368,109.955602 141.809368,120.306982 C141.809368,130.674773 133.602431,139.046746 123.494729,139.046746 C113.387027,139.046746 105.180089,130.674773 105.180089,120.306982" id="Fill-202"></path>
                        <path d="M614.894392,421.819024 C614.894392,411.500462 623.087309,403.0608 633.194009,403.0608 C643.333758,403.0608 651.507647,411.500462 651.507647,421.819024 C651.507647,432.203224 643.333758,440.60699 633.194009,440.60699 C623.087309,440.60699 614.894392,432.203224 614.894392,421.819024" id="Fill-199"></path>
                    </g>
                </g>
            </g>
        </g>
    </g>
</svg>